%TF.GenerationSoftware,KiCad,Pcbnew,(5.1.7)-1*%
%TF.CreationDate,2021-12-30T09:14:42+05:30*%
%TF.ProjectId,Bluetooth4Channel,426c7565-746f-46f7-9468-344368616e6e,rev?*%
%TF.SameCoordinates,Original*%
%TF.FileFunction,Paste,Top*%
%TF.FilePolarity,Positive*%
%FSLAX46Y46*%
G04 Gerber Fmt 4.6, Leading zero omitted, Abs format (unit mm)*
G04 Created by KiCad (PCBNEW (5.1.7)-1) date 2021-12-30 09:14:42*
%MOMM*%
%LPD*%
G01*
G04 APERTURE LIST*
%TA.AperFunction,Profile*%
%ADD10C,0.050000*%
%TD*%
%ADD11R,1.800000X3.500000*%
%ADD12R,2.000000X1.700000*%
%ADD13R,3.500000X1.800000*%
%ADD14R,1.900000X0.800000*%
G04 APERTURE END LIST*
D10*
X20000000Y-40000000D02*
X90000000Y-40000000D01*
X20000000Y-40000000D02*
X20000000Y-125000000D01*
X90000000Y-125000000D02*
X90000000Y-40000000D01*
X20000000Y-125000000D02*
X90000000Y-125000000D01*
D11*
%TO.C,D2*%
X51000000Y-58250000D03*
X51000000Y-53250000D03*
%TD*%
D12*
%TO.C,C1*%
X70000000Y-48250000D03*
X66000000Y-48250000D03*
%TD*%
D13*
%TO.C,D1*%
X28500000Y-78000000D03*
X33500000Y-78000000D03*
%TD*%
%TO.C,D3*%
X50166666Y-78000000D03*
X45166666Y-78000000D03*
%TD*%
%TO.C,D4*%
X66833332Y-78000000D03*
X61833332Y-78000000D03*
%TD*%
%TO.C,D5*%
X78500000Y-78000000D03*
X83500000Y-78000000D03*
%TD*%
D12*
%TO.C,R1*%
X34500000Y-74500000D03*
X38500000Y-74500000D03*
%TD*%
%TO.C,R2*%
X54750000Y-74000000D03*
X50750000Y-74000000D03*
%TD*%
%TO.C,R3*%
X72000000Y-74250000D03*
X68000000Y-74250000D03*
%TD*%
%TO.C,R4*%
X84250000Y-74250000D03*
X88250000Y-74250000D03*
%TD*%
%TO.C,R5*%
X75500000Y-45500000D03*
X79500000Y-45500000D03*
%TD*%
%TO.C,R6*%
X32500000Y-68000000D03*
X28500000Y-68000000D03*
%TD*%
%TO.C,R7*%
X32500000Y-62187500D03*
X28500000Y-62187500D03*
%TD*%
%TO.C,R8*%
X28500000Y-56375000D03*
X32500000Y-56375000D03*
%TD*%
%TO.C,R9*%
X28500000Y-50562500D03*
X32500000Y-50562500D03*
%TD*%
%TO.C,R10*%
X28500000Y-44750000D03*
X32500000Y-44750000D03*
%TD*%
D14*
%TO.C,Q1*%
X30750000Y-74700000D03*
X30750000Y-72800000D03*
X27750000Y-73750000D03*
%TD*%
%TO.C,Q2*%
X44250000Y-73250000D03*
X47250000Y-72300000D03*
X47250000Y-74200000D03*
%TD*%
%TO.C,Q3*%
X64250000Y-74700000D03*
X64250000Y-72800000D03*
X61250000Y-73750000D03*
%TD*%
%TO.C,Q4*%
X78000000Y-73750000D03*
X81000000Y-72800000D03*
X81000000Y-74700000D03*
%TD*%
M02*
