M48
; DRILL file {KiCad (5.1.7)-1} date 12/30/21 09:14:46
; FORMAT={-:-/ absolute / inch / decimal}
; #@! TF.CreationDate,2021-12-30T09:14:46+05:30
; #@! TF.GenerationSoftware,Kicad,Pcbnew,(5.1.7)-1
FMAT,2
INCH
T1C0.0276
T2C0.0315
T3C0.0354
T4C0.0394
T5C0.0433
T6C0.0512
T7C0.0598
T8C0.1457
%
G90
G05
T1
X1.3976Y-2.7854
X1.4075Y-1.6634
X1.4173Y-1.9783
X1.6043Y-2.5098
X1.7815Y-1.6929
X1.9783Y-1.6929
X2.0079Y-2.4606
X2.1654Y-1.9094
X2.1654Y-2.126
X2.2835Y-2.9528
X2.313Y-2.1752
X2.4606Y-2.1752
X2.8051Y-2.815
X2.9528Y-2.8839
X3.1791Y-2.7559
X3.435Y-1.6831
X3.435Y-1.8602
X3.435Y-2.6476
X3.4449Y-2.7854
T2
X3.0709Y-2.5787
X3.0709Y-2.6772
X2.3102Y-2.0276
X2.3102Y-2.3276
X2.4102Y-2.0276
X2.4102Y-2.3276
X2.5102Y-2.0276
X2.5102Y-2.3276
X2.6102Y-2.0276
X2.6102Y-2.3276
X2.7102Y-2.0276
X2.7102Y-2.3276
X2.8102Y-2.0276
X2.8102Y-2.3276
X2.9102Y-2.0276
X2.9102Y-2.3276
X3.0102Y-2.0276
X3.0102Y-2.3276
X3.1102Y-2.0276
X3.1102Y-2.3276
X2.4409Y-2.5886
X2.4409Y-2.687
X2.6575Y-2.6378
X2.8504Y-2.6378
X1.8799Y-1.8307
X1.9783Y-1.8307
T3
X0.9252Y-1.7717
X0.9252Y-1.8717
X0.9252Y-2.0005
X0.9252Y-2.1005
X0.9252Y-2.2293
X0.9252Y-2.3293
X0.9252Y-2.687
X0.9252Y-2.787
X0.9252Y-2.4582
X0.9252Y-2.5582
T4
X2.3012Y-3.3248
X2.7736Y-3.3248
X1.6516Y-3.3248
X2.124Y-3.3248
X2.3228Y-1.7717
X2.4228Y-1.7717
X2.5228Y-1.7717
X2.6228Y-1.7717
X2.7228Y-1.7717
X2.8228Y-1.7717
X0.9823Y-3.3248
X1.4547Y-3.3248
X1.5339Y-1.7421
X1.6339Y-1.7421
X3.4252Y-2.0276
X3.4252Y-2.1276
X3.4252Y-2.2276
X3.4252Y-2.3276
X3.4252Y-2.4276
X2.9508Y-3.3248
X3.4232Y-3.3248
T5
X1.8012Y-2.1031
X1.8012Y-2.2031
X1.8012Y-2.3031
T6
X0.9823Y-3.8051
X1.2205Y-3.248
X1.4567Y-3.8071
X2.9508Y-3.8051
X3.189Y-3.248
X3.4252Y-3.8071
X2.3012Y-3.8051
X2.5394Y-3.248
X2.7756Y-3.8071
X1.6516Y-3.8051
X1.8898Y-3.248
X2.126Y-3.8071
T7
X2.5837Y-4.7146
X2.7837Y-4.7146
X3.1004Y-4.7146
X3.3004Y-4.7146
X1.5502Y-4.7146
X1.7502Y-4.7146
X1.0335Y-4.7146
X1.2335Y-4.7146
X2.0669Y-4.7146
X2.2669Y-4.7146
T8
X1.0827Y-4.2323
X3.248Y-4.2323
T0
M30
