%TF.GenerationSoftware,KiCad,Pcbnew,(5.1.7)-1*%
%TF.CreationDate,2021-12-30T09:14:42+05:30*%
%TF.ProjectId,Bluetooth4Channel,426c7565-746f-46f7-9468-344368616e6e,rev?*%
%TF.SameCoordinates,Original*%
%TF.FileFunction,Soldermask,Bot*%
%TF.FilePolarity,Negative*%
%FSLAX46Y46*%
G04 Gerber Fmt 4.6, Leading zero omitted, Abs format (unit mm)*
G04 Created by KiCad (PCBNEW (5.1.7)-1) date 2021-12-30 09:14:42*
%MOMM*%
%LPD*%
G01*
G04 APERTURE LIST*
%TA.AperFunction,Profile*%
%ADD10C,0.050000*%
%TD*%
%ADD11R,3.000000X3.000000*%
%ADD12C,3.000000*%
%ADD13R,2.000000X1.905000*%
%ADD14O,2.000000X1.905000*%
%ADD15C,3.700000*%
%ADD16R,1.600000X1.600000*%
%ADD17C,1.600000*%
%ADD18R,1.800000X1.800000*%
%ADD19C,1.800000*%
%ADD20R,1.700000X1.700000*%
%ADD21O,1.700000X1.700000*%
%ADD22C,2.500000*%
%ADD23R,1.600000X2.400000*%
%ADD24O,1.600000X2.400000*%
%ADD25C,1.500000*%
G04 APERTURE END LIST*
D10*
X20000000Y-40000000D02*
X90000000Y-40000000D01*
X20000000Y-40000000D02*
X20000000Y-125000000D01*
X90000000Y-125000000D02*
X90000000Y-40000000D01*
X20000000Y-125000000D02*
X90000000Y-125000000D01*
D11*
%TO.C,J5*%
X39375000Y-119750000D03*
D12*
X44455000Y-119750000D03*
%TD*%
D13*
%TO.C,U1*%
X45750000Y-58500000D03*
D14*
X45750000Y-55960000D03*
X45750000Y-53420000D03*
%TD*%
D15*
%TO.C,REF\u002A\u002A*%
X27500000Y-107500000D03*
%TD*%
%TO.C,REF\u002A\u002A*%
X82500000Y-107500000D03*
%TD*%
D16*
%TO.C,C2*%
X50250000Y-46500000D03*
D17*
X47750000Y-46500000D03*
%TD*%
%TO.C,C3*%
X62000000Y-68250000D03*
X62000000Y-65750000D03*
%TD*%
%TO.C,C4*%
X78000000Y-65500000D03*
X78000000Y-68000000D03*
%TD*%
D18*
%TO.C,D6*%
X23500000Y-68250000D03*
D19*
X23500000Y-70790000D03*
%TD*%
D18*
%TO.C,D7*%
X23500000Y-62437500D03*
D19*
X23500000Y-64977500D03*
%TD*%
%TO.C,D8*%
X23500000Y-59165000D03*
D18*
X23500000Y-56625000D03*
%TD*%
D19*
%TO.C,D9*%
X23500000Y-53352500D03*
D18*
X23500000Y-50812500D03*
%TD*%
D20*
%TO.C,J1*%
X41500000Y-44250000D03*
D21*
X38960000Y-44250000D03*
%TD*%
D20*
%TO.C,J2*%
X59000000Y-45000000D03*
D21*
X61540000Y-45000000D03*
X64080000Y-45000000D03*
X66620000Y-45000000D03*
X69160000Y-45000000D03*
X71700000Y-45000000D03*
%TD*%
D12*
%TO.C,J6*%
X57580000Y-119750000D03*
D11*
X52500000Y-119750000D03*
%TD*%
%TO.C,J7*%
X65625000Y-119750000D03*
D12*
X70705000Y-119750000D03*
%TD*%
%TO.C,J8*%
X83830000Y-119750000D03*
D11*
X78750000Y-119750000D03*
%TD*%
D22*
%TO.C,K1*%
X24950000Y-84450000D03*
D12*
X24950000Y-96650000D03*
X37000000Y-96700000D03*
D22*
X36950000Y-84450000D03*
D12*
X31000000Y-82500000D03*
%TD*%
%TO.C,K2*%
X48000000Y-82500000D03*
D22*
X53950000Y-84450000D03*
D12*
X54000000Y-96700000D03*
X41950000Y-96650000D03*
D22*
X41950000Y-84450000D03*
%TD*%
D12*
%TO.C,K3*%
X64500000Y-82500000D03*
D22*
X70450000Y-84450000D03*
D12*
X70500000Y-96700000D03*
X58450000Y-96650000D03*
D22*
X58450000Y-84450000D03*
%TD*%
%TO.C,K4*%
X74950000Y-84450000D03*
D12*
X74950000Y-96650000D03*
X87000000Y-96700000D03*
D22*
X86950000Y-84450000D03*
D12*
X81000000Y-82500000D03*
%TD*%
D23*
%TO.C,U2*%
X79000000Y-51500000D03*
D24*
X58680000Y-59120000D03*
X76460000Y-51500000D03*
X61220000Y-59120000D03*
X73920000Y-51500000D03*
X63760000Y-59120000D03*
X71380000Y-51500000D03*
X66300000Y-59120000D03*
X68840000Y-51500000D03*
X68840000Y-59120000D03*
X66300000Y-51500000D03*
X71380000Y-59120000D03*
X63760000Y-51500000D03*
X73920000Y-59120000D03*
X61220000Y-51500000D03*
X76460000Y-59120000D03*
X58680000Y-51500000D03*
X79000000Y-59120000D03*
%TD*%
D25*
%TO.C,Y1*%
X67500000Y-67000000D03*
X72400000Y-67000000D03*
%TD*%
D18*
%TO.C,D10*%
X23500000Y-45000000D03*
D19*
X23500000Y-47540000D03*
%TD*%
D11*
%TO.C,J9*%
X26250000Y-119750000D03*
D12*
X31330000Y-119750000D03*
%TD*%
D20*
%TO.C,J3*%
X87000000Y-51500000D03*
D21*
X87000000Y-54040000D03*
X87000000Y-56580000D03*
X87000000Y-59120000D03*
X87000000Y-61660000D03*
%TD*%
M02*
