%TF.GenerationSoftware,KiCad,Pcbnew,(5.1.7)-1*%
%TF.CreationDate,2021-12-30T09:14:42+05:30*%
%TF.ProjectId,Bluetooth4Channel,426c7565-746f-46f7-9468-344368616e6e,rev?*%
%TF.SameCoordinates,Original*%
%TF.FileFunction,Copper,L1,Top*%
%TF.FilePolarity,Positive*%
%FSLAX46Y46*%
G04 Gerber Fmt 4.6, Leading zero omitted, Abs format (unit mm)*
G04 Created by KiCad (PCBNEW (5.1.7)-1) date 2021-12-30 09:14:42*
%MOMM*%
%LPD*%
G01*
G04 APERTURE LIST*
%TA.AperFunction,NonConductor*%
%ADD10C,0.300000*%
%TD*%
%TA.AperFunction,Profile*%
%ADD11C,0.050000*%
%TD*%
%TA.AperFunction,ComponentPad*%
%ADD12R,3.000000X3.000000*%
%TD*%
%TA.AperFunction,ComponentPad*%
%ADD13C,3.000000*%
%TD*%
%TA.AperFunction,ComponentPad*%
%ADD14R,2.000000X1.905000*%
%TD*%
%TA.AperFunction,ComponentPad*%
%ADD15O,2.000000X1.905000*%
%TD*%
%TA.AperFunction,SMDPad,CuDef*%
%ADD16R,1.800000X3.500000*%
%TD*%
%TA.AperFunction,SMDPad,CuDef*%
%ADD17R,2.000000X1.700000*%
%TD*%
%TA.AperFunction,ComponentPad*%
%ADD18R,1.600000X1.600000*%
%TD*%
%TA.AperFunction,ComponentPad*%
%ADD19C,1.600000*%
%TD*%
%TA.AperFunction,SMDPad,CuDef*%
%ADD20R,3.500000X1.800000*%
%TD*%
%TA.AperFunction,ComponentPad*%
%ADD21R,1.800000X1.800000*%
%TD*%
%TA.AperFunction,ComponentPad*%
%ADD22C,1.800000*%
%TD*%
%TA.AperFunction,ComponentPad*%
%ADD23R,1.700000X1.700000*%
%TD*%
%TA.AperFunction,ComponentPad*%
%ADD24O,1.700000X1.700000*%
%TD*%
%TA.AperFunction,ComponentPad*%
%ADD25C,2.500000*%
%TD*%
%TA.AperFunction,ComponentPad*%
%ADD26R,1.600000X2.400000*%
%TD*%
%TA.AperFunction,ComponentPad*%
%ADD27O,1.600000X2.400000*%
%TD*%
%TA.AperFunction,ComponentPad*%
%ADD28C,1.500000*%
%TD*%
%TA.AperFunction,SMDPad,CuDef*%
%ADD29R,1.900000X0.800000*%
%TD*%
%TA.AperFunction,ViaPad*%
%ADD30C,1.600000*%
%TD*%
%TA.AperFunction,Conductor*%
%ADD31C,0.800000*%
%TD*%
%TA.AperFunction,Conductor*%
%ADD32C,1.000000*%
%TD*%
%TA.AperFunction,Conductor*%
%ADD33C,0.400000*%
%TD*%
%TA.AperFunction,Conductor*%
%ADD34C,3.000000*%
%TD*%
%TA.AperFunction,Conductor*%
%ADD35C,0.254000*%
%TD*%
%TA.AperFunction,Conductor*%
%ADD36C,0.100000*%
%TD*%
G04 APERTURE END LIST*
D10*
X21392857Y-81392857D02*
X21464285Y-81178571D01*
X21535714Y-81107142D01*
X21678571Y-81035714D01*
X21892857Y-81035714D01*
X22035714Y-81107142D01*
X22107142Y-81178571D01*
X22178571Y-81321428D01*
X22178571Y-81892857D01*
X20678571Y-81892857D01*
X20678571Y-81392857D01*
X20750000Y-81250000D01*
X20821428Y-81178571D01*
X20964285Y-81107142D01*
X21107142Y-81107142D01*
X21250000Y-81178571D01*
X21321428Y-81250000D01*
X21392857Y-81392857D01*
X21392857Y-81892857D01*
X20678571Y-80607142D02*
X20678571Y-79750000D01*
X22178571Y-80178571D02*
X20678571Y-80178571D01*
X20678571Y-78964285D02*
X20678571Y-78821428D01*
X20750000Y-78678571D01*
X20821428Y-78607142D01*
X20964285Y-78535714D01*
X21250000Y-78464285D01*
X21607142Y-78464285D01*
X21892857Y-78535714D01*
X22035714Y-78607142D01*
X22107142Y-78678571D01*
X22178571Y-78821428D01*
X22178571Y-78964285D01*
X22107142Y-79107142D01*
X22035714Y-79178571D01*
X21892857Y-79250000D01*
X21607142Y-79321428D01*
X21250000Y-79321428D01*
X20964285Y-79250000D01*
X20821428Y-79178571D01*
X20750000Y-79107142D01*
X20678571Y-78964285D01*
X21178571Y-77178571D02*
X22178571Y-77178571D01*
X20607142Y-77535714D02*
X21678571Y-77892857D01*
X21678571Y-76964285D01*
X20678571Y-92035714D02*
X20678571Y-91178571D01*
X22178571Y-91607142D02*
X20678571Y-91607142D01*
X22178571Y-90464285D02*
X22107142Y-90607142D01*
X22035714Y-90678571D01*
X21892857Y-90750000D01*
X21464285Y-90750000D01*
X21321428Y-90678571D01*
X21250000Y-90607142D01*
X21178571Y-90464285D01*
X21178571Y-90250000D01*
X21250000Y-90107142D01*
X21321428Y-90035714D01*
X21464285Y-89964285D01*
X21892857Y-89964285D01*
X22035714Y-90035714D01*
X22107142Y-90107142D01*
X22178571Y-90250000D01*
X22178571Y-90464285D01*
X21178571Y-89321428D02*
X22678571Y-89321428D01*
X21250000Y-89321428D02*
X21178571Y-89178571D01*
X21178571Y-88892857D01*
X21250000Y-88750000D01*
X21321428Y-88678571D01*
X21464285Y-88607142D01*
X21892857Y-88607142D01*
X22035714Y-88678571D01*
X22107142Y-88750000D01*
X22178571Y-88892857D01*
X22178571Y-89178571D01*
X22107142Y-89321428D01*
D11*
X20000000Y-40000000D02*
X90000000Y-40000000D01*
X20000000Y-40000000D02*
X20000000Y-125000000D01*
X90000000Y-125000000D02*
X90000000Y-40000000D01*
X20000000Y-125000000D02*
X90000000Y-125000000D01*
D12*
%TO.P,J5,1*%
%TO.N,Net-(J5-Pad1)*%
X39375000Y-119750000D03*
D13*
%TO.P,J5,2*%
%TO.N,Net-(J5-Pad2)*%
X44455000Y-119750000D03*
%TD*%
D14*
%TO.P,U1,1*%
%TO.N,+12v*%
X45750000Y-58500000D03*
D15*
%TO.P,U1,2*%
%TO.N,GND*%
X45750000Y-55960000D03*
%TO.P,U1,3*%
%TO.N,+5v*%
X45750000Y-53420000D03*
%TD*%
D16*
%TO.P,D2,1*%
%TO.N,+12v*%
X51000000Y-58250000D03*
%TO.P,D2,2*%
%TO.N,+5v*%
X51000000Y-53250000D03*
%TD*%
D17*
%TO.P,C1,2*%
%TO.N,+5v*%
X70000000Y-48250000D03*
%TO.P,C1,1*%
%TO.N,GND*%
X66000000Y-48250000D03*
%TD*%
D18*
%TO.P,C2,1*%
%TO.N,+5v*%
X50250000Y-46500000D03*
D19*
%TO.P,C2,2*%
%TO.N,GND*%
X47750000Y-46500000D03*
%TD*%
%TO.P,C3,1*%
%TO.N,GND*%
X62000000Y-68250000D03*
%TO.P,C3,2*%
%TO.N,Net-(C3-Pad2)*%
X62000000Y-65750000D03*
%TD*%
%TO.P,C4,2*%
%TO.N,Net-(C4-Pad2)*%
X78000000Y-65500000D03*
%TO.P,C4,1*%
%TO.N,GND*%
X78000000Y-68000000D03*
%TD*%
D20*
%TO.P,D1,2*%
%TO.N,Net-(D1-Pad2)*%
X28500000Y-78000000D03*
%TO.P,D1,1*%
%TO.N,+12v*%
X33500000Y-78000000D03*
%TD*%
%TO.P,D3,1*%
%TO.N,+12v*%
X50166666Y-78000000D03*
%TO.P,D3,2*%
%TO.N,Net-(D3-Pad2)*%
X45166666Y-78000000D03*
%TD*%
%TO.P,D4,1*%
%TO.N,+12v*%
X66833332Y-78000000D03*
%TO.P,D4,2*%
%TO.N,Net-(D4-Pad2)*%
X61833332Y-78000000D03*
%TD*%
%TO.P,D5,2*%
%TO.N,Net-(D5-Pad2)*%
X78500000Y-78000000D03*
%TO.P,D5,1*%
%TO.N,+12v*%
X83500000Y-78000000D03*
%TD*%
D21*
%TO.P,D6,1*%
%TO.N,Net-(D6-Pad1)*%
X23500000Y-68250000D03*
D22*
%TO.P,D6,2*%
%TO.N,+12v*%
X23500000Y-70790000D03*
%TD*%
D21*
%TO.P,D7,1*%
%TO.N,Net-(D7-Pad1)*%
X23500000Y-62437500D03*
D22*
%TO.P,D7,2*%
%TO.N,+12v*%
X23500000Y-64977500D03*
%TD*%
%TO.P,D8,2*%
%TO.N,+12v*%
X23500000Y-59165000D03*
D21*
%TO.P,D8,1*%
%TO.N,Net-(D8-Pad1)*%
X23500000Y-56625000D03*
%TD*%
D22*
%TO.P,D9,2*%
%TO.N,+12v*%
X23500000Y-53352500D03*
D21*
%TO.P,D9,1*%
%TO.N,Net-(D9-Pad1)*%
X23500000Y-50812500D03*
%TD*%
D23*
%TO.P,J1,1*%
%TO.N,GND*%
X41500000Y-44250000D03*
D24*
%TO.P,J1,2*%
%TO.N,+12v*%
X38960000Y-44250000D03*
%TD*%
D23*
%TO.P,J2,1*%
%TO.N,Net-(J2-Pad1)*%
X59000000Y-45000000D03*
D24*
%TO.P,J2,2*%
%TO.N,rx*%
X61540000Y-45000000D03*
%TO.P,J2,3*%
%TO.N,tx*%
X64080000Y-45000000D03*
%TO.P,J2,4*%
%TO.N,GND*%
X66620000Y-45000000D03*
%TO.P,J2,5*%
%TO.N,+5v*%
X69160000Y-45000000D03*
%TO.P,J2,6*%
%TO.N,Net-(J2-Pad6)*%
X71700000Y-45000000D03*
%TD*%
D13*
%TO.P,J6,2*%
%TO.N,Net-(J6-Pad2)*%
X57580000Y-119750000D03*
D12*
%TO.P,J6,1*%
%TO.N,Net-(J6-Pad1)*%
X52500000Y-119750000D03*
%TD*%
%TO.P,J7,1*%
%TO.N,Net-(J7-Pad1)*%
X65625000Y-119750000D03*
D13*
%TO.P,J7,2*%
%TO.N,Net-(J7-Pad2)*%
X70705000Y-119750000D03*
%TD*%
%TO.P,J8,2*%
%TO.N,Net-(J8-Pad2)*%
X83830000Y-119750000D03*
D12*
%TO.P,J8,1*%
%TO.N,Net-(J8-Pad1)*%
X78750000Y-119750000D03*
%TD*%
D25*
%TO.P,K1,2*%
%TO.N,Net-(D1-Pad2)*%
X24950000Y-84450000D03*
D13*
%TO.P,K1,3*%
%TO.N,Net-(J5-Pad1)*%
X24950000Y-96650000D03*
%TO.P,K1,4*%
%TO.N,Net-(K1-Pad4)*%
X37000000Y-96700000D03*
D25*
%TO.P,K1,5*%
%TO.N,+12v*%
X36950000Y-84450000D03*
D13*
%TO.P,K1,1*%
%TO.N,Net-(J5-Pad2)*%
X31000000Y-82500000D03*
%TD*%
%TO.P,K2,1*%
%TO.N,Net-(J6-Pad2)*%
X48000000Y-82500000D03*
D25*
%TO.P,K2,5*%
%TO.N,+12v*%
X53950000Y-84450000D03*
D13*
%TO.P,K2,4*%
%TO.N,Net-(K2-Pad4)*%
X54000000Y-96700000D03*
%TO.P,K2,3*%
%TO.N,Net-(J6-Pad1)*%
X41950000Y-96650000D03*
D25*
%TO.P,K2,2*%
%TO.N,Net-(D3-Pad2)*%
X41950000Y-84450000D03*
%TD*%
D13*
%TO.P,K3,1*%
%TO.N,Net-(J7-Pad2)*%
X64500000Y-82500000D03*
D25*
%TO.P,K3,5*%
%TO.N,+12v*%
X70450000Y-84450000D03*
D13*
%TO.P,K3,4*%
%TO.N,Net-(K3-Pad4)*%
X70500000Y-96700000D03*
%TO.P,K3,3*%
%TO.N,Net-(J7-Pad1)*%
X58450000Y-96650000D03*
D25*
%TO.P,K3,2*%
%TO.N,Net-(D4-Pad2)*%
X58450000Y-84450000D03*
%TD*%
%TO.P,K4,2*%
%TO.N,Net-(D5-Pad2)*%
X74950000Y-84450000D03*
D13*
%TO.P,K4,3*%
%TO.N,Net-(J8-Pad1)*%
X74950000Y-96650000D03*
%TO.P,K4,4*%
%TO.N,Net-(K4-Pad4)*%
X87000000Y-96700000D03*
D25*
%TO.P,K4,5*%
%TO.N,+12v*%
X86950000Y-84450000D03*
D13*
%TO.P,K4,1*%
%TO.N,Net-(J8-Pad2)*%
X81000000Y-82500000D03*
%TD*%
D17*
%TO.P,R1,1*%
%TO.N,Net-(Q1-Pad1)*%
X34500000Y-74500000D03*
%TO.P,R1,2*%
%TO.N,A*%
X38500000Y-74500000D03*
%TD*%
%TO.P,R2,2*%
%TO.N,B*%
X54750000Y-74000000D03*
%TO.P,R2,1*%
%TO.N,Net-(Q2-Pad1)*%
X50750000Y-74000000D03*
%TD*%
%TO.P,R3,2*%
%TO.N,C*%
X72000000Y-74250000D03*
%TO.P,R3,1*%
%TO.N,Net-(Q3-Pad1)*%
X68000000Y-74250000D03*
%TD*%
%TO.P,R4,1*%
%TO.N,Net-(Q4-Pad1)*%
X84250000Y-74250000D03*
%TO.P,R4,2*%
%TO.N,D*%
X88250000Y-74250000D03*
%TD*%
%TO.P,R5,1*%
%TO.N,+5v*%
X75500000Y-45500000D03*
%TO.P,R5,2*%
%TO.N,Net-(R5-Pad2)*%
X79500000Y-45500000D03*
%TD*%
%TO.P,R6,1*%
%TO.N,Net-(D1-Pad2)*%
X32500000Y-68000000D03*
%TO.P,R6,2*%
%TO.N,Net-(D6-Pad1)*%
X28500000Y-68000000D03*
%TD*%
%TO.P,R7,1*%
%TO.N,Net-(D3-Pad2)*%
X32500000Y-62187500D03*
%TO.P,R7,2*%
%TO.N,Net-(D7-Pad1)*%
X28500000Y-62187500D03*
%TD*%
%TO.P,R8,2*%
%TO.N,Net-(D8-Pad1)*%
X28500000Y-56375000D03*
%TO.P,R8,1*%
%TO.N,Net-(D4-Pad2)*%
X32500000Y-56375000D03*
%TD*%
%TO.P,R9,2*%
%TO.N,Net-(D9-Pad1)*%
X28500000Y-50562500D03*
%TO.P,R9,1*%
%TO.N,Net-(D5-Pad2)*%
X32500000Y-50562500D03*
%TD*%
D26*
%TO.P,U2,1*%
%TO.N,IP1*%
X79000000Y-51500000D03*
D27*
%TO.P,U2,10*%
%TO.N,A*%
X58680000Y-59120000D03*
%TO.P,U2,2*%
%TO.N,IP2*%
X76460000Y-51500000D03*
%TO.P,U2,11*%
%TO.N,B*%
X61220000Y-59120000D03*
%TO.P,U2,3*%
%TO.N,Net-(U2-Pad3)*%
X73920000Y-51500000D03*
%TO.P,U2,12*%
%TO.N,C*%
X63760000Y-59120000D03*
%TO.P,U2,4*%
%TO.N,Net-(R5-Pad2)*%
X71380000Y-51500000D03*
%TO.P,U2,13*%
%TO.N,D*%
X66300000Y-59120000D03*
%TO.P,U2,5*%
%TO.N,GND*%
X68840000Y-51500000D03*
%TO.P,U2,14*%
%TO.N,+5v*%
X68840000Y-59120000D03*
%TO.P,U2,6*%
%TO.N,Net-(U2-Pad6)*%
X66300000Y-51500000D03*
%TO.P,U2,15*%
%TO.N,Net-(C3-Pad2)*%
X71380000Y-59120000D03*
%TO.P,U2,7*%
%TO.N,tx*%
X63760000Y-51500000D03*
%TO.P,U2,16*%
%TO.N,Net-(C4-Pad2)*%
X73920000Y-59120000D03*
%TO.P,U2,8*%
%TO.N,rx*%
X61220000Y-51500000D03*
%TO.P,U2,17*%
%TO.N,IP3*%
X76460000Y-59120000D03*
%TO.P,U2,9*%
%TO.N,Net-(U2-Pad9)*%
X58680000Y-51500000D03*
%TO.P,U2,18*%
%TO.N,IP4*%
X79000000Y-59120000D03*
%TD*%
D28*
%TO.P,Y1,1*%
%TO.N,Net-(C3-Pad2)*%
X67500000Y-67000000D03*
%TO.P,Y1,2*%
%TO.N,Net-(C4-Pad2)*%
X72400000Y-67000000D03*
%TD*%
D21*
%TO.P,D10,1*%
%TO.N,Net-(D10-Pad1)*%
X23500000Y-45000000D03*
D22*
%TO.P,D10,2*%
%TO.N,+5v*%
X23500000Y-47540000D03*
%TD*%
D17*
%TO.P,R10,2*%
%TO.N,Net-(D10-Pad1)*%
X28500000Y-44750000D03*
%TO.P,R10,1*%
%TO.N,GND*%
X32500000Y-44750000D03*
%TD*%
D12*
%TO.P,J9,1*%
%TO.N,Net-(J9-Pad1)*%
X26250000Y-119750000D03*
D13*
%TO.P,J9,2*%
%TO.N,Net-(J9-Pad2)*%
X31330000Y-119750000D03*
%TD*%
D29*
%TO.P,Q1,1*%
%TO.N,Net-(Q1-Pad1)*%
X30750000Y-74700000D03*
%TO.P,Q1,2*%
%TO.N,GND*%
X30750000Y-72800000D03*
%TO.P,Q1,3*%
%TO.N,Net-(D1-Pad2)*%
X27750000Y-73750000D03*
%TD*%
%TO.P,Q2,3*%
%TO.N,Net-(D3-Pad2)*%
X44250000Y-73250000D03*
%TO.P,Q2,2*%
%TO.N,GND*%
X47250000Y-72300000D03*
%TO.P,Q2,1*%
%TO.N,Net-(Q2-Pad1)*%
X47250000Y-74200000D03*
%TD*%
%TO.P,Q3,1*%
%TO.N,Net-(Q3-Pad1)*%
X64250000Y-74700000D03*
%TO.P,Q3,2*%
%TO.N,GND*%
X64250000Y-72800000D03*
%TO.P,Q3,3*%
%TO.N,Net-(D4-Pad2)*%
X61250000Y-73750000D03*
%TD*%
%TO.P,Q4,3*%
%TO.N,Net-(D5-Pad2)*%
X78000000Y-73750000D03*
%TO.P,Q4,2*%
%TO.N,GND*%
X81000000Y-72800000D03*
%TO.P,Q4,1*%
%TO.N,Net-(Q4-Pad1)*%
X81000000Y-74700000D03*
%TD*%
D23*
%TO.P,J3,1*%
%TO.N,IP1*%
X87000000Y-51500000D03*
D24*
%TO.P,J3,2*%
%TO.N,IP2*%
X87000000Y-54040000D03*
%TO.P,J3,3*%
%TO.N,IP3*%
X87000000Y-56580000D03*
%TO.P,J3,4*%
%TO.N,IP4*%
X87000000Y-59120000D03*
%TO.P,J3,5*%
%TO.N,GND*%
X87000000Y-61660000D03*
%TD*%
D30*
%TO.N,GND*%
X71250000Y-71500000D03*
X40750000Y-63750000D03*
X62500000Y-55250000D03*
X58750000Y-55250000D03*
X55000000Y-48500000D03*
X55000000Y-54000000D03*
X87250000Y-42750000D03*
X87250000Y-47250000D03*
X45250000Y-43000000D03*
X50250000Y-43000000D03*
X35750000Y-42250000D03*
X80750000Y-70000000D03*
X87250000Y-67250000D03*
%TO.N,Net-(D5-Pad2)*%
X36000000Y-50250000D03*
X51000000Y-62500000D03*
%TO.N,A*%
X35500000Y-70750000D03*
%TO.N,B*%
X58000000Y-75000000D03*
%TO.N,C*%
X75000000Y-73250000D03*
%TO.N,D*%
X87500000Y-70750000D03*
%TD*%
D31*
%TO.N,+5v*%
X75500000Y-45500000D02*
X75500000Y-43250000D01*
X75500000Y-43250000D02*
X74000000Y-41750000D01*
X74000000Y-41750000D02*
X71000000Y-41750000D01*
X50250000Y-46500000D02*
X51500000Y-46500000D01*
X51500000Y-46500000D02*
X56250000Y-41750000D01*
X56250000Y-41750000D02*
X67320000Y-41750000D01*
X68285000Y-42715000D02*
X69965000Y-42715000D01*
X71000000Y-41750000D02*
X70000000Y-42750000D01*
X69965000Y-42715000D02*
X70000000Y-42750000D01*
X67320000Y-41750000D02*
X68285000Y-42715000D01*
X50830000Y-53420000D02*
X51000000Y-53250000D01*
X45750000Y-53420000D02*
X50830000Y-53420000D01*
X50250000Y-46500000D02*
X50250000Y-50000000D01*
X51000000Y-50750000D02*
X51000000Y-53250000D01*
X50250000Y-50000000D02*
X51000000Y-50750000D01*
X69160000Y-45000000D02*
X69160000Y-46410000D01*
X70000000Y-47250000D02*
X70000000Y-48250000D01*
X69160000Y-46410000D02*
X70000000Y-47250000D01*
X69160000Y-43520000D02*
X69965000Y-42715000D01*
X69160000Y-45000000D02*
X69160000Y-43520000D01*
X68355000Y-42715000D02*
X69160000Y-43520000D01*
X68285000Y-42715000D02*
X68355000Y-42715000D01*
%TO.N,GND*%
X65550000Y-71500000D02*
X71250000Y-71500000D01*
X64250000Y-72800000D02*
X65550000Y-71500000D01*
X66000000Y-48250000D02*
X66000000Y-47000000D01*
X66620000Y-46380000D02*
X66620000Y-45000000D01*
X66000000Y-47000000D02*
X66620000Y-46380000D01*
%TO.N,Net-(C3-Pad2)*%
X71380000Y-59120000D02*
X71380000Y-61120000D01*
X67500000Y-65000000D02*
X67500000Y-67000000D01*
X71380000Y-61120000D02*
X67500000Y-65000000D01*
X62000000Y-65750000D02*
X64000000Y-65750000D01*
X65250000Y-67000000D02*
X67500000Y-67000000D01*
X64000000Y-65750000D02*
X65250000Y-67000000D01*
%TO.N,Net-(C4-Pad2)*%
X72400000Y-67000000D02*
X74250000Y-67000000D01*
X75750000Y-65500000D02*
X78000000Y-65500000D01*
X74250000Y-67000000D02*
X75750000Y-65500000D01*
X72400000Y-67000000D02*
X72400000Y-65100000D01*
X73920000Y-63580000D02*
X73920000Y-59120000D01*
X72400000Y-65100000D02*
X73920000Y-63580000D01*
%TO.N,Net-(D1-Pad2)*%
X27750000Y-77250000D02*
X28500000Y-78000000D01*
X27750000Y-73750000D02*
X27750000Y-77250000D01*
D32*
X24950000Y-81550000D02*
X28500000Y-78000000D01*
X24950000Y-84450000D02*
X24950000Y-81550000D01*
D31*
X32500000Y-68000000D02*
X32500000Y-69500000D01*
X32500000Y-69500000D02*
X31250000Y-70750000D01*
X31250000Y-70750000D02*
X29250000Y-70750000D01*
X27750000Y-72250000D02*
X27750000Y-73750000D01*
X29250000Y-70750000D02*
X27750000Y-72250000D01*
D32*
%TO.N,+12v*%
X33500000Y-78000000D02*
X35750000Y-78000000D01*
X36950000Y-79200000D02*
X36950000Y-84450000D01*
X35750000Y-78000000D02*
X36950000Y-79200000D01*
X50166666Y-78000000D02*
X52750000Y-78000000D01*
X53950000Y-79200000D02*
X53950000Y-84450000D01*
X52750000Y-78000000D02*
X53950000Y-79200000D01*
X66833332Y-78000000D02*
X69750000Y-78000000D01*
X70450000Y-78700000D02*
X70450000Y-84450000D01*
X69750000Y-78000000D02*
X70450000Y-78700000D01*
X83500000Y-78000000D02*
X86250000Y-78000000D01*
X86950000Y-78700000D02*
X86950000Y-84450000D01*
X86250000Y-78000000D02*
X86950000Y-78700000D01*
D31*
X45750000Y-58500000D02*
X50750000Y-58500000D01*
X50750000Y-58500000D02*
X51000000Y-58250000D01*
D32*
X38960000Y-44250000D02*
X38960000Y-50540000D01*
X36147500Y-53352500D02*
X23500000Y-53352500D01*
X38960000Y-50540000D02*
X38960000Y-50710000D01*
X45750000Y-58500000D02*
X42750000Y-58500000D01*
X41250000Y-57000000D02*
X41250000Y-53000000D01*
X42750000Y-58500000D02*
X41250000Y-57000000D01*
X37625000Y-51875000D02*
X39875000Y-51875000D01*
X40000000Y-51750000D02*
X41250000Y-53000000D01*
X39875000Y-51875000D02*
X40000000Y-51750000D01*
X38960000Y-50710000D02*
X40000000Y-51750000D01*
X38960000Y-50540000D02*
X37625000Y-51875000D01*
X37625000Y-51875000D02*
X36147500Y-53352500D01*
X23500000Y-53352500D02*
X21897500Y-53352500D01*
X21897500Y-53352500D02*
X21000000Y-54250000D01*
X21000000Y-54250000D02*
X21000000Y-58000000D01*
X22165000Y-59165000D02*
X23500000Y-59165000D01*
X21000000Y-58000000D02*
X22165000Y-59165000D01*
X23500000Y-59165000D02*
X22085000Y-59165000D01*
X22085000Y-59165000D02*
X21000000Y-60250000D01*
X21000000Y-60250000D02*
X21000000Y-64000000D01*
X21977500Y-64977500D02*
X23500000Y-64977500D01*
X21000000Y-64000000D02*
X21977500Y-64977500D01*
X21977500Y-64977500D02*
X21977500Y-65022500D01*
X21977500Y-65022500D02*
X21250000Y-65750000D01*
X21250000Y-65750000D02*
X21250000Y-69750000D01*
X22290000Y-70790000D02*
X23500000Y-70790000D01*
X21250000Y-69750000D02*
X22290000Y-70790000D01*
%TO.N,Net-(D3-Pad2)*%
X41950000Y-81216666D02*
X45166666Y-78000000D01*
X41950000Y-84450000D02*
X41950000Y-81216666D01*
D31*
X44250000Y-77083334D02*
X45166666Y-78000000D01*
X44250000Y-73250000D02*
X44250000Y-77083334D01*
X32500000Y-62187500D02*
X32500000Y-63000000D01*
X42750000Y-73250000D02*
X44250000Y-73250000D01*
X32500000Y-63000000D02*
X42750000Y-73250000D01*
D32*
%TO.N,Net-(D4-Pad2)*%
X58450000Y-81383332D02*
X61833332Y-78000000D01*
X58450000Y-84450000D02*
X58450000Y-81383332D01*
D31*
X61250000Y-77416668D02*
X61833332Y-78000000D01*
X61250000Y-73750000D02*
X61250000Y-77416668D01*
X32500000Y-56375000D02*
X32625000Y-56375000D01*
X32625000Y-56375000D02*
X38000000Y-61750000D01*
X38000000Y-61750000D02*
X38000000Y-64500000D01*
X38000000Y-64500000D02*
X43250000Y-69750000D01*
X43250000Y-69750000D02*
X52750000Y-69750000D01*
X52750000Y-69750000D02*
X53000000Y-69500000D01*
X57000000Y-69500000D02*
X61250000Y-73750000D01*
X53000000Y-69500000D02*
X57000000Y-69500000D01*
D32*
%TO.N,Net-(D5-Pad2)*%
X74950000Y-81550000D02*
X78500000Y-78000000D01*
X74950000Y-84450000D02*
X74950000Y-81550000D01*
D31*
X78000000Y-77500000D02*
X78500000Y-78000000D01*
X78000000Y-73750000D02*
X78000000Y-77500000D01*
X35687500Y-50562500D02*
X36000000Y-50250000D01*
X32500000Y-50562500D02*
X35687500Y-50562500D01*
X51000000Y-62500000D02*
X52750000Y-62500000D01*
X74149998Y-69899998D02*
X78000000Y-73750000D01*
X52750000Y-62500000D02*
X60149998Y-69899998D01*
X60149998Y-69899998D02*
X74149998Y-69899998D01*
D33*
%TO.N,Net-(D6-Pad1)*%
X28250000Y-68250000D02*
X28500000Y-68000000D01*
X23500000Y-68250000D02*
X28250000Y-68250000D01*
%TO.N,Net-(D7-Pad1)*%
X28250000Y-62437500D02*
X28500000Y-62187500D01*
X23500000Y-62437500D02*
X28250000Y-62437500D01*
%TO.N,Net-(D8-Pad1)*%
X28250000Y-56625000D02*
X28500000Y-56375000D01*
X23500000Y-56625000D02*
X28250000Y-56625000D01*
%TO.N,Net-(D9-Pad1)*%
X28250000Y-50812500D02*
X28500000Y-50562500D01*
X23500000Y-50812500D02*
X28250000Y-50812500D01*
D31*
%TO.N,rx*%
X61220000Y-45320000D02*
X61540000Y-45000000D01*
X61220000Y-51500000D02*
X61220000Y-45320000D01*
%TO.N,tx*%
X64080000Y-45000000D02*
X64080000Y-45920000D01*
X64080000Y-45920000D02*
X63250000Y-46750000D01*
X63250000Y-46750000D02*
X63250000Y-49500000D01*
X63760000Y-50010000D02*
X63760000Y-51500000D01*
X63250000Y-49500000D02*
X63760000Y-50010000D01*
%TO.N,IP1*%
X79000000Y-51500000D02*
X86500000Y-51500000D01*
%TO.N,IP2*%
X76460000Y-51500000D02*
X76460000Y-53710000D01*
X76460000Y-53710000D02*
X77250000Y-54500000D01*
X77250000Y-54500000D02*
X83750000Y-54500000D01*
X84210000Y-54040000D02*
X86500000Y-54040000D01*
X83750000Y-54500000D02*
X84210000Y-54040000D01*
D34*
%TO.N,Net-(J5-Pad1)*%
X24950000Y-96650000D02*
X22250000Y-99350000D01*
X22250000Y-99350000D02*
X22250000Y-111000000D01*
X22250000Y-111000000D02*
X24500000Y-113250000D01*
X34750000Y-113250000D02*
X39375000Y-117875000D01*
X24500000Y-113250000D02*
X34750000Y-113250000D01*
%TO.N,Net-(J5-Pad2)*%
X31000000Y-82500000D02*
X31000000Y-99250000D01*
X31000000Y-99250000D02*
X44955000Y-113205000D01*
X44955000Y-119250000D02*
X44455000Y-119750000D01*
X44955000Y-113205000D02*
X44955000Y-119250000D01*
%TO.N,Net-(J6-Pad2)*%
X48000000Y-82500000D02*
X48000000Y-99250000D01*
X48000000Y-99250000D02*
X58080000Y-109330000D01*
X58080000Y-119250000D02*
X57580000Y-119750000D01*
X58080000Y-109330000D02*
X58080000Y-119750000D01*
%TO.N,Net-(J6-Pad1)*%
X41950000Y-96650000D02*
X41950000Y-101950000D01*
X51000000Y-111000000D02*
X51000000Y-115000000D01*
X41950000Y-101950000D02*
X51000000Y-111000000D01*
X51000000Y-115000000D02*
X52500000Y-116500000D01*
X52500000Y-116500000D02*
X52500000Y-119750000D01*
%TO.N,Net-(J7-Pad1)*%
X58450000Y-96650000D02*
X58450000Y-102450000D01*
X64250000Y-118375000D02*
X65625000Y-119750000D01*
X64250000Y-108250000D02*
X64250000Y-118875000D01*
X58450000Y-102450000D02*
X64250000Y-108250000D01*
%TO.N,Net-(J7-Pad2)*%
X64500000Y-100250000D02*
X71205000Y-106955000D01*
X64500000Y-82500000D02*
X64500000Y-100250000D01*
X71205000Y-119250000D02*
X70705000Y-119750000D01*
X71205000Y-106955000D02*
X71205000Y-119250000D01*
%TO.N,Net-(J8-Pad2)*%
X83830000Y-117170000D02*
X83830000Y-119750000D01*
X88000000Y-113000000D02*
X83830000Y-117170000D01*
X88000000Y-105000000D02*
X88000000Y-113000000D01*
X81000000Y-98000000D02*
X88000000Y-105000000D01*
X81000000Y-82500000D02*
X81000000Y-98000000D01*
%TO.N,Net-(J8-Pad1)*%
X74950000Y-96650000D02*
X74950000Y-101700000D01*
X74950000Y-101700000D02*
X77000000Y-103750000D01*
X77000000Y-118000000D02*
X78750000Y-119750000D01*
X77000000Y-103750000D02*
X77000000Y-118000000D01*
D33*
%TO.N,Net-(Q1-Pad1)*%
X34300000Y-74700000D02*
X34500000Y-74500000D01*
X30750000Y-74700000D02*
X34300000Y-74700000D01*
%TO.N,Net-(Q2-Pad1)*%
X50550000Y-74200000D02*
X50750000Y-74000000D01*
X47250000Y-74200000D02*
X50550000Y-74200000D01*
%TO.N,Net-(Q3-Pad1)*%
X67550000Y-74700000D02*
X68000000Y-74250000D01*
X64250000Y-74700000D02*
X67550000Y-74700000D01*
%TO.N,Net-(Q4-Pad1)*%
X83800000Y-74700000D02*
X84250000Y-74250000D01*
X81000000Y-74700000D02*
X83800000Y-74700000D01*
D31*
%TO.N,A*%
X38500000Y-73750000D02*
X35500000Y-70750000D01*
X38500000Y-74500000D02*
X38500000Y-73750000D01*
%TO.N,B*%
X55750000Y-75000000D02*
X54750000Y-74000000D01*
X58000000Y-75000000D02*
X55750000Y-75000000D01*
%TO.N,C*%
X73000000Y-73250000D02*
X72000000Y-74250000D01*
X75000000Y-73250000D02*
X73000000Y-73250000D01*
%TO.N,D*%
X87500000Y-73500000D02*
X88250000Y-74250000D01*
X87500000Y-70750000D02*
X87500000Y-73500000D01*
D33*
%TO.N,Net-(R5-Pad2)*%
X71380000Y-51500000D02*
X71380000Y-51370000D01*
X71380000Y-51370000D02*
X74500000Y-48250000D01*
X74500000Y-48250000D02*
X78000000Y-48250000D01*
X79500000Y-46750000D02*
X79500000Y-45500000D01*
X78000000Y-48250000D02*
X79500000Y-46750000D01*
%TO.N,Net-(D10-Pad1)*%
X28250000Y-45000000D02*
X28500000Y-44750000D01*
X23500000Y-45000000D02*
X28250000Y-45000000D01*
D31*
%TO.N,IP3*%
X76460000Y-59120000D02*
X76460000Y-57540000D01*
X76460000Y-57540000D02*
X77750000Y-56250000D01*
X77750000Y-56250000D02*
X84500000Y-56250000D01*
X84830000Y-56580000D02*
X86500000Y-56580000D01*
X84500000Y-56250000D02*
X84830000Y-56580000D01*
%TO.N,IP4*%
X79000000Y-59120000D02*
X86500000Y-59120000D01*
%TD*%
D35*
%TO.N,GND*%
X74295516Y-71780755D02*
X74229327Y-71808172D01*
X73962848Y-71986227D01*
X73926075Y-72023000D01*
X73060263Y-72023000D01*
X73000000Y-72017065D01*
X72939737Y-72023000D01*
X72939732Y-72023000D01*
X72879946Y-72028889D01*
X72759466Y-72040754D01*
X72528176Y-72110916D01*
X72315017Y-72224851D01*
X72205811Y-72314475D01*
X72180843Y-72334966D01*
X72128183Y-72378183D01*
X72089765Y-72424995D01*
X71945761Y-72568999D01*
X71000000Y-72568999D01*
X70837880Y-72584966D01*
X70681990Y-72632255D01*
X70538321Y-72709048D01*
X70412394Y-72812394D01*
X70309048Y-72938321D01*
X70232255Y-73081990D01*
X70184966Y-73237880D01*
X70168999Y-73400000D01*
X70168999Y-75100000D01*
X70184966Y-75262120D01*
X70232255Y-75418010D01*
X70309048Y-75561679D01*
X70359373Y-75623000D01*
X69640627Y-75623000D01*
X69690952Y-75561679D01*
X69767745Y-75418010D01*
X69815034Y-75262120D01*
X69831001Y-75100000D01*
X69831001Y-73400000D01*
X69815034Y-73237880D01*
X69767745Y-73081990D01*
X69690952Y-72938321D01*
X69587606Y-72812394D01*
X69461679Y-72709048D01*
X69318010Y-72632255D01*
X69162120Y-72584966D01*
X69000000Y-72568999D01*
X67000000Y-72568999D01*
X66837880Y-72584966D01*
X66681990Y-72632255D01*
X66538321Y-72709048D01*
X66412394Y-72812394D01*
X66309048Y-72938321D01*
X66232255Y-73081990D01*
X66184966Y-73237880D01*
X66168999Y-73400000D01*
X66168999Y-73673000D01*
X65739604Y-73673000D01*
X65676072Y-73620860D01*
X65730537Y-73554494D01*
X65789502Y-73444180D01*
X65825812Y-73324482D01*
X65838072Y-73200000D01*
X65835000Y-73085750D01*
X65676250Y-72927000D01*
X64377000Y-72927000D01*
X64377000Y-72947000D01*
X64123000Y-72947000D01*
X64123000Y-72927000D01*
X64103000Y-72927000D01*
X64103000Y-72673000D01*
X64123000Y-72673000D01*
X64123000Y-71923750D01*
X64377000Y-71923750D01*
X64377000Y-72673000D01*
X65676250Y-72673000D01*
X65835000Y-72514250D01*
X65838072Y-72400000D01*
X65825812Y-72275518D01*
X65789502Y-72155820D01*
X65730537Y-72045506D01*
X65651185Y-71948815D01*
X65554494Y-71869463D01*
X65444180Y-71810498D01*
X65324482Y-71774188D01*
X65200000Y-71761928D01*
X64535750Y-71765000D01*
X64377000Y-71923750D01*
X64123000Y-71923750D01*
X63964250Y-71765000D01*
X63300000Y-71761928D01*
X63175518Y-71774188D01*
X63055820Y-71810498D01*
X62945506Y-71869463D01*
X62848815Y-71948815D01*
X62769463Y-72045506D01*
X62710498Y-72155820D01*
X62674188Y-72275518D01*
X62661928Y-72400000D01*
X62665000Y-72514250D01*
X62823748Y-72672998D01*
X62678677Y-72672998D01*
X62661679Y-72659048D01*
X62518010Y-72582255D01*
X62362120Y-72534966D01*
X62200000Y-72518999D01*
X61754239Y-72518999D01*
X60362238Y-71126998D01*
X73641759Y-71126998D01*
X74295516Y-71780755D01*
%TA.AperFunction,Conductor*%
D36*
G36*
X74295516Y-71780755D02*
G01*
X74229327Y-71808172D01*
X73962848Y-71986227D01*
X73926075Y-72023000D01*
X73060263Y-72023000D01*
X73000000Y-72017065D01*
X72939737Y-72023000D01*
X72939732Y-72023000D01*
X72879946Y-72028889D01*
X72759466Y-72040754D01*
X72528176Y-72110916D01*
X72315017Y-72224851D01*
X72205811Y-72314475D01*
X72180843Y-72334966D01*
X72128183Y-72378183D01*
X72089765Y-72424995D01*
X71945761Y-72568999D01*
X71000000Y-72568999D01*
X70837880Y-72584966D01*
X70681990Y-72632255D01*
X70538321Y-72709048D01*
X70412394Y-72812394D01*
X70309048Y-72938321D01*
X70232255Y-73081990D01*
X70184966Y-73237880D01*
X70168999Y-73400000D01*
X70168999Y-75100000D01*
X70184966Y-75262120D01*
X70232255Y-75418010D01*
X70309048Y-75561679D01*
X70359373Y-75623000D01*
X69640627Y-75623000D01*
X69690952Y-75561679D01*
X69767745Y-75418010D01*
X69815034Y-75262120D01*
X69831001Y-75100000D01*
X69831001Y-73400000D01*
X69815034Y-73237880D01*
X69767745Y-73081990D01*
X69690952Y-72938321D01*
X69587606Y-72812394D01*
X69461679Y-72709048D01*
X69318010Y-72632255D01*
X69162120Y-72584966D01*
X69000000Y-72568999D01*
X67000000Y-72568999D01*
X66837880Y-72584966D01*
X66681990Y-72632255D01*
X66538321Y-72709048D01*
X66412394Y-72812394D01*
X66309048Y-72938321D01*
X66232255Y-73081990D01*
X66184966Y-73237880D01*
X66168999Y-73400000D01*
X66168999Y-73673000D01*
X65739604Y-73673000D01*
X65676072Y-73620860D01*
X65730537Y-73554494D01*
X65789502Y-73444180D01*
X65825812Y-73324482D01*
X65838072Y-73200000D01*
X65835000Y-73085750D01*
X65676250Y-72927000D01*
X64377000Y-72927000D01*
X64377000Y-72947000D01*
X64123000Y-72947000D01*
X64123000Y-72927000D01*
X64103000Y-72927000D01*
X64103000Y-72673000D01*
X64123000Y-72673000D01*
X64123000Y-71923750D01*
X64377000Y-71923750D01*
X64377000Y-72673000D01*
X65676250Y-72673000D01*
X65835000Y-72514250D01*
X65838072Y-72400000D01*
X65825812Y-72275518D01*
X65789502Y-72155820D01*
X65730537Y-72045506D01*
X65651185Y-71948815D01*
X65554494Y-71869463D01*
X65444180Y-71810498D01*
X65324482Y-71774188D01*
X65200000Y-71761928D01*
X64535750Y-71765000D01*
X64377000Y-71923750D01*
X64123000Y-71923750D01*
X63964250Y-71765000D01*
X63300000Y-71761928D01*
X63175518Y-71774188D01*
X63055820Y-71810498D01*
X62945506Y-71869463D01*
X62848815Y-71948815D01*
X62769463Y-72045506D01*
X62710498Y-72155820D01*
X62674188Y-72275518D01*
X62661928Y-72400000D01*
X62665000Y-72514250D01*
X62823748Y-72672998D01*
X62678677Y-72672998D01*
X62661679Y-72659048D01*
X62518010Y-72582255D01*
X62362120Y-72534966D01*
X62200000Y-72518999D01*
X61754239Y-72518999D01*
X60362238Y-71126998D01*
X73641759Y-71126998D01*
X74295516Y-71780755D01*
G37*
%TD.AperFunction*%
D35*
X89148001Y-72568999D02*
X88727000Y-72568999D01*
X88727000Y-71823925D01*
X88763773Y-71787152D01*
X88941828Y-71520673D01*
X89064475Y-71224578D01*
X89127000Y-70910245D01*
X89127000Y-70589755D01*
X89064475Y-70275422D01*
X88941828Y-69979327D01*
X88763773Y-69712848D01*
X88537152Y-69486227D01*
X88270673Y-69308172D01*
X87974578Y-69185525D01*
X87660245Y-69123000D01*
X87339755Y-69123000D01*
X87025422Y-69185525D01*
X86729327Y-69308172D01*
X86462848Y-69486227D01*
X86236227Y-69712848D01*
X86058172Y-69979327D01*
X85935525Y-70275422D01*
X85873000Y-70589755D01*
X85873000Y-70910245D01*
X85935525Y-71224578D01*
X86058172Y-71520673D01*
X86236227Y-71787152D01*
X86273000Y-71823925D01*
X86273001Y-73439730D01*
X86267065Y-73500000D01*
X86290755Y-73740533D01*
X86325504Y-73855083D01*
X86360917Y-73971824D01*
X86418999Y-74080489D01*
X86418999Y-75100000D01*
X86434966Y-75262120D01*
X86482255Y-75418010D01*
X86559048Y-75561679D01*
X86609373Y-75623000D01*
X85890627Y-75623000D01*
X85940952Y-75561679D01*
X86017745Y-75418010D01*
X86065034Y-75262120D01*
X86081001Y-75100000D01*
X86081001Y-73400000D01*
X86065034Y-73237880D01*
X86017745Y-73081990D01*
X85940952Y-72938321D01*
X85837606Y-72812394D01*
X85711679Y-72709048D01*
X85568010Y-72632255D01*
X85412120Y-72584966D01*
X85250000Y-72568999D01*
X83250000Y-72568999D01*
X83087880Y-72584966D01*
X82931990Y-72632255D01*
X82788321Y-72709048D01*
X82662394Y-72812394D01*
X82559048Y-72938321D01*
X82516734Y-73017484D01*
X82426250Y-72927000D01*
X81127000Y-72927000D01*
X81127000Y-72947000D01*
X80873000Y-72947000D01*
X80873000Y-72927000D01*
X80853000Y-72927000D01*
X80853000Y-72673000D01*
X80873000Y-72673000D01*
X80873000Y-71923750D01*
X81127000Y-71923750D01*
X81127000Y-72673000D01*
X82426250Y-72673000D01*
X82585000Y-72514250D01*
X82588072Y-72400000D01*
X82575812Y-72275518D01*
X82539502Y-72155820D01*
X82480537Y-72045506D01*
X82401185Y-71948815D01*
X82304494Y-71869463D01*
X82194180Y-71810498D01*
X82074482Y-71774188D01*
X81950000Y-71761928D01*
X81285750Y-71765000D01*
X81127000Y-71923750D01*
X80873000Y-71923750D01*
X80714250Y-71765000D01*
X80050000Y-71761928D01*
X79925518Y-71774188D01*
X79805820Y-71810498D01*
X79695506Y-71869463D01*
X79598815Y-71948815D01*
X79519463Y-72045506D01*
X79460498Y-72155820D01*
X79424188Y-72275518D01*
X79411928Y-72400000D01*
X79415000Y-72514250D01*
X79573748Y-72672998D01*
X79428677Y-72672998D01*
X79411679Y-72659048D01*
X79268010Y-72582255D01*
X79112120Y-72534966D01*
X78950000Y-72518999D01*
X78504239Y-72518999D01*
X75060237Y-69074998D01*
X75021815Y-69028181D01*
X74978585Y-68992702D01*
X77186903Y-68992702D01*
X77258486Y-69236671D01*
X77513996Y-69357571D01*
X77788184Y-69426300D01*
X78070512Y-69440217D01*
X78350130Y-69398787D01*
X78616292Y-69303603D01*
X78741514Y-69236671D01*
X78813097Y-68992702D01*
X78000000Y-68179605D01*
X77186903Y-68992702D01*
X74978585Y-68992702D01*
X74834981Y-68874849D01*
X74621822Y-68760914D01*
X74390532Y-68690753D01*
X74210266Y-68672998D01*
X74210258Y-68672998D01*
X74149998Y-68667063D01*
X74089738Y-68672998D01*
X63373364Y-68672998D01*
X63426300Y-68461816D01*
X63440217Y-68179488D01*
X63398787Y-67899870D01*
X63303603Y-67633708D01*
X63236671Y-67508486D01*
X62992702Y-67436903D01*
X62179605Y-68250000D01*
X62193748Y-68264143D01*
X62014143Y-68443748D01*
X62000000Y-68429605D01*
X61985858Y-68443748D01*
X61806253Y-68264143D01*
X61820395Y-68250000D01*
X61007298Y-67436903D01*
X60763329Y-67508486D01*
X60642429Y-67763996D01*
X60573700Y-68038184D01*
X60559783Y-68320512D01*
X60601213Y-68600130D01*
X60610033Y-68624793D01*
X53660239Y-61675000D01*
X53621817Y-61628183D01*
X53434983Y-61474851D01*
X53221824Y-61360916D01*
X52990534Y-61290755D01*
X52810268Y-61273000D01*
X52810260Y-61273000D01*
X52750000Y-61267065D01*
X52689740Y-61273000D01*
X52073925Y-61273000D01*
X52037152Y-61236227D01*
X51770673Y-61058172D01*
X51474578Y-60935525D01*
X51160245Y-60873000D01*
X50839755Y-60873000D01*
X50525422Y-60935525D01*
X50229327Y-61058172D01*
X49962848Y-61236227D01*
X49736227Y-61462848D01*
X49558172Y-61729327D01*
X49435525Y-62025422D01*
X49373000Y-62339755D01*
X49373000Y-62660245D01*
X49435525Y-62974578D01*
X49558172Y-63270673D01*
X49736227Y-63537152D01*
X49962848Y-63763773D01*
X50229327Y-63941828D01*
X50525422Y-64064475D01*
X50839755Y-64127000D01*
X51160245Y-64127000D01*
X51474578Y-64064475D01*
X51770673Y-63941828D01*
X52037152Y-63763773D01*
X52073925Y-63727000D01*
X52241761Y-63727000D01*
X56787760Y-68273000D01*
X53060259Y-68273000D01*
X52999999Y-68267065D01*
X52939739Y-68273000D01*
X52939732Y-68273000D01*
X52759466Y-68290755D01*
X52528176Y-68360916D01*
X52315017Y-68474851D01*
X52256348Y-68523000D01*
X43758240Y-68523000D01*
X39227000Y-63991761D01*
X39227000Y-61810263D01*
X39232935Y-61750000D01*
X39209246Y-61509466D01*
X39139084Y-61278176D01*
X39115697Y-61234422D01*
X39025149Y-61065017D01*
X38934502Y-60954564D01*
X38910236Y-60924995D01*
X38910230Y-60924989D01*
X38871817Y-60878183D01*
X38825012Y-60839771D01*
X34331001Y-56345762D01*
X34331001Y-55525000D01*
X34315034Y-55362880D01*
X34267745Y-55206990D01*
X34190952Y-55063321D01*
X34087606Y-54937394D01*
X33961679Y-54834048D01*
X33818010Y-54757255D01*
X33662120Y-54709966D01*
X33500000Y-54693999D01*
X31500000Y-54693999D01*
X31337880Y-54709966D01*
X31181990Y-54757255D01*
X31038321Y-54834048D01*
X30912394Y-54937394D01*
X30809048Y-55063321D01*
X30732255Y-55206990D01*
X30684966Y-55362880D01*
X30668999Y-55525000D01*
X30668999Y-57225000D01*
X30684966Y-57387120D01*
X30732255Y-57543010D01*
X30809048Y-57686679D01*
X30912394Y-57812606D01*
X31038321Y-57915952D01*
X31181990Y-57992745D01*
X31337880Y-58040034D01*
X31500000Y-58056001D01*
X32570762Y-58056001D01*
X36773000Y-62258241D01*
X36773001Y-64439730D01*
X36767065Y-64500000D01*
X36790755Y-64740533D01*
X36826834Y-64859467D01*
X36860917Y-64971824D01*
X36974852Y-65184983D01*
X37128184Y-65371817D01*
X37174996Y-65410235D01*
X42339765Y-70575005D01*
X42378183Y-70621817D01*
X42565017Y-70775149D01*
X42778176Y-70889084D01*
X43009466Y-70959245D01*
X43189732Y-70977000D01*
X43189739Y-70977000D01*
X43249999Y-70982935D01*
X43310259Y-70977000D01*
X52689740Y-70977000D01*
X52750000Y-70982935D01*
X52810260Y-70977000D01*
X52810268Y-70977000D01*
X52990534Y-70959245D01*
X53221824Y-70889084D01*
X53434983Y-70775149D01*
X53493652Y-70727000D01*
X56491761Y-70727000D01*
X59468999Y-73704239D01*
X59468999Y-74150000D01*
X59484966Y-74312120D01*
X59509164Y-74391891D01*
X59441828Y-74229327D01*
X59263773Y-73962848D01*
X59037152Y-73736227D01*
X58770673Y-73558172D01*
X58474578Y-73435525D01*
X58160245Y-73373000D01*
X57839755Y-73373000D01*
X57525422Y-73435525D01*
X57229327Y-73558172D01*
X56962848Y-73736227D01*
X56926075Y-73773000D01*
X56581001Y-73773000D01*
X56581001Y-73150000D01*
X56565034Y-72987880D01*
X56517745Y-72831990D01*
X56440952Y-72688321D01*
X56337606Y-72562394D01*
X56211679Y-72459048D01*
X56068010Y-72382255D01*
X55912120Y-72334966D01*
X55750000Y-72318999D01*
X53750000Y-72318999D01*
X53587880Y-72334966D01*
X53431990Y-72382255D01*
X53288321Y-72459048D01*
X53162394Y-72562394D01*
X53059048Y-72688321D01*
X52982255Y-72831990D01*
X52934966Y-72987880D01*
X52918999Y-73150000D01*
X52918999Y-74850000D01*
X52934966Y-75012120D01*
X52982255Y-75168010D01*
X53059048Y-75311679D01*
X53162394Y-75437606D01*
X53288321Y-75540952D01*
X53431990Y-75617745D01*
X53449313Y-75623000D01*
X52050687Y-75623000D01*
X52068010Y-75617745D01*
X52211679Y-75540952D01*
X52337606Y-75437606D01*
X52440952Y-75311679D01*
X52517745Y-75168010D01*
X52565034Y-75012120D01*
X52581001Y-74850000D01*
X52581001Y-73150000D01*
X52565034Y-72987880D01*
X52517745Y-72831990D01*
X52440952Y-72688321D01*
X52337606Y-72562394D01*
X52211679Y-72459048D01*
X52068010Y-72382255D01*
X51912120Y-72334966D01*
X51750000Y-72318999D01*
X49750000Y-72318999D01*
X49587880Y-72334966D01*
X49431990Y-72382255D01*
X49288321Y-72459048D01*
X49162394Y-72562394D01*
X49059048Y-72688321D01*
X48982255Y-72831990D01*
X48934966Y-72987880D01*
X48918999Y-73150000D01*
X48918999Y-73173000D01*
X48739604Y-73173000D01*
X48676072Y-73120860D01*
X48730537Y-73054494D01*
X48789502Y-72944180D01*
X48825812Y-72824482D01*
X48838072Y-72700000D01*
X48835000Y-72585750D01*
X48676250Y-72427000D01*
X47377000Y-72427000D01*
X47377000Y-72447000D01*
X47123000Y-72447000D01*
X47123000Y-72427000D01*
X47103000Y-72427000D01*
X47103000Y-72173000D01*
X47123000Y-72173000D01*
X47123000Y-71423750D01*
X47377000Y-71423750D01*
X47377000Y-72173000D01*
X48676250Y-72173000D01*
X48835000Y-72014250D01*
X48838072Y-71900000D01*
X48825812Y-71775518D01*
X48789502Y-71655820D01*
X48730537Y-71545506D01*
X48651185Y-71448815D01*
X48554494Y-71369463D01*
X48444180Y-71310498D01*
X48324482Y-71274188D01*
X48200000Y-71261928D01*
X47535750Y-71265000D01*
X47377000Y-71423750D01*
X47123000Y-71423750D01*
X46964250Y-71265000D01*
X46300000Y-71261928D01*
X46175518Y-71274188D01*
X46055820Y-71310498D01*
X45945506Y-71369463D01*
X45848815Y-71448815D01*
X45769463Y-71545506D01*
X45710498Y-71655820D01*
X45674188Y-71775518D01*
X45661928Y-71900000D01*
X45665000Y-72014250D01*
X45823748Y-72172998D01*
X45678677Y-72172998D01*
X45661679Y-72159048D01*
X45518010Y-72082255D01*
X45362120Y-72034966D01*
X45200000Y-72018999D01*
X44269646Y-72018999D01*
X44250000Y-72017064D01*
X44230354Y-72018999D01*
X43300000Y-72018999D01*
X43259376Y-72023000D01*
X43258240Y-72023000D01*
X34325777Y-63090538D01*
X34331001Y-63037500D01*
X34331001Y-61337500D01*
X34315034Y-61175380D01*
X34267745Y-61019490D01*
X34190952Y-60875821D01*
X34087606Y-60749894D01*
X33961679Y-60646548D01*
X33818010Y-60569755D01*
X33662120Y-60522466D01*
X33500000Y-60506499D01*
X31500000Y-60506499D01*
X31337880Y-60522466D01*
X31181990Y-60569755D01*
X31038321Y-60646548D01*
X30912394Y-60749894D01*
X30809048Y-60875821D01*
X30732255Y-61019490D01*
X30684966Y-61175380D01*
X30668999Y-61337500D01*
X30668999Y-63037500D01*
X30684966Y-63199620D01*
X30732255Y-63355510D01*
X30809048Y-63499179D01*
X30912394Y-63625106D01*
X31038321Y-63728452D01*
X31181990Y-63805245D01*
X31337880Y-63852534D01*
X31500000Y-63868501D01*
X31625463Y-63868501D01*
X31628184Y-63871817D01*
X31674996Y-63910235D01*
X41839764Y-74075004D01*
X41878183Y-74121817D01*
X42065017Y-74275149D01*
X42278176Y-74389084D01*
X42509466Y-74459245D01*
X42689732Y-74477000D01*
X42689739Y-74477000D01*
X42749999Y-74482935D01*
X42810259Y-74477000D01*
X43023000Y-74477000D01*
X43023001Y-75623000D01*
X40281399Y-75623000D01*
X40315034Y-75512120D01*
X40331001Y-75350000D01*
X40331001Y-73650000D01*
X40315034Y-73487880D01*
X40267745Y-73331990D01*
X40190952Y-73188321D01*
X40087606Y-73062394D01*
X39961679Y-72959048D01*
X39818010Y-72882255D01*
X39662120Y-72834966D01*
X39500000Y-72818999D01*
X39304239Y-72818999D01*
X37127000Y-70641761D01*
X37127000Y-70589755D01*
X37064475Y-70275422D01*
X36941828Y-69979327D01*
X36763773Y-69712848D01*
X36537152Y-69486227D01*
X36270673Y-69308172D01*
X35974578Y-69185525D01*
X35660245Y-69123000D01*
X35339755Y-69123000D01*
X35025422Y-69185525D01*
X34729327Y-69308172D01*
X34462848Y-69486227D01*
X34236227Y-69712848D01*
X34058172Y-69979327D01*
X33935525Y-70275422D01*
X33873000Y-70589755D01*
X33873000Y-70910245D01*
X33935525Y-71224578D01*
X34058172Y-71520673D01*
X34236227Y-71787152D01*
X34462848Y-72013773D01*
X34729327Y-72191828D01*
X35025422Y-72314475D01*
X35339755Y-72377000D01*
X35391761Y-72377000D01*
X36029322Y-73014561D01*
X35961679Y-72959048D01*
X35818010Y-72882255D01*
X35662120Y-72834966D01*
X35500000Y-72818999D01*
X33500000Y-72818999D01*
X33337880Y-72834966D01*
X33181990Y-72882255D01*
X33038321Y-72959048D01*
X32912394Y-73062394D01*
X32809048Y-73188321D01*
X32732255Y-73331990D01*
X32684966Y-73487880D01*
X32668999Y-73650000D01*
X32668999Y-73673000D01*
X32239604Y-73673000D01*
X32176072Y-73620860D01*
X32230537Y-73554494D01*
X32289502Y-73444180D01*
X32325812Y-73324482D01*
X32338072Y-73200000D01*
X32335000Y-73085750D01*
X32176250Y-72927000D01*
X30877000Y-72927000D01*
X30877000Y-72947000D01*
X30623000Y-72947000D01*
X30623000Y-72927000D01*
X30603000Y-72927000D01*
X30603000Y-72673000D01*
X30623000Y-72673000D01*
X30623000Y-72653000D01*
X30877000Y-72653000D01*
X30877000Y-72673000D01*
X32176250Y-72673000D01*
X32335000Y-72514250D01*
X32338072Y-72400000D01*
X32325812Y-72275518D01*
X32289502Y-72155820D01*
X32230537Y-72045506D01*
X32151185Y-71948815D01*
X32054494Y-71869463D01*
X31944180Y-71810498D01*
X31896123Y-71795920D01*
X31934983Y-71775149D01*
X32121817Y-71621817D01*
X32160239Y-71575000D01*
X33325005Y-70410235D01*
X33371817Y-70371817D01*
X33525149Y-70184983D01*
X33599397Y-70046073D01*
X33639084Y-69971825D01*
X33709245Y-69740534D01*
X33714201Y-69690217D01*
X33718362Y-69647973D01*
X33818010Y-69617745D01*
X33961679Y-69540952D01*
X34087606Y-69437606D01*
X34190952Y-69311679D01*
X34267745Y-69168010D01*
X34315034Y-69012120D01*
X34331001Y-68850000D01*
X34331001Y-67150000D01*
X34315034Y-66987880D01*
X34267745Y-66831990D01*
X34190952Y-66688321D01*
X34087606Y-66562394D01*
X33961679Y-66459048D01*
X33818010Y-66382255D01*
X33662120Y-66334966D01*
X33500000Y-66318999D01*
X31500000Y-66318999D01*
X31337880Y-66334966D01*
X31181990Y-66382255D01*
X31038321Y-66459048D01*
X30912394Y-66562394D01*
X30809048Y-66688321D01*
X30732255Y-66831990D01*
X30684966Y-66987880D01*
X30668999Y-67150000D01*
X30668999Y-68850000D01*
X30684966Y-69012120D01*
X30732255Y-69168010D01*
X30809048Y-69311679D01*
X30873972Y-69390789D01*
X30741761Y-69523000D01*
X29983553Y-69523000D01*
X30087606Y-69437606D01*
X30190952Y-69311679D01*
X30267745Y-69168010D01*
X30315034Y-69012120D01*
X30331001Y-68850000D01*
X30331001Y-67150000D01*
X30315034Y-66987880D01*
X30267745Y-66831990D01*
X30190952Y-66688321D01*
X30087606Y-66562394D01*
X29961679Y-66459048D01*
X29818010Y-66382255D01*
X29662120Y-66334966D01*
X29500000Y-66318999D01*
X27500000Y-66318999D01*
X27337880Y-66334966D01*
X27181990Y-66382255D01*
X27038321Y-66459048D01*
X26912394Y-66562394D01*
X26809048Y-66688321D01*
X26732255Y-66831990D01*
X26684966Y-66987880D01*
X26668999Y-67150000D01*
X26668999Y-67223000D01*
X25218493Y-67223000D01*
X25215034Y-67187880D01*
X25167745Y-67031990D01*
X25090952Y-66888321D01*
X24987606Y-66762394D01*
X24861679Y-66659048D01*
X24718010Y-66582255D01*
X24562120Y-66534966D01*
X24400000Y-66518999D01*
X24291359Y-66518999D01*
X24318041Y-66507947D01*
X24600898Y-66318948D01*
X24841448Y-66078398D01*
X25030447Y-65795541D01*
X25160632Y-65481247D01*
X25227000Y-65147595D01*
X25227000Y-64807405D01*
X25160632Y-64473753D01*
X25030447Y-64159459D01*
X24914142Y-63985396D01*
X24987606Y-63925106D01*
X25090952Y-63799179D01*
X25167745Y-63655510D01*
X25215034Y-63499620D01*
X25218493Y-63464500D01*
X26790512Y-63464500D01*
X26809048Y-63499179D01*
X26912394Y-63625106D01*
X27038321Y-63728452D01*
X27181990Y-63805245D01*
X27337880Y-63852534D01*
X27500000Y-63868501D01*
X29500000Y-63868501D01*
X29662120Y-63852534D01*
X29818010Y-63805245D01*
X29961679Y-63728452D01*
X30087606Y-63625106D01*
X30190952Y-63499179D01*
X30267745Y-63355510D01*
X30315034Y-63199620D01*
X30331001Y-63037500D01*
X30331001Y-61337500D01*
X30315034Y-61175380D01*
X30267745Y-61019490D01*
X30190952Y-60875821D01*
X30087606Y-60749894D01*
X29961679Y-60646548D01*
X29818010Y-60569755D01*
X29662120Y-60522466D01*
X29500000Y-60506499D01*
X27500000Y-60506499D01*
X27337880Y-60522466D01*
X27181990Y-60569755D01*
X27038321Y-60646548D01*
X26912394Y-60749894D01*
X26809048Y-60875821D01*
X26732255Y-61019490D01*
X26684966Y-61175380D01*
X26668999Y-61337500D01*
X26668999Y-61410500D01*
X25218493Y-61410500D01*
X25215034Y-61375380D01*
X25167745Y-61219490D01*
X25090952Y-61075821D01*
X24987606Y-60949894D01*
X24861679Y-60846548D01*
X24718010Y-60769755D01*
X24562120Y-60722466D01*
X24400000Y-60706499D01*
X24291359Y-60706499D01*
X24318041Y-60695447D01*
X24600898Y-60506448D01*
X24841448Y-60265898D01*
X25030447Y-59983041D01*
X25160632Y-59668747D01*
X25227000Y-59335095D01*
X25227000Y-58994905D01*
X25160632Y-58661253D01*
X25030447Y-58346959D01*
X24914142Y-58172896D01*
X24987606Y-58112606D01*
X25090952Y-57986679D01*
X25167745Y-57843010D01*
X25215034Y-57687120D01*
X25218493Y-57652000D01*
X26790512Y-57652000D01*
X26809048Y-57686679D01*
X26912394Y-57812606D01*
X27038321Y-57915952D01*
X27181990Y-57992745D01*
X27337880Y-58040034D01*
X27500000Y-58056001D01*
X29500000Y-58056001D01*
X29662120Y-58040034D01*
X29818010Y-57992745D01*
X29961679Y-57915952D01*
X30087606Y-57812606D01*
X30190952Y-57686679D01*
X30267745Y-57543010D01*
X30315034Y-57387120D01*
X30331001Y-57225000D01*
X30331001Y-55525000D01*
X30315034Y-55362880D01*
X30267745Y-55206990D01*
X30190952Y-55063321D01*
X30087606Y-54937394D01*
X29961679Y-54834048D01*
X29818010Y-54757255D01*
X29662120Y-54709966D01*
X29500000Y-54693999D01*
X27500000Y-54693999D01*
X27337880Y-54709966D01*
X27181990Y-54757255D01*
X27038321Y-54834048D01*
X26912394Y-54937394D01*
X26809048Y-55063321D01*
X26732255Y-55206990D01*
X26684966Y-55362880D01*
X26668999Y-55525000D01*
X26668999Y-55598000D01*
X25218493Y-55598000D01*
X25215034Y-55562880D01*
X25167745Y-55406990D01*
X25090952Y-55263321D01*
X24987606Y-55137394D01*
X24861679Y-55034048D01*
X24718010Y-54957255D01*
X24562120Y-54909966D01*
X24400000Y-54893999D01*
X24291359Y-54893999D01*
X24318041Y-54882947D01*
X24600898Y-54693948D01*
X24615346Y-54679500D01*
X36082326Y-54679500D01*
X36147500Y-54685919D01*
X36212674Y-54679500D01*
X36212684Y-54679500D01*
X36407637Y-54660299D01*
X36657778Y-54584419D01*
X36888308Y-54461198D01*
X37090370Y-54295370D01*
X37131925Y-54244735D01*
X38174661Y-53202000D01*
X39575340Y-53202000D01*
X39923001Y-53549662D01*
X39923000Y-56934826D01*
X39916581Y-57000000D01*
X39923000Y-57065174D01*
X39923000Y-57065183D01*
X39942201Y-57260136D01*
X40008815Y-57479732D01*
X40018081Y-57510277D01*
X40141302Y-57740808D01*
X40202204Y-57815017D01*
X40307130Y-57942870D01*
X40357765Y-57984425D01*
X41765579Y-59392240D01*
X41807130Y-59442870D01*
X41857760Y-59484421D01*
X41857761Y-59484422D01*
X42009190Y-59608697D01*
X42009192Y-59608698D01*
X42239722Y-59731919D01*
X42489863Y-59807799D01*
X42684816Y-59827000D01*
X42684828Y-59827000D01*
X42749999Y-59833419D01*
X42815171Y-59827000D01*
X44012450Y-59827000D01*
X44059048Y-59914179D01*
X44162394Y-60040106D01*
X44288321Y-60143452D01*
X44431990Y-60220245D01*
X44587880Y-60267534D01*
X44750000Y-60283501D01*
X46750000Y-60283501D01*
X46912120Y-60267534D01*
X47068010Y-60220245D01*
X47211679Y-60143452D01*
X47337606Y-60040106D01*
X47440952Y-59914179D01*
X47517745Y-59770510D01*
X47530944Y-59727000D01*
X49268999Y-59727000D01*
X49268999Y-60000000D01*
X49284966Y-60162120D01*
X49332255Y-60318010D01*
X49409048Y-60461679D01*
X49512394Y-60587606D01*
X49638321Y-60690952D01*
X49781990Y-60767745D01*
X49937880Y-60815034D01*
X50100000Y-60831001D01*
X51900000Y-60831001D01*
X52062120Y-60815034D01*
X52218010Y-60767745D01*
X52361679Y-60690952D01*
X52487606Y-60587606D01*
X52590952Y-60461679D01*
X52667745Y-60318010D01*
X52715034Y-60162120D01*
X52731001Y-60000000D01*
X52731001Y-56500000D01*
X52715034Y-56337880D01*
X52667745Y-56181990D01*
X52590952Y-56038321D01*
X52487606Y-55912394D01*
X52361679Y-55809048D01*
X52251208Y-55750000D01*
X52361679Y-55690952D01*
X52487606Y-55587606D01*
X52590952Y-55461679D01*
X52667745Y-55318010D01*
X52715034Y-55162120D01*
X52731001Y-55000000D01*
X52731001Y-51500000D01*
X52715034Y-51337880D01*
X52667745Y-51181990D01*
X52590952Y-51038321D01*
X52487606Y-50912394D01*
X52361679Y-50809048D01*
X52231920Y-50739690D01*
X52227000Y-50689739D01*
X52227000Y-50689732D01*
X52209245Y-50509466D01*
X52139084Y-50278176D01*
X52025149Y-50065017D01*
X51871817Y-49878183D01*
X51825001Y-49839762D01*
X51477000Y-49491761D01*
X51477000Y-48009488D01*
X51511679Y-47990952D01*
X51637606Y-47887606D01*
X51740952Y-47761679D01*
X51774483Y-47698947D01*
X51971824Y-47639084D01*
X52184983Y-47525149D01*
X52371817Y-47371817D01*
X52410239Y-47325000D01*
X56758240Y-42977000D01*
X66811761Y-42977000D01*
X67374764Y-43540004D01*
X67413183Y-43586817D01*
X67600017Y-43740149D01*
X67696459Y-43791698D01*
X67848716Y-43943955D01*
X67767405Y-44065646D01*
X67620269Y-43902412D01*
X67386920Y-43728359D01*
X67124099Y-43603175D01*
X66976890Y-43558524D01*
X66747000Y-43679845D01*
X66747000Y-44873000D01*
X66767000Y-44873000D01*
X66767000Y-45127000D01*
X66747000Y-45127000D01*
X66747000Y-46320155D01*
X66976890Y-46441476D01*
X67124099Y-46396825D01*
X67386920Y-46271641D01*
X67620269Y-46097588D01*
X67767405Y-45934354D01*
X67857389Y-46069025D01*
X67933000Y-46144636D01*
X67933000Y-46349740D01*
X67927065Y-46410000D01*
X67933000Y-46470260D01*
X67933000Y-46470268D01*
X67950755Y-46650534D01*
X68020916Y-46881824D01*
X68134852Y-47094983D01*
X68184780Y-47155820D01*
X68203091Y-47178131D01*
X68184966Y-47237880D01*
X68168999Y-47400000D01*
X68168999Y-49100000D01*
X68184966Y-49262120D01*
X68232255Y-49418010D01*
X68309048Y-49561679D01*
X68412394Y-49687606D01*
X68448359Y-49717121D01*
X68408182Y-49725633D01*
X68148354Y-49836285D01*
X67915105Y-49995500D01*
X67717399Y-50197161D01*
X67687057Y-50243558D01*
X67659346Y-50191714D01*
X67456029Y-49943971D01*
X67208286Y-49740654D01*
X67160231Y-49714968D01*
X67244180Y-49689502D01*
X67354494Y-49630537D01*
X67451185Y-49551185D01*
X67530537Y-49454494D01*
X67589502Y-49344180D01*
X67625812Y-49224482D01*
X67638072Y-49100000D01*
X67635000Y-48535750D01*
X67476250Y-48377000D01*
X66127000Y-48377000D01*
X66127000Y-48397000D01*
X65873000Y-48397000D01*
X65873000Y-48377000D01*
X65853000Y-48377000D01*
X65853000Y-48123000D01*
X65873000Y-48123000D01*
X65873000Y-46923750D01*
X66127000Y-46923750D01*
X66127000Y-48123000D01*
X67476250Y-48123000D01*
X67635000Y-47964250D01*
X67638072Y-47400000D01*
X67625812Y-47275518D01*
X67589502Y-47155820D01*
X67530537Y-47045506D01*
X67451185Y-46948815D01*
X67354494Y-46869463D01*
X67244180Y-46810498D01*
X67124482Y-46774188D01*
X67000000Y-46761928D01*
X66285750Y-46765000D01*
X66127000Y-46923750D01*
X65873000Y-46923750D01*
X65714250Y-46765000D01*
X65000000Y-46761928D01*
X64974266Y-46764462D01*
X65105149Y-46604983D01*
X65219084Y-46391824D01*
X65288436Y-46163200D01*
X65382611Y-46069025D01*
X65472595Y-45934354D01*
X65619731Y-46097588D01*
X65853080Y-46271641D01*
X66115901Y-46396825D01*
X66263110Y-46441476D01*
X66493000Y-46320155D01*
X66493000Y-45127000D01*
X66473000Y-45127000D01*
X66473000Y-44873000D01*
X66493000Y-44873000D01*
X66493000Y-43679845D01*
X66263110Y-43558524D01*
X66115901Y-43603175D01*
X65853080Y-43728359D01*
X65619731Y-43902412D01*
X65472595Y-44065646D01*
X65382611Y-43930975D01*
X65149025Y-43697389D01*
X64874357Y-43513862D01*
X64569163Y-43387446D01*
X64245170Y-43323000D01*
X63914830Y-43323000D01*
X63590837Y-43387446D01*
X63285643Y-43513862D01*
X63010975Y-43697389D01*
X62810000Y-43898364D01*
X62609025Y-43697389D01*
X62334357Y-43513862D01*
X62029163Y-43387446D01*
X61705170Y-43323000D01*
X61374830Y-43323000D01*
X61050837Y-43387446D01*
X60745643Y-43513862D01*
X60520976Y-43663980D01*
X60437606Y-43562394D01*
X60311679Y-43459048D01*
X60168010Y-43382255D01*
X60012120Y-43334966D01*
X59850000Y-43318999D01*
X58150000Y-43318999D01*
X57987880Y-43334966D01*
X57831990Y-43382255D01*
X57688321Y-43459048D01*
X57562394Y-43562394D01*
X57459048Y-43688321D01*
X57382255Y-43831990D01*
X57334966Y-43987880D01*
X57318999Y-44150000D01*
X57318999Y-45850000D01*
X57334966Y-46012120D01*
X57382255Y-46168010D01*
X57459048Y-46311679D01*
X57562394Y-46437606D01*
X57688321Y-46540952D01*
X57831990Y-46617745D01*
X57987880Y-46665034D01*
X58150000Y-46681001D01*
X59850000Y-46681001D01*
X59993001Y-46666917D01*
X59993000Y-50030450D01*
X59950000Y-50082846D01*
X59836029Y-49943971D01*
X59588286Y-49740654D01*
X59305638Y-49589575D01*
X58998948Y-49496542D01*
X58680000Y-49465128D01*
X58361053Y-49496542D01*
X58054363Y-49589575D01*
X57771715Y-49740654D01*
X57523972Y-49943971D01*
X57320654Y-50191714D01*
X57169575Y-50474362D01*
X57076542Y-50781052D01*
X57053000Y-51020075D01*
X57053000Y-51979924D01*
X57076542Y-52218947D01*
X57169575Y-52525637D01*
X57320654Y-52808285D01*
X57523971Y-53056029D01*
X57771714Y-53259346D01*
X58054362Y-53410425D01*
X58361052Y-53503458D01*
X58680000Y-53534872D01*
X58998947Y-53503458D01*
X59305637Y-53410425D01*
X59588285Y-53259346D01*
X59836029Y-53056029D01*
X59950000Y-52917154D01*
X60063971Y-53056029D01*
X60311714Y-53259346D01*
X60594362Y-53410425D01*
X60901052Y-53503458D01*
X61220000Y-53534872D01*
X61538947Y-53503458D01*
X61845637Y-53410425D01*
X62128285Y-53259346D01*
X62376029Y-53056029D01*
X62490000Y-52917154D01*
X62603971Y-53056029D01*
X62851714Y-53259346D01*
X63134362Y-53410425D01*
X63441052Y-53503458D01*
X63760000Y-53534872D01*
X64078947Y-53503458D01*
X64385637Y-53410425D01*
X64668285Y-53259346D01*
X64916029Y-53056029D01*
X65030000Y-52917154D01*
X65143971Y-53056029D01*
X65391714Y-53259346D01*
X65674362Y-53410425D01*
X65981052Y-53503458D01*
X66300000Y-53534872D01*
X66618947Y-53503458D01*
X66925637Y-53410425D01*
X67208285Y-53259346D01*
X67456029Y-53056029D01*
X67659346Y-52808286D01*
X67687057Y-52756442D01*
X67717399Y-52802839D01*
X67915105Y-53004500D01*
X68148354Y-53163715D01*
X68408182Y-53274367D01*
X68490961Y-53291904D01*
X68713000Y-53169915D01*
X68713000Y-51627000D01*
X68693000Y-51627000D01*
X68693000Y-51373000D01*
X68713000Y-51373000D01*
X68713000Y-51353000D01*
X68967000Y-51353000D01*
X68967000Y-51373000D01*
X68987000Y-51373000D01*
X68987000Y-51627000D01*
X68967000Y-51627000D01*
X68967000Y-53169915D01*
X69189039Y-53291904D01*
X69271818Y-53274367D01*
X69531646Y-53163715D01*
X69764895Y-53004500D01*
X69962601Y-52802839D01*
X69992943Y-52756441D01*
X70020654Y-52808285D01*
X70223971Y-53056029D01*
X70471714Y-53259346D01*
X70754362Y-53410425D01*
X71061052Y-53503458D01*
X71380000Y-53534872D01*
X71698947Y-53503458D01*
X72005637Y-53410425D01*
X72288285Y-53259346D01*
X72536029Y-53056029D01*
X72650000Y-52917154D01*
X72763971Y-53056029D01*
X73011714Y-53259346D01*
X73294362Y-53410425D01*
X73601052Y-53503458D01*
X73920000Y-53534872D01*
X74238947Y-53503458D01*
X74545637Y-53410425D01*
X74828285Y-53259346D01*
X75076029Y-53056029D01*
X75190000Y-52917154D01*
X75233001Y-52969551D01*
X75233001Y-53649730D01*
X75227065Y-53710000D01*
X75250755Y-53950533D01*
X75298734Y-54108698D01*
X75320917Y-54181824D01*
X75434852Y-54394983D01*
X75487591Y-54459245D01*
X75544972Y-54529163D01*
X75588184Y-54581817D01*
X75634996Y-54620235D01*
X76339761Y-55325000D01*
X76378183Y-55371817D01*
X76565017Y-55525149D01*
X76678796Y-55585965D01*
X75634995Y-56629766D01*
X75588184Y-56668183D01*
X75549766Y-56714995D01*
X75549765Y-56714996D01*
X75544161Y-56721825D01*
X75434852Y-56855017D01*
X75320917Y-57068176D01*
X75250755Y-57299466D01*
X75233000Y-57479732D01*
X75233000Y-57479740D01*
X75227065Y-57540000D01*
X75233000Y-57600260D01*
X75233000Y-57650450D01*
X75190000Y-57702846D01*
X75076029Y-57563971D01*
X74828286Y-57360654D01*
X74545638Y-57209575D01*
X74238948Y-57116542D01*
X73920000Y-57085128D01*
X73601053Y-57116542D01*
X73294363Y-57209575D01*
X73011715Y-57360654D01*
X72763972Y-57563971D01*
X72650000Y-57702846D01*
X72536029Y-57563971D01*
X72288286Y-57360654D01*
X72005638Y-57209575D01*
X71698948Y-57116542D01*
X71380000Y-57085128D01*
X71061053Y-57116542D01*
X70754363Y-57209575D01*
X70471715Y-57360654D01*
X70223972Y-57563971D01*
X70110000Y-57702846D01*
X69996029Y-57563971D01*
X69748286Y-57360654D01*
X69465638Y-57209575D01*
X69158948Y-57116542D01*
X68840000Y-57085128D01*
X68521053Y-57116542D01*
X68214363Y-57209575D01*
X67931715Y-57360654D01*
X67683972Y-57563971D01*
X67570000Y-57702846D01*
X67456029Y-57563971D01*
X67208286Y-57360654D01*
X66925638Y-57209575D01*
X66618948Y-57116542D01*
X66300000Y-57085128D01*
X65981053Y-57116542D01*
X65674363Y-57209575D01*
X65391715Y-57360654D01*
X65143972Y-57563971D01*
X65030000Y-57702846D01*
X64916029Y-57563971D01*
X64668286Y-57360654D01*
X64385638Y-57209575D01*
X64078948Y-57116542D01*
X63760000Y-57085128D01*
X63441053Y-57116542D01*
X63134363Y-57209575D01*
X62851715Y-57360654D01*
X62603972Y-57563971D01*
X62490000Y-57702846D01*
X62376029Y-57563971D01*
X62128286Y-57360654D01*
X61845638Y-57209575D01*
X61538948Y-57116542D01*
X61220000Y-57085128D01*
X60901053Y-57116542D01*
X60594363Y-57209575D01*
X60311715Y-57360654D01*
X60063972Y-57563971D01*
X59950000Y-57702846D01*
X59836029Y-57563971D01*
X59588286Y-57360654D01*
X59305638Y-57209575D01*
X58998948Y-57116542D01*
X58680000Y-57085128D01*
X58361053Y-57116542D01*
X58054363Y-57209575D01*
X57771715Y-57360654D01*
X57523972Y-57563971D01*
X57320654Y-57811714D01*
X57169575Y-58094362D01*
X57076542Y-58401052D01*
X57053000Y-58640075D01*
X57053000Y-59599924D01*
X57076542Y-59838947D01*
X57169575Y-60145637D01*
X57320654Y-60428285D01*
X57523971Y-60676029D01*
X57771714Y-60879346D01*
X58054362Y-61030425D01*
X58361052Y-61123458D01*
X58680000Y-61154872D01*
X58998947Y-61123458D01*
X59305637Y-61030425D01*
X59588285Y-60879346D01*
X59836029Y-60676029D01*
X59950000Y-60537154D01*
X60063971Y-60676029D01*
X60311714Y-60879346D01*
X60594362Y-61030425D01*
X60901052Y-61123458D01*
X61220000Y-61154872D01*
X61538947Y-61123458D01*
X61845637Y-61030425D01*
X62128285Y-60879346D01*
X62376029Y-60676029D01*
X62490000Y-60537154D01*
X62603971Y-60676029D01*
X62851714Y-60879346D01*
X63134362Y-61030425D01*
X63441052Y-61123458D01*
X63760000Y-61154872D01*
X64078947Y-61123458D01*
X64385637Y-61030425D01*
X64668285Y-60879346D01*
X64916029Y-60676029D01*
X65030000Y-60537154D01*
X65143971Y-60676029D01*
X65391714Y-60879346D01*
X65674362Y-61030425D01*
X65981052Y-61123458D01*
X66300000Y-61154872D01*
X66618947Y-61123458D01*
X66925637Y-61030425D01*
X67208285Y-60879346D01*
X67456029Y-60676029D01*
X67570000Y-60537154D01*
X67683971Y-60676029D01*
X67931714Y-60879346D01*
X68214362Y-61030425D01*
X68521052Y-61123458D01*
X68840000Y-61154872D01*
X69158947Y-61123458D01*
X69465637Y-61030425D01*
X69748285Y-60879346D01*
X69996029Y-60676029D01*
X70110000Y-60537154D01*
X70153001Y-60589551D01*
X70153001Y-60611759D01*
X66675000Y-64089761D01*
X66628183Y-64128183D01*
X66474851Y-64315018D01*
X66360916Y-64528177D01*
X66290755Y-64759467D01*
X66273000Y-64939733D01*
X66273000Y-64939740D01*
X66267065Y-65000000D01*
X66273000Y-65060261D01*
X66273000Y-65773000D01*
X65758240Y-65773000D01*
X64910239Y-64925000D01*
X64871817Y-64878183D01*
X64684983Y-64724851D01*
X64471824Y-64610916D01*
X64240534Y-64540755D01*
X64060268Y-64523000D01*
X64060260Y-64523000D01*
X64000000Y-64517065D01*
X63939740Y-64523000D01*
X63073925Y-64523000D01*
X63037152Y-64486227D01*
X62770673Y-64308172D01*
X62474578Y-64185525D01*
X62160245Y-64123000D01*
X61839755Y-64123000D01*
X61525422Y-64185525D01*
X61229327Y-64308172D01*
X60962848Y-64486227D01*
X60736227Y-64712848D01*
X60558172Y-64979327D01*
X60435525Y-65275422D01*
X60373000Y-65589755D01*
X60373000Y-65910245D01*
X60435525Y-66224578D01*
X60558172Y-66520673D01*
X60736227Y-66787152D01*
X60962848Y-67013773D01*
X61209918Y-67178859D01*
X61186903Y-67257298D01*
X62000000Y-68070395D01*
X62813097Y-67257298D01*
X62790082Y-67178859D01*
X63037152Y-67013773D01*
X63073925Y-66977000D01*
X63491761Y-66977000D01*
X64339765Y-67825005D01*
X64378183Y-67871817D01*
X64565017Y-68025149D01*
X64703927Y-68099397D01*
X64778175Y-68139084D01*
X64911370Y-68179488D01*
X65009466Y-68209245D01*
X65189732Y-68227000D01*
X65189740Y-68227000D01*
X65250000Y-68232935D01*
X65310260Y-68227000D01*
X66497810Y-68227000D01*
X66753011Y-68397519D01*
X67040006Y-68516396D01*
X67344679Y-68577000D01*
X67655321Y-68577000D01*
X67959994Y-68516396D01*
X68246989Y-68397519D01*
X68505279Y-68224936D01*
X68724936Y-68005279D01*
X68897519Y-67746989D01*
X69016396Y-67459994D01*
X69077000Y-67155321D01*
X69077000Y-66844679D01*
X69016396Y-66540006D01*
X68897519Y-66253011D01*
X68727000Y-65997810D01*
X68727000Y-65508239D01*
X72205005Y-62030235D01*
X72251817Y-61991817D01*
X72405149Y-61804983D01*
X72519084Y-61591824D01*
X72546175Y-61502517D01*
X72589246Y-61360534D01*
X72603137Y-61219490D01*
X72607000Y-61180268D01*
X72607000Y-61180263D01*
X72612935Y-61120000D01*
X72607000Y-61059737D01*
X72607000Y-60589550D01*
X72650000Y-60537154D01*
X72693001Y-60589551D01*
X72693000Y-63071760D01*
X71574995Y-64189766D01*
X71528184Y-64228183D01*
X71374852Y-64415017D01*
X71314368Y-64528176D01*
X71260917Y-64628176D01*
X71190755Y-64859467D01*
X71167065Y-65100000D01*
X71173001Y-65160270D01*
X71173001Y-65997809D01*
X71002481Y-66253011D01*
X70883604Y-66540006D01*
X70823000Y-66844679D01*
X70823000Y-67155321D01*
X70883604Y-67459994D01*
X71002481Y-67746989D01*
X71175064Y-68005279D01*
X71394721Y-68224936D01*
X71653011Y-68397519D01*
X71940006Y-68516396D01*
X72244679Y-68577000D01*
X72555321Y-68577000D01*
X72859994Y-68516396D01*
X73146989Y-68397519D01*
X73402190Y-68227000D01*
X74189740Y-68227000D01*
X74250000Y-68232935D01*
X74310260Y-68227000D01*
X74310268Y-68227000D01*
X74490534Y-68209245D01*
X74721824Y-68139084D01*
X74850114Y-68070512D01*
X76559783Y-68070512D01*
X76601213Y-68350130D01*
X76696397Y-68616292D01*
X76763329Y-68741514D01*
X77007298Y-68813097D01*
X77820395Y-68000000D01*
X78179605Y-68000000D01*
X78992702Y-68813097D01*
X79236671Y-68741514D01*
X79357571Y-68486004D01*
X79426300Y-68211816D01*
X79440217Y-67929488D01*
X79398787Y-67649870D01*
X79303603Y-67383708D01*
X79236671Y-67258486D01*
X78992702Y-67186903D01*
X78179605Y-68000000D01*
X77820395Y-68000000D01*
X77007298Y-67186903D01*
X76763329Y-67258486D01*
X76642429Y-67513996D01*
X76573700Y-67788184D01*
X76559783Y-68070512D01*
X74850114Y-68070512D01*
X74934983Y-68025149D01*
X75121817Y-67871817D01*
X75160239Y-67825000D01*
X76258240Y-66727000D01*
X76926075Y-66727000D01*
X76962848Y-66763773D01*
X77209918Y-66928859D01*
X77186903Y-67007298D01*
X78000000Y-67820395D01*
X78813097Y-67007298D01*
X78790082Y-66928859D01*
X79037152Y-66763773D01*
X79263773Y-66537152D01*
X79441828Y-66270673D01*
X79564475Y-65974578D01*
X79627000Y-65660245D01*
X79627000Y-65339755D01*
X79564475Y-65025422D01*
X79441828Y-64729327D01*
X79263773Y-64462848D01*
X79037152Y-64236227D01*
X78770673Y-64058172D01*
X78474578Y-63935525D01*
X78160245Y-63873000D01*
X77839755Y-63873000D01*
X77525422Y-63935525D01*
X77229327Y-64058172D01*
X76962848Y-64236227D01*
X76926075Y-64273000D01*
X75810259Y-64273000D01*
X75749999Y-64267065D01*
X75689739Y-64273000D01*
X75689732Y-64273000D01*
X75509466Y-64290755D01*
X75278176Y-64360916D01*
X75065017Y-64474851D01*
X74878183Y-64628183D01*
X74839765Y-64674995D01*
X73741761Y-65773000D01*
X73627000Y-65773000D01*
X73627000Y-65608239D01*
X74745006Y-64490234D01*
X74791817Y-64451817D01*
X74945149Y-64264983D01*
X75059084Y-64051824D01*
X75074805Y-64000000D01*
X75129246Y-63820534D01*
X75144101Y-63669701D01*
X75147000Y-63640268D01*
X75147000Y-63640263D01*
X75152935Y-63580000D01*
X75147000Y-63519737D01*
X75147000Y-62016890D01*
X85558524Y-62016890D01*
X85603175Y-62164099D01*
X85728359Y-62426920D01*
X85902412Y-62660269D01*
X86118645Y-62855178D01*
X86368748Y-63004157D01*
X86643109Y-63101481D01*
X86873000Y-62980814D01*
X86873000Y-61787000D01*
X87127000Y-61787000D01*
X87127000Y-62980814D01*
X87356891Y-63101481D01*
X87631252Y-63004157D01*
X87881355Y-62855178D01*
X88097588Y-62660269D01*
X88271641Y-62426920D01*
X88396825Y-62164099D01*
X88441476Y-62016890D01*
X88320155Y-61787000D01*
X87127000Y-61787000D01*
X86873000Y-61787000D01*
X85679845Y-61787000D01*
X85558524Y-62016890D01*
X75147000Y-62016890D01*
X75147000Y-60589550D01*
X75190000Y-60537154D01*
X75303971Y-60676029D01*
X75551714Y-60879346D01*
X75834362Y-61030425D01*
X76141052Y-61123458D01*
X76460000Y-61154872D01*
X76778947Y-61123458D01*
X77085637Y-61030425D01*
X77368285Y-60879346D01*
X77616029Y-60676029D01*
X77730000Y-60537154D01*
X77843971Y-60676029D01*
X78091714Y-60879346D01*
X78374362Y-61030425D01*
X78681052Y-61123458D01*
X79000000Y-61154872D01*
X79318947Y-61123458D01*
X79625637Y-61030425D01*
X79908285Y-60879346D01*
X80156029Y-60676029D01*
X80359346Y-60428286D01*
X80402794Y-60347000D01*
X85855364Y-60347000D01*
X85930975Y-60422611D01*
X86065646Y-60512595D01*
X85902412Y-60659731D01*
X85728359Y-60893080D01*
X85603175Y-61155901D01*
X85558524Y-61303110D01*
X85679845Y-61533000D01*
X86873000Y-61533000D01*
X86873000Y-61513000D01*
X87127000Y-61513000D01*
X87127000Y-61533000D01*
X88320155Y-61533000D01*
X88441476Y-61303110D01*
X88396825Y-61155901D01*
X88271641Y-60893080D01*
X88097588Y-60659731D01*
X87934354Y-60512595D01*
X88069025Y-60422611D01*
X88302611Y-60189025D01*
X88486138Y-59914357D01*
X88612554Y-59609163D01*
X88677000Y-59285170D01*
X88677000Y-58954830D01*
X88612554Y-58630837D01*
X88486138Y-58325643D01*
X88302611Y-58050975D01*
X88101636Y-57850000D01*
X88302611Y-57649025D01*
X88486138Y-57374357D01*
X88612554Y-57069163D01*
X88677000Y-56745170D01*
X88677000Y-56414830D01*
X88612554Y-56090837D01*
X88486138Y-55785643D01*
X88302611Y-55510975D01*
X88101636Y-55310000D01*
X88302611Y-55109025D01*
X88486138Y-54834357D01*
X88612554Y-54529163D01*
X88677000Y-54205170D01*
X88677000Y-53874830D01*
X88612554Y-53550837D01*
X88486138Y-53245643D01*
X88336020Y-53020976D01*
X88437606Y-52937606D01*
X88540952Y-52811679D01*
X88617745Y-52668010D01*
X88665034Y-52512120D01*
X88681001Y-52350000D01*
X88681001Y-50650000D01*
X88665034Y-50487880D01*
X88617745Y-50331990D01*
X88540952Y-50188321D01*
X88437606Y-50062394D01*
X88311679Y-49959048D01*
X88168010Y-49882255D01*
X88012120Y-49834966D01*
X87850000Y-49818999D01*
X86150000Y-49818999D01*
X85987880Y-49834966D01*
X85831990Y-49882255D01*
X85688321Y-49959048D01*
X85562394Y-50062394D01*
X85459048Y-50188321D01*
X85413786Y-50273000D01*
X80628342Y-50273000D01*
X80615034Y-50137880D01*
X80567745Y-49981990D01*
X80490952Y-49838321D01*
X80387606Y-49712394D01*
X80261679Y-49609048D01*
X80118010Y-49532255D01*
X79962120Y-49484966D01*
X79800000Y-49468999D01*
X78200000Y-49468999D01*
X78037880Y-49484966D01*
X77881990Y-49532255D01*
X77738321Y-49609048D01*
X77612394Y-49712394D01*
X77509048Y-49838321D01*
X77502415Y-49850731D01*
X77368286Y-49740654D01*
X77085638Y-49589575D01*
X76778948Y-49496542D01*
X76460000Y-49465128D01*
X76141053Y-49496542D01*
X75834363Y-49589575D01*
X75551715Y-49740654D01*
X75303972Y-49943971D01*
X75190000Y-50082846D01*
X75076029Y-49943971D01*
X74828286Y-49740654D01*
X74589420Y-49612977D01*
X74925397Y-49277000D01*
X77949559Y-49277000D01*
X78000000Y-49281968D01*
X78050441Y-49277000D01*
X78050451Y-49277000D01*
X78201327Y-49262140D01*
X78394917Y-49203415D01*
X78573331Y-49108051D01*
X78729712Y-48979712D01*
X78761877Y-48940519D01*
X80190524Y-47511872D01*
X80229712Y-47479712D01*
X80358051Y-47323331D01*
X80434128Y-47181001D01*
X80500000Y-47181001D01*
X80662120Y-47165034D01*
X80818010Y-47117745D01*
X80961679Y-47040952D01*
X81087606Y-46937606D01*
X81190952Y-46811679D01*
X81267745Y-46668010D01*
X81315034Y-46512120D01*
X81331001Y-46350000D01*
X81331001Y-44650000D01*
X81315034Y-44487880D01*
X81267745Y-44331990D01*
X81190952Y-44188321D01*
X81087606Y-44062394D01*
X80961679Y-43959048D01*
X80818010Y-43882255D01*
X80662120Y-43834966D01*
X80500000Y-43818999D01*
X78500000Y-43818999D01*
X78337880Y-43834966D01*
X78181990Y-43882255D01*
X78038321Y-43959048D01*
X77912394Y-44062394D01*
X77809048Y-44188321D01*
X77732255Y-44331990D01*
X77684966Y-44487880D01*
X77668999Y-44650000D01*
X77668999Y-46350000D01*
X77684966Y-46512120D01*
X77732255Y-46668010D01*
X77809048Y-46811679D01*
X77888776Y-46908828D01*
X77574604Y-47223000D01*
X74550440Y-47223000D01*
X74499999Y-47218032D01*
X74449558Y-47223000D01*
X74449549Y-47223000D01*
X74298673Y-47237860D01*
X74105083Y-47296585D01*
X73926669Y-47391949D01*
X73770288Y-47520288D01*
X73738128Y-47559475D01*
X71777295Y-49520308D01*
X71722027Y-49503543D01*
X71767745Y-49418010D01*
X71815034Y-49262120D01*
X71831001Y-49100000D01*
X71831001Y-47400000D01*
X71815034Y-47237880D01*
X71767745Y-47081990D01*
X71690952Y-46938321D01*
X71587606Y-46812394D01*
X71461679Y-46709048D01*
X71322828Y-46634830D01*
X71534830Y-46677000D01*
X71865170Y-46677000D01*
X72189163Y-46612554D01*
X72494357Y-46486138D01*
X72769025Y-46302611D01*
X73002611Y-46069025D01*
X73186138Y-45794357D01*
X73312554Y-45489163D01*
X73377000Y-45165170D01*
X73377000Y-44834830D01*
X73312554Y-44510837D01*
X73186138Y-44205643D01*
X73002611Y-43930975D01*
X72769025Y-43697389D01*
X72494357Y-43513862D01*
X72189163Y-43387446D01*
X71865170Y-43323000D01*
X71534830Y-43323000D01*
X71210837Y-43387446D01*
X71017859Y-43467381D01*
X71508240Y-42977000D01*
X73491761Y-42977000D01*
X74273001Y-43758241D01*
X74273001Y-43854647D01*
X74181990Y-43882255D01*
X74038321Y-43959048D01*
X73912394Y-44062394D01*
X73809048Y-44188321D01*
X73732255Y-44331990D01*
X73684966Y-44487880D01*
X73668999Y-44650000D01*
X73668999Y-46350000D01*
X73684966Y-46512120D01*
X73732255Y-46668010D01*
X73809048Y-46811679D01*
X73912394Y-46937606D01*
X74038321Y-47040952D01*
X74181990Y-47117745D01*
X74337880Y-47165034D01*
X74500000Y-47181001D01*
X76500000Y-47181001D01*
X76662120Y-47165034D01*
X76818010Y-47117745D01*
X76961679Y-47040952D01*
X77087606Y-46937606D01*
X77190952Y-46811679D01*
X77267745Y-46668010D01*
X77315034Y-46512120D01*
X77331001Y-46350000D01*
X77331001Y-44650000D01*
X77315034Y-44487880D01*
X77267745Y-44331990D01*
X77190952Y-44188321D01*
X77087606Y-44062394D01*
X76961679Y-43959048D01*
X76818010Y-43882255D01*
X76727000Y-43854647D01*
X76727000Y-43310259D01*
X76732935Y-43249999D01*
X76727000Y-43189739D01*
X76727000Y-43189732D01*
X76709245Y-43009466D01*
X76639084Y-42778176D01*
X76525149Y-42565017D01*
X76371817Y-42378183D01*
X76325005Y-42339765D01*
X74910239Y-40925000D01*
X74871817Y-40878183D01*
X74839913Y-40852000D01*
X89148001Y-40852000D01*
X89148001Y-72568999D01*
%TA.AperFunction,Conductor*%
D36*
G36*
X89148001Y-72568999D02*
G01*
X88727000Y-72568999D01*
X88727000Y-71823925D01*
X88763773Y-71787152D01*
X88941828Y-71520673D01*
X89064475Y-71224578D01*
X89127000Y-70910245D01*
X89127000Y-70589755D01*
X89064475Y-70275422D01*
X88941828Y-69979327D01*
X88763773Y-69712848D01*
X88537152Y-69486227D01*
X88270673Y-69308172D01*
X87974578Y-69185525D01*
X87660245Y-69123000D01*
X87339755Y-69123000D01*
X87025422Y-69185525D01*
X86729327Y-69308172D01*
X86462848Y-69486227D01*
X86236227Y-69712848D01*
X86058172Y-69979327D01*
X85935525Y-70275422D01*
X85873000Y-70589755D01*
X85873000Y-70910245D01*
X85935525Y-71224578D01*
X86058172Y-71520673D01*
X86236227Y-71787152D01*
X86273000Y-71823925D01*
X86273001Y-73439730D01*
X86267065Y-73500000D01*
X86290755Y-73740533D01*
X86325504Y-73855083D01*
X86360917Y-73971824D01*
X86418999Y-74080489D01*
X86418999Y-75100000D01*
X86434966Y-75262120D01*
X86482255Y-75418010D01*
X86559048Y-75561679D01*
X86609373Y-75623000D01*
X85890627Y-75623000D01*
X85940952Y-75561679D01*
X86017745Y-75418010D01*
X86065034Y-75262120D01*
X86081001Y-75100000D01*
X86081001Y-73400000D01*
X86065034Y-73237880D01*
X86017745Y-73081990D01*
X85940952Y-72938321D01*
X85837606Y-72812394D01*
X85711679Y-72709048D01*
X85568010Y-72632255D01*
X85412120Y-72584966D01*
X85250000Y-72568999D01*
X83250000Y-72568999D01*
X83087880Y-72584966D01*
X82931990Y-72632255D01*
X82788321Y-72709048D01*
X82662394Y-72812394D01*
X82559048Y-72938321D01*
X82516734Y-73017484D01*
X82426250Y-72927000D01*
X81127000Y-72927000D01*
X81127000Y-72947000D01*
X80873000Y-72947000D01*
X80873000Y-72927000D01*
X80853000Y-72927000D01*
X80853000Y-72673000D01*
X80873000Y-72673000D01*
X80873000Y-71923750D01*
X81127000Y-71923750D01*
X81127000Y-72673000D01*
X82426250Y-72673000D01*
X82585000Y-72514250D01*
X82588072Y-72400000D01*
X82575812Y-72275518D01*
X82539502Y-72155820D01*
X82480537Y-72045506D01*
X82401185Y-71948815D01*
X82304494Y-71869463D01*
X82194180Y-71810498D01*
X82074482Y-71774188D01*
X81950000Y-71761928D01*
X81285750Y-71765000D01*
X81127000Y-71923750D01*
X80873000Y-71923750D01*
X80714250Y-71765000D01*
X80050000Y-71761928D01*
X79925518Y-71774188D01*
X79805820Y-71810498D01*
X79695506Y-71869463D01*
X79598815Y-71948815D01*
X79519463Y-72045506D01*
X79460498Y-72155820D01*
X79424188Y-72275518D01*
X79411928Y-72400000D01*
X79415000Y-72514250D01*
X79573748Y-72672998D01*
X79428677Y-72672998D01*
X79411679Y-72659048D01*
X79268010Y-72582255D01*
X79112120Y-72534966D01*
X78950000Y-72518999D01*
X78504239Y-72518999D01*
X75060237Y-69074998D01*
X75021815Y-69028181D01*
X74978585Y-68992702D01*
X77186903Y-68992702D01*
X77258486Y-69236671D01*
X77513996Y-69357571D01*
X77788184Y-69426300D01*
X78070512Y-69440217D01*
X78350130Y-69398787D01*
X78616292Y-69303603D01*
X78741514Y-69236671D01*
X78813097Y-68992702D01*
X78000000Y-68179605D01*
X77186903Y-68992702D01*
X74978585Y-68992702D01*
X74834981Y-68874849D01*
X74621822Y-68760914D01*
X74390532Y-68690753D01*
X74210266Y-68672998D01*
X74210258Y-68672998D01*
X74149998Y-68667063D01*
X74089738Y-68672998D01*
X63373364Y-68672998D01*
X63426300Y-68461816D01*
X63440217Y-68179488D01*
X63398787Y-67899870D01*
X63303603Y-67633708D01*
X63236671Y-67508486D01*
X62992702Y-67436903D01*
X62179605Y-68250000D01*
X62193748Y-68264143D01*
X62014143Y-68443748D01*
X62000000Y-68429605D01*
X61985858Y-68443748D01*
X61806253Y-68264143D01*
X61820395Y-68250000D01*
X61007298Y-67436903D01*
X60763329Y-67508486D01*
X60642429Y-67763996D01*
X60573700Y-68038184D01*
X60559783Y-68320512D01*
X60601213Y-68600130D01*
X60610033Y-68624793D01*
X53660239Y-61675000D01*
X53621817Y-61628183D01*
X53434983Y-61474851D01*
X53221824Y-61360916D01*
X52990534Y-61290755D01*
X52810268Y-61273000D01*
X52810260Y-61273000D01*
X52750000Y-61267065D01*
X52689740Y-61273000D01*
X52073925Y-61273000D01*
X52037152Y-61236227D01*
X51770673Y-61058172D01*
X51474578Y-60935525D01*
X51160245Y-60873000D01*
X50839755Y-60873000D01*
X50525422Y-60935525D01*
X50229327Y-61058172D01*
X49962848Y-61236227D01*
X49736227Y-61462848D01*
X49558172Y-61729327D01*
X49435525Y-62025422D01*
X49373000Y-62339755D01*
X49373000Y-62660245D01*
X49435525Y-62974578D01*
X49558172Y-63270673D01*
X49736227Y-63537152D01*
X49962848Y-63763773D01*
X50229327Y-63941828D01*
X50525422Y-64064475D01*
X50839755Y-64127000D01*
X51160245Y-64127000D01*
X51474578Y-64064475D01*
X51770673Y-63941828D01*
X52037152Y-63763773D01*
X52073925Y-63727000D01*
X52241761Y-63727000D01*
X56787760Y-68273000D01*
X53060259Y-68273000D01*
X52999999Y-68267065D01*
X52939739Y-68273000D01*
X52939732Y-68273000D01*
X52759466Y-68290755D01*
X52528176Y-68360916D01*
X52315017Y-68474851D01*
X52256348Y-68523000D01*
X43758240Y-68523000D01*
X39227000Y-63991761D01*
X39227000Y-61810263D01*
X39232935Y-61750000D01*
X39209246Y-61509466D01*
X39139084Y-61278176D01*
X39115697Y-61234422D01*
X39025149Y-61065017D01*
X38934502Y-60954564D01*
X38910236Y-60924995D01*
X38910230Y-60924989D01*
X38871817Y-60878183D01*
X38825012Y-60839771D01*
X34331001Y-56345762D01*
X34331001Y-55525000D01*
X34315034Y-55362880D01*
X34267745Y-55206990D01*
X34190952Y-55063321D01*
X34087606Y-54937394D01*
X33961679Y-54834048D01*
X33818010Y-54757255D01*
X33662120Y-54709966D01*
X33500000Y-54693999D01*
X31500000Y-54693999D01*
X31337880Y-54709966D01*
X31181990Y-54757255D01*
X31038321Y-54834048D01*
X30912394Y-54937394D01*
X30809048Y-55063321D01*
X30732255Y-55206990D01*
X30684966Y-55362880D01*
X30668999Y-55525000D01*
X30668999Y-57225000D01*
X30684966Y-57387120D01*
X30732255Y-57543010D01*
X30809048Y-57686679D01*
X30912394Y-57812606D01*
X31038321Y-57915952D01*
X31181990Y-57992745D01*
X31337880Y-58040034D01*
X31500000Y-58056001D01*
X32570762Y-58056001D01*
X36773000Y-62258241D01*
X36773001Y-64439730D01*
X36767065Y-64500000D01*
X36790755Y-64740533D01*
X36826834Y-64859467D01*
X36860917Y-64971824D01*
X36974852Y-65184983D01*
X37128184Y-65371817D01*
X37174996Y-65410235D01*
X42339765Y-70575005D01*
X42378183Y-70621817D01*
X42565017Y-70775149D01*
X42778176Y-70889084D01*
X43009466Y-70959245D01*
X43189732Y-70977000D01*
X43189739Y-70977000D01*
X43249999Y-70982935D01*
X43310259Y-70977000D01*
X52689740Y-70977000D01*
X52750000Y-70982935D01*
X52810260Y-70977000D01*
X52810268Y-70977000D01*
X52990534Y-70959245D01*
X53221824Y-70889084D01*
X53434983Y-70775149D01*
X53493652Y-70727000D01*
X56491761Y-70727000D01*
X59468999Y-73704239D01*
X59468999Y-74150000D01*
X59484966Y-74312120D01*
X59509164Y-74391891D01*
X59441828Y-74229327D01*
X59263773Y-73962848D01*
X59037152Y-73736227D01*
X58770673Y-73558172D01*
X58474578Y-73435525D01*
X58160245Y-73373000D01*
X57839755Y-73373000D01*
X57525422Y-73435525D01*
X57229327Y-73558172D01*
X56962848Y-73736227D01*
X56926075Y-73773000D01*
X56581001Y-73773000D01*
X56581001Y-73150000D01*
X56565034Y-72987880D01*
X56517745Y-72831990D01*
X56440952Y-72688321D01*
X56337606Y-72562394D01*
X56211679Y-72459048D01*
X56068010Y-72382255D01*
X55912120Y-72334966D01*
X55750000Y-72318999D01*
X53750000Y-72318999D01*
X53587880Y-72334966D01*
X53431990Y-72382255D01*
X53288321Y-72459048D01*
X53162394Y-72562394D01*
X53059048Y-72688321D01*
X52982255Y-72831990D01*
X52934966Y-72987880D01*
X52918999Y-73150000D01*
X52918999Y-74850000D01*
X52934966Y-75012120D01*
X52982255Y-75168010D01*
X53059048Y-75311679D01*
X53162394Y-75437606D01*
X53288321Y-75540952D01*
X53431990Y-75617745D01*
X53449313Y-75623000D01*
X52050687Y-75623000D01*
X52068010Y-75617745D01*
X52211679Y-75540952D01*
X52337606Y-75437606D01*
X52440952Y-75311679D01*
X52517745Y-75168010D01*
X52565034Y-75012120D01*
X52581001Y-74850000D01*
X52581001Y-73150000D01*
X52565034Y-72987880D01*
X52517745Y-72831990D01*
X52440952Y-72688321D01*
X52337606Y-72562394D01*
X52211679Y-72459048D01*
X52068010Y-72382255D01*
X51912120Y-72334966D01*
X51750000Y-72318999D01*
X49750000Y-72318999D01*
X49587880Y-72334966D01*
X49431990Y-72382255D01*
X49288321Y-72459048D01*
X49162394Y-72562394D01*
X49059048Y-72688321D01*
X48982255Y-72831990D01*
X48934966Y-72987880D01*
X48918999Y-73150000D01*
X48918999Y-73173000D01*
X48739604Y-73173000D01*
X48676072Y-73120860D01*
X48730537Y-73054494D01*
X48789502Y-72944180D01*
X48825812Y-72824482D01*
X48838072Y-72700000D01*
X48835000Y-72585750D01*
X48676250Y-72427000D01*
X47377000Y-72427000D01*
X47377000Y-72447000D01*
X47123000Y-72447000D01*
X47123000Y-72427000D01*
X47103000Y-72427000D01*
X47103000Y-72173000D01*
X47123000Y-72173000D01*
X47123000Y-71423750D01*
X47377000Y-71423750D01*
X47377000Y-72173000D01*
X48676250Y-72173000D01*
X48835000Y-72014250D01*
X48838072Y-71900000D01*
X48825812Y-71775518D01*
X48789502Y-71655820D01*
X48730537Y-71545506D01*
X48651185Y-71448815D01*
X48554494Y-71369463D01*
X48444180Y-71310498D01*
X48324482Y-71274188D01*
X48200000Y-71261928D01*
X47535750Y-71265000D01*
X47377000Y-71423750D01*
X47123000Y-71423750D01*
X46964250Y-71265000D01*
X46300000Y-71261928D01*
X46175518Y-71274188D01*
X46055820Y-71310498D01*
X45945506Y-71369463D01*
X45848815Y-71448815D01*
X45769463Y-71545506D01*
X45710498Y-71655820D01*
X45674188Y-71775518D01*
X45661928Y-71900000D01*
X45665000Y-72014250D01*
X45823748Y-72172998D01*
X45678677Y-72172998D01*
X45661679Y-72159048D01*
X45518010Y-72082255D01*
X45362120Y-72034966D01*
X45200000Y-72018999D01*
X44269646Y-72018999D01*
X44250000Y-72017064D01*
X44230354Y-72018999D01*
X43300000Y-72018999D01*
X43259376Y-72023000D01*
X43258240Y-72023000D01*
X34325777Y-63090538D01*
X34331001Y-63037500D01*
X34331001Y-61337500D01*
X34315034Y-61175380D01*
X34267745Y-61019490D01*
X34190952Y-60875821D01*
X34087606Y-60749894D01*
X33961679Y-60646548D01*
X33818010Y-60569755D01*
X33662120Y-60522466D01*
X33500000Y-60506499D01*
X31500000Y-60506499D01*
X31337880Y-60522466D01*
X31181990Y-60569755D01*
X31038321Y-60646548D01*
X30912394Y-60749894D01*
X30809048Y-60875821D01*
X30732255Y-61019490D01*
X30684966Y-61175380D01*
X30668999Y-61337500D01*
X30668999Y-63037500D01*
X30684966Y-63199620D01*
X30732255Y-63355510D01*
X30809048Y-63499179D01*
X30912394Y-63625106D01*
X31038321Y-63728452D01*
X31181990Y-63805245D01*
X31337880Y-63852534D01*
X31500000Y-63868501D01*
X31625463Y-63868501D01*
X31628184Y-63871817D01*
X31674996Y-63910235D01*
X41839764Y-74075004D01*
X41878183Y-74121817D01*
X42065017Y-74275149D01*
X42278176Y-74389084D01*
X42509466Y-74459245D01*
X42689732Y-74477000D01*
X42689739Y-74477000D01*
X42749999Y-74482935D01*
X42810259Y-74477000D01*
X43023000Y-74477000D01*
X43023001Y-75623000D01*
X40281399Y-75623000D01*
X40315034Y-75512120D01*
X40331001Y-75350000D01*
X40331001Y-73650000D01*
X40315034Y-73487880D01*
X40267745Y-73331990D01*
X40190952Y-73188321D01*
X40087606Y-73062394D01*
X39961679Y-72959048D01*
X39818010Y-72882255D01*
X39662120Y-72834966D01*
X39500000Y-72818999D01*
X39304239Y-72818999D01*
X37127000Y-70641761D01*
X37127000Y-70589755D01*
X37064475Y-70275422D01*
X36941828Y-69979327D01*
X36763773Y-69712848D01*
X36537152Y-69486227D01*
X36270673Y-69308172D01*
X35974578Y-69185525D01*
X35660245Y-69123000D01*
X35339755Y-69123000D01*
X35025422Y-69185525D01*
X34729327Y-69308172D01*
X34462848Y-69486227D01*
X34236227Y-69712848D01*
X34058172Y-69979327D01*
X33935525Y-70275422D01*
X33873000Y-70589755D01*
X33873000Y-70910245D01*
X33935525Y-71224578D01*
X34058172Y-71520673D01*
X34236227Y-71787152D01*
X34462848Y-72013773D01*
X34729327Y-72191828D01*
X35025422Y-72314475D01*
X35339755Y-72377000D01*
X35391761Y-72377000D01*
X36029322Y-73014561D01*
X35961679Y-72959048D01*
X35818010Y-72882255D01*
X35662120Y-72834966D01*
X35500000Y-72818999D01*
X33500000Y-72818999D01*
X33337880Y-72834966D01*
X33181990Y-72882255D01*
X33038321Y-72959048D01*
X32912394Y-73062394D01*
X32809048Y-73188321D01*
X32732255Y-73331990D01*
X32684966Y-73487880D01*
X32668999Y-73650000D01*
X32668999Y-73673000D01*
X32239604Y-73673000D01*
X32176072Y-73620860D01*
X32230537Y-73554494D01*
X32289502Y-73444180D01*
X32325812Y-73324482D01*
X32338072Y-73200000D01*
X32335000Y-73085750D01*
X32176250Y-72927000D01*
X30877000Y-72927000D01*
X30877000Y-72947000D01*
X30623000Y-72947000D01*
X30623000Y-72927000D01*
X30603000Y-72927000D01*
X30603000Y-72673000D01*
X30623000Y-72673000D01*
X30623000Y-72653000D01*
X30877000Y-72653000D01*
X30877000Y-72673000D01*
X32176250Y-72673000D01*
X32335000Y-72514250D01*
X32338072Y-72400000D01*
X32325812Y-72275518D01*
X32289502Y-72155820D01*
X32230537Y-72045506D01*
X32151185Y-71948815D01*
X32054494Y-71869463D01*
X31944180Y-71810498D01*
X31896123Y-71795920D01*
X31934983Y-71775149D01*
X32121817Y-71621817D01*
X32160239Y-71575000D01*
X33325005Y-70410235D01*
X33371817Y-70371817D01*
X33525149Y-70184983D01*
X33599397Y-70046073D01*
X33639084Y-69971825D01*
X33709245Y-69740534D01*
X33714201Y-69690217D01*
X33718362Y-69647973D01*
X33818010Y-69617745D01*
X33961679Y-69540952D01*
X34087606Y-69437606D01*
X34190952Y-69311679D01*
X34267745Y-69168010D01*
X34315034Y-69012120D01*
X34331001Y-68850000D01*
X34331001Y-67150000D01*
X34315034Y-66987880D01*
X34267745Y-66831990D01*
X34190952Y-66688321D01*
X34087606Y-66562394D01*
X33961679Y-66459048D01*
X33818010Y-66382255D01*
X33662120Y-66334966D01*
X33500000Y-66318999D01*
X31500000Y-66318999D01*
X31337880Y-66334966D01*
X31181990Y-66382255D01*
X31038321Y-66459048D01*
X30912394Y-66562394D01*
X30809048Y-66688321D01*
X30732255Y-66831990D01*
X30684966Y-66987880D01*
X30668999Y-67150000D01*
X30668999Y-68850000D01*
X30684966Y-69012120D01*
X30732255Y-69168010D01*
X30809048Y-69311679D01*
X30873972Y-69390789D01*
X30741761Y-69523000D01*
X29983553Y-69523000D01*
X30087606Y-69437606D01*
X30190952Y-69311679D01*
X30267745Y-69168010D01*
X30315034Y-69012120D01*
X30331001Y-68850000D01*
X30331001Y-67150000D01*
X30315034Y-66987880D01*
X30267745Y-66831990D01*
X30190952Y-66688321D01*
X30087606Y-66562394D01*
X29961679Y-66459048D01*
X29818010Y-66382255D01*
X29662120Y-66334966D01*
X29500000Y-66318999D01*
X27500000Y-66318999D01*
X27337880Y-66334966D01*
X27181990Y-66382255D01*
X27038321Y-66459048D01*
X26912394Y-66562394D01*
X26809048Y-66688321D01*
X26732255Y-66831990D01*
X26684966Y-66987880D01*
X26668999Y-67150000D01*
X26668999Y-67223000D01*
X25218493Y-67223000D01*
X25215034Y-67187880D01*
X25167745Y-67031990D01*
X25090952Y-66888321D01*
X24987606Y-66762394D01*
X24861679Y-66659048D01*
X24718010Y-66582255D01*
X24562120Y-66534966D01*
X24400000Y-66518999D01*
X24291359Y-66518999D01*
X24318041Y-66507947D01*
X24600898Y-66318948D01*
X24841448Y-66078398D01*
X25030447Y-65795541D01*
X25160632Y-65481247D01*
X25227000Y-65147595D01*
X25227000Y-64807405D01*
X25160632Y-64473753D01*
X25030447Y-64159459D01*
X24914142Y-63985396D01*
X24987606Y-63925106D01*
X25090952Y-63799179D01*
X25167745Y-63655510D01*
X25215034Y-63499620D01*
X25218493Y-63464500D01*
X26790512Y-63464500D01*
X26809048Y-63499179D01*
X26912394Y-63625106D01*
X27038321Y-63728452D01*
X27181990Y-63805245D01*
X27337880Y-63852534D01*
X27500000Y-63868501D01*
X29500000Y-63868501D01*
X29662120Y-63852534D01*
X29818010Y-63805245D01*
X29961679Y-63728452D01*
X30087606Y-63625106D01*
X30190952Y-63499179D01*
X30267745Y-63355510D01*
X30315034Y-63199620D01*
X30331001Y-63037500D01*
X30331001Y-61337500D01*
X30315034Y-61175380D01*
X30267745Y-61019490D01*
X30190952Y-60875821D01*
X30087606Y-60749894D01*
X29961679Y-60646548D01*
X29818010Y-60569755D01*
X29662120Y-60522466D01*
X29500000Y-60506499D01*
X27500000Y-60506499D01*
X27337880Y-60522466D01*
X27181990Y-60569755D01*
X27038321Y-60646548D01*
X26912394Y-60749894D01*
X26809048Y-60875821D01*
X26732255Y-61019490D01*
X26684966Y-61175380D01*
X26668999Y-61337500D01*
X26668999Y-61410500D01*
X25218493Y-61410500D01*
X25215034Y-61375380D01*
X25167745Y-61219490D01*
X25090952Y-61075821D01*
X24987606Y-60949894D01*
X24861679Y-60846548D01*
X24718010Y-60769755D01*
X24562120Y-60722466D01*
X24400000Y-60706499D01*
X24291359Y-60706499D01*
X24318041Y-60695447D01*
X24600898Y-60506448D01*
X24841448Y-60265898D01*
X25030447Y-59983041D01*
X25160632Y-59668747D01*
X25227000Y-59335095D01*
X25227000Y-58994905D01*
X25160632Y-58661253D01*
X25030447Y-58346959D01*
X24914142Y-58172896D01*
X24987606Y-58112606D01*
X25090952Y-57986679D01*
X25167745Y-57843010D01*
X25215034Y-57687120D01*
X25218493Y-57652000D01*
X26790512Y-57652000D01*
X26809048Y-57686679D01*
X26912394Y-57812606D01*
X27038321Y-57915952D01*
X27181990Y-57992745D01*
X27337880Y-58040034D01*
X27500000Y-58056001D01*
X29500000Y-58056001D01*
X29662120Y-58040034D01*
X29818010Y-57992745D01*
X29961679Y-57915952D01*
X30087606Y-57812606D01*
X30190952Y-57686679D01*
X30267745Y-57543010D01*
X30315034Y-57387120D01*
X30331001Y-57225000D01*
X30331001Y-55525000D01*
X30315034Y-55362880D01*
X30267745Y-55206990D01*
X30190952Y-55063321D01*
X30087606Y-54937394D01*
X29961679Y-54834048D01*
X29818010Y-54757255D01*
X29662120Y-54709966D01*
X29500000Y-54693999D01*
X27500000Y-54693999D01*
X27337880Y-54709966D01*
X27181990Y-54757255D01*
X27038321Y-54834048D01*
X26912394Y-54937394D01*
X26809048Y-55063321D01*
X26732255Y-55206990D01*
X26684966Y-55362880D01*
X26668999Y-55525000D01*
X26668999Y-55598000D01*
X25218493Y-55598000D01*
X25215034Y-55562880D01*
X25167745Y-55406990D01*
X25090952Y-55263321D01*
X24987606Y-55137394D01*
X24861679Y-55034048D01*
X24718010Y-54957255D01*
X24562120Y-54909966D01*
X24400000Y-54893999D01*
X24291359Y-54893999D01*
X24318041Y-54882947D01*
X24600898Y-54693948D01*
X24615346Y-54679500D01*
X36082326Y-54679500D01*
X36147500Y-54685919D01*
X36212674Y-54679500D01*
X36212684Y-54679500D01*
X36407637Y-54660299D01*
X36657778Y-54584419D01*
X36888308Y-54461198D01*
X37090370Y-54295370D01*
X37131925Y-54244735D01*
X38174661Y-53202000D01*
X39575340Y-53202000D01*
X39923001Y-53549662D01*
X39923000Y-56934826D01*
X39916581Y-57000000D01*
X39923000Y-57065174D01*
X39923000Y-57065183D01*
X39942201Y-57260136D01*
X40008815Y-57479732D01*
X40018081Y-57510277D01*
X40141302Y-57740808D01*
X40202204Y-57815017D01*
X40307130Y-57942870D01*
X40357765Y-57984425D01*
X41765579Y-59392240D01*
X41807130Y-59442870D01*
X41857760Y-59484421D01*
X41857761Y-59484422D01*
X42009190Y-59608697D01*
X42009192Y-59608698D01*
X42239722Y-59731919D01*
X42489863Y-59807799D01*
X42684816Y-59827000D01*
X42684828Y-59827000D01*
X42749999Y-59833419D01*
X42815171Y-59827000D01*
X44012450Y-59827000D01*
X44059048Y-59914179D01*
X44162394Y-60040106D01*
X44288321Y-60143452D01*
X44431990Y-60220245D01*
X44587880Y-60267534D01*
X44750000Y-60283501D01*
X46750000Y-60283501D01*
X46912120Y-60267534D01*
X47068010Y-60220245D01*
X47211679Y-60143452D01*
X47337606Y-60040106D01*
X47440952Y-59914179D01*
X47517745Y-59770510D01*
X47530944Y-59727000D01*
X49268999Y-59727000D01*
X49268999Y-60000000D01*
X49284966Y-60162120D01*
X49332255Y-60318010D01*
X49409048Y-60461679D01*
X49512394Y-60587606D01*
X49638321Y-60690952D01*
X49781990Y-60767745D01*
X49937880Y-60815034D01*
X50100000Y-60831001D01*
X51900000Y-60831001D01*
X52062120Y-60815034D01*
X52218010Y-60767745D01*
X52361679Y-60690952D01*
X52487606Y-60587606D01*
X52590952Y-60461679D01*
X52667745Y-60318010D01*
X52715034Y-60162120D01*
X52731001Y-60000000D01*
X52731001Y-56500000D01*
X52715034Y-56337880D01*
X52667745Y-56181990D01*
X52590952Y-56038321D01*
X52487606Y-55912394D01*
X52361679Y-55809048D01*
X52251208Y-55750000D01*
X52361679Y-55690952D01*
X52487606Y-55587606D01*
X52590952Y-55461679D01*
X52667745Y-55318010D01*
X52715034Y-55162120D01*
X52731001Y-55000000D01*
X52731001Y-51500000D01*
X52715034Y-51337880D01*
X52667745Y-51181990D01*
X52590952Y-51038321D01*
X52487606Y-50912394D01*
X52361679Y-50809048D01*
X52231920Y-50739690D01*
X52227000Y-50689739D01*
X52227000Y-50689732D01*
X52209245Y-50509466D01*
X52139084Y-50278176D01*
X52025149Y-50065017D01*
X51871817Y-49878183D01*
X51825001Y-49839762D01*
X51477000Y-49491761D01*
X51477000Y-48009488D01*
X51511679Y-47990952D01*
X51637606Y-47887606D01*
X51740952Y-47761679D01*
X51774483Y-47698947D01*
X51971824Y-47639084D01*
X52184983Y-47525149D01*
X52371817Y-47371817D01*
X52410239Y-47325000D01*
X56758240Y-42977000D01*
X66811761Y-42977000D01*
X67374764Y-43540004D01*
X67413183Y-43586817D01*
X67600017Y-43740149D01*
X67696459Y-43791698D01*
X67848716Y-43943955D01*
X67767405Y-44065646D01*
X67620269Y-43902412D01*
X67386920Y-43728359D01*
X67124099Y-43603175D01*
X66976890Y-43558524D01*
X66747000Y-43679845D01*
X66747000Y-44873000D01*
X66767000Y-44873000D01*
X66767000Y-45127000D01*
X66747000Y-45127000D01*
X66747000Y-46320155D01*
X66976890Y-46441476D01*
X67124099Y-46396825D01*
X67386920Y-46271641D01*
X67620269Y-46097588D01*
X67767405Y-45934354D01*
X67857389Y-46069025D01*
X67933000Y-46144636D01*
X67933000Y-46349740D01*
X67927065Y-46410000D01*
X67933000Y-46470260D01*
X67933000Y-46470268D01*
X67950755Y-46650534D01*
X68020916Y-46881824D01*
X68134852Y-47094983D01*
X68184780Y-47155820D01*
X68203091Y-47178131D01*
X68184966Y-47237880D01*
X68168999Y-47400000D01*
X68168999Y-49100000D01*
X68184966Y-49262120D01*
X68232255Y-49418010D01*
X68309048Y-49561679D01*
X68412394Y-49687606D01*
X68448359Y-49717121D01*
X68408182Y-49725633D01*
X68148354Y-49836285D01*
X67915105Y-49995500D01*
X67717399Y-50197161D01*
X67687057Y-50243558D01*
X67659346Y-50191714D01*
X67456029Y-49943971D01*
X67208286Y-49740654D01*
X67160231Y-49714968D01*
X67244180Y-49689502D01*
X67354494Y-49630537D01*
X67451185Y-49551185D01*
X67530537Y-49454494D01*
X67589502Y-49344180D01*
X67625812Y-49224482D01*
X67638072Y-49100000D01*
X67635000Y-48535750D01*
X67476250Y-48377000D01*
X66127000Y-48377000D01*
X66127000Y-48397000D01*
X65873000Y-48397000D01*
X65873000Y-48377000D01*
X65853000Y-48377000D01*
X65853000Y-48123000D01*
X65873000Y-48123000D01*
X65873000Y-46923750D01*
X66127000Y-46923750D01*
X66127000Y-48123000D01*
X67476250Y-48123000D01*
X67635000Y-47964250D01*
X67638072Y-47400000D01*
X67625812Y-47275518D01*
X67589502Y-47155820D01*
X67530537Y-47045506D01*
X67451185Y-46948815D01*
X67354494Y-46869463D01*
X67244180Y-46810498D01*
X67124482Y-46774188D01*
X67000000Y-46761928D01*
X66285750Y-46765000D01*
X66127000Y-46923750D01*
X65873000Y-46923750D01*
X65714250Y-46765000D01*
X65000000Y-46761928D01*
X64974266Y-46764462D01*
X65105149Y-46604983D01*
X65219084Y-46391824D01*
X65288436Y-46163200D01*
X65382611Y-46069025D01*
X65472595Y-45934354D01*
X65619731Y-46097588D01*
X65853080Y-46271641D01*
X66115901Y-46396825D01*
X66263110Y-46441476D01*
X66493000Y-46320155D01*
X66493000Y-45127000D01*
X66473000Y-45127000D01*
X66473000Y-44873000D01*
X66493000Y-44873000D01*
X66493000Y-43679845D01*
X66263110Y-43558524D01*
X66115901Y-43603175D01*
X65853080Y-43728359D01*
X65619731Y-43902412D01*
X65472595Y-44065646D01*
X65382611Y-43930975D01*
X65149025Y-43697389D01*
X64874357Y-43513862D01*
X64569163Y-43387446D01*
X64245170Y-43323000D01*
X63914830Y-43323000D01*
X63590837Y-43387446D01*
X63285643Y-43513862D01*
X63010975Y-43697389D01*
X62810000Y-43898364D01*
X62609025Y-43697389D01*
X62334357Y-43513862D01*
X62029163Y-43387446D01*
X61705170Y-43323000D01*
X61374830Y-43323000D01*
X61050837Y-43387446D01*
X60745643Y-43513862D01*
X60520976Y-43663980D01*
X60437606Y-43562394D01*
X60311679Y-43459048D01*
X60168010Y-43382255D01*
X60012120Y-43334966D01*
X59850000Y-43318999D01*
X58150000Y-43318999D01*
X57987880Y-43334966D01*
X57831990Y-43382255D01*
X57688321Y-43459048D01*
X57562394Y-43562394D01*
X57459048Y-43688321D01*
X57382255Y-43831990D01*
X57334966Y-43987880D01*
X57318999Y-44150000D01*
X57318999Y-45850000D01*
X57334966Y-46012120D01*
X57382255Y-46168010D01*
X57459048Y-46311679D01*
X57562394Y-46437606D01*
X57688321Y-46540952D01*
X57831990Y-46617745D01*
X57987880Y-46665034D01*
X58150000Y-46681001D01*
X59850000Y-46681001D01*
X59993001Y-46666917D01*
X59993000Y-50030450D01*
X59950000Y-50082846D01*
X59836029Y-49943971D01*
X59588286Y-49740654D01*
X59305638Y-49589575D01*
X58998948Y-49496542D01*
X58680000Y-49465128D01*
X58361053Y-49496542D01*
X58054363Y-49589575D01*
X57771715Y-49740654D01*
X57523972Y-49943971D01*
X57320654Y-50191714D01*
X57169575Y-50474362D01*
X57076542Y-50781052D01*
X57053000Y-51020075D01*
X57053000Y-51979924D01*
X57076542Y-52218947D01*
X57169575Y-52525637D01*
X57320654Y-52808285D01*
X57523971Y-53056029D01*
X57771714Y-53259346D01*
X58054362Y-53410425D01*
X58361052Y-53503458D01*
X58680000Y-53534872D01*
X58998947Y-53503458D01*
X59305637Y-53410425D01*
X59588285Y-53259346D01*
X59836029Y-53056029D01*
X59950000Y-52917154D01*
X60063971Y-53056029D01*
X60311714Y-53259346D01*
X60594362Y-53410425D01*
X60901052Y-53503458D01*
X61220000Y-53534872D01*
X61538947Y-53503458D01*
X61845637Y-53410425D01*
X62128285Y-53259346D01*
X62376029Y-53056029D01*
X62490000Y-52917154D01*
X62603971Y-53056029D01*
X62851714Y-53259346D01*
X63134362Y-53410425D01*
X63441052Y-53503458D01*
X63760000Y-53534872D01*
X64078947Y-53503458D01*
X64385637Y-53410425D01*
X64668285Y-53259346D01*
X64916029Y-53056029D01*
X65030000Y-52917154D01*
X65143971Y-53056029D01*
X65391714Y-53259346D01*
X65674362Y-53410425D01*
X65981052Y-53503458D01*
X66300000Y-53534872D01*
X66618947Y-53503458D01*
X66925637Y-53410425D01*
X67208285Y-53259346D01*
X67456029Y-53056029D01*
X67659346Y-52808286D01*
X67687057Y-52756442D01*
X67717399Y-52802839D01*
X67915105Y-53004500D01*
X68148354Y-53163715D01*
X68408182Y-53274367D01*
X68490961Y-53291904D01*
X68713000Y-53169915D01*
X68713000Y-51627000D01*
X68693000Y-51627000D01*
X68693000Y-51373000D01*
X68713000Y-51373000D01*
X68713000Y-51353000D01*
X68967000Y-51353000D01*
X68967000Y-51373000D01*
X68987000Y-51373000D01*
X68987000Y-51627000D01*
X68967000Y-51627000D01*
X68967000Y-53169915D01*
X69189039Y-53291904D01*
X69271818Y-53274367D01*
X69531646Y-53163715D01*
X69764895Y-53004500D01*
X69962601Y-52802839D01*
X69992943Y-52756441D01*
X70020654Y-52808285D01*
X70223971Y-53056029D01*
X70471714Y-53259346D01*
X70754362Y-53410425D01*
X71061052Y-53503458D01*
X71380000Y-53534872D01*
X71698947Y-53503458D01*
X72005637Y-53410425D01*
X72288285Y-53259346D01*
X72536029Y-53056029D01*
X72650000Y-52917154D01*
X72763971Y-53056029D01*
X73011714Y-53259346D01*
X73294362Y-53410425D01*
X73601052Y-53503458D01*
X73920000Y-53534872D01*
X74238947Y-53503458D01*
X74545637Y-53410425D01*
X74828285Y-53259346D01*
X75076029Y-53056029D01*
X75190000Y-52917154D01*
X75233001Y-52969551D01*
X75233001Y-53649730D01*
X75227065Y-53710000D01*
X75250755Y-53950533D01*
X75298734Y-54108698D01*
X75320917Y-54181824D01*
X75434852Y-54394983D01*
X75487591Y-54459245D01*
X75544972Y-54529163D01*
X75588184Y-54581817D01*
X75634996Y-54620235D01*
X76339761Y-55325000D01*
X76378183Y-55371817D01*
X76565017Y-55525149D01*
X76678796Y-55585965D01*
X75634995Y-56629766D01*
X75588184Y-56668183D01*
X75549766Y-56714995D01*
X75549765Y-56714996D01*
X75544161Y-56721825D01*
X75434852Y-56855017D01*
X75320917Y-57068176D01*
X75250755Y-57299466D01*
X75233000Y-57479732D01*
X75233000Y-57479740D01*
X75227065Y-57540000D01*
X75233000Y-57600260D01*
X75233000Y-57650450D01*
X75190000Y-57702846D01*
X75076029Y-57563971D01*
X74828286Y-57360654D01*
X74545638Y-57209575D01*
X74238948Y-57116542D01*
X73920000Y-57085128D01*
X73601053Y-57116542D01*
X73294363Y-57209575D01*
X73011715Y-57360654D01*
X72763972Y-57563971D01*
X72650000Y-57702846D01*
X72536029Y-57563971D01*
X72288286Y-57360654D01*
X72005638Y-57209575D01*
X71698948Y-57116542D01*
X71380000Y-57085128D01*
X71061053Y-57116542D01*
X70754363Y-57209575D01*
X70471715Y-57360654D01*
X70223972Y-57563971D01*
X70110000Y-57702846D01*
X69996029Y-57563971D01*
X69748286Y-57360654D01*
X69465638Y-57209575D01*
X69158948Y-57116542D01*
X68840000Y-57085128D01*
X68521053Y-57116542D01*
X68214363Y-57209575D01*
X67931715Y-57360654D01*
X67683972Y-57563971D01*
X67570000Y-57702846D01*
X67456029Y-57563971D01*
X67208286Y-57360654D01*
X66925638Y-57209575D01*
X66618948Y-57116542D01*
X66300000Y-57085128D01*
X65981053Y-57116542D01*
X65674363Y-57209575D01*
X65391715Y-57360654D01*
X65143972Y-57563971D01*
X65030000Y-57702846D01*
X64916029Y-57563971D01*
X64668286Y-57360654D01*
X64385638Y-57209575D01*
X64078948Y-57116542D01*
X63760000Y-57085128D01*
X63441053Y-57116542D01*
X63134363Y-57209575D01*
X62851715Y-57360654D01*
X62603972Y-57563971D01*
X62490000Y-57702846D01*
X62376029Y-57563971D01*
X62128286Y-57360654D01*
X61845638Y-57209575D01*
X61538948Y-57116542D01*
X61220000Y-57085128D01*
X60901053Y-57116542D01*
X60594363Y-57209575D01*
X60311715Y-57360654D01*
X60063972Y-57563971D01*
X59950000Y-57702846D01*
X59836029Y-57563971D01*
X59588286Y-57360654D01*
X59305638Y-57209575D01*
X58998948Y-57116542D01*
X58680000Y-57085128D01*
X58361053Y-57116542D01*
X58054363Y-57209575D01*
X57771715Y-57360654D01*
X57523972Y-57563971D01*
X57320654Y-57811714D01*
X57169575Y-58094362D01*
X57076542Y-58401052D01*
X57053000Y-58640075D01*
X57053000Y-59599924D01*
X57076542Y-59838947D01*
X57169575Y-60145637D01*
X57320654Y-60428285D01*
X57523971Y-60676029D01*
X57771714Y-60879346D01*
X58054362Y-61030425D01*
X58361052Y-61123458D01*
X58680000Y-61154872D01*
X58998947Y-61123458D01*
X59305637Y-61030425D01*
X59588285Y-60879346D01*
X59836029Y-60676029D01*
X59950000Y-60537154D01*
X60063971Y-60676029D01*
X60311714Y-60879346D01*
X60594362Y-61030425D01*
X60901052Y-61123458D01*
X61220000Y-61154872D01*
X61538947Y-61123458D01*
X61845637Y-61030425D01*
X62128285Y-60879346D01*
X62376029Y-60676029D01*
X62490000Y-60537154D01*
X62603971Y-60676029D01*
X62851714Y-60879346D01*
X63134362Y-61030425D01*
X63441052Y-61123458D01*
X63760000Y-61154872D01*
X64078947Y-61123458D01*
X64385637Y-61030425D01*
X64668285Y-60879346D01*
X64916029Y-60676029D01*
X65030000Y-60537154D01*
X65143971Y-60676029D01*
X65391714Y-60879346D01*
X65674362Y-61030425D01*
X65981052Y-61123458D01*
X66300000Y-61154872D01*
X66618947Y-61123458D01*
X66925637Y-61030425D01*
X67208285Y-60879346D01*
X67456029Y-60676029D01*
X67570000Y-60537154D01*
X67683971Y-60676029D01*
X67931714Y-60879346D01*
X68214362Y-61030425D01*
X68521052Y-61123458D01*
X68840000Y-61154872D01*
X69158947Y-61123458D01*
X69465637Y-61030425D01*
X69748285Y-60879346D01*
X69996029Y-60676029D01*
X70110000Y-60537154D01*
X70153001Y-60589551D01*
X70153001Y-60611759D01*
X66675000Y-64089761D01*
X66628183Y-64128183D01*
X66474851Y-64315018D01*
X66360916Y-64528177D01*
X66290755Y-64759467D01*
X66273000Y-64939733D01*
X66273000Y-64939740D01*
X66267065Y-65000000D01*
X66273000Y-65060261D01*
X66273000Y-65773000D01*
X65758240Y-65773000D01*
X64910239Y-64925000D01*
X64871817Y-64878183D01*
X64684983Y-64724851D01*
X64471824Y-64610916D01*
X64240534Y-64540755D01*
X64060268Y-64523000D01*
X64060260Y-64523000D01*
X64000000Y-64517065D01*
X63939740Y-64523000D01*
X63073925Y-64523000D01*
X63037152Y-64486227D01*
X62770673Y-64308172D01*
X62474578Y-64185525D01*
X62160245Y-64123000D01*
X61839755Y-64123000D01*
X61525422Y-64185525D01*
X61229327Y-64308172D01*
X60962848Y-64486227D01*
X60736227Y-64712848D01*
X60558172Y-64979327D01*
X60435525Y-65275422D01*
X60373000Y-65589755D01*
X60373000Y-65910245D01*
X60435525Y-66224578D01*
X60558172Y-66520673D01*
X60736227Y-66787152D01*
X60962848Y-67013773D01*
X61209918Y-67178859D01*
X61186903Y-67257298D01*
X62000000Y-68070395D01*
X62813097Y-67257298D01*
X62790082Y-67178859D01*
X63037152Y-67013773D01*
X63073925Y-66977000D01*
X63491761Y-66977000D01*
X64339765Y-67825005D01*
X64378183Y-67871817D01*
X64565017Y-68025149D01*
X64703927Y-68099397D01*
X64778175Y-68139084D01*
X64911370Y-68179488D01*
X65009466Y-68209245D01*
X65189732Y-68227000D01*
X65189740Y-68227000D01*
X65250000Y-68232935D01*
X65310260Y-68227000D01*
X66497810Y-68227000D01*
X66753011Y-68397519D01*
X67040006Y-68516396D01*
X67344679Y-68577000D01*
X67655321Y-68577000D01*
X67959994Y-68516396D01*
X68246989Y-68397519D01*
X68505279Y-68224936D01*
X68724936Y-68005279D01*
X68897519Y-67746989D01*
X69016396Y-67459994D01*
X69077000Y-67155321D01*
X69077000Y-66844679D01*
X69016396Y-66540006D01*
X68897519Y-66253011D01*
X68727000Y-65997810D01*
X68727000Y-65508239D01*
X72205005Y-62030235D01*
X72251817Y-61991817D01*
X72405149Y-61804983D01*
X72519084Y-61591824D01*
X72546175Y-61502517D01*
X72589246Y-61360534D01*
X72603137Y-61219490D01*
X72607000Y-61180268D01*
X72607000Y-61180263D01*
X72612935Y-61120000D01*
X72607000Y-61059737D01*
X72607000Y-60589550D01*
X72650000Y-60537154D01*
X72693001Y-60589551D01*
X72693000Y-63071760D01*
X71574995Y-64189766D01*
X71528184Y-64228183D01*
X71374852Y-64415017D01*
X71314368Y-64528176D01*
X71260917Y-64628176D01*
X71190755Y-64859467D01*
X71167065Y-65100000D01*
X71173001Y-65160270D01*
X71173001Y-65997809D01*
X71002481Y-66253011D01*
X70883604Y-66540006D01*
X70823000Y-66844679D01*
X70823000Y-67155321D01*
X70883604Y-67459994D01*
X71002481Y-67746989D01*
X71175064Y-68005279D01*
X71394721Y-68224936D01*
X71653011Y-68397519D01*
X71940006Y-68516396D01*
X72244679Y-68577000D01*
X72555321Y-68577000D01*
X72859994Y-68516396D01*
X73146989Y-68397519D01*
X73402190Y-68227000D01*
X74189740Y-68227000D01*
X74250000Y-68232935D01*
X74310260Y-68227000D01*
X74310268Y-68227000D01*
X74490534Y-68209245D01*
X74721824Y-68139084D01*
X74850114Y-68070512D01*
X76559783Y-68070512D01*
X76601213Y-68350130D01*
X76696397Y-68616292D01*
X76763329Y-68741514D01*
X77007298Y-68813097D01*
X77820395Y-68000000D01*
X78179605Y-68000000D01*
X78992702Y-68813097D01*
X79236671Y-68741514D01*
X79357571Y-68486004D01*
X79426300Y-68211816D01*
X79440217Y-67929488D01*
X79398787Y-67649870D01*
X79303603Y-67383708D01*
X79236671Y-67258486D01*
X78992702Y-67186903D01*
X78179605Y-68000000D01*
X77820395Y-68000000D01*
X77007298Y-67186903D01*
X76763329Y-67258486D01*
X76642429Y-67513996D01*
X76573700Y-67788184D01*
X76559783Y-68070512D01*
X74850114Y-68070512D01*
X74934983Y-68025149D01*
X75121817Y-67871817D01*
X75160239Y-67825000D01*
X76258240Y-66727000D01*
X76926075Y-66727000D01*
X76962848Y-66763773D01*
X77209918Y-66928859D01*
X77186903Y-67007298D01*
X78000000Y-67820395D01*
X78813097Y-67007298D01*
X78790082Y-66928859D01*
X79037152Y-66763773D01*
X79263773Y-66537152D01*
X79441828Y-66270673D01*
X79564475Y-65974578D01*
X79627000Y-65660245D01*
X79627000Y-65339755D01*
X79564475Y-65025422D01*
X79441828Y-64729327D01*
X79263773Y-64462848D01*
X79037152Y-64236227D01*
X78770673Y-64058172D01*
X78474578Y-63935525D01*
X78160245Y-63873000D01*
X77839755Y-63873000D01*
X77525422Y-63935525D01*
X77229327Y-64058172D01*
X76962848Y-64236227D01*
X76926075Y-64273000D01*
X75810259Y-64273000D01*
X75749999Y-64267065D01*
X75689739Y-64273000D01*
X75689732Y-64273000D01*
X75509466Y-64290755D01*
X75278176Y-64360916D01*
X75065017Y-64474851D01*
X74878183Y-64628183D01*
X74839765Y-64674995D01*
X73741761Y-65773000D01*
X73627000Y-65773000D01*
X73627000Y-65608239D01*
X74745006Y-64490234D01*
X74791817Y-64451817D01*
X74945149Y-64264983D01*
X75059084Y-64051824D01*
X75074805Y-64000000D01*
X75129246Y-63820534D01*
X75144101Y-63669701D01*
X75147000Y-63640268D01*
X75147000Y-63640263D01*
X75152935Y-63580000D01*
X75147000Y-63519737D01*
X75147000Y-62016890D01*
X85558524Y-62016890D01*
X85603175Y-62164099D01*
X85728359Y-62426920D01*
X85902412Y-62660269D01*
X86118645Y-62855178D01*
X86368748Y-63004157D01*
X86643109Y-63101481D01*
X86873000Y-62980814D01*
X86873000Y-61787000D01*
X87127000Y-61787000D01*
X87127000Y-62980814D01*
X87356891Y-63101481D01*
X87631252Y-63004157D01*
X87881355Y-62855178D01*
X88097588Y-62660269D01*
X88271641Y-62426920D01*
X88396825Y-62164099D01*
X88441476Y-62016890D01*
X88320155Y-61787000D01*
X87127000Y-61787000D01*
X86873000Y-61787000D01*
X85679845Y-61787000D01*
X85558524Y-62016890D01*
X75147000Y-62016890D01*
X75147000Y-60589550D01*
X75190000Y-60537154D01*
X75303971Y-60676029D01*
X75551714Y-60879346D01*
X75834362Y-61030425D01*
X76141052Y-61123458D01*
X76460000Y-61154872D01*
X76778947Y-61123458D01*
X77085637Y-61030425D01*
X77368285Y-60879346D01*
X77616029Y-60676029D01*
X77730000Y-60537154D01*
X77843971Y-60676029D01*
X78091714Y-60879346D01*
X78374362Y-61030425D01*
X78681052Y-61123458D01*
X79000000Y-61154872D01*
X79318947Y-61123458D01*
X79625637Y-61030425D01*
X79908285Y-60879346D01*
X80156029Y-60676029D01*
X80359346Y-60428286D01*
X80402794Y-60347000D01*
X85855364Y-60347000D01*
X85930975Y-60422611D01*
X86065646Y-60512595D01*
X85902412Y-60659731D01*
X85728359Y-60893080D01*
X85603175Y-61155901D01*
X85558524Y-61303110D01*
X85679845Y-61533000D01*
X86873000Y-61533000D01*
X86873000Y-61513000D01*
X87127000Y-61513000D01*
X87127000Y-61533000D01*
X88320155Y-61533000D01*
X88441476Y-61303110D01*
X88396825Y-61155901D01*
X88271641Y-60893080D01*
X88097588Y-60659731D01*
X87934354Y-60512595D01*
X88069025Y-60422611D01*
X88302611Y-60189025D01*
X88486138Y-59914357D01*
X88612554Y-59609163D01*
X88677000Y-59285170D01*
X88677000Y-58954830D01*
X88612554Y-58630837D01*
X88486138Y-58325643D01*
X88302611Y-58050975D01*
X88101636Y-57850000D01*
X88302611Y-57649025D01*
X88486138Y-57374357D01*
X88612554Y-57069163D01*
X88677000Y-56745170D01*
X88677000Y-56414830D01*
X88612554Y-56090837D01*
X88486138Y-55785643D01*
X88302611Y-55510975D01*
X88101636Y-55310000D01*
X88302611Y-55109025D01*
X88486138Y-54834357D01*
X88612554Y-54529163D01*
X88677000Y-54205170D01*
X88677000Y-53874830D01*
X88612554Y-53550837D01*
X88486138Y-53245643D01*
X88336020Y-53020976D01*
X88437606Y-52937606D01*
X88540952Y-52811679D01*
X88617745Y-52668010D01*
X88665034Y-52512120D01*
X88681001Y-52350000D01*
X88681001Y-50650000D01*
X88665034Y-50487880D01*
X88617745Y-50331990D01*
X88540952Y-50188321D01*
X88437606Y-50062394D01*
X88311679Y-49959048D01*
X88168010Y-49882255D01*
X88012120Y-49834966D01*
X87850000Y-49818999D01*
X86150000Y-49818999D01*
X85987880Y-49834966D01*
X85831990Y-49882255D01*
X85688321Y-49959048D01*
X85562394Y-50062394D01*
X85459048Y-50188321D01*
X85413786Y-50273000D01*
X80628342Y-50273000D01*
X80615034Y-50137880D01*
X80567745Y-49981990D01*
X80490952Y-49838321D01*
X80387606Y-49712394D01*
X80261679Y-49609048D01*
X80118010Y-49532255D01*
X79962120Y-49484966D01*
X79800000Y-49468999D01*
X78200000Y-49468999D01*
X78037880Y-49484966D01*
X77881990Y-49532255D01*
X77738321Y-49609048D01*
X77612394Y-49712394D01*
X77509048Y-49838321D01*
X77502415Y-49850731D01*
X77368286Y-49740654D01*
X77085638Y-49589575D01*
X76778948Y-49496542D01*
X76460000Y-49465128D01*
X76141053Y-49496542D01*
X75834363Y-49589575D01*
X75551715Y-49740654D01*
X75303972Y-49943971D01*
X75190000Y-50082846D01*
X75076029Y-49943971D01*
X74828286Y-49740654D01*
X74589420Y-49612977D01*
X74925397Y-49277000D01*
X77949559Y-49277000D01*
X78000000Y-49281968D01*
X78050441Y-49277000D01*
X78050451Y-49277000D01*
X78201327Y-49262140D01*
X78394917Y-49203415D01*
X78573331Y-49108051D01*
X78729712Y-48979712D01*
X78761877Y-48940519D01*
X80190524Y-47511872D01*
X80229712Y-47479712D01*
X80358051Y-47323331D01*
X80434128Y-47181001D01*
X80500000Y-47181001D01*
X80662120Y-47165034D01*
X80818010Y-47117745D01*
X80961679Y-47040952D01*
X81087606Y-46937606D01*
X81190952Y-46811679D01*
X81267745Y-46668010D01*
X81315034Y-46512120D01*
X81331001Y-46350000D01*
X81331001Y-44650000D01*
X81315034Y-44487880D01*
X81267745Y-44331990D01*
X81190952Y-44188321D01*
X81087606Y-44062394D01*
X80961679Y-43959048D01*
X80818010Y-43882255D01*
X80662120Y-43834966D01*
X80500000Y-43818999D01*
X78500000Y-43818999D01*
X78337880Y-43834966D01*
X78181990Y-43882255D01*
X78038321Y-43959048D01*
X77912394Y-44062394D01*
X77809048Y-44188321D01*
X77732255Y-44331990D01*
X77684966Y-44487880D01*
X77668999Y-44650000D01*
X77668999Y-46350000D01*
X77684966Y-46512120D01*
X77732255Y-46668010D01*
X77809048Y-46811679D01*
X77888776Y-46908828D01*
X77574604Y-47223000D01*
X74550440Y-47223000D01*
X74499999Y-47218032D01*
X74449558Y-47223000D01*
X74449549Y-47223000D01*
X74298673Y-47237860D01*
X74105083Y-47296585D01*
X73926669Y-47391949D01*
X73770288Y-47520288D01*
X73738128Y-47559475D01*
X71777295Y-49520308D01*
X71722027Y-49503543D01*
X71767745Y-49418010D01*
X71815034Y-49262120D01*
X71831001Y-49100000D01*
X71831001Y-47400000D01*
X71815034Y-47237880D01*
X71767745Y-47081990D01*
X71690952Y-46938321D01*
X71587606Y-46812394D01*
X71461679Y-46709048D01*
X71322828Y-46634830D01*
X71534830Y-46677000D01*
X71865170Y-46677000D01*
X72189163Y-46612554D01*
X72494357Y-46486138D01*
X72769025Y-46302611D01*
X73002611Y-46069025D01*
X73186138Y-45794357D01*
X73312554Y-45489163D01*
X73377000Y-45165170D01*
X73377000Y-44834830D01*
X73312554Y-44510837D01*
X73186138Y-44205643D01*
X73002611Y-43930975D01*
X72769025Y-43697389D01*
X72494357Y-43513862D01*
X72189163Y-43387446D01*
X71865170Y-43323000D01*
X71534830Y-43323000D01*
X71210837Y-43387446D01*
X71017859Y-43467381D01*
X71508240Y-42977000D01*
X73491761Y-42977000D01*
X74273001Y-43758241D01*
X74273001Y-43854647D01*
X74181990Y-43882255D01*
X74038321Y-43959048D01*
X73912394Y-44062394D01*
X73809048Y-44188321D01*
X73732255Y-44331990D01*
X73684966Y-44487880D01*
X73668999Y-44650000D01*
X73668999Y-46350000D01*
X73684966Y-46512120D01*
X73732255Y-46668010D01*
X73809048Y-46811679D01*
X73912394Y-46937606D01*
X74038321Y-47040952D01*
X74181990Y-47117745D01*
X74337880Y-47165034D01*
X74500000Y-47181001D01*
X76500000Y-47181001D01*
X76662120Y-47165034D01*
X76818010Y-47117745D01*
X76961679Y-47040952D01*
X77087606Y-46937606D01*
X77190952Y-46811679D01*
X77267745Y-46668010D01*
X77315034Y-46512120D01*
X77331001Y-46350000D01*
X77331001Y-44650000D01*
X77315034Y-44487880D01*
X77267745Y-44331990D01*
X77190952Y-44188321D01*
X77087606Y-44062394D01*
X76961679Y-43959048D01*
X76818010Y-43882255D01*
X76727000Y-43854647D01*
X76727000Y-43310259D01*
X76732935Y-43249999D01*
X76727000Y-43189739D01*
X76727000Y-43189732D01*
X76709245Y-43009466D01*
X76639084Y-42778176D01*
X76525149Y-42565017D01*
X76371817Y-42378183D01*
X76325005Y-42339765D01*
X74910239Y-40925000D01*
X74871817Y-40878183D01*
X74839913Y-40852000D01*
X89148001Y-40852000D01*
X89148001Y-72568999D01*
G37*
%TD.AperFunction*%
D35*
X55378183Y-40878183D02*
X55339765Y-40924995D01*
X51340769Y-44923992D01*
X51212120Y-44884966D01*
X51050000Y-44868999D01*
X49450000Y-44868999D01*
X49287880Y-44884966D01*
X49131990Y-44932255D01*
X48988321Y-45009048D01*
X48862394Y-45112394D01*
X48759048Y-45238321D01*
X48682255Y-45381990D01*
X48679481Y-45391134D01*
X48679370Y-45391023D01*
X48563097Y-45507296D01*
X48491514Y-45263329D01*
X48236004Y-45142429D01*
X47961816Y-45073700D01*
X47679488Y-45059783D01*
X47399870Y-45101213D01*
X47133708Y-45196397D01*
X47008486Y-45263329D01*
X46936903Y-45507298D01*
X47750000Y-46320395D01*
X47764143Y-46306253D01*
X47943748Y-46485858D01*
X47929605Y-46500000D01*
X47943748Y-46514143D01*
X47764143Y-46693748D01*
X47750000Y-46679605D01*
X46936903Y-47492702D01*
X47008486Y-47736671D01*
X47263996Y-47857571D01*
X47538184Y-47926300D01*
X47820512Y-47940217D01*
X48100130Y-47898787D01*
X48366292Y-47803603D01*
X48491514Y-47736671D01*
X48563097Y-47492704D01*
X48679370Y-47608977D01*
X48679481Y-47608866D01*
X48682255Y-47618010D01*
X48759048Y-47761679D01*
X48862394Y-47887606D01*
X48988321Y-47990952D01*
X49023000Y-48009489D01*
X49023001Y-49939730D01*
X49017065Y-50000000D01*
X49040755Y-50240533D01*
X49070331Y-50338031D01*
X49110917Y-50471824D01*
X49224852Y-50684983D01*
X49378184Y-50871817D01*
X49424996Y-50910235D01*
X49473972Y-50959211D01*
X49409048Y-51038321D01*
X49332255Y-51181990D01*
X49284966Y-51337880D01*
X49268999Y-51500000D01*
X49268999Y-52193000D01*
X47092566Y-52193000D01*
X47061885Y-52155615D01*
X46790921Y-51933241D01*
X46481780Y-51768002D01*
X46146343Y-51666248D01*
X45884919Y-51640500D01*
X45615081Y-51640500D01*
X45353657Y-51666248D01*
X45018220Y-51768002D01*
X44709079Y-51933241D01*
X44438115Y-52155615D01*
X44215741Y-52426579D01*
X44050502Y-52735720D01*
X43948748Y-53071157D01*
X43914390Y-53420000D01*
X43948748Y-53768843D01*
X44050502Y-54104280D01*
X44215741Y-54413421D01*
X44438115Y-54684385D01*
X44604247Y-54820726D01*
X44568685Y-54850563D01*
X44374031Y-55093077D01*
X44230429Y-55368906D01*
X44159437Y-55587020D01*
X44279406Y-55833000D01*
X45623000Y-55833000D01*
X45623000Y-55813000D01*
X45877000Y-55813000D01*
X45877000Y-55833000D01*
X47220594Y-55833000D01*
X47340563Y-55587020D01*
X47269571Y-55368906D01*
X47125969Y-55093077D01*
X46931315Y-54850563D01*
X46895753Y-54820726D01*
X47061885Y-54684385D01*
X47092566Y-54647000D01*
X49268999Y-54647000D01*
X49268999Y-55000000D01*
X49284966Y-55162120D01*
X49332255Y-55318010D01*
X49409048Y-55461679D01*
X49512394Y-55587606D01*
X49638321Y-55690952D01*
X49748792Y-55750000D01*
X49638321Y-55809048D01*
X49512394Y-55912394D01*
X49409048Y-56038321D01*
X49332255Y-56181990D01*
X49284966Y-56337880D01*
X49268999Y-56500000D01*
X49268999Y-57273000D01*
X47530944Y-57273000D01*
X47517745Y-57229490D01*
X47440952Y-57085821D01*
X47337606Y-56959894D01*
X47211679Y-56856548D01*
X47132562Y-56814259D01*
X47269571Y-56551094D01*
X47340563Y-56332980D01*
X47220594Y-56087000D01*
X45877000Y-56087000D01*
X45877000Y-56107000D01*
X45623000Y-56107000D01*
X45623000Y-56087000D01*
X44279406Y-56087000D01*
X44159437Y-56332980D01*
X44230429Y-56551094D01*
X44367438Y-56814259D01*
X44288321Y-56856548D01*
X44162394Y-56959894D01*
X44059048Y-57085821D01*
X44012450Y-57173000D01*
X43299661Y-57173000D01*
X42577000Y-56450340D01*
X42577000Y-53065174D01*
X42583419Y-53000000D01*
X42577000Y-52934826D01*
X42577000Y-52934816D01*
X42557799Y-52739863D01*
X42481919Y-52489722D01*
X42466172Y-52460262D01*
X42358698Y-52259191D01*
X42234422Y-52107761D01*
X42234421Y-52107760D01*
X42192870Y-52057130D01*
X42142240Y-52015579D01*
X40984426Y-50857766D01*
X40984422Y-50857761D01*
X40942870Y-50807130D01*
X40892239Y-50765578D01*
X40287000Y-50160340D01*
X40287000Y-46570512D01*
X46309783Y-46570512D01*
X46351213Y-46850130D01*
X46446397Y-47116292D01*
X46513329Y-47241514D01*
X46757298Y-47313097D01*
X47570395Y-46500000D01*
X46757298Y-45686903D01*
X46513329Y-45758486D01*
X46392429Y-46013996D01*
X46323700Y-46288184D01*
X46309783Y-46570512D01*
X40287000Y-46570512D01*
X40287000Y-45623556D01*
X40295506Y-45630537D01*
X40405820Y-45689502D01*
X40525518Y-45725812D01*
X40650000Y-45738072D01*
X41214250Y-45735000D01*
X41373000Y-45576250D01*
X41373000Y-44377000D01*
X41627000Y-44377000D01*
X41627000Y-45576250D01*
X41785750Y-45735000D01*
X42350000Y-45738072D01*
X42474482Y-45725812D01*
X42594180Y-45689502D01*
X42704494Y-45630537D01*
X42801185Y-45551185D01*
X42880537Y-45454494D01*
X42939502Y-45344180D01*
X42975812Y-45224482D01*
X42988072Y-45100000D01*
X42985000Y-44535750D01*
X42826250Y-44377000D01*
X41627000Y-44377000D01*
X41373000Y-44377000D01*
X41353000Y-44377000D01*
X41353000Y-44123000D01*
X41373000Y-44123000D01*
X41373000Y-42923750D01*
X41627000Y-42923750D01*
X41627000Y-44123000D01*
X42826250Y-44123000D01*
X42985000Y-43964250D01*
X42988072Y-43400000D01*
X42975812Y-43275518D01*
X42939502Y-43155820D01*
X42880537Y-43045506D01*
X42801185Y-42948815D01*
X42704494Y-42869463D01*
X42594180Y-42810498D01*
X42474482Y-42774188D01*
X42350000Y-42761928D01*
X41785750Y-42765000D01*
X41627000Y-42923750D01*
X41373000Y-42923750D01*
X41214250Y-42765000D01*
X40650000Y-42761928D01*
X40525518Y-42774188D01*
X40405820Y-42810498D01*
X40295506Y-42869463D01*
X40198815Y-42948815D01*
X40122924Y-43041288D01*
X40029025Y-42947389D01*
X39754357Y-42763862D01*
X39449163Y-42637446D01*
X39125170Y-42573000D01*
X38794830Y-42573000D01*
X38470837Y-42637446D01*
X38165643Y-42763862D01*
X37890975Y-42947389D01*
X37657389Y-43180975D01*
X37473862Y-43455643D01*
X37347446Y-43760837D01*
X37283000Y-44084830D01*
X37283000Y-44415170D01*
X37347446Y-44739163D01*
X37473862Y-45044357D01*
X37633000Y-45282524D01*
X37633001Y-49990338D01*
X37611501Y-50011838D01*
X37564475Y-49775422D01*
X37441828Y-49479327D01*
X37263773Y-49212848D01*
X37037152Y-48986227D01*
X36770673Y-48808172D01*
X36474578Y-48685525D01*
X36160245Y-48623000D01*
X35839755Y-48623000D01*
X35525422Y-48685525D01*
X35229327Y-48808172D01*
X34962848Y-48986227D01*
X34736227Y-49212848D01*
X34654274Y-49335500D01*
X34236214Y-49335500D01*
X34190952Y-49250821D01*
X34087606Y-49124894D01*
X33961679Y-49021548D01*
X33818010Y-48944755D01*
X33662120Y-48897466D01*
X33500000Y-48881499D01*
X31500000Y-48881499D01*
X31337880Y-48897466D01*
X31181990Y-48944755D01*
X31038321Y-49021548D01*
X30912394Y-49124894D01*
X30809048Y-49250821D01*
X30732255Y-49394490D01*
X30684966Y-49550380D01*
X30668999Y-49712500D01*
X30668999Y-51412500D01*
X30684966Y-51574620D01*
X30732255Y-51730510D01*
X30809048Y-51874179D01*
X30912394Y-52000106D01*
X30943337Y-52025500D01*
X30056663Y-52025500D01*
X30087606Y-52000106D01*
X30190952Y-51874179D01*
X30267745Y-51730510D01*
X30315034Y-51574620D01*
X30331001Y-51412500D01*
X30331001Y-49712500D01*
X30315034Y-49550380D01*
X30267745Y-49394490D01*
X30190952Y-49250821D01*
X30087606Y-49124894D01*
X29961679Y-49021548D01*
X29818010Y-48944755D01*
X29662120Y-48897466D01*
X29500000Y-48881499D01*
X27500000Y-48881499D01*
X27337880Y-48897466D01*
X27181990Y-48944755D01*
X27038321Y-49021548D01*
X26912394Y-49124894D01*
X26809048Y-49250821D01*
X26732255Y-49394490D01*
X26684966Y-49550380D01*
X26668999Y-49712500D01*
X26668999Y-49785500D01*
X25218493Y-49785500D01*
X25215034Y-49750380D01*
X25167745Y-49594490D01*
X25090952Y-49450821D01*
X24987606Y-49324894D01*
X24861679Y-49221548D01*
X24718010Y-49144755D01*
X24562120Y-49097466D01*
X24400000Y-49081499D01*
X24291359Y-49081499D01*
X24318041Y-49070447D01*
X24600898Y-48881448D01*
X24841448Y-48640898D01*
X25030447Y-48358041D01*
X25160632Y-48043747D01*
X25227000Y-47710095D01*
X25227000Y-47369905D01*
X25160632Y-47036253D01*
X25030447Y-46721959D01*
X24914142Y-46547896D01*
X24987606Y-46487606D01*
X25090952Y-46361679D01*
X25167745Y-46218010D01*
X25215034Y-46062120D01*
X25218493Y-46027000D01*
X26790512Y-46027000D01*
X26809048Y-46061679D01*
X26912394Y-46187606D01*
X27038321Y-46290952D01*
X27181990Y-46367745D01*
X27337880Y-46415034D01*
X27500000Y-46431001D01*
X29500000Y-46431001D01*
X29662120Y-46415034D01*
X29818010Y-46367745D01*
X29961679Y-46290952D01*
X30087606Y-46187606D01*
X30190952Y-46061679D01*
X30267745Y-45918010D01*
X30315034Y-45762120D01*
X30331001Y-45600000D01*
X30861928Y-45600000D01*
X30874188Y-45724482D01*
X30910498Y-45844180D01*
X30969463Y-45954494D01*
X31048815Y-46051185D01*
X31145506Y-46130537D01*
X31255820Y-46189502D01*
X31375518Y-46225812D01*
X31500000Y-46238072D01*
X32214250Y-46235000D01*
X32373000Y-46076250D01*
X32373000Y-44877000D01*
X32627000Y-44877000D01*
X32627000Y-46076250D01*
X32785750Y-46235000D01*
X33500000Y-46238072D01*
X33624482Y-46225812D01*
X33744180Y-46189502D01*
X33854494Y-46130537D01*
X33951185Y-46051185D01*
X34030537Y-45954494D01*
X34089502Y-45844180D01*
X34125812Y-45724482D01*
X34138072Y-45600000D01*
X34135000Y-45035750D01*
X33976250Y-44877000D01*
X32627000Y-44877000D01*
X32373000Y-44877000D01*
X31023750Y-44877000D01*
X30865000Y-45035750D01*
X30861928Y-45600000D01*
X30331001Y-45600000D01*
X30331001Y-43900000D01*
X30861928Y-43900000D01*
X30865000Y-44464250D01*
X31023750Y-44623000D01*
X32373000Y-44623000D01*
X32373000Y-43423750D01*
X32627000Y-43423750D01*
X32627000Y-44623000D01*
X33976250Y-44623000D01*
X34135000Y-44464250D01*
X34138072Y-43900000D01*
X34125812Y-43775518D01*
X34089502Y-43655820D01*
X34030537Y-43545506D01*
X33951185Y-43448815D01*
X33854494Y-43369463D01*
X33744180Y-43310498D01*
X33624482Y-43274188D01*
X33500000Y-43261928D01*
X32785750Y-43265000D01*
X32627000Y-43423750D01*
X32373000Y-43423750D01*
X32214250Y-43265000D01*
X31500000Y-43261928D01*
X31375518Y-43274188D01*
X31255820Y-43310498D01*
X31145506Y-43369463D01*
X31048815Y-43448815D01*
X30969463Y-43545506D01*
X30910498Y-43655820D01*
X30874188Y-43775518D01*
X30861928Y-43900000D01*
X30331001Y-43900000D01*
X30315034Y-43737880D01*
X30267745Y-43581990D01*
X30190952Y-43438321D01*
X30087606Y-43312394D01*
X29961679Y-43209048D01*
X29818010Y-43132255D01*
X29662120Y-43084966D01*
X29500000Y-43068999D01*
X27500000Y-43068999D01*
X27337880Y-43084966D01*
X27181990Y-43132255D01*
X27038321Y-43209048D01*
X26912394Y-43312394D01*
X26809048Y-43438321D01*
X26732255Y-43581990D01*
X26684966Y-43737880D01*
X26668999Y-43900000D01*
X26668999Y-43973000D01*
X25218493Y-43973000D01*
X25215034Y-43937880D01*
X25167745Y-43781990D01*
X25090952Y-43638321D01*
X24987606Y-43512394D01*
X24861679Y-43409048D01*
X24718010Y-43332255D01*
X24562120Y-43284966D01*
X24400000Y-43268999D01*
X22600000Y-43268999D01*
X22437880Y-43284966D01*
X22281990Y-43332255D01*
X22138321Y-43409048D01*
X22012394Y-43512394D01*
X21909048Y-43638321D01*
X21832255Y-43781990D01*
X21784966Y-43937880D01*
X21768999Y-44100000D01*
X21768999Y-45900000D01*
X21784966Y-46062120D01*
X21832255Y-46218010D01*
X21909048Y-46361679D01*
X22012394Y-46487606D01*
X22085858Y-46547896D01*
X21969553Y-46721959D01*
X21839368Y-47036253D01*
X21773000Y-47369905D01*
X21773000Y-47710095D01*
X21839368Y-48043747D01*
X21969553Y-48358041D01*
X22158552Y-48640898D01*
X22399102Y-48881448D01*
X22681959Y-49070447D01*
X22708641Y-49081499D01*
X22600000Y-49081499D01*
X22437880Y-49097466D01*
X22281990Y-49144755D01*
X22138321Y-49221548D01*
X22012394Y-49324894D01*
X21909048Y-49450821D01*
X21832255Y-49594490D01*
X21784966Y-49750380D01*
X21768999Y-49912500D01*
X21768999Y-51712500D01*
X21784966Y-51874620D01*
X21830781Y-52025651D01*
X21637363Y-52044701D01*
X21429484Y-52107761D01*
X21387222Y-52120581D01*
X21156691Y-52243802D01*
X21027289Y-52350000D01*
X20954630Y-52409630D01*
X20913079Y-52460260D01*
X20852000Y-52521339D01*
X20852000Y-40852000D01*
X55410087Y-40852000D01*
X55378183Y-40878183D01*
%TA.AperFunction,Conductor*%
D36*
G36*
X55378183Y-40878183D02*
G01*
X55339765Y-40924995D01*
X51340769Y-44923992D01*
X51212120Y-44884966D01*
X51050000Y-44868999D01*
X49450000Y-44868999D01*
X49287880Y-44884966D01*
X49131990Y-44932255D01*
X48988321Y-45009048D01*
X48862394Y-45112394D01*
X48759048Y-45238321D01*
X48682255Y-45381990D01*
X48679481Y-45391134D01*
X48679370Y-45391023D01*
X48563097Y-45507296D01*
X48491514Y-45263329D01*
X48236004Y-45142429D01*
X47961816Y-45073700D01*
X47679488Y-45059783D01*
X47399870Y-45101213D01*
X47133708Y-45196397D01*
X47008486Y-45263329D01*
X46936903Y-45507298D01*
X47750000Y-46320395D01*
X47764143Y-46306253D01*
X47943748Y-46485858D01*
X47929605Y-46500000D01*
X47943748Y-46514143D01*
X47764143Y-46693748D01*
X47750000Y-46679605D01*
X46936903Y-47492702D01*
X47008486Y-47736671D01*
X47263996Y-47857571D01*
X47538184Y-47926300D01*
X47820512Y-47940217D01*
X48100130Y-47898787D01*
X48366292Y-47803603D01*
X48491514Y-47736671D01*
X48563097Y-47492704D01*
X48679370Y-47608977D01*
X48679481Y-47608866D01*
X48682255Y-47618010D01*
X48759048Y-47761679D01*
X48862394Y-47887606D01*
X48988321Y-47990952D01*
X49023000Y-48009489D01*
X49023001Y-49939730D01*
X49017065Y-50000000D01*
X49040755Y-50240533D01*
X49070331Y-50338031D01*
X49110917Y-50471824D01*
X49224852Y-50684983D01*
X49378184Y-50871817D01*
X49424996Y-50910235D01*
X49473972Y-50959211D01*
X49409048Y-51038321D01*
X49332255Y-51181990D01*
X49284966Y-51337880D01*
X49268999Y-51500000D01*
X49268999Y-52193000D01*
X47092566Y-52193000D01*
X47061885Y-52155615D01*
X46790921Y-51933241D01*
X46481780Y-51768002D01*
X46146343Y-51666248D01*
X45884919Y-51640500D01*
X45615081Y-51640500D01*
X45353657Y-51666248D01*
X45018220Y-51768002D01*
X44709079Y-51933241D01*
X44438115Y-52155615D01*
X44215741Y-52426579D01*
X44050502Y-52735720D01*
X43948748Y-53071157D01*
X43914390Y-53420000D01*
X43948748Y-53768843D01*
X44050502Y-54104280D01*
X44215741Y-54413421D01*
X44438115Y-54684385D01*
X44604247Y-54820726D01*
X44568685Y-54850563D01*
X44374031Y-55093077D01*
X44230429Y-55368906D01*
X44159437Y-55587020D01*
X44279406Y-55833000D01*
X45623000Y-55833000D01*
X45623000Y-55813000D01*
X45877000Y-55813000D01*
X45877000Y-55833000D01*
X47220594Y-55833000D01*
X47340563Y-55587020D01*
X47269571Y-55368906D01*
X47125969Y-55093077D01*
X46931315Y-54850563D01*
X46895753Y-54820726D01*
X47061885Y-54684385D01*
X47092566Y-54647000D01*
X49268999Y-54647000D01*
X49268999Y-55000000D01*
X49284966Y-55162120D01*
X49332255Y-55318010D01*
X49409048Y-55461679D01*
X49512394Y-55587606D01*
X49638321Y-55690952D01*
X49748792Y-55750000D01*
X49638321Y-55809048D01*
X49512394Y-55912394D01*
X49409048Y-56038321D01*
X49332255Y-56181990D01*
X49284966Y-56337880D01*
X49268999Y-56500000D01*
X49268999Y-57273000D01*
X47530944Y-57273000D01*
X47517745Y-57229490D01*
X47440952Y-57085821D01*
X47337606Y-56959894D01*
X47211679Y-56856548D01*
X47132562Y-56814259D01*
X47269571Y-56551094D01*
X47340563Y-56332980D01*
X47220594Y-56087000D01*
X45877000Y-56087000D01*
X45877000Y-56107000D01*
X45623000Y-56107000D01*
X45623000Y-56087000D01*
X44279406Y-56087000D01*
X44159437Y-56332980D01*
X44230429Y-56551094D01*
X44367438Y-56814259D01*
X44288321Y-56856548D01*
X44162394Y-56959894D01*
X44059048Y-57085821D01*
X44012450Y-57173000D01*
X43299661Y-57173000D01*
X42577000Y-56450340D01*
X42577000Y-53065174D01*
X42583419Y-53000000D01*
X42577000Y-52934826D01*
X42577000Y-52934816D01*
X42557799Y-52739863D01*
X42481919Y-52489722D01*
X42466172Y-52460262D01*
X42358698Y-52259191D01*
X42234422Y-52107761D01*
X42234421Y-52107760D01*
X42192870Y-52057130D01*
X42142240Y-52015579D01*
X40984426Y-50857766D01*
X40984422Y-50857761D01*
X40942870Y-50807130D01*
X40892239Y-50765578D01*
X40287000Y-50160340D01*
X40287000Y-46570512D01*
X46309783Y-46570512D01*
X46351213Y-46850130D01*
X46446397Y-47116292D01*
X46513329Y-47241514D01*
X46757298Y-47313097D01*
X47570395Y-46500000D01*
X46757298Y-45686903D01*
X46513329Y-45758486D01*
X46392429Y-46013996D01*
X46323700Y-46288184D01*
X46309783Y-46570512D01*
X40287000Y-46570512D01*
X40287000Y-45623556D01*
X40295506Y-45630537D01*
X40405820Y-45689502D01*
X40525518Y-45725812D01*
X40650000Y-45738072D01*
X41214250Y-45735000D01*
X41373000Y-45576250D01*
X41373000Y-44377000D01*
X41627000Y-44377000D01*
X41627000Y-45576250D01*
X41785750Y-45735000D01*
X42350000Y-45738072D01*
X42474482Y-45725812D01*
X42594180Y-45689502D01*
X42704494Y-45630537D01*
X42801185Y-45551185D01*
X42880537Y-45454494D01*
X42939502Y-45344180D01*
X42975812Y-45224482D01*
X42988072Y-45100000D01*
X42985000Y-44535750D01*
X42826250Y-44377000D01*
X41627000Y-44377000D01*
X41373000Y-44377000D01*
X41353000Y-44377000D01*
X41353000Y-44123000D01*
X41373000Y-44123000D01*
X41373000Y-42923750D01*
X41627000Y-42923750D01*
X41627000Y-44123000D01*
X42826250Y-44123000D01*
X42985000Y-43964250D01*
X42988072Y-43400000D01*
X42975812Y-43275518D01*
X42939502Y-43155820D01*
X42880537Y-43045506D01*
X42801185Y-42948815D01*
X42704494Y-42869463D01*
X42594180Y-42810498D01*
X42474482Y-42774188D01*
X42350000Y-42761928D01*
X41785750Y-42765000D01*
X41627000Y-42923750D01*
X41373000Y-42923750D01*
X41214250Y-42765000D01*
X40650000Y-42761928D01*
X40525518Y-42774188D01*
X40405820Y-42810498D01*
X40295506Y-42869463D01*
X40198815Y-42948815D01*
X40122924Y-43041288D01*
X40029025Y-42947389D01*
X39754357Y-42763862D01*
X39449163Y-42637446D01*
X39125170Y-42573000D01*
X38794830Y-42573000D01*
X38470837Y-42637446D01*
X38165643Y-42763862D01*
X37890975Y-42947389D01*
X37657389Y-43180975D01*
X37473862Y-43455643D01*
X37347446Y-43760837D01*
X37283000Y-44084830D01*
X37283000Y-44415170D01*
X37347446Y-44739163D01*
X37473862Y-45044357D01*
X37633000Y-45282524D01*
X37633001Y-49990338D01*
X37611501Y-50011838D01*
X37564475Y-49775422D01*
X37441828Y-49479327D01*
X37263773Y-49212848D01*
X37037152Y-48986227D01*
X36770673Y-48808172D01*
X36474578Y-48685525D01*
X36160245Y-48623000D01*
X35839755Y-48623000D01*
X35525422Y-48685525D01*
X35229327Y-48808172D01*
X34962848Y-48986227D01*
X34736227Y-49212848D01*
X34654274Y-49335500D01*
X34236214Y-49335500D01*
X34190952Y-49250821D01*
X34087606Y-49124894D01*
X33961679Y-49021548D01*
X33818010Y-48944755D01*
X33662120Y-48897466D01*
X33500000Y-48881499D01*
X31500000Y-48881499D01*
X31337880Y-48897466D01*
X31181990Y-48944755D01*
X31038321Y-49021548D01*
X30912394Y-49124894D01*
X30809048Y-49250821D01*
X30732255Y-49394490D01*
X30684966Y-49550380D01*
X30668999Y-49712500D01*
X30668999Y-51412500D01*
X30684966Y-51574620D01*
X30732255Y-51730510D01*
X30809048Y-51874179D01*
X30912394Y-52000106D01*
X30943337Y-52025500D01*
X30056663Y-52025500D01*
X30087606Y-52000106D01*
X30190952Y-51874179D01*
X30267745Y-51730510D01*
X30315034Y-51574620D01*
X30331001Y-51412500D01*
X30331001Y-49712500D01*
X30315034Y-49550380D01*
X30267745Y-49394490D01*
X30190952Y-49250821D01*
X30087606Y-49124894D01*
X29961679Y-49021548D01*
X29818010Y-48944755D01*
X29662120Y-48897466D01*
X29500000Y-48881499D01*
X27500000Y-48881499D01*
X27337880Y-48897466D01*
X27181990Y-48944755D01*
X27038321Y-49021548D01*
X26912394Y-49124894D01*
X26809048Y-49250821D01*
X26732255Y-49394490D01*
X26684966Y-49550380D01*
X26668999Y-49712500D01*
X26668999Y-49785500D01*
X25218493Y-49785500D01*
X25215034Y-49750380D01*
X25167745Y-49594490D01*
X25090952Y-49450821D01*
X24987606Y-49324894D01*
X24861679Y-49221548D01*
X24718010Y-49144755D01*
X24562120Y-49097466D01*
X24400000Y-49081499D01*
X24291359Y-49081499D01*
X24318041Y-49070447D01*
X24600898Y-48881448D01*
X24841448Y-48640898D01*
X25030447Y-48358041D01*
X25160632Y-48043747D01*
X25227000Y-47710095D01*
X25227000Y-47369905D01*
X25160632Y-47036253D01*
X25030447Y-46721959D01*
X24914142Y-46547896D01*
X24987606Y-46487606D01*
X25090952Y-46361679D01*
X25167745Y-46218010D01*
X25215034Y-46062120D01*
X25218493Y-46027000D01*
X26790512Y-46027000D01*
X26809048Y-46061679D01*
X26912394Y-46187606D01*
X27038321Y-46290952D01*
X27181990Y-46367745D01*
X27337880Y-46415034D01*
X27500000Y-46431001D01*
X29500000Y-46431001D01*
X29662120Y-46415034D01*
X29818010Y-46367745D01*
X29961679Y-46290952D01*
X30087606Y-46187606D01*
X30190952Y-46061679D01*
X30267745Y-45918010D01*
X30315034Y-45762120D01*
X30331001Y-45600000D01*
X30861928Y-45600000D01*
X30874188Y-45724482D01*
X30910498Y-45844180D01*
X30969463Y-45954494D01*
X31048815Y-46051185D01*
X31145506Y-46130537D01*
X31255820Y-46189502D01*
X31375518Y-46225812D01*
X31500000Y-46238072D01*
X32214250Y-46235000D01*
X32373000Y-46076250D01*
X32373000Y-44877000D01*
X32627000Y-44877000D01*
X32627000Y-46076250D01*
X32785750Y-46235000D01*
X33500000Y-46238072D01*
X33624482Y-46225812D01*
X33744180Y-46189502D01*
X33854494Y-46130537D01*
X33951185Y-46051185D01*
X34030537Y-45954494D01*
X34089502Y-45844180D01*
X34125812Y-45724482D01*
X34138072Y-45600000D01*
X34135000Y-45035750D01*
X33976250Y-44877000D01*
X32627000Y-44877000D01*
X32373000Y-44877000D01*
X31023750Y-44877000D01*
X30865000Y-45035750D01*
X30861928Y-45600000D01*
X30331001Y-45600000D01*
X30331001Y-43900000D01*
X30861928Y-43900000D01*
X30865000Y-44464250D01*
X31023750Y-44623000D01*
X32373000Y-44623000D01*
X32373000Y-43423750D01*
X32627000Y-43423750D01*
X32627000Y-44623000D01*
X33976250Y-44623000D01*
X34135000Y-44464250D01*
X34138072Y-43900000D01*
X34125812Y-43775518D01*
X34089502Y-43655820D01*
X34030537Y-43545506D01*
X33951185Y-43448815D01*
X33854494Y-43369463D01*
X33744180Y-43310498D01*
X33624482Y-43274188D01*
X33500000Y-43261928D01*
X32785750Y-43265000D01*
X32627000Y-43423750D01*
X32373000Y-43423750D01*
X32214250Y-43265000D01*
X31500000Y-43261928D01*
X31375518Y-43274188D01*
X31255820Y-43310498D01*
X31145506Y-43369463D01*
X31048815Y-43448815D01*
X30969463Y-43545506D01*
X30910498Y-43655820D01*
X30874188Y-43775518D01*
X30861928Y-43900000D01*
X30331001Y-43900000D01*
X30315034Y-43737880D01*
X30267745Y-43581990D01*
X30190952Y-43438321D01*
X30087606Y-43312394D01*
X29961679Y-43209048D01*
X29818010Y-43132255D01*
X29662120Y-43084966D01*
X29500000Y-43068999D01*
X27500000Y-43068999D01*
X27337880Y-43084966D01*
X27181990Y-43132255D01*
X27038321Y-43209048D01*
X26912394Y-43312394D01*
X26809048Y-43438321D01*
X26732255Y-43581990D01*
X26684966Y-43737880D01*
X26668999Y-43900000D01*
X26668999Y-43973000D01*
X25218493Y-43973000D01*
X25215034Y-43937880D01*
X25167745Y-43781990D01*
X25090952Y-43638321D01*
X24987606Y-43512394D01*
X24861679Y-43409048D01*
X24718010Y-43332255D01*
X24562120Y-43284966D01*
X24400000Y-43268999D01*
X22600000Y-43268999D01*
X22437880Y-43284966D01*
X22281990Y-43332255D01*
X22138321Y-43409048D01*
X22012394Y-43512394D01*
X21909048Y-43638321D01*
X21832255Y-43781990D01*
X21784966Y-43937880D01*
X21768999Y-44100000D01*
X21768999Y-45900000D01*
X21784966Y-46062120D01*
X21832255Y-46218010D01*
X21909048Y-46361679D01*
X22012394Y-46487606D01*
X22085858Y-46547896D01*
X21969553Y-46721959D01*
X21839368Y-47036253D01*
X21773000Y-47369905D01*
X21773000Y-47710095D01*
X21839368Y-48043747D01*
X21969553Y-48358041D01*
X22158552Y-48640898D01*
X22399102Y-48881448D01*
X22681959Y-49070447D01*
X22708641Y-49081499D01*
X22600000Y-49081499D01*
X22437880Y-49097466D01*
X22281990Y-49144755D01*
X22138321Y-49221548D01*
X22012394Y-49324894D01*
X21909048Y-49450821D01*
X21832255Y-49594490D01*
X21784966Y-49750380D01*
X21768999Y-49912500D01*
X21768999Y-51712500D01*
X21784966Y-51874620D01*
X21830781Y-52025651D01*
X21637363Y-52044701D01*
X21429484Y-52107761D01*
X21387222Y-52120581D01*
X21156691Y-52243802D01*
X21027289Y-52350000D01*
X20954630Y-52409630D01*
X20913079Y-52460260D01*
X20852000Y-52521339D01*
X20852000Y-40852000D01*
X55410087Y-40852000D01*
X55378183Y-40878183D01*
G37*
%TD.AperFunction*%
%TD*%
M02*
