%TF.GenerationSoftware,KiCad,Pcbnew,(5.1.7)-1*%
%TF.CreationDate,2021-12-30T09:14:42+05:30*%
%TF.ProjectId,Bluetooth4Channel,426c7565-746f-46f7-9468-344368616e6e,rev?*%
%TF.SameCoordinates,Original*%
%TF.FileFunction,Copper,L2,Bot*%
%TF.FilePolarity,Positive*%
%FSLAX46Y46*%
G04 Gerber Fmt 4.6, Leading zero omitted, Abs format (unit mm)*
G04 Created by KiCad (PCBNEW (5.1.7)-1) date 2021-12-30 09:14:42*
%MOMM*%
%LPD*%
G01*
G04 APERTURE LIST*
%TA.AperFunction,NonConductor*%
%ADD10C,0.300000*%
%TD*%
%TA.AperFunction,Profile*%
%ADD11C,0.050000*%
%TD*%
%TA.AperFunction,ComponentPad*%
%ADD12R,3.000000X3.000000*%
%TD*%
%TA.AperFunction,ComponentPad*%
%ADD13C,3.000000*%
%TD*%
%TA.AperFunction,ComponentPad*%
%ADD14R,2.000000X1.905000*%
%TD*%
%TA.AperFunction,ComponentPad*%
%ADD15O,2.000000X1.905000*%
%TD*%
%TA.AperFunction,ComponentPad*%
%ADD16R,1.600000X1.600000*%
%TD*%
%TA.AperFunction,ComponentPad*%
%ADD17C,1.600000*%
%TD*%
%TA.AperFunction,ComponentPad*%
%ADD18R,1.800000X1.800000*%
%TD*%
%TA.AperFunction,ComponentPad*%
%ADD19C,1.800000*%
%TD*%
%TA.AperFunction,ComponentPad*%
%ADD20R,1.700000X1.700000*%
%TD*%
%TA.AperFunction,ComponentPad*%
%ADD21O,1.700000X1.700000*%
%TD*%
%TA.AperFunction,ComponentPad*%
%ADD22C,2.500000*%
%TD*%
%TA.AperFunction,ComponentPad*%
%ADD23R,1.600000X2.400000*%
%TD*%
%TA.AperFunction,ComponentPad*%
%ADD24O,1.600000X2.400000*%
%TD*%
%TA.AperFunction,ComponentPad*%
%ADD25C,1.500000*%
%TD*%
%TA.AperFunction,ViaPad*%
%ADD26C,1.600000*%
%TD*%
%TA.AperFunction,Conductor*%
%ADD27C,0.800000*%
%TD*%
%TA.AperFunction,Conductor*%
%ADD28C,1.000000*%
%TD*%
%TA.AperFunction,Conductor*%
%ADD29C,3.000000*%
%TD*%
%TA.AperFunction,Conductor*%
%ADD30C,0.254000*%
%TD*%
%TA.AperFunction,Conductor*%
%ADD31C,0.100000*%
%TD*%
G04 APERTURE END LIST*
D10*
X21392857Y-77607142D02*
X21464285Y-77821428D01*
X21535714Y-77892857D01*
X21678571Y-77964285D01*
X21892857Y-77964285D01*
X22035714Y-77892857D01*
X22107142Y-77821428D01*
X22178571Y-77678571D01*
X22178571Y-77107142D01*
X20678571Y-77107142D01*
X20678571Y-77607142D01*
X20750000Y-77750000D01*
X20821428Y-77821428D01*
X20964285Y-77892857D01*
X21107142Y-77892857D01*
X21250000Y-77821428D01*
X21321428Y-77750000D01*
X21392857Y-77607142D01*
X21392857Y-77107142D01*
X20678571Y-78392857D02*
X20678571Y-79250000D01*
X22178571Y-78821428D02*
X20678571Y-78821428D01*
X20678571Y-80035714D02*
X20678571Y-80178571D01*
X20750000Y-80321428D01*
X20821428Y-80392857D01*
X20964285Y-80464285D01*
X21250000Y-80535714D01*
X21607142Y-80535714D01*
X21892857Y-80464285D01*
X22035714Y-80392857D01*
X22107142Y-80321428D01*
X22178571Y-80178571D01*
X22178571Y-80035714D01*
X22107142Y-79892857D01*
X22035714Y-79821428D01*
X21892857Y-79750000D01*
X21607142Y-79678571D01*
X21250000Y-79678571D01*
X20964285Y-79750000D01*
X20821428Y-79821428D01*
X20750000Y-79892857D01*
X20678571Y-80035714D01*
X21178571Y-81821428D02*
X22178571Y-81821428D01*
X20607142Y-81464285D02*
X21678571Y-81107142D01*
X21678571Y-82035714D01*
X21392857Y-87142857D02*
X21464285Y-87357142D01*
X21535714Y-87428571D01*
X21678571Y-87500000D01*
X21892857Y-87500000D01*
X22035714Y-87428571D01*
X22107142Y-87357142D01*
X22178571Y-87214285D01*
X22178571Y-86642857D01*
X20678571Y-86642857D01*
X20678571Y-87142857D01*
X20750000Y-87285714D01*
X20821428Y-87357142D01*
X20964285Y-87428571D01*
X21107142Y-87428571D01*
X21250000Y-87357142D01*
X21321428Y-87285714D01*
X21392857Y-87142857D01*
X21392857Y-86642857D01*
X22178571Y-88357142D02*
X22107142Y-88214285D01*
X22035714Y-88142857D01*
X21892857Y-88071428D01*
X21464285Y-88071428D01*
X21321428Y-88142857D01*
X21250000Y-88214285D01*
X21178571Y-88357142D01*
X21178571Y-88571428D01*
X21250000Y-88714285D01*
X21321428Y-88785714D01*
X21464285Y-88857142D01*
X21892857Y-88857142D01*
X22035714Y-88785714D01*
X22107142Y-88714285D01*
X22178571Y-88571428D01*
X22178571Y-88357142D01*
X21178571Y-89285714D02*
X21178571Y-89857142D01*
X20678571Y-89500000D02*
X21964285Y-89500000D01*
X22107142Y-89571428D01*
X22178571Y-89714285D01*
X22178571Y-89857142D01*
X21178571Y-90142857D02*
X21178571Y-90714285D01*
X20678571Y-90357142D02*
X21964285Y-90357142D01*
X22107142Y-90428571D01*
X22178571Y-90571428D01*
X22178571Y-90714285D01*
X22178571Y-91428571D02*
X22107142Y-91285714D01*
X22035714Y-91214285D01*
X21892857Y-91142857D01*
X21464285Y-91142857D01*
X21321428Y-91214285D01*
X21250000Y-91285714D01*
X21178571Y-91428571D01*
X21178571Y-91642857D01*
X21250000Y-91785714D01*
X21321428Y-91857142D01*
X21464285Y-91928571D01*
X21892857Y-91928571D01*
X22035714Y-91857142D01*
X22107142Y-91785714D01*
X22178571Y-91642857D01*
X22178571Y-91428571D01*
X22178571Y-92571428D02*
X21178571Y-92571428D01*
X21321428Y-92571428D02*
X21250000Y-92642857D01*
X21178571Y-92785714D01*
X21178571Y-93000000D01*
X21250000Y-93142857D01*
X21392857Y-93214285D01*
X22178571Y-93214285D01*
X21392857Y-93214285D02*
X21250000Y-93285714D01*
X21178571Y-93428571D01*
X21178571Y-93642857D01*
X21250000Y-93785714D01*
X21392857Y-93857142D01*
X22178571Y-93857142D01*
D11*
X20000000Y-40000000D02*
X90000000Y-40000000D01*
X20000000Y-40000000D02*
X20000000Y-125000000D01*
X90000000Y-125000000D02*
X90000000Y-40000000D01*
X20000000Y-125000000D02*
X90000000Y-125000000D01*
D12*
%TO.P,J5,1*%
%TO.N,Net-(J5-Pad1)*%
X39375000Y-119750000D03*
D13*
%TO.P,J5,2*%
%TO.N,Net-(J5-Pad2)*%
X44455000Y-119750000D03*
%TD*%
D14*
%TO.P,U1,1*%
%TO.N,+12v*%
X45750000Y-58500000D03*
D15*
%TO.P,U1,2*%
%TO.N,GND*%
X45750000Y-55960000D03*
%TO.P,U1,3*%
%TO.N,+5v*%
X45750000Y-53420000D03*
%TD*%
D16*
%TO.P,C2,1*%
%TO.N,+5v*%
X50250000Y-46500000D03*
D17*
%TO.P,C2,2*%
%TO.N,GND*%
X47750000Y-46500000D03*
%TD*%
%TO.P,C3,1*%
%TO.N,GND*%
X62000000Y-68250000D03*
%TO.P,C3,2*%
%TO.N,Net-(C3-Pad2)*%
X62000000Y-65750000D03*
%TD*%
%TO.P,C4,2*%
%TO.N,Net-(C4-Pad2)*%
X78000000Y-65500000D03*
%TO.P,C4,1*%
%TO.N,GND*%
X78000000Y-68000000D03*
%TD*%
D18*
%TO.P,D6,1*%
%TO.N,Net-(D6-Pad1)*%
X23500000Y-68250000D03*
D19*
%TO.P,D6,2*%
%TO.N,+12v*%
X23500000Y-70790000D03*
%TD*%
D18*
%TO.P,D7,1*%
%TO.N,Net-(D7-Pad1)*%
X23500000Y-62437500D03*
D19*
%TO.P,D7,2*%
%TO.N,+12v*%
X23500000Y-64977500D03*
%TD*%
%TO.P,D8,2*%
%TO.N,+12v*%
X23500000Y-59165000D03*
D18*
%TO.P,D8,1*%
%TO.N,Net-(D8-Pad1)*%
X23500000Y-56625000D03*
%TD*%
D19*
%TO.P,D9,2*%
%TO.N,+12v*%
X23500000Y-53352500D03*
D18*
%TO.P,D9,1*%
%TO.N,Net-(D9-Pad1)*%
X23500000Y-50812500D03*
%TD*%
D20*
%TO.P,J1,1*%
%TO.N,GND*%
X41500000Y-44250000D03*
D21*
%TO.P,J1,2*%
%TO.N,+12v*%
X38960000Y-44250000D03*
%TD*%
D20*
%TO.P,J2,1*%
%TO.N,Net-(J2-Pad1)*%
X59000000Y-45000000D03*
D21*
%TO.P,J2,2*%
%TO.N,rx*%
X61540000Y-45000000D03*
%TO.P,J2,3*%
%TO.N,tx*%
X64080000Y-45000000D03*
%TO.P,J2,4*%
%TO.N,GND*%
X66620000Y-45000000D03*
%TO.P,J2,5*%
%TO.N,+5v*%
X69160000Y-45000000D03*
%TO.P,J2,6*%
%TO.N,Net-(J2-Pad6)*%
X71700000Y-45000000D03*
%TD*%
D13*
%TO.P,J6,2*%
%TO.N,Net-(J6-Pad2)*%
X57580000Y-119750000D03*
D12*
%TO.P,J6,1*%
%TO.N,Net-(J6-Pad1)*%
X52500000Y-119750000D03*
%TD*%
%TO.P,J7,1*%
%TO.N,Net-(J7-Pad1)*%
X65625000Y-119750000D03*
D13*
%TO.P,J7,2*%
%TO.N,Net-(J7-Pad2)*%
X70705000Y-119750000D03*
%TD*%
%TO.P,J8,2*%
%TO.N,Net-(J8-Pad2)*%
X83830000Y-119750000D03*
D12*
%TO.P,J8,1*%
%TO.N,Net-(J8-Pad1)*%
X78750000Y-119750000D03*
%TD*%
D22*
%TO.P,K1,2*%
%TO.N,Net-(D1-Pad2)*%
X24950000Y-84450000D03*
D13*
%TO.P,K1,3*%
%TO.N,Net-(J5-Pad1)*%
X24950000Y-96650000D03*
%TO.P,K1,4*%
%TO.N,Net-(K1-Pad4)*%
X37000000Y-96700000D03*
D22*
%TO.P,K1,5*%
%TO.N,+12v*%
X36950000Y-84450000D03*
D13*
%TO.P,K1,1*%
%TO.N,Net-(J5-Pad2)*%
X31000000Y-82500000D03*
%TD*%
%TO.P,K2,1*%
%TO.N,Net-(J6-Pad2)*%
X48000000Y-82500000D03*
D22*
%TO.P,K2,5*%
%TO.N,+12v*%
X53950000Y-84450000D03*
D13*
%TO.P,K2,4*%
%TO.N,Net-(K2-Pad4)*%
X54000000Y-96700000D03*
%TO.P,K2,3*%
%TO.N,Net-(J6-Pad1)*%
X41950000Y-96650000D03*
D22*
%TO.P,K2,2*%
%TO.N,Net-(D3-Pad2)*%
X41950000Y-84450000D03*
%TD*%
D13*
%TO.P,K3,1*%
%TO.N,Net-(J7-Pad2)*%
X64500000Y-82500000D03*
D22*
%TO.P,K3,5*%
%TO.N,+12v*%
X70450000Y-84450000D03*
D13*
%TO.P,K3,4*%
%TO.N,Net-(K3-Pad4)*%
X70500000Y-96700000D03*
%TO.P,K3,3*%
%TO.N,Net-(J7-Pad1)*%
X58450000Y-96650000D03*
D22*
%TO.P,K3,2*%
%TO.N,Net-(D4-Pad2)*%
X58450000Y-84450000D03*
%TD*%
%TO.P,K4,2*%
%TO.N,Net-(D5-Pad2)*%
X74950000Y-84450000D03*
D13*
%TO.P,K4,3*%
%TO.N,Net-(J8-Pad1)*%
X74950000Y-96650000D03*
%TO.P,K4,4*%
%TO.N,Net-(K4-Pad4)*%
X87000000Y-96700000D03*
D22*
%TO.P,K4,5*%
%TO.N,+12v*%
X86950000Y-84450000D03*
D13*
%TO.P,K4,1*%
%TO.N,Net-(J8-Pad2)*%
X81000000Y-82500000D03*
%TD*%
D23*
%TO.P,U2,1*%
%TO.N,IP1*%
X79000000Y-51500000D03*
D24*
%TO.P,U2,10*%
%TO.N,A*%
X58680000Y-59120000D03*
%TO.P,U2,2*%
%TO.N,IP2*%
X76460000Y-51500000D03*
%TO.P,U2,11*%
%TO.N,B*%
X61220000Y-59120000D03*
%TO.P,U2,3*%
%TO.N,Net-(U2-Pad3)*%
X73920000Y-51500000D03*
%TO.P,U2,12*%
%TO.N,C*%
X63760000Y-59120000D03*
%TO.P,U2,4*%
%TO.N,Net-(R5-Pad2)*%
X71380000Y-51500000D03*
%TO.P,U2,13*%
%TO.N,D*%
X66300000Y-59120000D03*
%TO.P,U2,5*%
%TO.N,GND*%
X68840000Y-51500000D03*
%TO.P,U2,14*%
%TO.N,+5v*%
X68840000Y-59120000D03*
%TO.P,U2,6*%
%TO.N,Net-(U2-Pad6)*%
X66300000Y-51500000D03*
%TO.P,U2,15*%
%TO.N,Net-(C3-Pad2)*%
X71380000Y-59120000D03*
%TO.P,U2,7*%
%TO.N,tx*%
X63760000Y-51500000D03*
%TO.P,U2,16*%
%TO.N,Net-(C4-Pad2)*%
X73920000Y-59120000D03*
%TO.P,U2,8*%
%TO.N,rx*%
X61220000Y-51500000D03*
%TO.P,U2,17*%
%TO.N,IP3*%
X76460000Y-59120000D03*
%TO.P,U2,9*%
%TO.N,Net-(U2-Pad9)*%
X58680000Y-51500000D03*
%TO.P,U2,18*%
%TO.N,IP4*%
X79000000Y-59120000D03*
%TD*%
D25*
%TO.P,Y1,1*%
%TO.N,Net-(C3-Pad2)*%
X67500000Y-67000000D03*
%TO.P,Y1,2*%
%TO.N,Net-(C4-Pad2)*%
X72400000Y-67000000D03*
%TD*%
D18*
%TO.P,D10,1*%
%TO.N,Net-(D10-Pad1)*%
X23500000Y-45000000D03*
D19*
%TO.P,D10,2*%
%TO.N,+5v*%
X23500000Y-47540000D03*
%TD*%
D12*
%TO.P,J9,1*%
%TO.N,Net-(J9-Pad1)*%
X26250000Y-119750000D03*
D13*
%TO.P,J9,2*%
%TO.N,Net-(J9-Pad2)*%
X31330000Y-119750000D03*
%TD*%
D20*
%TO.P,J3,1*%
%TO.N,IP1*%
X87000000Y-51500000D03*
D21*
%TO.P,J3,2*%
%TO.N,IP2*%
X87000000Y-54040000D03*
%TO.P,J3,3*%
%TO.N,IP3*%
X87000000Y-56580000D03*
%TO.P,J3,4*%
%TO.N,IP4*%
X87000000Y-59120000D03*
%TO.P,J3,5*%
%TO.N,GND*%
X87000000Y-61660000D03*
%TD*%
D26*
%TO.N,GND*%
X71250000Y-71500000D03*
X40750000Y-63750000D03*
X62500000Y-55250000D03*
X58750000Y-55250000D03*
X55000000Y-48500000D03*
X55000000Y-54000000D03*
X87250000Y-42750000D03*
X87250000Y-47250000D03*
X45250000Y-43000000D03*
X50250000Y-43000000D03*
X35750000Y-42250000D03*
X80750000Y-70000000D03*
X87250000Y-67250000D03*
%TO.N,Net-(D5-Pad2)*%
X36000000Y-50250000D03*
X51000000Y-62500000D03*
%TO.N,A*%
X35500000Y-70750000D03*
%TO.N,B*%
X58000000Y-75000000D03*
%TO.N,C*%
X75000000Y-73250000D03*
%TO.N,D*%
X87500000Y-70750000D03*
%TD*%
D27*
%TO.N,+5v*%
X39870000Y-47540000D02*
X45750000Y-53420000D01*
X23500000Y-47540000D02*
X39870000Y-47540000D01*
X68840000Y-59120000D02*
X68840000Y-57410000D01*
X68840000Y-57410000D02*
X70750000Y-55500000D01*
X70750000Y-55500000D02*
X81000000Y-55500000D01*
X81000000Y-55500000D02*
X83500000Y-53000000D01*
X83500000Y-53000000D02*
X83500000Y-44500000D01*
X83500000Y-44500000D02*
X80750000Y-41750000D01*
X80750000Y-41750000D02*
X70750000Y-41750000D01*
X69160000Y-43340000D02*
X69160000Y-45000000D01*
X70750000Y-41750000D02*
X69160000Y-43340000D01*
%TO.N,GND*%
X71250000Y-71500000D02*
X73250000Y-71500000D01*
X76750000Y-68000000D02*
X78000000Y-68000000D01*
X73250000Y-71500000D02*
X76750000Y-68000000D01*
D28*
%TO.N,+12v*%
X36950000Y-84450000D02*
X36950000Y-80050000D01*
X36950000Y-80050000D02*
X39250000Y-77750000D01*
X39250000Y-77750000D02*
X51750000Y-77750000D01*
X53950000Y-79950000D02*
X53950000Y-84450000D01*
X51750000Y-77750000D02*
X53950000Y-79950000D01*
X53950000Y-79950000D02*
X54050000Y-79950000D01*
X54050000Y-79950000D02*
X56250000Y-77750000D01*
X56250000Y-77750000D02*
X69000000Y-77750000D01*
X70450000Y-79200000D02*
X70450000Y-84450000D01*
X69000000Y-77750000D02*
X70450000Y-79200000D01*
X70450000Y-79200000D02*
X70550000Y-79200000D01*
X70550000Y-79200000D02*
X71500000Y-78250000D01*
X71500000Y-78250000D02*
X84750000Y-78250000D01*
X86950000Y-80450000D02*
X86950000Y-84450000D01*
X84750000Y-78250000D02*
X86950000Y-80450000D01*
X23500000Y-70790000D02*
X23500000Y-74750000D01*
X23500000Y-74750000D02*
X26750000Y-78000000D01*
X34900000Y-78000000D02*
X36950000Y-80050000D01*
X26750000Y-78000000D02*
X34900000Y-78000000D01*
D27*
%TO.N,Net-(D5-Pad2)*%
X36000000Y-50250000D02*
X41250000Y-55500000D01*
X41250000Y-55500000D02*
X41250000Y-60750000D01*
X43000000Y-62500000D02*
X51000000Y-62500000D01*
X41250000Y-60750000D02*
X43000000Y-62500000D01*
D29*
%TO.N,Net-(J5-Pad1)*%
X39375000Y-117875000D02*
X39375000Y-119750000D01*
X34750000Y-113250000D02*
X39375000Y-117875000D01*
X24500000Y-113250000D02*
X34750000Y-113250000D01*
X22250000Y-111000000D02*
X24500000Y-113250000D01*
X22250000Y-99350000D02*
X22250000Y-111000000D01*
X24950000Y-96650000D02*
X22250000Y-99350000D01*
%TO.N,Net-(J5-Pad2)*%
X31000000Y-82500000D02*
X31000000Y-99250000D01*
X31000000Y-99250000D02*
X44955000Y-113205000D01*
X44955000Y-119250000D02*
X44455000Y-119750000D01*
X44955000Y-113205000D02*
X44955000Y-119250000D01*
%TO.N,Net-(J6-Pad2)*%
X48000000Y-82500000D02*
X48000000Y-99000000D01*
X48000000Y-99000000D02*
X58080000Y-109080000D01*
X58080000Y-119250000D02*
X57580000Y-119750000D01*
X58080000Y-109080000D02*
X58080000Y-119250000D01*
%TO.N,Net-(J6-Pad1)*%
X41950000Y-96650000D02*
X41950000Y-102450000D01*
X50500000Y-111000000D02*
X50500000Y-115250000D01*
X41950000Y-102450000D02*
X50500000Y-111000000D01*
X50500000Y-115250000D02*
X52500000Y-117250000D01*
X52500000Y-117250000D02*
X52500000Y-119750000D01*
%TO.N,Net-(J7-Pad1)*%
X58450000Y-96650000D02*
X58450000Y-102700000D01*
X58450000Y-102700000D02*
X64250000Y-108500000D01*
X64250000Y-118375000D02*
X65625000Y-119750000D01*
X64250000Y-108500000D02*
X64250000Y-118375000D01*
%TO.N,Net-(J7-Pad2)*%
X64500000Y-82500000D02*
X64500000Y-100250000D01*
X64500000Y-100250000D02*
X71205000Y-106955000D01*
X71205000Y-119250000D02*
X70705000Y-119750000D01*
X71205000Y-106955000D02*
X71205000Y-119250000D01*
%TO.N,Net-(J8-Pad2)*%
X88000000Y-105000000D02*
X81000000Y-98000000D01*
X81000000Y-98000000D02*
X81000000Y-82500000D01*
X88000000Y-112750000D02*
X88000000Y-105000000D01*
X83830000Y-116920000D02*
X88000000Y-112750000D01*
X83830000Y-119750000D02*
X83830000Y-116920000D01*
%TO.N,Net-(J8-Pad1)*%
X74950000Y-96650000D02*
X74950000Y-101450000D01*
X74950000Y-101450000D02*
X76750000Y-103250000D01*
X76750000Y-103250000D02*
X76750000Y-117750000D01*
X76750000Y-117750000D02*
X78750000Y-119750000D01*
D27*
%TO.N,A*%
X35500000Y-70750000D02*
X39250000Y-67000000D01*
X39250000Y-67000000D02*
X51500000Y-67000000D01*
X51500000Y-67000000D02*
X55500000Y-63000000D01*
X55500000Y-63000000D02*
X55500000Y-60250000D01*
X56630000Y-59120000D02*
X58680000Y-59120000D01*
X55500000Y-60250000D02*
X56630000Y-59120000D01*
%TO.N,B*%
X61220000Y-59120000D02*
X61220000Y-60280000D01*
X61220000Y-60280000D02*
X55500000Y-66000000D01*
X55500000Y-66000000D02*
X55500000Y-69750000D01*
X58000000Y-72250000D02*
X58000000Y-75000000D01*
X55500000Y-69750000D02*
X58000000Y-72250000D01*
%TO.N,C*%
X70181997Y-74049999D02*
X74200001Y-74049999D01*
X74200001Y-74049999D02*
X75000000Y-73250000D01*
X63760000Y-59120000D02*
X63760000Y-62510000D01*
X65190999Y-63940999D02*
X65190999Y-69059001D01*
X63760000Y-62510000D02*
X65190999Y-63940999D01*
X65190999Y-69059001D02*
X70181997Y-74049999D01*
%TO.N,D*%
X66300000Y-59120000D02*
X66300000Y-61800000D01*
X66300000Y-61800000D02*
X67000000Y-62500000D01*
X67000000Y-62500000D02*
X80250000Y-62500000D01*
X80250000Y-62500000D02*
X80750000Y-62500000D01*
X80750000Y-62500000D02*
X82500000Y-64250000D01*
X82500000Y-64250000D02*
X82500000Y-67500000D01*
X85750000Y-70750000D02*
X87500000Y-70750000D01*
X82500000Y-67500000D02*
X85750000Y-70750000D01*
%TD*%
D30*
%TO.N,GND*%
X89148001Y-75623000D02*
X59502996Y-75623000D01*
X59564475Y-75474578D01*
X59627000Y-75160245D01*
X59627000Y-74839755D01*
X59564475Y-74525422D01*
X59441828Y-74229327D01*
X59263773Y-73962848D01*
X59227000Y-73926075D01*
X59227000Y-72310263D01*
X59232935Y-72250000D01*
X59209246Y-72009466D01*
X59139084Y-71778175D01*
X59089561Y-71685525D01*
X59025149Y-71565017D01*
X58871817Y-71378183D01*
X58825006Y-71339766D01*
X56727942Y-69242702D01*
X61186903Y-69242702D01*
X61258486Y-69486671D01*
X61513996Y-69607571D01*
X61788184Y-69676300D01*
X62070512Y-69690217D01*
X62350130Y-69648787D01*
X62616292Y-69553603D01*
X62741514Y-69486671D01*
X62813097Y-69242702D01*
X62000000Y-68429605D01*
X61186903Y-69242702D01*
X56727942Y-69242702D01*
X56727000Y-69241761D01*
X56727000Y-68320512D01*
X60559783Y-68320512D01*
X60601213Y-68600130D01*
X60696397Y-68866292D01*
X60763329Y-68991514D01*
X61007298Y-69063097D01*
X61820395Y-68250000D01*
X62179605Y-68250000D01*
X62992702Y-69063097D01*
X63236671Y-68991514D01*
X63357571Y-68736004D01*
X63426300Y-68461816D01*
X63440217Y-68179488D01*
X63398787Y-67899870D01*
X63303603Y-67633708D01*
X63236671Y-67508486D01*
X62992702Y-67436903D01*
X62179605Y-68250000D01*
X61820395Y-68250000D01*
X61007298Y-67436903D01*
X60763329Y-67508486D01*
X60642429Y-67763996D01*
X60573700Y-68038184D01*
X60559783Y-68320512D01*
X56727000Y-68320512D01*
X56727000Y-66508239D01*
X57645484Y-65589755D01*
X60373000Y-65589755D01*
X60373000Y-65910245D01*
X60435525Y-66224578D01*
X60558172Y-66520673D01*
X60736227Y-66787152D01*
X60962848Y-67013773D01*
X61209918Y-67178859D01*
X61186903Y-67257298D01*
X62000000Y-68070395D01*
X62813097Y-67257298D01*
X62790082Y-67178859D01*
X63037152Y-67013773D01*
X63263773Y-66787152D01*
X63441828Y-66520673D01*
X63564475Y-66224578D01*
X63627000Y-65910245D01*
X63627000Y-65589755D01*
X63564475Y-65275422D01*
X63441828Y-64979327D01*
X63263773Y-64712848D01*
X63037152Y-64486227D01*
X62770673Y-64308172D01*
X62474578Y-64185525D01*
X62160245Y-64123000D01*
X61839755Y-64123000D01*
X61525422Y-64185525D01*
X61229327Y-64308172D01*
X60962848Y-64486227D01*
X60736227Y-64712848D01*
X60558172Y-64979327D01*
X60435525Y-65275422D01*
X60373000Y-65589755D01*
X57645484Y-65589755D01*
X62045005Y-61190235D01*
X62091817Y-61151817D01*
X62245149Y-60964983D01*
X62359084Y-60751824D01*
X62359637Y-60750000D01*
X62385623Y-60664339D01*
X62490000Y-60537154D01*
X62533000Y-60589551D01*
X62533001Y-62449730D01*
X62527065Y-62510000D01*
X62550755Y-62750533D01*
X62566342Y-62801915D01*
X62620917Y-62981824D01*
X62734852Y-63194983D01*
X62888184Y-63381817D01*
X62934995Y-63420234D01*
X63963999Y-64449239D01*
X63964000Y-68998731D01*
X63958064Y-69059001D01*
X63981754Y-69299534D01*
X64024430Y-69440217D01*
X64051916Y-69530825D01*
X64165851Y-69743984D01*
X64319183Y-69930818D01*
X64365995Y-69969236D01*
X69271762Y-74875004D01*
X69310180Y-74921816D01*
X69497014Y-75075148D01*
X69710173Y-75189083D01*
X69941463Y-75259244D01*
X70121729Y-75276999D01*
X70121736Y-75276999D01*
X70181996Y-75282934D01*
X70242256Y-75276999D01*
X74139741Y-75276999D01*
X74200001Y-75282934D01*
X74260261Y-75276999D01*
X74260269Y-75276999D01*
X74440535Y-75259244D01*
X74671825Y-75189083D01*
X74884984Y-75075148D01*
X75071818Y-74921816D01*
X75108598Y-74877000D01*
X75160245Y-74877000D01*
X75474578Y-74814475D01*
X75770673Y-74691828D01*
X76037152Y-74513773D01*
X76263773Y-74287152D01*
X76441828Y-74020673D01*
X76564475Y-73724578D01*
X76627000Y-73410245D01*
X76627000Y-73089755D01*
X76564475Y-72775422D01*
X76441828Y-72479327D01*
X76263773Y-72212848D01*
X76037152Y-71986227D01*
X75770673Y-71808172D01*
X75474578Y-71685525D01*
X75160245Y-71623000D01*
X74839755Y-71623000D01*
X74525422Y-71685525D01*
X74229327Y-71808172D01*
X73962848Y-71986227D01*
X73736227Y-72212848D01*
X73558172Y-72479327D01*
X73435525Y-72775422D01*
X73426061Y-72822999D01*
X70690237Y-72822999D01*
X66859940Y-68992702D01*
X77186903Y-68992702D01*
X77258486Y-69236671D01*
X77513996Y-69357571D01*
X77788184Y-69426300D01*
X78070512Y-69440217D01*
X78350130Y-69398787D01*
X78616292Y-69303603D01*
X78741514Y-69236671D01*
X78813097Y-68992702D01*
X78000000Y-68179605D01*
X77186903Y-68992702D01*
X66859940Y-68992702D01*
X66417999Y-68550762D01*
X66417999Y-68148214D01*
X66494721Y-68224936D01*
X66753011Y-68397519D01*
X67040006Y-68516396D01*
X67344679Y-68577000D01*
X67655321Y-68577000D01*
X67959994Y-68516396D01*
X68246989Y-68397519D01*
X68505279Y-68224936D01*
X68724936Y-68005279D01*
X68897519Y-67746989D01*
X69016396Y-67459994D01*
X69077000Y-67155321D01*
X69077000Y-66844679D01*
X70823000Y-66844679D01*
X70823000Y-67155321D01*
X70883604Y-67459994D01*
X71002481Y-67746989D01*
X71175064Y-68005279D01*
X71394721Y-68224936D01*
X71653011Y-68397519D01*
X71940006Y-68516396D01*
X72244679Y-68577000D01*
X72555321Y-68577000D01*
X72859994Y-68516396D01*
X73146989Y-68397519D01*
X73405279Y-68224936D01*
X73559703Y-68070512D01*
X76559783Y-68070512D01*
X76601213Y-68350130D01*
X76696397Y-68616292D01*
X76763329Y-68741514D01*
X77007298Y-68813097D01*
X77820395Y-68000000D01*
X78179605Y-68000000D01*
X78992702Y-68813097D01*
X79236671Y-68741514D01*
X79357571Y-68486004D01*
X79426300Y-68211816D01*
X79440217Y-67929488D01*
X79398787Y-67649870D01*
X79303603Y-67383708D01*
X79236671Y-67258486D01*
X78992702Y-67186903D01*
X78179605Y-68000000D01*
X77820395Y-68000000D01*
X77007298Y-67186903D01*
X76763329Y-67258486D01*
X76642429Y-67513996D01*
X76573700Y-67788184D01*
X76559783Y-68070512D01*
X73559703Y-68070512D01*
X73624936Y-68005279D01*
X73797519Y-67746989D01*
X73916396Y-67459994D01*
X73977000Y-67155321D01*
X73977000Y-66844679D01*
X73916396Y-66540006D01*
X73797519Y-66253011D01*
X73624936Y-65994721D01*
X73405279Y-65775064D01*
X73146989Y-65602481D01*
X72859994Y-65483604D01*
X72555321Y-65423000D01*
X72244679Y-65423000D01*
X71940006Y-65483604D01*
X71653011Y-65602481D01*
X71394721Y-65775064D01*
X71175064Y-65994721D01*
X71002481Y-66253011D01*
X70883604Y-66540006D01*
X70823000Y-66844679D01*
X69077000Y-66844679D01*
X69016396Y-66540006D01*
X68897519Y-66253011D01*
X68724936Y-65994721D01*
X68505279Y-65775064D01*
X68246989Y-65602481D01*
X67959994Y-65483604D01*
X67655321Y-65423000D01*
X67344679Y-65423000D01*
X67040006Y-65483604D01*
X66753011Y-65602481D01*
X66494721Y-65775064D01*
X66417999Y-65851786D01*
X66417999Y-65339755D01*
X76373000Y-65339755D01*
X76373000Y-65660245D01*
X76435525Y-65974578D01*
X76558172Y-66270673D01*
X76736227Y-66537152D01*
X76962848Y-66763773D01*
X77209918Y-66928859D01*
X77186903Y-67007298D01*
X78000000Y-67820395D01*
X78813097Y-67007298D01*
X78790082Y-66928859D01*
X79037152Y-66763773D01*
X79263773Y-66537152D01*
X79441828Y-66270673D01*
X79564475Y-65974578D01*
X79627000Y-65660245D01*
X79627000Y-65339755D01*
X79564475Y-65025422D01*
X79441828Y-64729327D01*
X79263773Y-64462848D01*
X79037152Y-64236227D01*
X78770673Y-64058172D01*
X78474578Y-63935525D01*
X78160245Y-63873000D01*
X77839755Y-63873000D01*
X77525422Y-63935525D01*
X77229327Y-64058172D01*
X76962848Y-64236227D01*
X76736227Y-64462848D01*
X76558172Y-64729327D01*
X76435525Y-65025422D01*
X76373000Y-65339755D01*
X66417999Y-65339755D01*
X66417999Y-64001258D01*
X66423934Y-63940998D01*
X66417999Y-63880738D01*
X66417999Y-63880731D01*
X66400244Y-63700465D01*
X66353264Y-63545592D01*
X66528176Y-63639084D01*
X66679482Y-63684982D01*
X66759465Y-63709245D01*
X66783240Y-63711587D01*
X66939732Y-63727000D01*
X66939739Y-63727000D01*
X66999999Y-63732935D01*
X67060259Y-63727000D01*
X80241761Y-63727000D01*
X81273000Y-64758240D01*
X81273001Y-67439730D01*
X81267065Y-67500000D01*
X81290755Y-67740533D01*
X81360917Y-67971824D01*
X81474852Y-68184983D01*
X81628184Y-68371817D01*
X81674996Y-68410235D01*
X84839765Y-71575005D01*
X84878183Y-71621817D01*
X85065017Y-71775149D01*
X85278176Y-71889084D01*
X85509466Y-71959245D01*
X85689732Y-71977000D01*
X85689739Y-71977000D01*
X85749999Y-71982935D01*
X85810259Y-71977000D01*
X86426075Y-71977000D01*
X86462848Y-72013773D01*
X86729327Y-72191828D01*
X87025422Y-72314475D01*
X87339755Y-72377000D01*
X87660245Y-72377000D01*
X87974578Y-72314475D01*
X88270673Y-72191828D01*
X88537152Y-72013773D01*
X88763773Y-71787152D01*
X88941828Y-71520673D01*
X89064475Y-71224578D01*
X89127000Y-70910245D01*
X89127000Y-70589755D01*
X89064475Y-70275422D01*
X88941828Y-69979327D01*
X88763773Y-69712848D01*
X88537152Y-69486227D01*
X88270673Y-69308172D01*
X87974578Y-69185525D01*
X87660245Y-69123000D01*
X87339755Y-69123000D01*
X87025422Y-69185525D01*
X86729327Y-69308172D01*
X86462848Y-69486227D01*
X86426075Y-69523000D01*
X86258240Y-69523000D01*
X83727000Y-66991761D01*
X83727000Y-64310263D01*
X83732935Y-64250000D01*
X83726586Y-64185525D01*
X83718679Y-64105245D01*
X83709246Y-64009466D01*
X83639084Y-63778176D01*
X83602240Y-63709246D01*
X83525149Y-63565017D01*
X83371817Y-63378183D01*
X83325006Y-63339766D01*
X82002130Y-62016890D01*
X85558524Y-62016890D01*
X85603175Y-62164099D01*
X85728359Y-62426920D01*
X85902412Y-62660269D01*
X86118645Y-62855178D01*
X86368748Y-63004157D01*
X86643109Y-63101481D01*
X86873000Y-62980814D01*
X86873000Y-61787000D01*
X87127000Y-61787000D01*
X87127000Y-62980814D01*
X87356891Y-63101481D01*
X87631252Y-63004157D01*
X87881355Y-62855178D01*
X88097588Y-62660269D01*
X88271641Y-62426920D01*
X88396825Y-62164099D01*
X88441476Y-62016890D01*
X88320155Y-61787000D01*
X87127000Y-61787000D01*
X86873000Y-61787000D01*
X85679845Y-61787000D01*
X85558524Y-62016890D01*
X82002130Y-62016890D01*
X81660239Y-61675000D01*
X81621817Y-61628183D01*
X81434983Y-61474851D01*
X81221824Y-61360916D01*
X80990534Y-61290755D01*
X80810268Y-61273000D01*
X80810260Y-61273000D01*
X80750000Y-61267065D01*
X80689740Y-61273000D01*
X67527000Y-61273000D01*
X67527000Y-60589550D01*
X67570000Y-60537154D01*
X67683971Y-60676029D01*
X67931714Y-60879346D01*
X68214362Y-61030425D01*
X68521052Y-61123458D01*
X68840000Y-61154872D01*
X69158947Y-61123458D01*
X69465637Y-61030425D01*
X69748285Y-60879346D01*
X69996029Y-60676029D01*
X70110000Y-60537154D01*
X70223971Y-60676029D01*
X70471714Y-60879346D01*
X70754362Y-61030425D01*
X71061052Y-61123458D01*
X71380000Y-61154872D01*
X71698947Y-61123458D01*
X72005637Y-61030425D01*
X72288285Y-60879346D01*
X72536029Y-60676029D01*
X72650000Y-60537154D01*
X72763971Y-60676029D01*
X73011714Y-60879346D01*
X73294362Y-61030425D01*
X73601052Y-61123458D01*
X73920000Y-61154872D01*
X74238947Y-61123458D01*
X74545637Y-61030425D01*
X74828285Y-60879346D01*
X75076029Y-60676029D01*
X75190000Y-60537154D01*
X75303971Y-60676029D01*
X75551714Y-60879346D01*
X75834362Y-61030425D01*
X76141052Y-61123458D01*
X76460000Y-61154872D01*
X76778947Y-61123458D01*
X77085637Y-61030425D01*
X77368285Y-60879346D01*
X77616029Y-60676029D01*
X77730000Y-60537154D01*
X77843971Y-60676029D01*
X78091714Y-60879346D01*
X78374362Y-61030425D01*
X78681052Y-61123458D01*
X79000000Y-61154872D01*
X79318947Y-61123458D01*
X79625637Y-61030425D01*
X79908285Y-60879346D01*
X80156029Y-60676029D01*
X80359346Y-60428286D01*
X80510425Y-60145638D01*
X80603458Y-59838948D01*
X80627000Y-59599925D01*
X80627000Y-58640076D01*
X80603458Y-58401052D01*
X80510425Y-58094362D01*
X80359346Y-57811714D01*
X80156029Y-57563971D01*
X79908286Y-57360654D01*
X79625638Y-57209575D01*
X79318948Y-57116542D01*
X79000000Y-57085128D01*
X78681053Y-57116542D01*
X78374363Y-57209575D01*
X78091715Y-57360654D01*
X77843972Y-57563971D01*
X77730000Y-57702846D01*
X77616029Y-57563971D01*
X77368286Y-57360654D01*
X77085638Y-57209575D01*
X76778948Y-57116542D01*
X76460000Y-57085128D01*
X76141053Y-57116542D01*
X75834363Y-57209575D01*
X75551715Y-57360654D01*
X75303972Y-57563971D01*
X75190000Y-57702846D01*
X75076029Y-57563971D01*
X74828286Y-57360654D01*
X74545638Y-57209575D01*
X74238948Y-57116542D01*
X73920000Y-57085128D01*
X73601053Y-57116542D01*
X73294363Y-57209575D01*
X73011715Y-57360654D01*
X72763972Y-57563971D01*
X72650000Y-57702846D01*
X72536029Y-57563971D01*
X72288286Y-57360654D01*
X72005638Y-57209575D01*
X71698948Y-57116542D01*
X71380000Y-57085128D01*
X71061053Y-57116542D01*
X70784940Y-57200300D01*
X71258240Y-56727000D01*
X80939740Y-56727000D01*
X81000000Y-56732935D01*
X81060260Y-56727000D01*
X81060268Y-56727000D01*
X81240534Y-56709245D01*
X81471824Y-56639084D01*
X81684983Y-56525149D01*
X81871817Y-56371817D01*
X81910239Y-56325000D01*
X84325006Y-53910234D01*
X84371817Y-53871817D01*
X84525149Y-53684983D01*
X84605384Y-53534872D01*
X84639084Y-53471825D01*
X84709246Y-53240534D01*
X84721339Y-53117745D01*
X84727000Y-53060268D01*
X84727000Y-53060263D01*
X84732935Y-53000000D01*
X84727000Y-52939737D01*
X84727000Y-50650000D01*
X85318999Y-50650000D01*
X85318999Y-52350000D01*
X85334966Y-52512120D01*
X85382255Y-52668010D01*
X85459048Y-52811679D01*
X85562394Y-52937606D01*
X85663980Y-53020976D01*
X85513862Y-53245643D01*
X85387446Y-53550837D01*
X85323000Y-53874830D01*
X85323000Y-54205170D01*
X85387446Y-54529163D01*
X85513862Y-54834357D01*
X85697389Y-55109025D01*
X85898364Y-55310000D01*
X85697389Y-55510975D01*
X85513862Y-55785643D01*
X85387446Y-56090837D01*
X85323000Y-56414830D01*
X85323000Y-56745170D01*
X85387446Y-57069163D01*
X85513862Y-57374357D01*
X85697389Y-57649025D01*
X85898364Y-57850000D01*
X85697389Y-58050975D01*
X85513862Y-58325643D01*
X85387446Y-58630837D01*
X85323000Y-58954830D01*
X85323000Y-59285170D01*
X85387446Y-59609163D01*
X85513862Y-59914357D01*
X85697389Y-60189025D01*
X85930975Y-60422611D01*
X86065646Y-60512595D01*
X85902412Y-60659731D01*
X85728359Y-60893080D01*
X85603175Y-61155901D01*
X85558524Y-61303110D01*
X85679845Y-61533000D01*
X86873000Y-61533000D01*
X86873000Y-61513000D01*
X87127000Y-61513000D01*
X87127000Y-61533000D01*
X88320155Y-61533000D01*
X88441476Y-61303110D01*
X88396825Y-61155901D01*
X88271641Y-60893080D01*
X88097588Y-60659731D01*
X87934354Y-60512595D01*
X88069025Y-60422611D01*
X88302611Y-60189025D01*
X88486138Y-59914357D01*
X88612554Y-59609163D01*
X88677000Y-59285170D01*
X88677000Y-58954830D01*
X88612554Y-58630837D01*
X88486138Y-58325643D01*
X88302611Y-58050975D01*
X88101636Y-57850000D01*
X88302611Y-57649025D01*
X88486138Y-57374357D01*
X88612554Y-57069163D01*
X88677000Y-56745170D01*
X88677000Y-56414830D01*
X88612554Y-56090837D01*
X88486138Y-55785643D01*
X88302611Y-55510975D01*
X88101636Y-55310000D01*
X88302611Y-55109025D01*
X88486138Y-54834357D01*
X88612554Y-54529163D01*
X88677000Y-54205170D01*
X88677000Y-53874830D01*
X88612554Y-53550837D01*
X88486138Y-53245643D01*
X88336020Y-53020976D01*
X88437606Y-52937606D01*
X88540952Y-52811679D01*
X88617745Y-52668010D01*
X88665034Y-52512120D01*
X88681001Y-52350000D01*
X88681001Y-50650000D01*
X88665034Y-50487880D01*
X88617745Y-50331990D01*
X88540952Y-50188321D01*
X88437606Y-50062394D01*
X88311679Y-49959048D01*
X88168010Y-49882255D01*
X88012120Y-49834966D01*
X87850000Y-49818999D01*
X86150000Y-49818999D01*
X85987880Y-49834966D01*
X85831990Y-49882255D01*
X85688321Y-49959048D01*
X85562394Y-50062394D01*
X85459048Y-50188321D01*
X85382255Y-50331990D01*
X85334966Y-50487880D01*
X85318999Y-50650000D01*
X84727000Y-50650000D01*
X84727000Y-44560259D01*
X84732935Y-44499999D01*
X84727000Y-44439739D01*
X84727000Y-44439732D01*
X84709245Y-44259466D01*
X84639084Y-44028176D01*
X84525149Y-43815017D01*
X84371817Y-43628183D01*
X84325005Y-43589765D01*
X81660239Y-40925000D01*
X81621817Y-40878183D01*
X81589913Y-40852000D01*
X89148001Y-40852000D01*
X89148001Y-75623000D01*
%TA.AperFunction,Conductor*%
D31*
G36*
X89148001Y-75623000D02*
G01*
X59502996Y-75623000D01*
X59564475Y-75474578D01*
X59627000Y-75160245D01*
X59627000Y-74839755D01*
X59564475Y-74525422D01*
X59441828Y-74229327D01*
X59263773Y-73962848D01*
X59227000Y-73926075D01*
X59227000Y-72310263D01*
X59232935Y-72250000D01*
X59209246Y-72009466D01*
X59139084Y-71778175D01*
X59089561Y-71685525D01*
X59025149Y-71565017D01*
X58871817Y-71378183D01*
X58825006Y-71339766D01*
X56727942Y-69242702D01*
X61186903Y-69242702D01*
X61258486Y-69486671D01*
X61513996Y-69607571D01*
X61788184Y-69676300D01*
X62070512Y-69690217D01*
X62350130Y-69648787D01*
X62616292Y-69553603D01*
X62741514Y-69486671D01*
X62813097Y-69242702D01*
X62000000Y-68429605D01*
X61186903Y-69242702D01*
X56727942Y-69242702D01*
X56727000Y-69241761D01*
X56727000Y-68320512D01*
X60559783Y-68320512D01*
X60601213Y-68600130D01*
X60696397Y-68866292D01*
X60763329Y-68991514D01*
X61007298Y-69063097D01*
X61820395Y-68250000D01*
X62179605Y-68250000D01*
X62992702Y-69063097D01*
X63236671Y-68991514D01*
X63357571Y-68736004D01*
X63426300Y-68461816D01*
X63440217Y-68179488D01*
X63398787Y-67899870D01*
X63303603Y-67633708D01*
X63236671Y-67508486D01*
X62992702Y-67436903D01*
X62179605Y-68250000D01*
X61820395Y-68250000D01*
X61007298Y-67436903D01*
X60763329Y-67508486D01*
X60642429Y-67763996D01*
X60573700Y-68038184D01*
X60559783Y-68320512D01*
X56727000Y-68320512D01*
X56727000Y-66508239D01*
X57645484Y-65589755D01*
X60373000Y-65589755D01*
X60373000Y-65910245D01*
X60435525Y-66224578D01*
X60558172Y-66520673D01*
X60736227Y-66787152D01*
X60962848Y-67013773D01*
X61209918Y-67178859D01*
X61186903Y-67257298D01*
X62000000Y-68070395D01*
X62813097Y-67257298D01*
X62790082Y-67178859D01*
X63037152Y-67013773D01*
X63263773Y-66787152D01*
X63441828Y-66520673D01*
X63564475Y-66224578D01*
X63627000Y-65910245D01*
X63627000Y-65589755D01*
X63564475Y-65275422D01*
X63441828Y-64979327D01*
X63263773Y-64712848D01*
X63037152Y-64486227D01*
X62770673Y-64308172D01*
X62474578Y-64185525D01*
X62160245Y-64123000D01*
X61839755Y-64123000D01*
X61525422Y-64185525D01*
X61229327Y-64308172D01*
X60962848Y-64486227D01*
X60736227Y-64712848D01*
X60558172Y-64979327D01*
X60435525Y-65275422D01*
X60373000Y-65589755D01*
X57645484Y-65589755D01*
X62045005Y-61190235D01*
X62091817Y-61151817D01*
X62245149Y-60964983D01*
X62359084Y-60751824D01*
X62359637Y-60750000D01*
X62385623Y-60664339D01*
X62490000Y-60537154D01*
X62533000Y-60589551D01*
X62533001Y-62449730D01*
X62527065Y-62510000D01*
X62550755Y-62750533D01*
X62566342Y-62801915D01*
X62620917Y-62981824D01*
X62734852Y-63194983D01*
X62888184Y-63381817D01*
X62934995Y-63420234D01*
X63963999Y-64449239D01*
X63964000Y-68998731D01*
X63958064Y-69059001D01*
X63981754Y-69299534D01*
X64024430Y-69440217D01*
X64051916Y-69530825D01*
X64165851Y-69743984D01*
X64319183Y-69930818D01*
X64365995Y-69969236D01*
X69271762Y-74875004D01*
X69310180Y-74921816D01*
X69497014Y-75075148D01*
X69710173Y-75189083D01*
X69941463Y-75259244D01*
X70121729Y-75276999D01*
X70121736Y-75276999D01*
X70181996Y-75282934D01*
X70242256Y-75276999D01*
X74139741Y-75276999D01*
X74200001Y-75282934D01*
X74260261Y-75276999D01*
X74260269Y-75276999D01*
X74440535Y-75259244D01*
X74671825Y-75189083D01*
X74884984Y-75075148D01*
X75071818Y-74921816D01*
X75108598Y-74877000D01*
X75160245Y-74877000D01*
X75474578Y-74814475D01*
X75770673Y-74691828D01*
X76037152Y-74513773D01*
X76263773Y-74287152D01*
X76441828Y-74020673D01*
X76564475Y-73724578D01*
X76627000Y-73410245D01*
X76627000Y-73089755D01*
X76564475Y-72775422D01*
X76441828Y-72479327D01*
X76263773Y-72212848D01*
X76037152Y-71986227D01*
X75770673Y-71808172D01*
X75474578Y-71685525D01*
X75160245Y-71623000D01*
X74839755Y-71623000D01*
X74525422Y-71685525D01*
X74229327Y-71808172D01*
X73962848Y-71986227D01*
X73736227Y-72212848D01*
X73558172Y-72479327D01*
X73435525Y-72775422D01*
X73426061Y-72822999D01*
X70690237Y-72822999D01*
X66859940Y-68992702D01*
X77186903Y-68992702D01*
X77258486Y-69236671D01*
X77513996Y-69357571D01*
X77788184Y-69426300D01*
X78070512Y-69440217D01*
X78350130Y-69398787D01*
X78616292Y-69303603D01*
X78741514Y-69236671D01*
X78813097Y-68992702D01*
X78000000Y-68179605D01*
X77186903Y-68992702D01*
X66859940Y-68992702D01*
X66417999Y-68550762D01*
X66417999Y-68148214D01*
X66494721Y-68224936D01*
X66753011Y-68397519D01*
X67040006Y-68516396D01*
X67344679Y-68577000D01*
X67655321Y-68577000D01*
X67959994Y-68516396D01*
X68246989Y-68397519D01*
X68505279Y-68224936D01*
X68724936Y-68005279D01*
X68897519Y-67746989D01*
X69016396Y-67459994D01*
X69077000Y-67155321D01*
X69077000Y-66844679D01*
X70823000Y-66844679D01*
X70823000Y-67155321D01*
X70883604Y-67459994D01*
X71002481Y-67746989D01*
X71175064Y-68005279D01*
X71394721Y-68224936D01*
X71653011Y-68397519D01*
X71940006Y-68516396D01*
X72244679Y-68577000D01*
X72555321Y-68577000D01*
X72859994Y-68516396D01*
X73146989Y-68397519D01*
X73405279Y-68224936D01*
X73559703Y-68070512D01*
X76559783Y-68070512D01*
X76601213Y-68350130D01*
X76696397Y-68616292D01*
X76763329Y-68741514D01*
X77007298Y-68813097D01*
X77820395Y-68000000D01*
X78179605Y-68000000D01*
X78992702Y-68813097D01*
X79236671Y-68741514D01*
X79357571Y-68486004D01*
X79426300Y-68211816D01*
X79440217Y-67929488D01*
X79398787Y-67649870D01*
X79303603Y-67383708D01*
X79236671Y-67258486D01*
X78992702Y-67186903D01*
X78179605Y-68000000D01*
X77820395Y-68000000D01*
X77007298Y-67186903D01*
X76763329Y-67258486D01*
X76642429Y-67513996D01*
X76573700Y-67788184D01*
X76559783Y-68070512D01*
X73559703Y-68070512D01*
X73624936Y-68005279D01*
X73797519Y-67746989D01*
X73916396Y-67459994D01*
X73977000Y-67155321D01*
X73977000Y-66844679D01*
X73916396Y-66540006D01*
X73797519Y-66253011D01*
X73624936Y-65994721D01*
X73405279Y-65775064D01*
X73146989Y-65602481D01*
X72859994Y-65483604D01*
X72555321Y-65423000D01*
X72244679Y-65423000D01*
X71940006Y-65483604D01*
X71653011Y-65602481D01*
X71394721Y-65775064D01*
X71175064Y-65994721D01*
X71002481Y-66253011D01*
X70883604Y-66540006D01*
X70823000Y-66844679D01*
X69077000Y-66844679D01*
X69016396Y-66540006D01*
X68897519Y-66253011D01*
X68724936Y-65994721D01*
X68505279Y-65775064D01*
X68246989Y-65602481D01*
X67959994Y-65483604D01*
X67655321Y-65423000D01*
X67344679Y-65423000D01*
X67040006Y-65483604D01*
X66753011Y-65602481D01*
X66494721Y-65775064D01*
X66417999Y-65851786D01*
X66417999Y-65339755D01*
X76373000Y-65339755D01*
X76373000Y-65660245D01*
X76435525Y-65974578D01*
X76558172Y-66270673D01*
X76736227Y-66537152D01*
X76962848Y-66763773D01*
X77209918Y-66928859D01*
X77186903Y-67007298D01*
X78000000Y-67820395D01*
X78813097Y-67007298D01*
X78790082Y-66928859D01*
X79037152Y-66763773D01*
X79263773Y-66537152D01*
X79441828Y-66270673D01*
X79564475Y-65974578D01*
X79627000Y-65660245D01*
X79627000Y-65339755D01*
X79564475Y-65025422D01*
X79441828Y-64729327D01*
X79263773Y-64462848D01*
X79037152Y-64236227D01*
X78770673Y-64058172D01*
X78474578Y-63935525D01*
X78160245Y-63873000D01*
X77839755Y-63873000D01*
X77525422Y-63935525D01*
X77229327Y-64058172D01*
X76962848Y-64236227D01*
X76736227Y-64462848D01*
X76558172Y-64729327D01*
X76435525Y-65025422D01*
X76373000Y-65339755D01*
X66417999Y-65339755D01*
X66417999Y-64001258D01*
X66423934Y-63940998D01*
X66417999Y-63880738D01*
X66417999Y-63880731D01*
X66400244Y-63700465D01*
X66353264Y-63545592D01*
X66528176Y-63639084D01*
X66679482Y-63684982D01*
X66759465Y-63709245D01*
X66783240Y-63711587D01*
X66939732Y-63727000D01*
X66939739Y-63727000D01*
X66999999Y-63732935D01*
X67060259Y-63727000D01*
X80241761Y-63727000D01*
X81273000Y-64758240D01*
X81273001Y-67439730D01*
X81267065Y-67500000D01*
X81290755Y-67740533D01*
X81360917Y-67971824D01*
X81474852Y-68184983D01*
X81628184Y-68371817D01*
X81674996Y-68410235D01*
X84839765Y-71575005D01*
X84878183Y-71621817D01*
X85065017Y-71775149D01*
X85278176Y-71889084D01*
X85509466Y-71959245D01*
X85689732Y-71977000D01*
X85689739Y-71977000D01*
X85749999Y-71982935D01*
X85810259Y-71977000D01*
X86426075Y-71977000D01*
X86462848Y-72013773D01*
X86729327Y-72191828D01*
X87025422Y-72314475D01*
X87339755Y-72377000D01*
X87660245Y-72377000D01*
X87974578Y-72314475D01*
X88270673Y-72191828D01*
X88537152Y-72013773D01*
X88763773Y-71787152D01*
X88941828Y-71520673D01*
X89064475Y-71224578D01*
X89127000Y-70910245D01*
X89127000Y-70589755D01*
X89064475Y-70275422D01*
X88941828Y-69979327D01*
X88763773Y-69712848D01*
X88537152Y-69486227D01*
X88270673Y-69308172D01*
X87974578Y-69185525D01*
X87660245Y-69123000D01*
X87339755Y-69123000D01*
X87025422Y-69185525D01*
X86729327Y-69308172D01*
X86462848Y-69486227D01*
X86426075Y-69523000D01*
X86258240Y-69523000D01*
X83727000Y-66991761D01*
X83727000Y-64310263D01*
X83732935Y-64250000D01*
X83726586Y-64185525D01*
X83718679Y-64105245D01*
X83709246Y-64009466D01*
X83639084Y-63778176D01*
X83602240Y-63709246D01*
X83525149Y-63565017D01*
X83371817Y-63378183D01*
X83325006Y-63339766D01*
X82002130Y-62016890D01*
X85558524Y-62016890D01*
X85603175Y-62164099D01*
X85728359Y-62426920D01*
X85902412Y-62660269D01*
X86118645Y-62855178D01*
X86368748Y-63004157D01*
X86643109Y-63101481D01*
X86873000Y-62980814D01*
X86873000Y-61787000D01*
X87127000Y-61787000D01*
X87127000Y-62980814D01*
X87356891Y-63101481D01*
X87631252Y-63004157D01*
X87881355Y-62855178D01*
X88097588Y-62660269D01*
X88271641Y-62426920D01*
X88396825Y-62164099D01*
X88441476Y-62016890D01*
X88320155Y-61787000D01*
X87127000Y-61787000D01*
X86873000Y-61787000D01*
X85679845Y-61787000D01*
X85558524Y-62016890D01*
X82002130Y-62016890D01*
X81660239Y-61675000D01*
X81621817Y-61628183D01*
X81434983Y-61474851D01*
X81221824Y-61360916D01*
X80990534Y-61290755D01*
X80810268Y-61273000D01*
X80810260Y-61273000D01*
X80750000Y-61267065D01*
X80689740Y-61273000D01*
X67527000Y-61273000D01*
X67527000Y-60589550D01*
X67570000Y-60537154D01*
X67683971Y-60676029D01*
X67931714Y-60879346D01*
X68214362Y-61030425D01*
X68521052Y-61123458D01*
X68840000Y-61154872D01*
X69158947Y-61123458D01*
X69465637Y-61030425D01*
X69748285Y-60879346D01*
X69996029Y-60676029D01*
X70110000Y-60537154D01*
X70223971Y-60676029D01*
X70471714Y-60879346D01*
X70754362Y-61030425D01*
X71061052Y-61123458D01*
X71380000Y-61154872D01*
X71698947Y-61123458D01*
X72005637Y-61030425D01*
X72288285Y-60879346D01*
X72536029Y-60676029D01*
X72650000Y-60537154D01*
X72763971Y-60676029D01*
X73011714Y-60879346D01*
X73294362Y-61030425D01*
X73601052Y-61123458D01*
X73920000Y-61154872D01*
X74238947Y-61123458D01*
X74545637Y-61030425D01*
X74828285Y-60879346D01*
X75076029Y-60676029D01*
X75190000Y-60537154D01*
X75303971Y-60676029D01*
X75551714Y-60879346D01*
X75834362Y-61030425D01*
X76141052Y-61123458D01*
X76460000Y-61154872D01*
X76778947Y-61123458D01*
X77085637Y-61030425D01*
X77368285Y-60879346D01*
X77616029Y-60676029D01*
X77730000Y-60537154D01*
X77843971Y-60676029D01*
X78091714Y-60879346D01*
X78374362Y-61030425D01*
X78681052Y-61123458D01*
X79000000Y-61154872D01*
X79318947Y-61123458D01*
X79625637Y-61030425D01*
X79908285Y-60879346D01*
X80156029Y-60676029D01*
X80359346Y-60428286D01*
X80510425Y-60145638D01*
X80603458Y-59838948D01*
X80627000Y-59599925D01*
X80627000Y-58640076D01*
X80603458Y-58401052D01*
X80510425Y-58094362D01*
X80359346Y-57811714D01*
X80156029Y-57563971D01*
X79908286Y-57360654D01*
X79625638Y-57209575D01*
X79318948Y-57116542D01*
X79000000Y-57085128D01*
X78681053Y-57116542D01*
X78374363Y-57209575D01*
X78091715Y-57360654D01*
X77843972Y-57563971D01*
X77730000Y-57702846D01*
X77616029Y-57563971D01*
X77368286Y-57360654D01*
X77085638Y-57209575D01*
X76778948Y-57116542D01*
X76460000Y-57085128D01*
X76141053Y-57116542D01*
X75834363Y-57209575D01*
X75551715Y-57360654D01*
X75303972Y-57563971D01*
X75190000Y-57702846D01*
X75076029Y-57563971D01*
X74828286Y-57360654D01*
X74545638Y-57209575D01*
X74238948Y-57116542D01*
X73920000Y-57085128D01*
X73601053Y-57116542D01*
X73294363Y-57209575D01*
X73011715Y-57360654D01*
X72763972Y-57563971D01*
X72650000Y-57702846D01*
X72536029Y-57563971D01*
X72288286Y-57360654D01*
X72005638Y-57209575D01*
X71698948Y-57116542D01*
X71380000Y-57085128D01*
X71061053Y-57116542D01*
X70784940Y-57200300D01*
X71258240Y-56727000D01*
X80939740Y-56727000D01*
X81000000Y-56732935D01*
X81060260Y-56727000D01*
X81060268Y-56727000D01*
X81240534Y-56709245D01*
X81471824Y-56639084D01*
X81684983Y-56525149D01*
X81871817Y-56371817D01*
X81910239Y-56325000D01*
X84325006Y-53910234D01*
X84371817Y-53871817D01*
X84525149Y-53684983D01*
X84605384Y-53534872D01*
X84639084Y-53471825D01*
X84709246Y-53240534D01*
X84721339Y-53117745D01*
X84727000Y-53060268D01*
X84727000Y-53060263D01*
X84732935Y-53000000D01*
X84727000Y-52939737D01*
X84727000Y-50650000D01*
X85318999Y-50650000D01*
X85318999Y-52350000D01*
X85334966Y-52512120D01*
X85382255Y-52668010D01*
X85459048Y-52811679D01*
X85562394Y-52937606D01*
X85663980Y-53020976D01*
X85513862Y-53245643D01*
X85387446Y-53550837D01*
X85323000Y-53874830D01*
X85323000Y-54205170D01*
X85387446Y-54529163D01*
X85513862Y-54834357D01*
X85697389Y-55109025D01*
X85898364Y-55310000D01*
X85697389Y-55510975D01*
X85513862Y-55785643D01*
X85387446Y-56090837D01*
X85323000Y-56414830D01*
X85323000Y-56745170D01*
X85387446Y-57069163D01*
X85513862Y-57374357D01*
X85697389Y-57649025D01*
X85898364Y-57850000D01*
X85697389Y-58050975D01*
X85513862Y-58325643D01*
X85387446Y-58630837D01*
X85323000Y-58954830D01*
X85323000Y-59285170D01*
X85387446Y-59609163D01*
X85513862Y-59914357D01*
X85697389Y-60189025D01*
X85930975Y-60422611D01*
X86065646Y-60512595D01*
X85902412Y-60659731D01*
X85728359Y-60893080D01*
X85603175Y-61155901D01*
X85558524Y-61303110D01*
X85679845Y-61533000D01*
X86873000Y-61533000D01*
X86873000Y-61513000D01*
X87127000Y-61513000D01*
X87127000Y-61533000D01*
X88320155Y-61533000D01*
X88441476Y-61303110D01*
X88396825Y-61155901D01*
X88271641Y-60893080D01*
X88097588Y-60659731D01*
X87934354Y-60512595D01*
X88069025Y-60422611D01*
X88302611Y-60189025D01*
X88486138Y-59914357D01*
X88612554Y-59609163D01*
X88677000Y-59285170D01*
X88677000Y-58954830D01*
X88612554Y-58630837D01*
X88486138Y-58325643D01*
X88302611Y-58050975D01*
X88101636Y-57850000D01*
X88302611Y-57649025D01*
X88486138Y-57374357D01*
X88612554Y-57069163D01*
X88677000Y-56745170D01*
X88677000Y-56414830D01*
X88612554Y-56090837D01*
X88486138Y-55785643D01*
X88302611Y-55510975D01*
X88101636Y-55310000D01*
X88302611Y-55109025D01*
X88486138Y-54834357D01*
X88612554Y-54529163D01*
X88677000Y-54205170D01*
X88677000Y-53874830D01*
X88612554Y-53550837D01*
X88486138Y-53245643D01*
X88336020Y-53020976D01*
X88437606Y-52937606D01*
X88540952Y-52811679D01*
X88617745Y-52668010D01*
X88665034Y-52512120D01*
X88681001Y-52350000D01*
X88681001Y-50650000D01*
X88665034Y-50487880D01*
X88617745Y-50331990D01*
X88540952Y-50188321D01*
X88437606Y-50062394D01*
X88311679Y-49959048D01*
X88168010Y-49882255D01*
X88012120Y-49834966D01*
X87850000Y-49818999D01*
X86150000Y-49818999D01*
X85987880Y-49834966D01*
X85831990Y-49882255D01*
X85688321Y-49959048D01*
X85562394Y-50062394D01*
X85459048Y-50188321D01*
X85382255Y-50331990D01*
X85334966Y-50487880D01*
X85318999Y-50650000D01*
X84727000Y-50650000D01*
X84727000Y-44560259D01*
X84732935Y-44499999D01*
X84727000Y-44439739D01*
X84727000Y-44439732D01*
X84709245Y-44259466D01*
X84639084Y-44028176D01*
X84525149Y-43815017D01*
X84371817Y-43628183D01*
X84325005Y-43589765D01*
X81660239Y-40925000D01*
X81621817Y-40878183D01*
X81589913Y-40852000D01*
X89148001Y-40852000D01*
X89148001Y-75623000D01*
G37*
%TD.AperFunction*%
D30*
X69878183Y-40878183D02*
X69839765Y-40924995D01*
X68335000Y-42429761D01*
X68288183Y-42468183D01*
X68134851Y-42655018D01*
X68020916Y-42868177D01*
X67950755Y-43099467D01*
X67933000Y-43279733D01*
X67933000Y-43279740D01*
X67927065Y-43340000D01*
X67933000Y-43400260D01*
X67933000Y-43855364D01*
X67857389Y-43930975D01*
X67767405Y-44065646D01*
X67620269Y-43902412D01*
X67386920Y-43728359D01*
X67124099Y-43603175D01*
X66976890Y-43558524D01*
X66747000Y-43679845D01*
X66747000Y-44873000D01*
X66767000Y-44873000D01*
X66767000Y-45127000D01*
X66747000Y-45127000D01*
X66747000Y-46320155D01*
X66976890Y-46441476D01*
X67124099Y-46396825D01*
X67386920Y-46271641D01*
X67620269Y-46097588D01*
X67767405Y-45934354D01*
X67857389Y-46069025D01*
X68090975Y-46302611D01*
X68365643Y-46486138D01*
X68670837Y-46612554D01*
X68994830Y-46677000D01*
X69325170Y-46677000D01*
X69649163Y-46612554D01*
X69954357Y-46486138D01*
X70229025Y-46302611D01*
X70430000Y-46101636D01*
X70630975Y-46302611D01*
X70905643Y-46486138D01*
X71210837Y-46612554D01*
X71534830Y-46677000D01*
X71865170Y-46677000D01*
X72189163Y-46612554D01*
X72494357Y-46486138D01*
X72769025Y-46302611D01*
X73002611Y-46069025D01*
X73186138Y-45794357D01*
X73312554Y-45489163D01*
X73377000Y-45165170D01*
X73377000Y-44834830D01*
X73312554Y-44510837D01*
X73186138Y-44205643D01*
X73002611Y-43930975D01*
X72769025Y-43697389D01*
X72494357Y-43513862D01*
X72189163Y-43387446D01*
X71865170Y-43323000D01*
X71534830Y-43323000D01*
X71210837Y-43387446D01*
X70905643Y-43513862D01*
X70630975Y-43697389D01*
X70430000Y-43898364D01*
X70387000Y-43855364D01*
X70387000Y-43848239D01*
X71258240Y-42977000D01*
X80241761Y-42977000D01*
X82273001Y-45008241D01*
X82273000Y-52491760D01*
X80491761Y-54273000D01*
X70810263Y-54273000D01*
X70750000Y-54267065D01*
X70689737Y-54273000D01*
X70689732Y-54273000D01*
X70629946Y-54278889D01*
X70509466Y-54290754D01*
X70278175Y-54360916D01*
X70203927Y-54400603D01*
X70065017Y-54474851D01*
X69878183Y-54628183D01*
X69839765Y-54674995D01*
X68014995Y-56499766D01*
X67968184Y-56538183D01*
X67814852Y-56725017D01*
X67760383Y-56826923D01*
X67700917Y-56938176D01*
X67630755Y-57169467D01*
X67621188Y-57266605D01*
X67613000Y-57349732D01*
X67613000Y-57349740D01*
X67607065Y-57410000D01*
X67613000Y-57470260D01*
X67613000Y-57650450D01*
X67570000Y-57702846D01*
X67456029Y-57563971D01*
X67208286Y-57360654D01*
X66925638Y-57209575D01*
X66618948Y-57116542D01*
X66300000Y-57085128D01*
X65981053Y-57116542D01*
X65674363Y-57209575D01*
X65391715Y-57360654D01*
X65143972Y-57563971D01*
X65030000Y-57702846D01*
X64916029Y-57563971D01*
X64668286Y-57360654D01*
X64385638Y-57209575D01*
X64078948Y-57116542D01*
X63760000Y-57085128D01*
X63441053Y-57116542D01*
X63134363Y-57209575D01*
X62851715Y-57360654D01*
X62603972Y-57563971D01*
X62490000Y-57702846D01*
X62376029Y-57563971D01*
X62128286Y-57360654D01*
X61845638Y-57209575D01*
X61538948Y-57116542D01*
X61220000Y-57085128D01*
X60901053Y-57116542D01*
X60594363Y-57209575D01*
X60311715Y-57360654D01*
X60063972Y-57563971D01*
X59950000Y-57702846D01*
X59836029Y-57563971D01*
X59588286Y-57360654D01*
X59305638Y-57209575D01*
X58998948Y-57116542D01*
X58680000Y-57085128D01*
X58361053Y-57116542D01*
X58054363Y-57209575D01*
X57771715Y-57360654D01*
X57523972Y-57563971D01*
X57320654Y-57811714D01*
X57277206Y-57893000D01*
X56690259Y-57893000D01*
X56629999Y-57887065D01*
X56569739Y-57893000D01*
X56569732Y-57893000D01*
X56389466Y-57910755D01*
X56158176Y-57980916D01*
X55945017Y-58094851D01*
X55758183Y-58248183D01*
X55719765Y-58294995D01*
X54674995Y-59339766D01*
X54628184Y-59378183D01*
X54474852Y-59565017D01*
X54448339Y-59614620D01*
X54360917Y-59778176D01*
X54290755Y-60009467D01*
X54267065Y-60250000D01*
X54273001Y-60310270D01*
X54273000Y-62491760D01*
X50991761Y-65773000D01*
X39310263Y-65773000D01*
X39250000Y-65767065D01*
X39189737Y-65773000D01*
X39189732Y-65773000D01*
X39129946Y-65778889D01*
X39009466Y-65790754D01*
X38778176Y-65860916D01*
X38565017Y-65974851D01*
X38497013Y-66030661D01*
X38424995Y-66089764D01*
X38424989Y-66089770D01*
X38378183Y-66128183D01*
X38339770Y-66174989D01*
X35391761Y-69123000D01*
X35339755Y-69123000D01*
X35025422Y-69185525D01*
X34729327Y-69308172D01*
X34462848Y-69486227D01*
X34236227Y-69712848D01*
X34058172Y-69979327D01*
X33935525Y-70275422D01*
X33873000Y-70589755D01*
X33873000Y-70910245D01*
X33935525Y-71224578D01*
X34058172Y-71520673D01*
X34236227Y-71787152D01*
X34462848Y-72013773D01*
X34729327Y-72191828D01*
X35025422Y-72314475D01*
X35339755Y-72377000D01*
X35660245Y-72377000D01*
X35974578Y-72314475D01*
X36270673Y-72191828D01*
X36537152Y-72013773D01*
X36763773Y-71787152D01*
X36941828Y-71520673D01*
X37064475Y-71224578D01*
X37127000Y-70910245D01*
X37127000Y-70858239D01*
X39758241Y-68227000D01*
X51439740Y-68227000D01*
X51500000Y-68232935D01*
X51560260Y-68227000D01*
X51560268Y-68227000D01*
X51740534Y-68209245D01*
X51971824Y-68139084D01*
X52184983Y-68025149D01*
X52371817Y-67871817D01*
X52410239Y-67825000D01*
X54270542Y-65964698D01*
X54267065Y-66000000D01*
X54273000Y-66060260D01*
X54273001Y-69689730D01*
X54267065Y-69750000D01*
X54290755Y-69990533D01*
X54313350Y-70065017D01*
X54360917Y-70221824D01*
X54474852Y-70434983D01*
X54628184Y-70621817D01*
X54674995Y-70660235D01*
X56773000Y-72758240D01*
X56773001Y-73926074D01*
X56736227Y-73962848D01*
X56558172Y-74229327D01*
X56435525Y-74525422D01*
X56373000Y-74839755D01*
X56373000Y-75160245D01*
X56435525Y-75474578D01*
X56497004Y-75623000D01*
X26249660Y-75623000D01*
X24827000Y-74200340D01*
X24827000Y-71905346D01*
X24841448Y-71890898D01*
X25030447Y-71608041D01*
X25160632Y-71293747D01*
X25227000Y-70960095D01*
X25227000Y-70619905D01*
X25160632Y-70286253D01*
X25030447Y-69971959D01*
X24914142Y-69797896D01*
X24987606Y-69737606D01*
X25090952Y-69611679D01*
X25167745Y-69468010D01*
X25215034Y-69312120D01*
X25231001Y-69150000D01*
X25231001Y-67350000D01*
X25215034Y-67187880D01*
X25167745Y-67031990D01*
X25090952Y-66888321D01*
X24987606Y-66762394D01*
X24861679Y-66659048D01*
X24718010Y-66582255D01*
X24562120Y-66534966D01*
X24400000Y-66518999D01*
X24291359Y-66518999D01*
X24318041Y-66507947D01*
X24600898Y-66318948D01*
X24841448Y-66078398D01*
X25030447Y-65795541D01*
X25160632Y-65481247D01*
X25227000Y-65147595D01*
X25227000Y-64807405D01*
X25160632Y-64473753D01*
X25030447Y-64159459D01*
X24914142Y-63985396D01*
X24987606Y-63925106D01*
X25090952Y-63799179D01*
X25167745Y-63655510D01*
X25215034Y-63499620D01*
X25231001Y-63337500D01*
X25231001Y-61537500D01*
X25215034Y-61375380D01*
X25167745Y-61219490D01*
X25090952Y-61075821D01*
X24987606Y-60949894D01*
X24861679Y-60846548D01*
X24718010Y-60769755D01*
X24562120Y-60722466D01*
X24400000Y-60706499D01*
X24291359Y-60706499D01*
X24318041Y-60695447D01*
X24600898Y-60506448D01*
X24841448Y-60265898D01*
X25030447Y-59983041D01*
X25160632Y-59668747D01*
X25227000Y-59335095D01*
X25227000Y-58994905D01*
X25160632Y-58661253D01*
X25030447Y-58346959D01*
X24914142Y-58172896D01*
X24987606Y-58112606D01*
X25090952Y-57986679D01*
X25167745Y-57843010D01*
X25215034Y-57687120D01*
X25231001Y-57525000D01*
X25231001Y-55725000D01*
X25215034Y-55562880D01*
X25167745Y-55406990D01*
X25090952Y-55263321D01*
X24987606Y-55137394D01*
X24861679Y-55034048D01*
X24718010Y-54957255D01*
X24562120Y-54909966D01*
X24400000Y-54893999D01*
X24291359Y-54893999D01*
X24318041Y-54882947D01*
X24600898Y-54693948D01*
X24841448Y-54453398D01*
X25030447Y-54170541D01*
X25160632Y-53856247D01*
X25227000Y-53522595D01*
X25227000Y-53182405D01*
X25160632Y-52848753D01*
X25030447Y-52534459D01*
X24914142Y-52360396D01*
X24987606Y-52300106D01*
X25090952Y-52174179D01*
X25167745Y-52030510D01*
X25215034Y-51874620D01*
X25231001Y-51712500D01*
X25231001Y-49912500D01*
X25215034Y-49750380D01*
X25167745Y-49594490D01*
X25090952Y-49450821D01*
X24987606Y-49324894D01*
X24861679Y-49221548D01*
X24718010Y-49144755D01*
X24562120Y-49097466D01*
X24400000Y-49081499D01*
X24291359Y-49081499D01*
X24318041Y-49070447D01*
X24600898Y-48881448D01*
X24715346Y-48767000D01*
X35328725Y-48767000D01*
X35229327Y-48808172D01*
X34962848Y-48986227D01*
X34736227Y-49212848D01*
X34558172Y-49479327D01*
X34435525Y-49775422D01*
X34373000Y-50089755D01*
X34373000Y-50410245D01*
X34435525Y-50724578D01*
X34558172Y-51020673D01*
X34736227Y-51287152D01*
X34962848Y-51513773D01*
X35229327Y-51691828D01*
X35525422Y-51814475D01*
X35839755Y-51877000D01*
X35891761Y-51877000D01*
X40023000Y-56008240D01*
X40023001Y-60689730D01*
X40017065Y-60750000D01*
X40040755Y-60990533D01*
X40090607Y-61154872D01*
X40110917Y-61221824D01*
X40224852Y-61434983D01*
X40378184Y-61621817D01*
X40424995Y-61660234D01*
X42089764Y-63325004D01*
X42128183Y-63371817D01*
X42315017Y-63525149D01*
X42528174Y-63639083D01*
X42528176Y-63639084D01*
X42759466Y-63709246D01*
X42879946Y-63721111D01*
X42939732Y-63727000D01*
X42939737Y-63727000D01*
X43000000Y-63732935D01*
X43060263Y-63727000D01*
X49926075Y-63727000D01*
X49962848Y-63763773D01*
X50229327Y-63941828D01*
X50525422Y-64064475D01*
X50839755Y-64127000D01*
X51160245Y-64127000D01*
X51474578Y-64064475D01*
X51770673Y-63941828D01*
X52037152Y-63763773D01*
X52263773Y-63537152D01*
X52441828Y-63270673D01*
X52564475Y-62974578D01*
X52627000Y-62660245D01*
X52627000Y-62339755D01*
X52564475Y-62025422D01*
X52441828Y-61729327D01*
X52263773Y-61462848D01*
X52037152Y-61236227D01*
X51770673Y-61058172D01*
X51474578Y-60935525D01*
X51160245Y-60873000D01*
X50839755Y-60873000D01*
X50525422Y-60935525D01*
X50229327Y-61058172D01*
X49962848Y-61236227D01*
X49926075Y-61273000D01*
X43508240Y-61273000D01*
X42477000Y-60241761D01*
X42477000Y-57547500D01*
X43918999Y-57547500D01*
X43918999Y-59452500D01*
X43934966Y-59614620D01*
X43982255Y-59770510D01*
X44059048Y-59914179D01*
X44162394Y-60040106D01*
X44288321Y-60143452D01*
X44431990Y-60220245D01*
X44587880Y-60267534D01*
X44750000Y-60283501D01*
X46750000Y-60283501D01*
X46912120Y-60267534D01*
X47068010Y-60220245D01*
X47211679Y-60143452D01*
X47337606Y-60040106D01*
X47440952Y-59914179D01*
X47517745Y-59770510D01*
X47565034Y-59614620D01*
X47581001Y-59452500D01*
X47581001Y-57547500D01*
X47565034Y-57385380D01*
X47517745Y-57229490D01*
X47440952Y-57085821D01*
X47337606Y-56959894D01*
X47211679Y-56856548D01*
X47132562Y-56814259D01*
X47269571Y-56551094D01*
X47340563Y-56332980D01*
X47220594Y-56087000D01*
X45877000Y-56087000D01*
X45877000Y-56107000D01*
X45623000Y-56107000D01*
X45623000Y-56087000D01*
X44279406Y-56087000D01*
X44159437Y-56332980D01*
X44230429Y-56551094D01*
X44367438Y-56814259D01*
X44288321Y-56856548D01*
X44162394Y-56959894D01*
X44059048Y-57085821D01*
X43982255Y-57229490D01*
X43934966Y-57385380D01*
X43918999Y-57547500D01*
X42477000Y-57547500D01*
X42477000Y-55560259D01*
X42482935Y-55499999D01*
X42477000Y-55439739D01*
X42477000Y-55439732D01*
X42459245Y-55259466D01*
X42389084Y-55028176D01*
X42275149Y-54815017D01*
X42121817Y-54628183D01*
X42075005Y-54589765D01*
X37627000Y-50141761D01*
X37627000Y-50089755D01*
X37564475Y-49775422D01*
X37441828Y-49479327D01*
X37263773Y-49212848D01*
X37037152Y-48986227D01*
X36770673Y-48808172D01*
X36671275Y-48767000D01*
X39361761Y-48767000D01*
X43923389Y-53328629D01*
X43914390Y-53420000D01*
X43948748Y-53768843D01*
X44050502Y-54104280D01*
X44215741Y-54413421D01*
X44438115Y-54684385D01*
X44604247Y-54820726D01*
X44568685Y-54850563D01*
X44374031Y-55093077D01*
X44230429Y-55368906D01*
X44159437Y-55587020D01*
X44279406Y-55833000D01*
X45623000Y-55833000D01*
X45623000Y-55813000D01*
X45877000Y-55813000D01*
X45877000Y-55833000D01*
X47220594Y-55833000D01*
X47340563Y-55587020D01*
X47269571Y-55368906D01*
X47125969Y-55093077D01*
X46931315Y-54850563D01*
X46895753Y-54820726D01*
X47061885Y-54684385D01*
X47284259Y-54413421D01*
X47449498Y-54104280D01*
X47551252Y-53768843D01*
X47585610Y-53420000D01*
X47551252Y-53071157D01*
X47449498Y-52735720D01*
X47284259Y-52426579D01*
X47061885Y-52155615D01*
X46790921Y-51933241D01*
X46481780Y-51768002D01*
X46146343Y-51666248D01*
X45884919Y-51640500D01*
X45705740Y-51640500D01*
X45085315Y-51020075D01*
X57053000Y-51020075D01*
X57053000Y-51979924D01*
X57076542Y-52218947D01*
X57169575Y-52525637D01*
X57320654Y-52808285D01*
X57523971Y-53056029D01*
X57771714Y-53259346D01*
X58054362Y-53410425D01*
X58361052Y-53503458D01*
X58680000Y-53534872D01*
X58998947Y-53503458D01*
X59305637Y-53410425D01*
X59588285Y-53259346D01*
X59836029Y-53056029D01*
X59950000Y-52917154D01*
X60063971Y-53056029D01*
X60311714Y-53259346D01*
X60594362Y-53410425D01*
X60901052Y-53503458D01*
X61220000Y-53534872D01*
X61538947Y-53503458D01*
X61845637Y-53410425D01*
X62128285Y-53259346D01*
X62376029Y-53056029D01*
X62490000Y-52917154D01*
X62603971Y-53056029D01*
X62851714Y-53259346D01*
X63134362Y-53410425D01*
X63441052Y-53503458D01*
X63760000Y-53534872D01*
X64078947Y-53503458D01*
X64385637Y-53410425D01*
X64668285Y-53259346D01*
X64916029Y-53056029D01*
X65030000Y-52917154D01*
X65143971Y-53056029D01*
X65391714Y-53259346D01*
X65674362Y-53410425D01*
X65981052Y-53503458D01*
X66300000Y-53534872D01*
X66618947Y-53503458D01*
X66925637Y-53410425D01*
X67208285Y-53259346D01*
X67456029Y-53056029D01*
X67659346Y-52808286D01*
X67687057Y-52756442D01*
X67717399Y-52802839D01*
X67915105Y-53004500D01*
X68148354Y-53163715D01*
X68408182Y-53274367D01*
X68490961Y-53291904D01*
X68713000Y-53169915D01*
X68713000Y-51627000D01*
X68693000Y-51627000D01*
X68693000Y-51373000D01*
X68713000Y-51373000D01*
X68713000Y-49830085D01*
X68967000Y-49830085D01*
X68967000Y-51373000D01*
X68987000Y-51373000D01*
X68987000Y-51627000D01*
X68967000Y-51627000D01*
X68967000Y-53169915D01*
X69189039Y-53291904D01*
X69271818Y-53274367D01*
X69531646Y-53163715D01*
X69764895Y-53004500D01*
X69962601Y-52802839D01*
X69992943Y-52756441D01*
X70020654Y-52808285D01*
X70223971Y-53056029D01*
X70471714Y-53259346D01*
X70754362Y-53410425D01*
X71061052Y-53503458D01*
X71380000Y-53534872D01*
X71698947Y-53503458D01*
X72005637Y-53410425D01*
X72288285Y-53259346D01*
X72536029Y-53056029D01*
X72650000Y-52917154D01*
X72763971Y-53056029D01*
X73011714Y-53259346D01*
X73294362Y-53410425D01*
X73601052Y-53503458D01*
X73920000Y-53534872D01*
X74238947Y-53503458D01*
X74545637Y-53410425D01*
X74828285Y-53259346D01*
X75076029Y-53056029D01*
X75190000Y-52917154D01*
X75303971Y-53056029D01*
X75551714Y-53259346D01*
X75834362Y-53410425D01*
X76141052Y-53503458D01*
X76460000Y-53534872D01*
X76778947Y-53503458D01*
X77085637Y-53410425D01*
X77368285Y-53259346D01*
X77502415Y-53149269D01*
X77509048Y-53161679D01*
X77612394Y-53287606D01*
X77738321Y-53390952D01*
X77881990Y-53467745D01*
X78037880Y-53515034D01*
X78200000Y-53531001D01*
X79800000Y-53531001D01*
X79962120Y-53515034D01*
X80118010Y-53467745D01*
X80261679Y-53390952D01*
X80387606Y-53287606D01*
X80490952Y-53161679D01*
X80567745Y-53018010D01*
X80615034Y-52862120D01*
X80631001Y-52700000D01*
X80631001Y-50300000D01*
X80615034Y-50137880D01*
X80567745Y-49981990D01*
X80490952Y-49838321D01*
X80387606Y-49712394D01*
X80261679Y-49609048D01*
X80118010Y-49532255D01*
X79962120Y-49484966D01*
X79800000Y-49468999D01*
X78200000Y-49468999D01*
X78037880Y-49484966D01*
X77881990Y-49532255D01*
X77738321Y-49609048D01*
X77612394Y-49712394D01*
X77509048Y-49838321D01*
X77502415Y-49850731D01*
X77368286Y-49740654D01*
X77085638Y-49589575D01*
X76778948Y-49496542D01*
X76460000Y-49465128D01*
X76141053Y-49496542D01*
X75834363Y-49589575D01*
X75551715Y-49740654D01*
X75303972Y-49943971D01*
X75190000Y-50082846D01*
X75076029Y-49943971D01*
X74828286Y-49740654D01*
X74545638Y-49589575D01*
X74238948Y-49496542D01*
X73920000Y-49465128D01*
X73601053Y-49496542D01*
X73294363Y-49589575D01*
X73011715Y-49740654D01*
X72763972Y-49943971D01*
X72650000Y-50082846D01*
X72536029Y-49943971D01*
X72288286Y-49740654D01*
X72005638Y-49589575D01*
X71698948Y-49496542D01*
X71380000Y-49465128D01*
X71061053Y-49496542D01*
X70754363Y-49589575D01*
X70471715Y-49740654D01*
X70223972Y-49943971D01*
X70020654Y-50191714D01*
X69992943Y-50243558D01*
X69962601Y-50197161D01*
X69764895Y-49995500D01*
X69531646Y-49836285D01*
X69271818Y-49725633D01*
X69189039Y-49708096D01*
X68967000Y-49830085D01*
X68713000Y-49830085D01*
X68490961Y-49708096D01*
X68408182Y-49725633D01*
X68148354Y-49836285D01*
X67915105Y-49995500D01*
X67717399Y-50197161D01*
X67687057Y-50243558D01*
X67659346Y-50191714D01*
X67456029Y-49943971D01*
X67208286Y-49740654D01*
X66925638Y-49589575D01*
X66618948Y-49496542D01*
X66300000Y-49465128D01*
X65981053Y-49496542D01*
X65674363Y-49589575D01*
X65391715Y-49740654D01*
X65143972Y-49943971D01*
X65030000Y-50082846D01*
X64916029Y-49943971D01*
X64668286Y-49740654D01*
X64385638Y-49589575D01*
X64078948Y-49496542D01*
X63760000Y-49465128D01*
X63441053Y-49496542D01*
X63134363Y-49589575D01*
X62851715Y-49740654D01*
X62603972Y-49943971D01*
X62490000Y-50082846D01*
X62376029Y-49943971D01*
X62128286Y-49740654D01*
X61845638Y-49589575D01*
X61538948Y-49496542D01*
X61220000Y-49465128D01*
X60901053Y-49496542D01*
X60594363Y-49589575D01*
X60311715Y-49740654D01*
X60063972Y-49943971D01*
X59950000Y-50082846D01*
X59836029Y-49943971D01*
X59588286Y-49740654D01*
X59305638Y-49589575D01*
X58998948Y-49496542D01*
X58680000Y-49465128D01*
X58361053Y-49496542D01*
X58054363Y-49589575D01*
X57771715Y-49740654D01*
X57523972Y-49943971D01*
X57320654Y-50191714D01*
X57169575Y-50474362D01*
X57076542Y-50781052D01*
X57053000Y-51020075D01*
X45085315Y-51020075D01*
X40780239Y-46715000D01*
X40741817Y-46668183D01*
X40622806Y-46570512D01*
X46309783Y-46570512D01*
X46351213Y-46850130D01*
X46446397Y-47116292D01*
X46513329Y-47241514D01*
X46757298Y-47313097D01*
X47570395Y-46500000D01*
X46757298Y-45686903D01*
X46513329Y-45758486D01*
X46392429Y-46013996D01*
X46323700Y-46288184D01*
X46309783Y-46570512D01*
X40622806Y-46570512D01*
X40554983Y-46514851D01*
X40341824Y-46400916D01*
X40110534Y-46330755D01*
X39930268Y-46313000D01*
X39930260Y-46313000D01*
X39870000Y-46307065D01*
X39809740Y-46313000D01*
X25116972Y-46313000D01*
X25167745Y-46218010D01*
X25215034Y-46062120D01*
X25231001Y-45900000D01*
X25231001Y-44100000D01*
X25229507Y-44084830D01*
X37283000Y-44084830D01*
X37283000Y-44415170D01*
X37347446Y-44739163D01*
X37473862Y-45044357D01*
X37657389Y-45319025D01*
X37890975Y-45552611D01*
X38165643Y-45736138D01*
X38470837Y-45862554D01*
X38794830Y-45927000D01*
X39125170Y-45927000D01*
X39449163Y-45862554D01*
X39754357Y-45736138D01*
X40029025Y-45552611D01*
X40122924Y-45458712D01*
X40198815Y-45551185D01*
X40295506Y-45630537D01*
X40405820Y-45689502D01*
X40525518Y-45725812D01*
X40650000Y-45738072D01*
X41214250Y-45735000D01*
X41373000Y-45576250D01*
X41373000Y-44377000D01*
X41627000Y-44377000D01*
X41627000Y-45576250D01*
X41785750Y-45735000D01*
X42350000Y-45738072D01*
X42474482Y-45725812D01*
X42594180Y-45689502D01*
X42704494Y-45630537D01*
X42801185Y-45551185D01*
X42837202Y-45507298D01*
X46936903Y-45507298D01*
X47750000Y-46320395D01*
X47764143Y-46306253D01*
X47943748Y-46485858D01*
X47929605Y-46500000D01*
X47943748Y-46514143D01*
X47764143Y-46693748D01*
X47750000Y-46679605D01*
X46936903Y-47492702D01*
X47008486Y-47736671D01*
X47263996Y-47857571D01*
X47538184Y-47926300D01*
X47820512Y-47940217D01*
X48100130Y-47898787D01*
X48366292Y-47803603D01*
X48491514Y-47736671D01*
X48563097Y-47492704D01*
X48679370Y-47608977D01*
X48679481Y-47608866D01*
X48682255Y-47618010D01*
X48759048Y-47761679D01*
X48862394Y-47887606D01*
X48988321Y-47990952D01*
X49131990Y-48067745D01*
X49287880Y-48115034D01*
X49450000Y-48131001D01*
X51050000Y-48131001D01*
X51212120Y-48115034D01*
X51368010Y-48067745D01*
X51511679Y-47990952D01*
X51637606Y-47887606D01*
X51740952Y-47761679D01*
X51817745Y-47618010D01*
X51865034Y-47462120D01*
X51881001Y-47300000D01*
X51881001Y-45700000D01*
X51865034Y-45537880D01*
X51817745Y-45381990D01*
X51740952Y-45238321D01*
X51637606Y-45112394D01*
X51511679Y-45009048D01*
X51368010Y-44932255D01*
X51212120Y-44884966D01*
X51050000Y-44868999D01*
X49450000Y-44868999D01*
X49287880Y-44884966D01*
X49131990Y-44932255D01*
X48988321Y-45009048D01*
X48862394Y-45112394D01*
X48759048Y-45238321D01*
X48682255Y-45381990D01*
X48679481Y-45391134D01*
X48679370Y-45391023D01*
X48563097Y-45507296D01*
X48491514Y-45263329D01*
X48236004Y-45142429D01*
X47961816Y-45073700D01*
X47679488Y-45059783D01*
X47399870Y-45101213D01*
X47133708Y-45196397D01*
X47008486Y-45263329D01*
X46936903Y-45507298D01*
X42837202Y-45507298D01*
X42880537Y-45454494D01*
X42939502Y-45344180D01*
X42975812Y-45224482D01*
X42988072Y-45100000D01*
X42985000Y-44535750D01*
X42826250Y-44377000D01*
X41627000Y-44377000D01*
X41373000Y-44377000D01*
X41353000Y-44377000D01*
X41353000Y-44150000D01*
X57318999Y-44150000D01*
X57318999Y-45850000D01*
X57334966Y-46012120D01*
X57382255Y-46168010D01*
X57459048Y-46311679D01*
X57562394Y-46437606D01*
X57688321Y-46540952D01*
X57831990Y-46617745D01*
X57987880Y-46665034D01*
X58150000Y-46681001D01*
X59850000Y-46681001D01*
X60012120Y-46665034D01*
X60168010Y-46617745D01*
X60311679Y-46540952D01*
X60437606Y-46437606D01*
X60520976Y-46336020D01*
X60745643Y-46486138D01*
X61050837Y-46612554D01*
X61374830Y-46677000D01*
X61705170Y-46677000D01*
X62029163Y-46612554D01*
X62334357Y-46486138D01*
X62609025Y-46302611D01*
X62810000Y-46101636D01*
X63010975Y-46302611D01*
X63285643Y-46486138D01*
X63590837Y-46612554D01*
X63914830Y-46677000D01*
X64245170Y-46677000D01*
X64569163Y-46612554D01*
X64874357Y-46486138D01*
X65149025Y-46302611D01*
X65382611Y-46069025D01*
X65472595Y-45934354D01*
X65619731Y-46097588D01*
X65853080Y-46271641D01*
X66115901Y-46396825D01*
X66263110Y-46441476D01*
X66493000Y-46320155D01*
X66493000Y-45127000D01*
X66473000Y-45127000D01*
X66473000Y-44873000D01*
X66493000Y-44873000D01*
X66493000Y-43679845D01*
X66263110Y-43558524D01*
X66115901Y-43603175D01*
X65853080Y-43728359D01*
X65619731Y-43902412D01*
X65472595Y-44065646D01*
X65382611Y-43930975D01*
X65149025Y-43697389D01*
X64874357Y-43513862D01*
X64569163Y-43387446D01*
X64245170Y-43323000D01*
X63914830Y-43323000D01*
X63590837Y-43387446D01*
X63285643Y-43513862D01*
X63010975Y-43697389D01*
X62810000Y-43898364D01*
X62609025Y-43697389D01*
X62334357Y-43513862D01*
X62029163Y-43387446D01*
X61705170Y-43323000D01*
X61374830Y-43323000D01*
X61050837Y-43387446D01*
X60745643Y-43513862D01*
X60520976Y-43663980D01*
X60437606Y-43562394D01*
X60311679Y-43459048D01*
X60168010Y-43382255D01*
X60012120Y-43334966D01*
X59850000Y-43318999D01*
X58150000Y-43318999D01*
X57987880Y-43334966D01*
X57831990Y-43382255D01*
X57688321Y-43459048D01*
X57562394Y-43562394D01*
X57459048Y-43688321D01*
X57382255Y-43831990D01*
X57334966Y-43987880D01*
X57318999Y-44150000D01*
X41353000Y-44150000D01*
X41353000Y-44123000D01*
X41373000Y-44123000D01*
X41373000Y-42923750D01*
X41627000Y-42923750D01*
X41627000Y-44123000D01*
X42826250Y-44123000D01*
X42985000Y-43964250D01*
X42988072Y-43400000D01*
X42975812Y-43275518D01*
X42939502Y-43155820D01*
X42880537Y-43045506D01*
X42801185Y-42948815D01*
X42704494Y-42869463D01*
X42594180Y-42810498D01*
X42474482Y-42774188D01*
X42350000Y-42761928D01*
X41785750Y-42765000D01*
X41627000Y-42923750D01*
X41373000Y-42923750D01*
X41214250Y-42765000D01*
X40650000Y-42761928D01*
X40525518Y-42774188D01*
X40405820Y-42810498D01*
X40295506Y-42869463D01*
X40198815Y-42948815D01*
X40122924Y-43041288D01*
X40029025Y-42947389D01*
X39754357Y-42763862D01*
X39449163Y-42637446D01*
X39125170Y-42573000D01*
X38794830Y-42573000D01*
X38470837Y-42637446D01*
X38165643Y-42763862D01*
X37890975Y-42947389D01*
X37657389Y-43180975D01*
X37473862Y-43455643D01*
X37347446Y-43760837D01*
X37283000Y-44084830D01*
X25229507Y-44084830D01*
X25215034Y-43937880D01*
X25167745Y-43781990D01*
X25090952Y-43638321D01*
X24987606Y-43512394D01*
X24861679Y-43409048D01*
X24718010Y-43332255D01*
X24562120Y-43284966D01*
X24400000Y-43268999D01*
X22600000Y-43268999D01*
X22437880Y-43284966D01*
X22281990Y-43332255D01*
X22138321Y-43409048D01*
X22012394Y-43512394D01*
X21909048Y-43638321D01*
X21832255Y-43781990D01*
X21784966Y-43937880D01*
X21768999Y-44100000D01*
X21768999Y-45900000D01*
X21784966Y-46062120D01*
X21832255Y-46218010D01*
X21909048Y-46361679D01*
X22012394Y-46487606D01*
X22085858Y-46547896D01*
X21969553Y-46721959D01*
X21839368Y-47036253D01*
X21773000Y-47369905D01*
X21773000Y-47710095D01*
X21839368Y-48043747D01*
X21969553Y-48358041D01*
X22158552Y-48640898D01*
X22399102Y-48881448D01*
X22681959Y-49070447D01*
X22708641Y-49081499D01*
X22600000Y-49081499D01*
X22437880Y-49097466D01*
X22281990Y-49144755D01*
X22138321Y-49221548D01*
X22012394Y-49324894D01*
X21909048Y-49450821D01*
X21832255Y-49594490D01*
X21784966Y-49750380D01*
X21768999Y-49912500D01*
X21768999Y-51712500D01*
X21784966Y-51874620D01*
X21832255Y-52030510D01*
X21909048Y-52174179D01*
X22012394Y-52300106D01*
X22085858Y-52360396D01*
X21969553Y-52534459D01*
X21839368Y-52848753D01*
X21773000Y-53182405D01*
X21773000Y-53522595D01*
X21839368Y-53856247D01*
X21969553Y-54170541D01*
X22158552Y-54453398D01*
X22399102Y-54693948D01*
X22681959Y-54882947D01*
X22708641Y-54893999D01*
X22600000Y-54893999D01*
X22437880Y-54909966D01*
X22281990Y-54957255D01*
X22138321Y-55034048D01*
X22012394Y-55137394D01*
X21909048Y-55263321D01*
X21832255Y-55406990D01*
X21784966Y-55562880D01*
X21768999Y-55725000D01*
X21768999Y-57525000D01*
X21784966Y-57687120D01*
X21832255Y-57843010D01*
X21909048Y-57986679D01*
X22012394Y-58112606D01*
X22085858Y-58172896D01*
X21969553Y-58346959D01*
X21839368Y-58661253D01*
X21773000Y-58994905D01*
X21773000Y-59335095D01*
X21839368Y-59668747D01*
X21969553Y-59983041D01*
X22158552Y-60265898D01*
X22399102Y-60506448D01*
X22681959Y-60695447D01*
X22708641Y-60706499D01*
X22600000Y-60706499D01*
X22437880Y-60722466D01*
X22281990Y-60769755D01*
X22138321Y-60846548D01*
X22012394Y-60949894D01*
X21909048Y-61075821D01*
X21832255Y-61219490D01*
X21784966Y-61375380D01*
X21768999Y-61537500D01*
X21768999Y-63337500D01*
X21784966Y-63499620D01*
X21832255Y-63655510D01*
X21909048Y-63799179D01*
X22012394Y-63925106D01*
X22085858Y-63985396D01*
X21969553Y-64159459D01*
X21839368Y-64473753D01*
X21773000Y-64807405D01*
X21773000Y-65147595D01*
X21839368Y-65481247D01*
X21969553Y-65795541D01*
X22158552Y-66078398D01*
X22399102Y-66318948D01*
X22681959Y-66507947D01*
X22708641Y-66518999D01*
X22600000Y-66518999D01*
X22437880Y-66534966D01*
X22281990Y-66582255D01*
X22138321Y-66659048D01*
X22012394Y-66762394D01*
X21909048Y-66888321D01*
X21832255Y-67031990D01*
X21784966Y-67187880D01*
X21768999Y-67350000D01*
X21768999Y-69150000D01*
X21784966Y-69312120D01*
X21832255Y-69468010D01*
X21909048Y-69611679D01*
X22012394Y-69737606D01*
X22085858Y-69797896D01*
X21969553Y-69971959D01*
X21839368Y-70286253D01*
X21773000Y-70619905D01*
X21773000Y-70960095D01*
X21839368Y-71293747D01*
X21969553Y-71608041D01*
X22158552Y-71890898D01*
X22173000Y-71905346D01*
X22173001Y-74684816D01*
X22166581Y-74750000D01*
X22192202Y-75010137D01*
X22268081Y-75260277D01*
X22391302Y-75490808D01*
X22499790Y-75623000D01*
X20852000Y-75623000D01*
X20852000Y-40852000D01*
X69910087Y-40852000D01*
X69878183Y-40878183D01*
%TA.AperFunction,Conductor*%
D31*
G36*
X69878183Y-40878183D02*
G01*
X69839765Y-40924995D01*
X68335000Y-42429761D01*
X68288183Y-42468183D01*
X68134851Y-42655018D01*
X68020916Y-42868177D01*
X67950755Y-43099467D01*
X67933000Y-43279733D01*
X67933000Y-43279740D01*
X67927065Y-43340000D01*
X67933000Y-43400260D01*
X67933000Y-43855364D01*
X67857389Y-43930975D01*
X67767405Y-44065646D01*
X67620269Y-43902412D01*
X67386920Y-43728359D01*
X67124099Y-43603175D01*
X66976890Y-43558524D01*
X66747000Y-43679845D01*
X66747000Y-44873000D01*
X66767000Y-44873000D01*
X66767000Y-45127000D01*
X66747000Y-45127000D01*
X66747000Y-46320155D01*
X66976890Y-46441476D01*
X67124099Y-46396825D01*
X67386920Y-46271641D01*
X67620269Y-46097588D01*
X67767405Y-45934354D01*
X67857389Y-46069025D01*
X68090975Y-46302611D01*
X68365643Y-46486138D01*
X68670837Y-46612554D01*
X68994830Y-46677000D01*
X69325170Y-46677000D01*
X69649163Y-46612554D01*
X69954357Y-46486138D01*
X70229025Y-46302611D01*
X70430000Y-46101636D01*
X70630975Y-46302611D01*
X70905643Y-46486138D01*
X71210837Y-46612554D01*
X71534830Y-46677000D01*
X71865170Y-46677000D01*
X72189163Y-46612554D01*
X72494357Y-46486138D01*
X72769025Y-46302611D01*
X73002611Y-46069025D01*
X73186138Y-45794357D01*
X73312554Y-45489163D01*
X73377000Y-45165170D01*
X73377000Y-44834830D01*
X73312554Y-44510837D01*
X73186138Y-44205643D01*
X73002611Y-43930975D01*
X72769025Y-43697389D01*
X72494357Y-43513862D01*
X72189163Y-43387446D01*
X71865170Y-43323000D01*
X71534830Y-43323000D01*
X71210837Y-43387446D01*
X70905643Y-43513862D01*
X70630975Y-43697389D01*
X70430000Y-43898364D01*
X70387000Y-43855364D01*
X70387000Y-43848239D01*
X71258240Y-42977000D01*
X80241761Y-42977000D01*
X82273001Y-45008241D01*
X82273000Y-52491760D01*
X80491761Y-54273000D01*
X70810263Y-54273000D01*
X70750000Y-54267065D01*
X70689737Y-54273000D01*
X70689732Y-54273000D01*
X70629946Y-54278889D01*
X70509466Y-54290754D01*
X70278175Y-54360916D01*
X70203927Y-54400603D01*
X70065017Y-54474851D01*
X69878183Y-54628183D01*
X69839765Y-54674995D01*
X68014995Y-56499766D01*
X67968184Y-56538183D01*
X67814852Y-56725017D01*
X67760383Y-56826923D01*
X67700917Y-56938176D01*
X67630755Y-57169467D01*
X67621188Y-57266605D01*
X67613000Y-57349732D01*
X67613000Y-57349740D01*
X67607065Y-57410000D01*
X67613000Y-57470260D01*
X67613000Y-57650450D01*
X67570000Y-57702846D01*
X67456029Y-57563971D01*
X67208286Y-57360654D01*
X66925638Y-57209575D01*
X66618948Y-57116542D01*
X66300000Y-57085128D01*
X65981053Y-57116542D01*
X65674363Y-57209575D01*
X65391715Y-57360654D01*
X65143972Y-57563971D01*
X65030000Y-57702846D01*
X64916029Y-57563971D01*
X64668286Y-57360654D01*
X64385638Y-57209575D01*
X64078948Y-57116542D01*
X63760000Y-57085128D01*
X63441053Y-57116542D01*
X63134363Y-57209575D01*
X62851715Y-57360654D01*
X62603972Y-57563971D01*
X62490000Y-57702846D01*
X62376029Y-57563971D01*
X62128286Y-57360654D01*
X61845638Y-57209575D01*
X61538948Y-57116542D01*
X61220000Y-57085128D01*
X60901053Y-57116542D01*
X60594363Y-57209575D01*
X60311715Y-57360654D01*
X60063972Y-57563971D01*
X59950000Y-57702846D01*
X59836029Y-57563971D01*
X59588286Y-57360654D01*
X59305638Y-57209575D01*
X58998948Y-57116542D01*
X58680000Y-57085128D01*
X58361053Y-57116542D01*
X58054363Y-57209575D01*
X57771715Y-57360654D01*
X57523972Y-57563971D01*
X57320654Y-57811714D01*
X57277206Y-57893000D01*
X56690259Y-57893000D01*
X56629999Y-57887065D01*
X56569739Y-57893000D01*
X56569732Y-57893000D01*
X56389466Y-57910755D01*
X56158176Y-57980916D01*
X55945017Y-58094851D01*
X55758183Y-58248183D01*
X55719765Y-58294995D01*
X54674995Y-59339766D01*
X54628184Y-59378183D01*
X54474852Y-59565017D01*
X54448339Y-59614620D01*
X54360917Y-59778176D01*
X54290755Y-60009467D01*
X54267065Y-60250000D01*
X54273001Y-60310270D01*
X54273000Y-62491760D01*
X50991761Y-65773000D01*
X39310263Y-65773000D01*
X39250000Y-65767065D01*
X39189737Y-65773000D01*
X39189732Y-65773000D01*
X39129946Y-65778889D01*
X39009466Y-65790754D01*
X38778176Y-65860916D01*
X38565017Y-65974851D01*
X38497013Y-66030661D01*
X38424995Y-66089764D01*
X38424989Y-66089770D01*
X38378183Y-66128183D01*
X38339770Y-66174989D01*
X35391761Y-69123000D01*
X35339755Y-69123000D01*
X35025422Y-69185525D01*
X34729327Y-69308172D01*
X34462848Y-69486227D01*
X34236227Y-69712848D01*
X34058172Y-69979327D01*
X33935525Y-70275422D01*
X33873000Y-70589755D01*
X33873000Y-70910245D01*
X33935525Y-71224578D01*
X34058172Y-71520673D01*
X34236227Y-71787152D01*
X34462848Y-72013773D01*
X34729327Y-72191828D01*
X35025422Y-72314475D01*
X35339755Y-72377000D01*
X35660245Y-72377000D01*
X35974578Y-72314475D01*
X36270673Y-72191828D01*
X36537152Y-72013773D01*
X36763773Y-71787152D01*
X36941828Y-71520673D01*
X37064475Y-71224578D01*
X37127000Y-70910245D01*
X37127000Y-70858239D01*
X39758241Y-68227000D01*
X51439740Y-68227000D01*
X51500000Y-68232935D01*
X51560260Y-68227000D01*
X51560268Y-68227000D01*
X51740534Y-68209245D01*
X51971824Y-68139084D01*
X52184983Y-68025149D01*
X52371817Y-67871817D01*
X52410239Y-67825000D01*
X54270542Y-65964698D01*
X54267065Y-66000000D01*
X54273000Y-66060260D01*
X54273001Y-69689730D01*
X54267065Y-69750000D01*
X54290755Y-69990533D01*
X54313350Y-70065017D01*
X54360917Y-70221824D01*
X54474852Y-70434983D01*
X54628184Y-70621817D01*
X54674995Y-70660235D01*
X56773000Y-72758240D01*
X56773001Y-73926074D01*
X56736227Y-73962848D01*
X56558172Y-74229327D01*
X56435525Y-74525422D01*
X56373000Y-74839755D01*
X56373000Y-75160245D01*
X56435525Y-75474578D01*
X56497004Y-75623000D01*
X26249660Y-75623000D01*
X24827000Y-74200340D01*
X24827000Y-71905346D01*
X24841448Y-71890898D01*
X25030447Y-71608041D01*
X25160632Y-71293747D01*
X25227000Y-70960095D01*
X25227000Y-70619905D01*
X25160632Y-70286253D01*
X25030447Y-69971959D01*
X24914142Y-69797896D01*
X24987606Y-69737606D01*
X25090952Y-69611679D01*
X25167745Y-69468010D01*
X25215034Y-69312120D01*
X25231001Y-69150000D01*
X25231001Y-67350000D01*
X25215034Y-67187880D01*
X25167745Y-67031990D01*
X25090952Y-66888321D01*
X24987606Y-66762394D01*
X24861679Y-66659048D01*
X24718010Y-66582255D01*
X24562120Y-66534966D01*
X24400000Y-66518999D01*
X24291359Y-66518999D01*
X24318041Y-66507947D01*
X24600898Y-66318948D01*
X24841448Y-66078398D01*
X25030447Y-65795541D01*
X25160632Y-65481247D01*
X25227000Y-65147595D01*
X25227000Y-64807405D01*
X25160632Y-64473753D01*
X25030447Y-64159459D01*
X24914142Y-63985396D01*
X24987606Y-63925106D01*
X25090952Y-63799179D01*
X25167745Y-63655510D01*
X25215034Y-63499620D01*
X25231001Y-63337500D01*
X25231001Y-61537500D01*
X25215034Y-61375380D01*
X25167745Y-61219490D01*
X25090952Y-61075821D01*
X24987606Y-60949894D01*
X24861679Y-60846548D01*
X24718010Y-60769755D01*
X24562120Y-60722466D01*
X24400000Y-60706499D01*
X24291359Y-60706499D01*
X24318041Y-60695447D01*
X24600898Y-60506448D01*
X24841448Y-60265898D01*
X25030447Y-59983041D01*
X25160632Y-59668747D01*
X25227000Y-59335095D01*
X25227000Y-58994905D01*
X25160632Y-58661253D01*
X25030447Y-58346959D01*
X24914142Y-58172896D01*
X24987606Y-58112606D01*
X25090952Y-57986679D01*
X25167745Y-57843010D01*
X25215034Y-57687120D01*
X25231001Y-57525000D01*
X25231001Y-55725000D01*
X25215034Y-55562880D01*
X25167745Y-55406990D01*
X25090952Y-55263321D01*
X24987606Y-55137394D01*
X24861679Y-55034048D01*
X24718010Y-54957255D01*
X24562120Y-54909966D01*
X24400000Y-54893999D01*
X24291359Y-54893999D01*
X24318041Y-54882947D01*
X24600898Y-54693948D01*
X24841448Y-54453398D01*
X25030447Y-54170541D01*
X25160632Y-53856247D01*
X25227000Y-53522595D01*
X25227000Y-53182405D01*
X25160632Y-52848753D01*
X25030447Y-52534459D01*
X24914142Y-52360396D01*
X24987606Y-52300106D01*
X25090952Y-52174179D01*
X25167745Y-52030510D01*
X25215034Y-51874620D01*
X25231001Y-51712500D01*
X25231001Y-49912500D01*
X25215034Y-49750380D01*
X25167745Y-49594490D01*
X25090952Y-49450821D01*
X24987606Y-49324894D01*
X24861679Y-49221548D01*
X24718010Y-49144755D01*
X24562120Y-49097466D01*
X24400000Y-49081499D01*
X24291359Y-49081499D01*
X24318041Y-49070447D01*
X24600898Y-48881448D01*
X24715346Y-48767000D01*
X35328725Y-48767000D01*
X35229327Y-48808172D01*
X34962848Y-48986227D01*
X34736227Y-49212848D01*
X34558172Y-49479327D01*
X34435525Y-49775422D01*
X34373000Y-50089755D01*
X34373000Y-50410245D01*
X34435525Y-50724578D01*
X34558172Y-51020673D01*
X34736227Y-51287152D01*
X34962848Y-51513773D01*
X35229327Y-51691828D01*
X35525422Y-51814475D01*
X35839755Y-51877000D01*
X35891761Y-51877000D01*
X40023000Y-56008240D01*
X40023001Y-60689730D01*
X40017065Y-60750000D01*
X40040755Y-60990533D01*
X40090607Y-61154872D01*
X40110917Y-61221824D01*
X40224852Y-61434983D01*
X40378184Y-61621817D01*
X40424995Y-61660234D01*
X42089764Y-63325004D01*
X42128183Y-63371817D01*
X42315017Y-63525149D01*
X42528174Y-63639083D01*
X42528176Y-63639084D01*
X42759466Y-63709246D01*
X42879946Y-63721111D01*
X42939732Y-63727000D01*
X42939737Y-63727000D01*
X43000000Y-63732935D01*
X43060263Y-63727000D01*
X49926075Y-63727000D01*
X49962848Y-63763773D01*
X50229327Y-63941828D01*
X50525422Y-64064475D01*
X50839755Y-64127000D01*
X51160245Y-64127000D01*
X51474578Y-64064475D01*
X51770673Y-63941828D01*
X52037152Y-63763773D01*
X52263773Y-63537152D01*
X52441828Y-63270673D01*
X52564475Y-62974578D01*
X52627000Y-62660245D01*
X52627000Y-62339755D01*
X52564475Y-62025422D01*
X52441828Y-61729327D01*
X52263773Y-61462848D01*
X52037152Y-61236227D01*
X51770673Y-61058172D01*
X51474578Y-60935525D01*
X51160245Y-60873000D01*
X50839755Y-60873000D01*
X50525422Y-60935525D01*
X50229327Y-61058172D01*
X49962848Y-61236227D01*
X49926075Y-61273000D01*
X43508240Y-61273000D01*
X42477000Y-60241761D01*
X42477000Y-57547500D01*
X43918999Y-57547500D01*
X43918999Y-59452500D01*
X43934966Y-59614620D01*
X43982255Y-59770510D01*
X44059048Y-59914179D01*
X44162394Y-60040106D01*
X44288321Y-60143452D01*
X44431990Y-60220245D01*
X44587880Y-60267534D01*
X44750000Y-60283501D01*
X46750000Y-60283501D01*
X46912120Y-60267534D01*
X47068010Y-60220245D01*
X47211679Y-60143452D01*
X47337606Y-60040106D01*
X47440952Y-59914179D01*
X47517745Y-59770510D01*
X47565034Y-59614620D01*
X47581001Y-59452500D01*
X47581001Y-57547500D01*
X47565034Y-57385380D01*
X47517745Y-57229490D01*
X47440952Y-57085821D01*
X47337606Y-56959894D01*
X47211679Y-56856548D01*
X47132562Y-56814259D01*
X47269571Y-56551094D01*
X47340563Y-56332980D01*
X47220594Y-56087000D01*
X45877000Y-56087000D01*
X45877000Y-56107000D01*
X45623000Y-56107000D01*
X45623000Y-56087000D01*
X44279406Y-56087000D01*
X44159437Y-56332980D01*
X44230429Y-56551094D01*
X44367438Y-56814259D01*
X44288321Y-56856548D01*
X44162394Y-56959894D01*
X44059048Y-57085821D01*
X43982255Y-57229490D01*
X43934966Y-57385380D01*
X43918999Y-57547500D01*
X42477000Y-57547500D01*
X42477000Y-55560259D01*
X42482935Y-55499999D01*
X42477000Y-55439739D01*
X42477000Y-55439732D01*
X42459245Y-55259466D01*
X42389084Y-55028176D01*
X42275149Y-54815017D01*
X42121817Y-54628183D01*
X42075005Y-54589765D01*
X37627000Y-50141761D01*
X37627000Y-50089755D01*
X37564475Y-49775422D01*
X37441828Y-49479327D01*
X37263773Y-49212848D01*
X37037152Y-48986227D01*
X36770673Y-48808172D01*
X36671275Y-48767000D01*
X39361761Y-48767000D01*
X43923389Y-53328629D01*
X43914390Y-53420000D01*
X43948748Y-53768843D01*
X44050502Y-54104280D01*
X44215741Y-54413421D01*
X44438115Y-54684385D01*
X44604247Y-54820726D01*
X44568685Y-54850563D01*
X44374031Y-55093077D01*
X44230429Y-55368906D01*
X44159437Y-55587020D01*
X44279406Y-55833000D01*
X45623000Y-55833000D01*
X45623000Y-55813000D01*
X45877000Y-55813000D01*
X45877000Y-55833000D01*
X47220594Y-55833000D01*
X47340563Y-55587020D01*
X47269571Y-55368906D01*
X47125969Y-55093077D01*
X46931315Y-54850563D01*
X46895753Y-54820726D01*
X47061885Y-54684385D01*
X47284259Y-54413421D01*
X47449498Y-54104280D01*
X47551252Y-53768843D01*
X47585610Y-53420000D01*
X47551252Y-53071157D01*
X47449498Y-52735720D01*
X47284259Y-52426579D01*
X47061885Y-52155615D01*
X46790921Y-51933241D01*
X46481780Y-51768002D01*
X46146343Y-51666248D01*
X45884919Y-51640500D01*
X45705740Y-51640500D01*
X45085315Y-51020075D01*
X57053000Y-51020075D01*
X57053000Y-51979924D01*
X57076542Y-52218947D01*
X57169575Y-52525637D01*
X57320654Y-52808285D01*
X57523971Y-53056029D01*
X57771714Y-53259346D01*
X58054362Y-53410425D01*
X58361052Y-53503458D01*
X58680000Y-53534872D01*
X58998947Y-53503458D01*
X59305637Y-53410425D01*
X59588285Y-53259346D01*
X59836029Y-53056029D01*
X59950000Y-52917154D01*
X60063971Y-53056029D01*
X60311714Y-53259346D01*
X60594362Y-53410425D01*
X60901052Y-53503458D01*
X61220000Y-53534872D01*
X61538947Y-53503458D01*
X61845637Y-53410425D01*
X62128285Y-53259346D01*
X62376029Y-53056029D01*
X62490000Y-52917154D01*
X62603971Y-53056029D01*
X62851714Y-53259346D01*
X63134362Y-53410425D01*
X63441052Y-53503458D01*
X63760000Y-53534872D01*
X64078947Y-53503458D01*
X64385637Y-53410425D01*
X64668285Y-53259346D01*
X64916029Y-53056029D01*
X65030000Y-52917154D01*
X65143971Y-53056029D01*
X65391714Y-53259346D01*
X65674362Y-53410425D01*
X65981052Y-53503458D01*
X66300000Y-53534872D01*
X66618947Y-53503458D01*
X66925637Y-53410425D01*
X67208285Y-53259346D01*
X67456029Y-53056029D01*
X67659346Y-52808286D01*
X67687057Y-52756442D01*
X67717399Y-52802839D01*
X67915105Y-53004500D01*
X68148354Y-53163715D01*
X68408182Y-53274367D01*
X68490961Y-53291904D01*
X68713000Y-53169915D01*
X68713000Y-51627000D01*
X68693000Y-51627000D01*
X68693000Y-51373000D01*
X68713000Y-51373000D01*
X68713000Y-49830085D01*
X68967000Y-49830085D01*
X68967000Y-51373000D01*
X68987000Y-51373000D01*
X68987000Y-51627000D01*
X68967000Y-51627000D01*
X68967000Y-53169915D01*
X69189039Y-53291904D01*
X69271818Y-53274367D01*
X69531646Y-53163715D01*
X69764895Y-53004500D01*
X69962601Y-52802839D01*
X69992943Y-52756441D01*
X70020654Y-52808285D01*
X70223971Y-53056029D01*
X70471714Y-53259346D01*
X70754362Y-53410425D01*
X71061052Y-53503458D01*
X71380000Y-53534872D01*
X71698947Y-53503458D01*
X72005637Y-53410425D01*
X72288285Y-53259346D01*
X72536029Y-53056029D01*
X72650000Y-52917154D01*
X72763971Y-53056029D01*
X73011714Y-53259346D01*
X73294362Y-53410425D01*
X73601052Y-53503458D01*
X73920000Y-53534872D01*
X74238947Y-53503458D01*
X74545637Y-53410425D01*
X74828285Y-53259346D01*
X75076029Y-53056029D01*
X75190000Y-52917154D01*
X75303971Y-53056029D01*
X75551714Y-53259346D01*
X75834362Y-53410425D01*
X76141052Y-53503458D01*
X76460000Y-53534872D01*
X76778947Y-53503458D01*
X77085637Y-53410425D01*
X77368285Y-53259346D01*
X77502415Y-53149269D01*
X77509048Y-53161679D01*
X77612394Y-53287606D01*
X77738321Y-53390952D01*
X77881990Y-53467745D01*
X78037880Y-53515034D01*
X78200000Y-53531001D01*
X79800000Y-53531001D01*
X79962120Y-53515034D01*
X80118010Y-53467745D01*
X80261679Y-53390952D01*
X80387606Y-53287606D01*
X80490952Y-53161679D01*
X80567745Y-53018010D01*
X80615034Y-52862120D01*
X80631001Y-52700000D01*
X80631001Y-50300000D01*
X80615034Y-50137880D01*
X80567745Y-49981990D01*
X80490952Y-49838321D01*
X80387606Y-49712394D01*
X80261679Y-49609048D01*
X80118010Y-49532255D01*
X79962120Y-49484966D01*
X79800000Y-49468999D01*
X78200000Y-49468999D01*
X78037880Y-49484966D01*
X77881990Y-49532255D01*
X77738321Y-49609048D01*
X77612394Y-49712394D01*
X77509048Y-49838321D01*
X77502415Y-49850731D01*
X77368286Y-49740654D01*
X77085638Y-49589575D01*
X76778948Y-49496542D01*
X76460000Y-49465128D01*
X76141053Y-49496542D01*
X75834363Y-49589575D01*
X75551715Y-49740654D01*
X75303972Y-49943971D01*
X75190000Y-50082846D01*
X75076029Y-49943971D01*
X74828286Y-49740654D01*
X74545638Y-49589575D01*
X74238948Y-49496542D01*
X73920000Y-49465128D01*
X73601053Y-49496542D01*
X73294363Y-49589575D01*
X73011715Y-49740654D01*
X72763972Y-49943971D01*
X72650000Y-50082846D01*
X72536029Y-49943971D01*
X72288286Y-49740654D01*
X72005638Y-49589575D01*
X71698948Y-49496542D01*
X71380000Y-49465128D01*
X71061053Y-49496542D01*
X70754363Y-49589575D01*
X70471715Y-49740654D01*
X70223972Y-49943971D01*
X70020654Y-50191714D01*
X69992943Y-50243558D01*
X69962601Y-50197161D01*
X69764895Y-49995500D01*
X69531646Y-49836285D01*
X69271818Y-49725633D01*
X69189039Y-49708096D01*
X68967000Y-49830085D01*
X68713000Y-49830085D01*
X68490961Y-49708096D01*
X68408182Y-49725633D01*
X68148354Y-49836285D01*
X67915105Y-49995500D01*
X67717399Y-50197161D01*
X67687057Y-50243558D01*
X67659346Y-50191714D01*
X67456029Y-49943971D01*
X67208286Y-49740654D01*
X66925638Y-49589575D01*
X66618948Y-49496542D01*
X66300000Y-49465128D01*
X65981053Y-49496542D01*
X65674363Y-49589575D01*
X65391715Y-49740654D01*
X65143972Y-49943971D01*
X65030000Y-50082846D01*
X64916029Y-49943971D01*
X64668286Y-49740654D01*
X64385638Y-49589575D01*
X64078948Y-49496542D01*
X63760000Y-49465128D01*
X63441053Y-49496542D01*
X63134363Y-49589575D01*
X62851715Y-49740654D01*
X62603972Y-49943971D01*
X62490000Y-50082846D01*
X62376029Y-49943971D01*
X62128286Y-49740654D01*
X61845638Y-49589575D01*
X61538948Y-49496542D01*
X61220000Y-49465128D01*
X60901053Y-49496542D01*
X60594363Y-49589575D01*
X60311715Y-49740654D01*
X60063972Y-49943971D01*
X59950000Y-50082846D01*
X59836029Y-49943971D01*
X59588286Y-49740654D01*
X59305638Y-49589575D01*
X58998948Y-49496542D01*
X58680000Y-49465128D01*
X58361053Y-49496542D01*
X58054363Y-49589575D01*
X57771715Y-49740654D01*
X57523972Y-49943971D01*
X57320654Y-50191714D01*
X57169575Y-50474362D01*
X57076542Y-50781052D01*
X57053000Y-51020075D01*
X45085315Y-51020075D01*
X40780239Y-46715000D01*
X40741817Y-46668183D01*
X40622806Y-46570512D01*
X46309783Y-46570512D01*
X46351213Y-46850130D01*
X46446397Y-47116292D01*
X46513329Y-47241514D01*
X46757298Y-47313097D01*
X47570395Y-46500000D01*
X46757298Y-45686903D01*
X46513329Y-45758486D01*
X46392429Y-46013996D01*
X46323700Y-46288184D01*
X46309783Y-46570512D01*
X40622806Y-46570512D01*
X40554983Y-46514851D01*
X40341824Y-46400916D01*
X40110534Y-46330755D01*
X39930268Y-46313000D01*
X39930260Y-46313000D01*
X39870000Y-46307065D01*
X39809740Y-46313000D01*
X25116972Y-46313000D01*
X25167745Y-46218010D01*
X25215034Y-46062120D01*
X25231001Y-45900000D01*
X25231001Y-44100000D01*
X25229507Y-44084830D01*
X37283000Y-44084830D01*
X37283000Y-44415170D01*
X37347446Y-44739163D01*
X37473862Y-45044357D01*
X37657389Y-45319025D01*
X37890975Y-45552611D01*
X38165643Y-45736138D01*
X38470837Y-45862554D01*
X38794830Y-45927000D01*
X39125170Y-45927000D01*
X39449163Y-45862554D01*
X39754357Y-45736138D01*
X40029025Y-45552611D01*
X40122924Y-45458712D01*
X40198815Y-45551185D01*
X40295506Y-45630537D01*
X40405820Y-45689502D01*
X40525518Y-45725812D01*
X40650000Y-45738072D01*
X41214250Y-45735000D01*
X41373000Y-45576250D01*
X41373000Y-44377000D01*
X41627000Y-44377000D01*
X41627000Y-45576250D01*
X41785750Y-45735000D01*
X42350000Y-45738072D01*
X42474482Y-45725812D01*
X42594180Y-45689502D01*
X42704494Y-45630537D01*
X42801185Y-45551185D01*
X42837202Y-45507298D01*
X46936903Y-45507298D01*
X47750000Y-46320395D01*
X47764143Y-46306253D01*
X47943748Y-46485858D01*
X47929605Y-46500000D01*
X47943748Y-46514143D01*
X47764143Y-46693748D01*
X47750000Y-46679605D01*
X46936903Y-47492702D01*
X47008486Y-47736671D01*
X47263996Y-47857571D01*
X47538184Y-47926300D01*
X47820512Y-47940217D01*
X48100130Y-47898787D01*
X48366292Y-47803603D01*
X48491514Y-47736671D01*
X48563097Y-47492704D01*
X48679370Y-47608977D01*
X48679481Y-47608866D01*
X48682255Y-47618010D01*
X48759048Y-47761679D01*
X48862394Y-47887606D01*
X48988321Y-47990952D01*
X49131990Y-48067745D01*
X49287880Y-48115034D01*
X49450000Y-48131001D01*
X51050000Y-48131001D01*
X51212120Y-48115034D01*
X51368010Y-48067745D01*
X51511679Y-47990952D01*
X51637606Y-47887606D01*
X51740952Y-47761679D01*
X51817745Y-47618010D01*
X51865034Y-47462120D01*
X51881001Y-47300000D01*
X51881001Y-45700000D01*
X51865034Y-45537880D01*
X51817745Y-45381990D01*
X51740952Y-45238321D01*
X51637606Y-45112394D01*
X51511679Y-45009048D01*
X51368010Y-44932255D01*
X51212120Y-44884966D01*
X51050000Y-44868999D01*
X49450000Y-44868999D01*
X49287880Y-44884966D01*
X49131990Y-44932255D01*
X48988321Y-45009048D01*
X48862394Y-45112394D01*
X48759048Y-45238321D01*
X48682255Y-45381990D01*
X48679481Y-45391134D01*
X48679370Y-45391023D01*
X48563097Y-45507296D01*
X48491514Y-45263329D01*
X48236004Y-45142429D01*
X47961816Y-45073700D01*
X47679488Y-45059783D01*
X47399870Y-45101213D01*
X47133708Y-45196397D01*
X47008486Y-45263329D01*
X46936903Y-45507298D01*
X42837202Y-45507298D01*
X42880537Y-45454494D01*
X42939502Y-45344180D01*
X42975812Y-45224482D01*
X42988072Y-45100000D01*
X42985000Y-44535750D01*
X42826250Y-44377000D01*
X41627000Y-44377000D01*
X41373000Y-44377000D01*
X41353000Y-44377000D01*
X41353000Y-44150000D01*
X57318999Y-44150000D01*
X57318999Y-45850000D01*
X57334966Y-46012120D01*
X57382255Y-46168010D01*
X57459048Y-46311679D01*
X57562394Y-46437606D01*
X57688321Y-46540952D01*
X57831990Y-46617745D01*
X57987880Y-46665034D01*
X58150000Y-46681001D01*
X59850000Y-46681001D01*
X60012120Y-46665034D01*
X60168010Y-46617745D01*
X60311679Y-46540952D01*
X60437606Y-46437606D01*
X60520976Y-46336020D01*
X60745643Y-46486138D01*
X61050837Y-46612554D01*
X61374830Y-46677000D01*
X61705170Y-46677000D01*
X62029163Y-46612554D01*
X62334357Y-46486138D01*
X62609025Y-46302611D01*
X62810000Y-46101636D01*
X63010975Y-46302611D01*
X63285643Y-46486138D01*
X63590837Y-46612554D01*
X63914830Y-46677000D01*
X64245170Y-46677000D01*
X64569163Y-46612554D01*
X64874357Y-46486138D01*
X65149025Y-46302611D01*
X65382611Y-46069025D01*
X65472595Y-45934354D01*
X65619731Y-46097588D01*
X65853080Y-46271641D01*
X66115901Y-46396825D01*
X66263110Y-46441476D01*
X66493000Y-46320155D01*
X66493000Y-45127000D01*
X66473000Y-45127000D01*
X66473000Y-44873000D01*
X66493000Y-44873000D01*
X66493000Y-43679845D01*
X66263110Y-43558524D01*
X66115901Y-43603175D01*
X65853080Y-43728359D01*
X65619731Y-43902412D01*
X65472595Y-44065646D01*
X65382611Y-43930975D01*
X65149025Y-43697389D01*
X64874357Y-43513862D01*
X64569163Y-43387446D01*
X64245170Y-43323000D01*
X63914830Y-43323000D01*
X63590837Y-43387446D01*
X63285643Y-43513862D01*
X63010975Y-43697389D01*
X62810000Y-43898364D01*
X62609025Y-43697389D01*
X62334357Y-43513862D01*
X62029163Y-43387446D01*
X61705170Y-43323000D01*
X61374830Y-43323000D01*
X61050837Y-43387446D01*
X60745643Y-43513862D01*
X60520976Y-43663980D01*
X60437606Y-43562394D01*
X60311679Y-43459048D01*
X60168010Y-43382255D01*
X60012120Y-43334966D01*
X59850000Y-43318999D01*
X58150000Y-43318999D01*
X57987880Y-43334966D01*
X57831990Y-43382255D01*
X57688321Y-43459048D01*
X57562394Y-43562394D01*
X57459048Y-43688321D01*
X57382255Y-43831990D01*
X57334966Y-43987880D01*
X57318999Y-44150000D01*
X41353000Y-44150000D01*
X41353000Y-44123000D01*
X41373000Y-44123000D01*
X41373000Y-42923750D01*
X41627000Y-42923750D01*
X41627000Y-44123000D01*
X42826250Y-44123000D01*
X42985000Y-43964250D01*
X42988072Y-43400000D01*
X42975812Y-43275518D01*
X42939502Y-43155820D01*
X42880537Y-43045506D01*
X42801185Y-42948815D01*
X42704494Y-42869463D01*
X42594180Y-42810498D01*
X42474482Y-42774188D01*
X42350000Y-42761928D01*
X41785750Y-42765000D01*
X41627000Y-42923750D01*
X41373000Y-42923750D01*
X41214250Y-42765000D01*
X40650000Y-42761928D01*
X40525518Y-42774188D01*
X40405820Y-42810498D01*
X40295506Y-42869463D01*
X40198815Y-42948815D01*
X40122924Y-43041288D01*
X40029025Y-42947389D01*
X39754357Y-42763862D01*
X39449163Y-42637446D01*
X39125170Y-42573000D01*
X38794830Y-42573000D01*
X38470837Y-42637446D01*
X38165643Y-42763862D01*
X37890975Y-42947389D01*
X37657389Y-43180975D01*
X37473862Y-43455643D01*
X37347446Y-43760837D01*
X37283000Y-44084830D01*
X25229507Y-44084830D01*
X25215034Y-43937880D01*
X25167745Y-43781990D01*
X25090952Y-43638321D01*
X24987606Y-43512394D01*
X24861679Y-43409048D01*
X24718010Y-43332255D01*
X24562120Y-43284966D01*
X24400000Y-43268999D01*
X22600000Y-43268999D01*
X22437880Y-43284966D01*
X22281990Y-43332255D01*
X22138321Y-43409048D01*
X22012394Y-43512394D01*
X21909048Y-43638321D01*
X21832255Y-43781990D01*
X21784966Y-43937880D01*
X21768999Y-44100000D01*
X21768999Y-45900000D01*
X21784966Y-46062120D01*
X21832255Y-46218010D01*
X21909048Y-46361679D01*
X22012394Y-46487606D01*
X22085858Y-46547896D01*
X21969553Y-46721959D01*
X21839368Y-47036253D01*
X21773000Y-47369905D01*
X21773000Y-47710095D01*
X21839368Y-48043747D01*
X21969553Y-48358041D01*
X22158552Y-48640898D01*
X22399102Y-48881448D01*
X22681959Y-49070447D01*
X22708641Y-49081499D01*
X22600000Y-49081499D01*
X22437880Y-49097466D01*
X22281990Y-49144755D01*
X22138321Y-49221548D01*
X22012394Y-49324894D01*
X21909048Y-49450821D01*
X21832255Y-49594490D01*
X21784966Y-49750380D01*
X21768999Y-49912500D01*
X21768999Y-51712500D01*
X21784966Y-51874620D01*
X21832255Y-52030510D01*
X21909048Y-52174179D01*
X22012394Y-52300106D01*
X22085858Y-52360396D01*
X21969553Y-52534459D01*
X21839368Y-52848753D01*
X21773000Y-53182405D01*
X21773000Y-53522595D01*
X21839368Y-53856247D01*
X21969553Y-54170541D01*
X22158552Y-54453398D01*
X22399102Y-54693948D01*
X22681959Y-54882947D01*
X22708641Y-54893999D01*
X22600000Y-54893999D01*
X22437880Y-54909966D01*
X22281990Y-54957255D01*
X22138321Y-55034048D01*
X22012394Y-55137394D01*
X21909048Y-55263321D01*
X21832255Y-55406990D01*
X21784966Y-55562880D01*
X21768999Y-55725000D01*
X21768999Y-57525000D01*
X21784966Y-57687120D01*
X21832255Y-57843010D01*
X21909048Y-57986679D01*
X22012394Y-58112606D01*
X22085858Y-58172896D01*
X21969553Y-58346959D01*
X21839368Y-58661253D01*
X21773000Y-58994905D01*
X21773000Y-59335095D01*
X21839368Y-59668747D01*
X21969553Y-59983041D01*
X22158552Y-60265898D01*
X22399102Y-60506448D01*
X22681959Y-60695447D01*
X22708641Y-60706499D01*
X22600000Y-60706499D01*
X22437880Y-60722466D01*
X22281990Y-60769755D01*
X22138321Y-60846548D01*
X22012394Y-60949894D01*
X21909048Y-61075821D01*
X21832255Y-61219490D01*
X21784966Y-61375380D01*
X21768999Y-61537500D01*
X21768999Y-63337500D01*
X21784966Y-63499620D01*
X21832255Y-63655510D01*
X21909048Y-63799179D01*
X22012394Y-63925106D01*
X22085858Y-63985396D01*
X21969553Y-64159459D01*
X21839368Y-64473753D01*
X21773000Y-64807405D01*
X21773000Y-65147595D01*
X21839368Y-65481247D01*
X21969553Y-65795541D01*
X22158552Y-66078398D01*
X22399102Y-66318948D01*
X22681959Y-66507947D01*
X22708641Y-66518999D01*
X22600000Y-66518999D01*
X22437880Y-66534966D01*
X22281990Y-66582255D01*
X22138321Y-66659048D01*
X22012394Y-66762394D01*
X21909048Y-66888321D01*
X21832255Y-67031990D01*
X21784966Y-67187880D01*
X21768999Y-67350000D01*
X21768999Y-69150000D01*
X21784966Y-69312120D01*
X21832255Y-69468010D01*
X21909048Y-69611679D01*
X22012394Y-69737606D01*
X22085858Y-69797896D01*
X21969553Y-69971959D01*
X21839368Y-70286253D01*
X21773000Y-70619905D01*
X21773000Y-70960095D01*
X21839368Y-71293747D01*
X21969553Y-71608041D01*
X22158552Y-71890898D01*
X22173000Y-71905346D01*
X22173001Y-74684816D01*
X22166581Y-74750000D01*
X22192202Y-75010137D01*
X22268081Y-75260277D01*
X22391302Y-75490808D01*
X22499790Y-75623000D01*
X20852000Y-75623000D01*
X20852000Y-40852000D01*
X69910087Y-40852000D01*
X69878183Y-40878183D01*
G37*
%TD.AperFunction*%
%TD*%
M02*
