M48
; DRILL file {KiCad 8.0.8} date 2026-02-18T12:24:20+0200
; FORMAT={-:-/ absolute / metric / decimal}
; #@! TF.CreationDate,2026-02-18T12:24:20+02:00
; #@! TF.GenerationSoftware,Kicad,Pcbnew,8.0.8
; #@! TF.FileFunction,MixedPlating,1,2
FMAT,2
METRIC
; #@! TA.AperFunction,Plated,PTH,ViaDrill
T1C1.000
; #@! TA.AperFunction,Plated,PTH,ComponentDrill
T2C1.000
; #@! TA.AperFunction,Plated,PTH,ComponentDrill
T3C1.100
; #@! TA.AperFunction,Plated,PTH,ComponentDrill
T4C1.400
%
G90
G05
T1
X6.1Y34.1
X7.6Y20.0
X11.9Y34.1
X14.2Y46.3
X17.7Y34.1
X29.9Y21.0
X37.1Y9.7
X37.7Y34.1
X44.0Y34.0
X46.2Y45.8
X50.0Y33.8
X55.8Y20.5
X61.7Y11.3
X65.2Y20.3
X69.8Y34.1
X75.8Y33.7
X78.6Y46.6
X78.75Y6.15
X82.2Y34.1
X83.1Y21.0
T2
X3.1Y15.84
X3.1Y13.3
X3.1Y10.76
X3.1Y8.22
X3.1Y5.68
X12.05Y3.5
X14.59Y3.5
X17.13Y3.5
X24.8Y3.2
X30.2Y45.2
X30.2Y41.7
X35.45Y3.4
X37.99Y3.4
X38.2Y56.5
X40.53Y3.4
X43.07Y3.4
X45.61Y3.4
X46.7Y56.5
X48.15Y3.4
X55.2Y56.7
X62.4Y45.3
X62.4Y41.8
X93.24Y7.0
X94.9Y45.75
X94.9Y42.25
X95.78Y7.0
X98.32Y7.0
X105.1Y40.9
X105.3Y55.2
X106.7Y32.8
X106.7Y27.6
X106.7Y25.06
X106.7Y22.52
T3
X5.754Y45.555
X8.294Y45.555
X10.834Y45.555
X17.754Y45.555
X20.294Y45.555
X22.834Y45.555
X37.504Y45.555
X40.044Y45.555
X42.584Y45.555
X50.004Y45.555
X52.544Y45.555
X55.084Y45.555
X69.754Y45.555
X72.294Y45.555
X74.834Y45.555
X82.254Y45.555
X84.794Y45.555
X87.334Y45.555
T4
X90.7Y7.0
M30
