%TF.GenerationSoftware,KiCad,Pcbnew,8.0.8*%
%TF.CreationDate,2026-02-18T12:24:17+02:00*%
%TF.ProjectId,ObsidianSpin,4f627369-6469-4616-9e53-70696e2e6b69,rev?*%
%TF.SameCoordinates,PX5cb2780PY6021600*%
%TF.FileFunction,Copper,L1,Top*%
%TF.FilePolarity,Positive*%
%FSLAX46Y46*%
G04 Gerber Fmt 4.6, Leading zero omitted, Abs format (unit mm)*
G04 Created by KiCad (PCBNEW 8.0.8) date 2026-02-18 12:24:17*
%MOMM*%
%LPD*%
G01*
G04 APERTURE LIST*
G04 Aperture macros list*
%AMRoundRect*
0 Rectangle with rounded corners*
0 $1 Rounding radius*
0 $2 $3 $4 $5 $6 $7 $8 $9 X,Y pos of 4 corners*
0 Add a 4 corners polygon primitive as box body*
4,1,4,$2,$3,$4,$5,$6,$7,$8,$9,$2,$3,0*
0 Add four circle primitives for the rounded corners*
1,1,$1+$1,$2,$3*
1,1,$1+$1,$4,$5*
1,1,$1+$1,$6,$7*
1,1,$1+$1,$8,$9*
0 Add four rect primitives between the rounded corners*
20,1,$1+$1,$2,$3,$4,$5,0*
20,1,$1+$1,$4,$5,$6,$7,0*
20,1,$1+$1,$6,$7,$8,$9,0*
20,1,$1+$1,$8,$9,$2,$3,0*%
G04 Aperture macros list end*
%ADD10C,0.800000*%
%TA.AperFunction,NonConductor*%
%ADD11C,0.800000*%
%TD*%
%TA.AperFunction,ComponentPad*%
%ADD12C,2.100000*%
%TD*%
%TA.AperFunction,SMDPad,CuDef*%
%ADD13R,1.200000X1.600000*%
%TD*%
%TA.AperFunction,SMDPad,CuDef*%
%ADD14R,0.800000X1.200000*%
%TD*%
%TA.AperFunction,ComponentPad*%
%ADD15R,1.905000X2.000000*%
%TD*%
%TA.AperFunction,ComponentPad*%
%ADD16O,1.905000X2.000000*%
%TD*%
%TA.AperFunction,SMDPad,CuDef*%
%ADD17R,0.800000X0.800000*%
%TD*%
%TA.AperFunction,ComponentPad*%
%ADD18C,6.000000*%
%TD*%
%TA.AperFunction,ComponentPad*%
%ADD19C,3.000000*%
%TD*%
%TA.AperFunction,ComponentPad*%
%ADD20C,2.500000*%
%TD*%
%TA.AperFunction,ComponentPad*%
%ADD21C,2.000000*%
%TD*%
%TA.AperFunction,SMDPad,CuDef*%
%ADD22RoundRect,0.150000X0.150000X-0.800000X0.150000X0.800000X-0.150000X0.800000X-0.150000X-0.800000X0*%
%TD*%
%TA.AperFunction,ViaPad*%
%ADD23C,3.000000*%
%TD*%
%TA.AperFunction,Conductor*%
%ADD24C,0.800000*%
%TD*%
%TA.AperFunction,Conductor*%
%ADD25C,0.600000*%
%TD*%
G04 APERTURE END LIST*
D10*
D11*
X56764410Y61212077D02*
X56573934Y61021600D01*
X56573934Y61021600D02*
X56002505Y60831124D01*
X56002505Y60831124D02*
X55621553Y60831124D01*
X55621553Y60831124D02*
X55050124Y61021600D01*
X55050124Y61021600D02*
X54669172Y61402553D01*
X54669172Y61402553D02*
X54478695Y61783505D01*
X54478695Y61783505D02*
X54288219Y62545410D01*
X54288219Y62545410D02*
X54288219Y63116839D01*
X54288219Y63116839D02*
X54478695Y63878743D01*
X54478695Y63878743D02*
X54669172Y64259696D01*
X54669172Y64259696D02*
X55050124Y64640648D01*
X55050124Y64640648D02*
X55621553Y64831124D01*
X55621553Y64831124D02*
X56002505Y64831124D01*
X56002505Y64831124D02*
X56573934Y64640648D01*
X56573934Y64640648D02*
X56764410Y64450172D01*
D10*
D11*
X47812029Y63026362D02*
X48383457Y62835886D01*
X48383457Y62835886D02*
X48573934Y62645410D01*
X48573934Y62645410D02*
X48764410Y62264458D01*
X48764410Y62264458D02*
X48764410Y61693029D01*
X48764410Y61693029D02*
X48573934Y61312077D01*
X48573934Y61312077D02*
X48383457Y61121600D01*
X48383457Y61121600D02*
X48002505Y60931124D01*
X48002505Y60931124D02*
X46478695Y60931124D01*
X46478695Y60931124D02*
X46478695Y64931124D01*
X46478695Y64931124D02*
X47812029Y64931124D01*
X47812029Y64931124D02*
X48192981Y64740648D01*
X48192981Y64740648D02*
X48383457Y64550172D01*
X48383457Y64550172D02*
X48573934Y64169220D01*
X48573934Y64169220D02*
X48573934Y63788267D01*
X48573934Y63788267D02*
X48383457Y63407315D01*
X48383457Y63407315D02*
X48192981Y63216839D01*
X48192981Y63216839D02*
X47812029Y63026362D01*
X47812029Y63026362D02*
X46478695Y63026362D01*
D10*
D11*
X37288219Y61973981D02*
X39192981Y61973981D01*
X36907267Y60831124D02*
X38240600Y64831124D01*
X38240600Y64831124D02*
X39573934Y60831124D01*
D10*
D11*
X111478695Y41054934D02*
X114526315Y41054934D01*
D10*
D11*
X111578695Y55754934D02*
X114626315Y55754934D01*
X113102505Y54231124D02*
X113102505Y57278743D01*
D12*
%TO.P,J12,1,Pin_1*%
%TO.N,+15V*%
X106700000Y32800000D03*
%TD*%
D13*
%TO.P,R26,1*%
%TO.N,A-LIN*%
X22100000Y12400000D03*
%TO.P,R26,2*%
%TO.N,+5V*%
X25100000Y12400000D03*
%TD*%
%TO.P,R25,1*%
%TO.N,A-HIN*%
X20800000Y17000000D03*
%TO.P,R25,2*%
%TO.N,GND*%
X23800000Y17000000D03*
%TD*%
%TO.P,R24,1*%
%TO.N,B-LIN*%
X51000000Y12100000D03*
%TO.P,R24,2*%
%TO.N,+5V*%
X54000000Y12100000D03*
%TD*%
%TO.P,R23,1*%
%TO.N,B-HIN*%
X49100000Y16900000D03*
%TO.P,R23,2*%
%TO.N,GND*%
X52100000Y16900000D03*
%TD*%
%TO.P,R22,1*%
%TO.N,C-LIN*%
X79200000Y11000000D03*
%TO.P,R22,2*%
%TO.N,+5V*%
X82200000Y11000000D03*
%TD*%
%TO.P,R21,1*%
%TO.N,C-HIN*%
X77300000Y15900000D03*
%TO.P,R21,2*%
%TO.N,GND*%
X80300000Y15900000D03*
%TD*%
D12*
%TO.P,J6,1,Pin_1*%
%TO.N,GND*%
X3100000Y15840000D03*
%TO.P,J6,2,Pin_2*%
%TO.N,Net-(J4-Pin_3)*%
X3100000Y13300000D03*
%TO.P,J6,3,Pin_3*%
%TO.N,Net-(J4-Pin_2)*%
X3100000Y10760000D03*
%TO.P,J6,4,Pin_4*%
%TO.N,Net-(J4-Pin_1)*%
X3100000Y8220000D03*
%TO.P,J6,5,Pin_5*%
%TO.N,+5V*%
X3100000Y5680000D03*
%TD*%
%TO.P,J1,1,Pin_1*%
%TO.N,GND*%
X106700000Y27600000D03*
%TO.P,J1,2,Pin_2*%
%TO.N,Net-(J1-Pin_2)*%
X106700000Y25060000D03*
%TO.P,J1,3,Pin_3*%
%TO.N,+5V*%
X106700000Y22520000D03*
%TD*%
%TO.P,J2,1,Pin_1*%
%TO.N,A-HIN*%
X35450000Y3400000D03*
%TO.P,J2,2,Pin_2*%
%TO.N,A-LIN*%
X37990000Y3400000D03*
%TO.P,J2,3,Pin_3*%
%TO.N,B-HIN*%
X40530000Y3400000D03*
%TO.P,J2,4,Pin_4*%
%TO.N,B-LIN*%
X43070000Y3400000D03*
%TO.P,J2,5,Pin_5*%
%TO.N,C-HIN*%
X45610000Y3400000D03*
%TO.P,J2,6,Pin_6*%
%TO.N,C-LIN*%
X48150000Y3400000D03*
%TD*%
D14*
%TO.P,Z3,1,K*%
%TO.N,Net-(SLM2003S3-VB)*%
X58356363Y26100000D03*
%TO.P,Z3,2,A*%
%TO.N,+15V*%
X58356363Y22500000D03*
%TD*%
D15*
%TO.P,Q1,1,G*%
%TO.N,Net-(Q1-G)*%
X5754493Y45555000D03*
D16*
%TO.P,Q1,2,D*%
%TO.N,PWR_36V*%
X8294493Y45555000D03*
%TO.P,Q1,3,S*%
%TO.N,Net-(J7-Pin_1)*%
X10834493Y45555000D03*
%TD*%
D17*
%TO.P,C2,1*%
%TO.N,+15V*%
X13713185Y22150000D03*
%TO.P,C2,2*%
%TO.N,GND*%
X13713185Y20650000D03*
%TD*%
D15*
%TO.P,Q4,1,G*%
%TO.N,Net-(Q4-G)*%
X50004493Y45555000D03*
D16*
%TO.P,Q4,2,D*%
%TO.N,Net-(J8-Pin_1)*%
X52544493Y45555000D03*
%TO.P,Q4,3,S*%
%TO.N,GND*%
X55084493Y45555000D03*
%TD*%
D15*
%TO.P,Q2,1,G*%
%TO.N,Net-(Q2-G)*%
X17754493Y45555000D03*
D16*
%TO.P,Q2,2,D*%
%TO.N,Net-(J7-Pin_1)*%
X20294493Y45555000D03*
%TO.P,Q2,3,S*%
%TO.N,GND*%
X22834493Y45555000D03*
%TD*%
D18*
%TO.P,J7,1,Pin_1*%
%TO.N,Net-(J7-Pin_1)*%
X38200000Y56500000D03*
%TD*%
D19*
%TO.P,J10,1,Pin_1*%
%TO.N,PWR_36V*%
X105300000Y55200000D03*
%TD*%
D17*
%TO.P,C5,1*%
%TO.N,+15V*%
X69684089Y21750000D03*
%TO.P,C5,2*%
%TO.N,GND*%
X69684089Y20250000D03*
%TD*%
%TO.P,C6,2*%
%TO.N,Net-(J9-Pin_1)*%
X64102726Y28700000D03*
%TO.P,C6,1*%
%TO.N,Net-(SLM2003S3-VB)*%
X64102726Y27200000D03*
%TD*%
D20*
%TO.P,J5,1,Pin_1*%
%TO.N,Net-(J1-Pin_2)*%
X24800000Y3200000D03*
%TD*%
D15*
%TO.P,Q3,1,G*%
%TO.N,Net-(Q3-G)*%
X37504493Y45555000D03*
D16*
%TO.P,Q3,2,D*%
%TO.N,PWR_36V*%
X40044493Y45555000D03*
%TO.P,Q3,3,S*%
%TO.N,Net-(J8-Pin_1)*%
X42584493Y45555000D03*
%TD*%
D17*
%TO.P,C1,1*%
%TO.N,Net-(SLM2003S1-VB)*%
X8131822Y28600000D03*
%TO.P,C1,2*%
%TO.N,Net-(J7-Pin_1)*%
X8131822Y27100000D03*
%TD*%
D12*
%TO.P,J4,1,Pin_1*%
%TO.N,Net-(J4-Pin_1)*%
X12050000Y3500000D03*
%TO.P,J4,2,Pin_2*%
%TO.N,Net-(J4-Pin_2)*%
X14590000Y3500000D03*
%TO.P,J4,3,Pin_3*%
%TO.N,Net-(J4-Pin_3)*%
X17130000Y3500000D03*
%TD*%
D14*
%TO.P,Z2,1,K*%
%TO.N,Net-(SLM2003S2-VB)*%
X30370911Y27450000D03*
%TO.P,Z2,2,A*%
%TO.N,+15V*%
X30370911Y23850000D03*
%TD*%
D15*
%TO.P,Q6,1,G*%
%TO.N,Net-(Q6-G)*%
X82254493Y45555000D03*
D16*
%TO.P,Q6,2,D*%
%TO.N,Net-(J9-Pin_1)*%
X84794493Y45555000D03*
%TO.P,Q6,3,S*%
%TO.N,GND*%
X87334493Y45555000D03*
%TD*%
D21*
%TO.P,C20,1*%
%TO.N,PWR_36V*%
X30200000Y41700000D03*
D20*
%TO.P,C20,2*%
%TO.N,GND*%
X30200000Y45200000D03*
%TD*%
D18*
%TO.P,J8,1,Pin_1*%
%TO.N,Net-(J8-Pin_1)*%
X46700000Y56500000D03*
%TD*%
D22*
%TO.P,SLM2003S3,1,Vcc*%
%TO.N,+15V*%
X75975459Y21000000D03*
%TO.P,SLM2003S3,2,HIN*%
%TO.N,C-HIN*%
X77245459Y21000000D03*
%TO.P,SLM2003S3,3,LIN*%
%TO.N,C-LIN*%
X78515459Y21000000D03*
%TO.P,SLM2003S3,4,COM*%
%TO.N,GND*%
X79785459Y21000000D03*
%TO.P,SLM2003S3,5,LO*%
%TO.N,Net-(SLM2003S3-LO)*%
X79785459Y28000000D03*
%TO.P,SLM2003S3,6,Vs*%
%TO.N,Net-(J9-Pin_1)*%
X78515459Y28000000D03*
%TO.P,SLM2003S3,7,HO*%
%TO.N,Net-(SLM2003S3-HO)*%
X77245459Y28000000D03*
%TO.P,SLM2003S3,8,VB*%
%TO.N,Net-(SLM2003S3-VB)*%
X75975459Y28000000D03*
%TD*%
%TO.P,SLM2003S2,1,Vcc*%
%TO.N,+15V*%
X47990000Y21800000D03*
%TO.P,SLM2003S2,2,HIN*%
%TO.N,B-HIN*%
X49260000Y21800000D03*
%TO.P,SLM2003S2,3,LIN*%
%TO.N,B-LIN*%
X50530000Y21800000D03*
%TO.P,SLM2003S2,4,COM*%
%TO.N,GND*%
X51800000Y21800000D03*
%TO.P,SLM2003S2,5,LO*%
%TO.N,Net-(SLM2003S2-LO)*%
X51800000Y28800000D03*
%TO.P,SLM2003S2,6,Vs*%
%TO.N,Net-(J8-Pin_1)*%
X50530000Y28800000D03*
%TO.P,SLM2003S2,7,HO*%
%TO.N,Net-(SLM2003S2-HO)*%
X49260000Y28800000D03*
%TO.P,SLM2003S2,8,VB*%
%TO.N,Net-(SLM2003S2-VB)*%
X47990000Y28800000D03*
%TD*%
D19*
%TO.P,J11,1,Pin_1*%
%TO.N,GND*%
X105100000Y40900000D03*
%TD*%
D14*
%TO.P,Z1,1,K*%
%TO.N,Net-(SLM2003S1-VB)*%
X2385459Y26600000D03*
%TO.P,Z1,2,A*%
%TO.N,+15V*%
X2385459Y23000000D03*
%TD*%
D17*
%TO.P,C4,1*%
%TO.N,Net-(SLM2003S2-VB)*%
X38900000Y29450000D03*
%TO.P,C4,2*%
%TO.N,Net-(J8-Pin_1)*%
X38900000Y27950000D03*
%TD*%
D22*
%TO.P,SLM2003S1,1,Vcc*%
%TO.N,+15V*%
X20004548Y21800000D03*
%TO.P,SLM2003S1,2,HIN*%
%TO.N,A-HIN*%
X21274548Y21800000D03*
%TO.P,SLM2003S1,3,LIN*%
%TO.N,A-LIN*%
X22544548Y21800000D03*
%TO.P,SLM2003S1,4,COM*%
%TO.N,GND*%
X23814548Y21800000D03*
%TO.P,SLM2003S1,5,LO*%
%TO.N,Net-(SLM2003S1-LO)*%
X23814548Y28800000D03*
%TO.P,SLM2003S1,6,Vs*%
%TO.N,Net-(J7-Pin_1)*%
X22544548Y28800000D03*
%TO.P,SLM2003S1,7,HO*%
%TO.N,Net-(SLM2003S1-HO)*%
X21274548Y28800000D03*
%TO.P,SLM2003S1,8,VB*%
%TO.N,Net-(SLM2003S1-VB)*%
X20004548Y28800000D03*
%TD*%
D17*
%TO.P,C3,1*%
%TO.N,+15V*%
X36117274Y22600000D03*
%TO.P,C3,2*%
%TO.N,GND*%
X36117274Y21100000D03*
%TD*%
D18*
%TO.P,J9,1,Pin_1*%
%TO.N,Net-(J9-Pin_1)*%
X55200000Y56700000D03*
%TD*%
D12*
%TO.P,J3,1,Pin_1*%
%TO.N,+3.3V*%
X90700000Y7000000D03*
%TO.P,J3,2,Pin_2*%
%TO.N,GND*%
X93240000Y7000000D03*
%TO.P,J3,3,Pin_3*%
%TO.N,+5V*%
X95780000Y7000000D03*
%TO.P,J3,4,Pin_4*%
%TO.N,GND*%
X98320000Y7000000D03*
%TD*%
D15*
%TO.P,Q5,1,G*%
%TO.N,Net-(Q5-G)*%
X69754493Y45555000D03*
D16*
%TO.P,Q5,2,D*%
%TO.N,PWR_36V*%
X72294493Y45555000D03*
%TO.P,Q5,3,S*%
%TO.N,Net-(J9-Pin_1)*%
X74834493Y45555000D03*
%TD*%
D20*
%TO.P,C21,1*%
%TO.N,PWR_36V*%
X62400000Y41800000D03*
%TO.P,C21,2*%
%TO.N,GND*%
X62400000Y45300000D03*
%TD*%
%TO.P,C22,1*%
%TO.N,PWR_36V*%
X94900000Y42250000D03*
%TO.P,C22,2*%
%TO.N,GND*%
X94900000Y45750000D03*
%TD*%
D23*
%TO.N,+5V*%
X37100000Y9700000D03*
X78750000Y6150000D03*
X61700000Y11300000D03*
%TO.N,GND*%
X7600000Y20000000D03*
X29900000Y21000000D03*
X55800000Y20500000D03*
X65200000Y20300000D03*
X83100000Y21000000D03*
%TO.N,Net-(J9-Pin_1)*%
X75800000Y33700000D03*
%TO.N,Net-(J8-Pin_1)*%
X44000000Y34000000D03*
%TO.N,Net-(J7-Pin_1)*%
X11900000Y34100000D03*
X14200000Y46300000D03*
%TO.N,Net-(J9-Pin_1)*%
X78600000Y46600000D03*
%TO.N,Net-(J8-Pin_1)*%
X46200000Y45800000D03*
%TO.N,Net-(SLM2003S1-HO)*%
X6100000Y34100000D03*
%TO.N,Net-(SLM2003S1-LO)*%
X17700000Y34100000D03*
%TO.N,Net-(SLM2003S2-HO)*%
X37700000Y34100000D03*
%TO.N,Net-(SLM2003S2-LO)*%
X50000000Y33800000D03*
%TO.N,Net-(SLM2003S3-HO)*%
X69800000Y34100000D03*
%TO.N,Net-(SLM2003S3-LO)*%
X82200000Y34100000D03*
%TD*%
D24*
%TO.N,+15V*%
X72450000Y22400000D02*
X73100000Y21750000D01*
%TO.N,+5V*%
X34400000Y12400000D02*
X25100000Y12400000D01*
X37100000Y9700000D02*
X34400000Y12400000D01*
X78750000Y6150000D02*
X78700000Y6100000D01*
X60900000Y12100000D02*
X61700000Y11300000D01*
X54000000Y12100000D02*
X60900000Y12100000D01*
X82200000Y9600000D02*
X78750000Y6150000D01*
X82200000Y11000000D02*
X82200000Y9600000D01*
X95580000Y11000000D02*
X95780000Y11200000D01*
X82200000Y11000000D02*
X95580000Y11000000D01*
X95780000Y11600000D02*
X95780000Y11200000D01*
X95780000Y11200000D02*
X95780000Y7000000D01*
X106700000Y22520000D02*
X95780000Y11600000D01*
D25*
%TO.N,+15V*%
X101800000Y32800000D02*
X106700000Y32800000D01*
X94900000Y25900000D02*
X101800000Y32800000D01*
X79925460Y25900000D02*
X94900000Y25900000D01*
X75975459Y21949999D02*
X79925460Y25900000D01*
X75975459Y21000000D02*
X75975459Y21949999D01*
D24*
%TO.N,C-LIN*%
X75200000Y11000000D02*
X79200000Y11000000D01*
X70600000Y6400000D02*
X75200000Y11000000D01*
X48150000Y5850000D02*
X48700000Y6400000D01*
X48150000Y3400000D02*
X48150000Y5850000D01*
X48700000Y6400000D02*
X70600000Y6400000D01*
%TO.N,C-HIN*%
X47800000Y8500000D02*
X69900000Y8500000D01*
X69900000Y8500000D02*
X77300000Y15900000D01*
X45610000Y6310000D02*
X47800000Y8500000D01*
X45610000Y3400000D02*
X45610000Y6310000D01*
%TO.N,B-LIN*%
X47600000Y12100000D02*
X51000000Y12100000D01*
X43070000Y7570000D02*
X47600000Y12100000D01*
X43070000Y3400000D02*
X43070000Y7570000D01*
%TO.N,A-LIN*%
X28100000Y6400000D02*
X22100000Y12400000D01*
X34990000Y6400000D02*
X28100000Y6400000D01*
X37990000Y3400000D02*
X34990000Y6400000D01*
%TO.N,B-HIN*%
X40530000Y8330000D02*
X49100000Y16900000D01*
X40530000Y3400000D02*
X40530000Y8330000D01*
%TO.N,A-HIN*%
X20800000Y11100000D02*
X20800000Y17000000D01*
X28500000Y3400000D02*
X20800000Y11100000D01*
X35450000Y3400000D02*
X28500000Y3400000D01*
D25*
%TO.N,C-LIN*%
X78515459Y11684541D02*
X79200000Y11000000D01*
X78515459Y21000000D02*
X78515459Y11684541D01*
%TO.N,B-LIN*%
X50530000Y21800000D02*
X50530000Y12570000D01*
X50530000Y12570000D02*
X51000000Y12100000D01*
%TO.N,A-LIN*%
X22544548Y12844548D02*
X22100000Y12400000D01*
X22544548Y21800000D02*
X22544548Y12844548D01*
%TO.N,A-HIN*%
X21274548Y17474548D02*
X21274548Y21800000D01*
X20800000Y17000000D02*
X21274548Y17474548D01*
%TO.N,B-HIN*%
X49100000Y21640000D02*
X49260000Y21800000D01*
X49100000Y16900000D02*
X49100000Y21640000D01*
%TO.N,C-HIN*%
X77300000Y20945459D02*
X77245459Y21000000D01*
X77300000Y15900000D02*
X77300000Y20945459D01*
%TO.N,GND*%
X25900000Y17000000D02*
X29900000Y21000000D01*
X23800000Y17000000D02*
X25900000Y17000000D01*
X80300000Y18200000D02*
X83100000Y21000000D01*
X80300000Y15900000D02*
X80300000Y18200000D01*
X79785459Y21000000D02*
X83100000Y21000000D01*
X52200000Y16900000D02*
X55800000Y20500000D01*
X52100000Y16900000D02*
X52200000Y16900000D01*
X69634089Y20300000D02*
X69684089Y20250000D01*
X65200000Y20300000D02*
X69634089Y20300000D01*
X54500000Y21800000D02*
X55800000Y20500000D01*
X51800000Y21800000D02*
X54500000Y21800000D01*
X30000000Y21100000D02*
X29900000Y21000000D01*
X36117274Y21100000D02*
X30000000Y21100000D01*
X24614548Y21000000D02*
X29900000Y21000000D01*
X23814548Y21800000D02*
X24614548Y21000000D01*
X8250000Y20650000D02*
X7600000Y20000000D01*
X13713185Y20650000D02*
X8250000Y20650000D01*
%TO.N,Net-(J8-Pin_1)*%
X50200000Y26900000D02*
X50530000Y27230000D01*
X44000000Y26900000D02*
X50200000Y26900000D01*
X42950000Y27950000D02*
X44000000Y26900000D01*
X38900000Y27950000D02*
X42950000Y27950000D01*
X50530000Y27230000D02*
X50530000Y28800000D01*
%TO.N,+15V*%
X42100000Y22600000D02*
X47190000Y22600000D01*
X36117274Y22600000D02*
X42100000Y22600000D01*
X73100000Y21750000D02*
X75225459Y21750000D01*
X69684089Y21750000D02*
X73100000Y21750000D01*
X13713185Y22150000D02*
X16200000Y22150000D01*
X16200000Y22150000D02*
X19654548Y22150000D01*
X75225459Y21750000D02*
X75975459Y21000000D01*
%TO.N,Net-(SLM2003S3-VB)*%
X64102726Y27200000D02*
X75175459Y27200000D01*
X75175459Y27200000D02*
X75975459Y28000000D01*
X63002726Y26100000D02*
X64102726Y27200000D01*
X58356363Y26100000D02*
X63002726Y26100000D01*
%TO.N,+15V*%
X47190000Y22600000D02*
X47990000Y21800000D01*
X34867274Y23850000D02*
X36117274Y22600000D01*
X30370911Y23850000D02*
X34867274Y23850000D01*
X19654548Y22150000D02*
X20004548Y21800000D01*
X12863185Y23000000D02*
X13713185Y22150000D01*
X2385459Y23000000D02*
X12863185Y23000000D01*
%TO.N,Net-(SLM2003S1-VB)*%
X2385459Y26600000D02*
X4385459Y28600000D01*
X4385459Y28600000D02*
X8131822Y28600000D01*
X19804548Y28600000D02*
X20004548Y28800000D01*
X8131822Y28600000D02*
X19804548Y28600000D01*
%TO.N,Net-(J7-Pin_1)*%
X20694547Y26000000D02*
X22544548Y27850001D01*
X16400000Y26000000D02*
X20694547Y26000000D01*
X22544548Y27850001D02*
X22544548Y28800000D01*
X15300000Y27100000D02*
X16400000Y26000000D01*
X8131822Y27100000D02*
X15300000Y27100000D01*
%TO.N,Net-(SLM2003S1-HO)*%
X9000000Y31200000D02*
X6100000Y34100000D01*
X19824547Y31200000D02*
X9000000Y31200000D01*
X21274548Y29749999D02*
X19824547Y31200000D01*
X21274548Y28800000D02*
X21274548Y29749999D01*
%TO.N,Net-(J7-Pin_1)*%
X14000000Y32000000D02*
X11900000Y34100000D01*
X20294547Y32000000D02*
X14000000Y32000000D01*
X22544548Y29749999D02*
X20294547Y32000000D01*
X22544548Y28800000D02*
X22544548Y29749999D01*
%TO.N,Net-(SLM2003S1-LO)*%
X23814548Y29749999D02*
X19464547Y34100000D01*
X19464547Y34100000D02*
X17700000Y34100000D01*
X23814548Y28800000D02*
X23814548Y29749999D01*
%TO.N,Net-(SLM2003S2-VB)*%
X38900000Y29450000D02*
X32370911Y29450000D01*
X32370911Y29450000D02*
X30370911Y27450000D01*
X47340000Y29450000D02*
X47990000Y28800000D01*
X38900000Y29450000D02*
X47340000Y29450000D01*
%TO.N,Net-(SLM2003S2-HO)*%
X40500000Y31300000D02*
X37700000Y34100000D01*
X47709999Y31300000D02*
X40500000Y31300000D01*
X49260000Y29749999D02*
X47709999Y31300000D01*
X49260000Y28800000D02*
X49260000Y29749999D01*
%TO.N,Net-(J8-Pin_1)*%
X50530000Y29749999D02*
X46279999Y34000000D01*
X46279999Y34000000D02*
X44000000Y34000000D01*
X50530000Y28800000D02*
X50530000Y29749999D01*
%TO.N,Net-(SLM2003S2-LO)*%
X51800000Y32000000D02*
X50000000Y33800000D01*
X51800000Y28800000D02*
X51800000Y32000000D01*
%TO.N,Net-(J9-Pin_1)*%
X73400000Y36100000D02*
X75800000Y33700000D01*
X64102726Y31231154D02*
X68971572Y36100000D01*
X68971572Y36100000D02*
X73400000Y36100000D01*
X64102726Y28700000D02*
X64102726Y31231154D01*
%TO.N,Net-(SLM2003S3-LO)*%
X79785459Y28000000D02*
X79785459Y31685459D01*
X79785459Y31685459D02*
X82200000Y34100000D01*
%TO.N,Net-(J9-Pin_1)*%
X78515459Y30984541D02*
X75800000Y33700000D01*
X78515459Y28000000D02*
X78515459Y30984541D01*
%TO.N,Net-(SLM2003S3-HO)*%
X72600000Y31300000D02*
X69800000Y34100000D01*
X77245459Y28949999D02*
X74895458Y31300000D01*
X74895458Y31300000D02*
X72600000Y31300000D01*
X77245459Y28000000D02*
X77245459Y28949999D01*
D24*
%TO.N,Net-(J4-Pin_3)*%
X7330000Y13300000D02*
X17130000Y3500000D01*
X3100000Y13300000D02*
X7330000Y13300000D01*
%TO.N,Net-(J4-Pin_2)*%
X7330000Y10760000D02*
X14590000Y3500000D01*
X3100000Y10760000D02*
X7330000Y10760000D01*
%TO.N,Net-(J4-Pin_1)*%
X7330000Y8220000D02*
X12050000Y3500000D01*
X3100000Y8220000D02*
X7330000Y8220000D01*
%TD*%
%TA.AperFunction,Conductor*%
%TO.N,Net-(J7-Pin_1)*%
G36*
X42221168Y59880315D02*
G01*
X42234827Y59870148D01*
X42856698Y59337116D01*
X42894788Y59278542D01*
X42900000Y59242968D01*
X42900000Y55138735D01*
X42880315Y55071696D01*
X42877952Y55068153D01*
X41100000Y52500000D01*
X41100000Y48122755D01*
X41080315Y48055716D01*
X41027511Y48009961D01*
X40977252Y47998761D01*
X21300000Y47800001D01*
X21300000Y44924000D01*
X21280315Y44856961D01*
X21227511Y44811206D01*
X21176000Y44800000D01*
X19524000Y44800000D01*
X19456961Y44819685D01*
X19411206Y44872489D01*
X19400000Y44924000D01*
X19400000Y47800000D01*
X16403098Y47700001D01*
X16403098Y47700000D01*
X16402209Y46897260D01*
X16382450Y46830242D01*
X16377477Y46823088D01*
X16358199Y46797335D01*
X16358195Y46797329D01*
X16307901Y46662483D01*
X16301494Y46602884D01*
X16301493Y46602873D01*
X16301493Y45716854D01*
X16301494Y45024000D01*
X16281809Y44956961D01*
X16229006Y44911206D01*
X16177494Y44900000D01*
X11800000Y44900000D01*
X10024000Y44900000D01*
X9956961Y44919685D01*
X9911206Y44972489D01*
X9900000Y45024000D01*
X9900000Y58048638D01*
X9919685Y58115677D01*
X9936319Y58136319D01*
X11663681Y59863681D01*
X11725004Y59897166D01*
X11751362Y59900000D01*
X42154129Y59900000D01*
X42221168Y59880315D01*
G37*
%TD.AperFunction*%
%TD*%
%TA.AperFunction,Conductor*%
%TO.N,Net-(J8-Pin_1)*%
G36*
X50115677Y59880315D02*
G01*
X50136319Y59863681D01*
X50758252Y59241748D01*
X50791737Y59180425D01*
X50793701Y59153067D01*
X50794500Y59153067D01*
X50794500Y52837573D01*
X50794519Y52833131D01*
X50794537Y52831073D01*
X50794588Y52826971D01*
X50794589Y52826966D01*
X50817454Y52684921D01*
X50817454Y52684920D01*
X50838265Y52618212D01*
X50838318Y52618079D01*
X50838746Y52617205D01*
X50900225Y52488361D01*
X53573674Y48478188D01*
X53594482Y48411489D01*
X53594500Y48409405D01*
X53594500Y47923993D01*
X53599289Y47879459D01*
X53600000Y47866203D01*
X53600000Y45524000D01*
X53580315Y45456961D01*
X53527511Y45411206D01*
X53476000Y45400000D01*
X51724000Y45400000D01*
X51656961Y45419685D01*
X51611206Y45472489D01*
X51600000Y45524000D01*
X51600000Y47700000D01*
X48300000Y47700000D01*
X48300000Y44624000D01*
X48280315Y44556961D01*
X48227511Y44511206D01*
X48176000Y44500000D01*
X41824000Y44500000D01*
X41756961Y44519685D01*
X41711206Y44572489D01*
X41700000Y44624000D01*
X41700000Y52439860D01*
X41719685Y52506899D01*
X41722031Y52510418D01*
X43293570Y54780417D01*
X43298499Y54787670D01*
X43300862Y54791213D01*
X43305567Y54798399D01*
X43365338Y54929276D01*
X43385023Y54996315D01*
X43385024Y54996319D01*
X43405500Y55138735D01*
X43405500Y59242968D01*
X43400160Y59316247D01*
X43398465Y59327815D01*
X43408220Y59396998D01*
X43433468Y59433469D01*
X43863681Y59863681D01*
X43925004Y59897166D01*
X43951362Y59900000D01*
X50048638Y59900000D01*
X50115677Y59880315D01*
G37*
%TD.AperFunction*%
%TD*%
%TA.AperFunction,Conductor*%
%TO.N,PWR_36V*%
G36*
X109215511Y59780315D02*
G01*
X109236353Y59763481D01*
X109860450Y59136535D01*
X109893795Y59075136D01*
X109896568Y59048488D01*
X109800258Y37956689D01*
X109780267Y37889740D01*
X109756957Y37863107D01*
X109134827Y37329852D01*
X109071117Y37301169D01*
X109054129Y37300000D01*
X8851362Y37300000D01*
X8784323Y37319685D01*
X8763681Y37336319D01*
X7336319Y38763681D01*
X7302834Y38825004D01*
X7300000Y38851362D01*
X7300000Y40900002D01*
X103094390Y40900002D01*
X103094390Y40899999D01*
X103114804Y40614567D01*
X103175628Y40334963D01*
X103275635Y40066834D01*
X103412770Y39815691D01*
X103412775Y39815683D01*
X103584254Y39586613D01*
X103584270Y39586595D01*
X103786594Y39384271D01*
X103786612Y39384255D01*
X104015682Y39212776D01*
X104015690Y39212771D01*
X104266833Y39075636D01*
X104266832Y39075636D01*
X104266836Y39075635D01*
X104266839Y39075633D01*
X104534954Y38975631D01*
X104534960Y38975630D01*
X104534962Y38975629D01*
X104814566Y38914805D01*
X104814568Y38914805D01*
X104814572Y38914804D01*
X105068220Y38896663D01*
X105099999Y38894390D01*
X105100000Y38894390D01*
X105100001Y38894390D01*
X105128595Y38896436D01*
X105385428Y38914804D01*
X105665046Y38975631D01*
X105933161Y39075633D01*
X106184315Y39212774D01*
X106413395Y39384261D01*
X106615739Y39586605D01*
X106787226Y39815685D01*
X106924367Y40066839D01*
X107024369Y40334954D01*
X107085196Y40614572D01*
X107105610Y40900000D01*
X107085196Y41185428D01*
X107024369Y41465046D01*
X106924367Y41733161D01*
X106787226Y41984315D01*
X106787224Y41984318D01*
X106615745Y42213388D01*
X106615729Y42213406D01*
X106413405Y42415730D01*
X106413387Y42415746D01*
X106184317Y42587225D01*
X106184309Y42587230D01*
X105933166Y42724365D01*
X105933167Y42724365D01*
X105825915Y42764368D01*
X105665046Y42824369D01*
X105665043Y42824370D01*
X105665037Y42824372D01*
X105385433Y42885196D01*
X105100001Y42905610D01*
X105099999Y42905610D01*
X104814566Y42885196D01*
X104534962Y42824372D01*
X104266833Y42724365D01*
X104015690Y42587230D01*
X104015682Y42587225D01*
X103786612Y42415746D01*
X103786594Y42415730D01*
X103584270Y42213406D01*
X103584254Y42213388D01*
X103412775Y41984318D01*
X103412770Y41984310D01*
X103275635Y41733167D01*
X103175628Y41465038D01*
X103114804Y41185434D01*
X103094390Y40900002D01*
X7300000Y40900002D01*
X7300000Y47176000D01*
X7319685Y47243039D01*
X7372489Y47288794D01*
X7424000Y47300000D01*
X9176000Y47300000D01*
X9243039Y47280315D01*
X9288794Y47227511D01*
X9300000Y47176000D01*
X9300000Y44400000D01*
X9799997Y43900002D01*
X9799999Y43900001D01*
X9800000Y43900000D01*
X29058526Y43833820D01*
X29125497Y43813905D01*
X29127919Y43812296D01*
X29322296Y43679772D01*
X29322301Y43679770D01*
X29322302Y43679769D01*
X29322303Y43679768D01*
X29447843Y43619312D01*
X29558673Y43565939D01*
X29558674Y43565939D01*
X29558677Y43565937D01*
X29809385Y43488604D01*
X30068818Y43449500D01*
X30331182Y43449500D01*
X30590615Y43488604D01*
X30841323Y43565937D01*
X31077704Y43679772D01*
X31260598Y43804468D01*
X31327073Y43825967D01*
X31330794Y43826012D01*
X38558142Y43801175D01*
X38600002Y43801031D01*
X38600002Y43801032D01*
X38600004Y43801031D01*
X38900000Y44100000D01*
X38906545Y44309449D01*
X38914300Y44348896D01*
X38951084Y44447517D01*
X38957493Y44507127D01*
X38957492Y45937856D01*
X38957553Y45941708D01*
X38988875Y46943986D01*
X38996246Y47179874D01*
X39018014Y47246265D01*
X39072222Y47290348D01*
X39120185Y47300000D01*
X40876000Y47300000D01*
X40943039Y47280315D01*
X40988794Y47227511D01*
X41000000Y47176000D01*
X41000000Y44100000D01*
X40999999Y44100000D01*
X41134000Y43999500D01*
X41400000Y43800000D01*
X41400001Y43800000D01*
X46117133Y43800000D01*
X46125979Y43799684D01*
X46199999Y43794390D01*
X46200000Y43794390D01*
X46200001Y43794390D01*
X46274021Y43799684D01*
X46282867Y43800000D01*
X61454379Y43800000D01*
X61517860Y43781360D01*
X61518282Y43782090D01*
X61521292Y43780352D01*
X61521418Y43780315D01*
X61521840Y43780036D01*
X61522303Y43779768D01*
X61647843Y43719312D01*
X61758673Y43665939D01*
X61758674Y43665939D01*
X61758677Y43665937D01*
X62009385Y43588604D01*
X62268818Y43549500D01*
X62531182Y43549500D01*
X62790615Y43588604D01*
X63041323Y43665937D01*
X63277704Y43779772D01*
X63277709Y43779777D01*
X63281718Y43782090D01*
X63282552Y43780645D01*
X63342236Y43799954D01*
X63345621Y43800000D01*
X70899999Y43800000D01*
X70900000Y43800000D01*
X71300000Y44100000D01*
X71300000Y47176000D01*
X71319685Y47243039D01*
X71372489Y47288794D01*
X71424000Y47300000D01*
X73176000Y47300000D01*
X73243039Y47280315D01*
X73288794Y47227511D01*
X73300000Y47176000D01*
X73300000Y44100000D01*
X73299999Y44100000D01*
X73434000Y43999500D01*
X73700000Y43800000D01*
X91900000Y43800000D01*
X92800000Y44700000D01*
X92800000Y45750005D01*
X93144592Y45750005D01*
X93144592Y45749996D01*
X93164196Y45488380D01*
X93164197Y45488375D01*
X93222576Y45232598D01*
X93222578Y45232589D01*
X93222580Y45232584D01*
X93318432Y44988357D01*
X93449614Y44761143D01*
X93485866Y44715685D01*
X93613198Y44556015D01*
X93781344Y44400000D01*
X93805521Y44377567D01*
X94022296Y44229772D01*
X94022301Y44229770D01*
X94022302Y44229769D01*
X94022303Y44229768D01*
X94147843Y44169312D01*
X94258673Y44115939D01*
X94258674Y44115939D01*
X94258677Y44115937D01*
X94509385Y44038604D01*
X94768818Y43999500D01*
X95031182Y43999500D01*
X95290615Y44038604D01*
X95541323Y44115937D01*
X95728111Y44205890D01*
X95777696Y44229768D01*
X95777696Y44229769D01*
X95777704Y44229772D01*
X95994479Y44377567D01*
X96186805Y44556019D01*
X96350386Y44761143D01*
X96481568Y44988357D01*
X96577420Y45232584D01*
X96635802Y45488370D01*
X96641292Y45561630D01*
X96655408Y45749996D01*
X96655408Y45750005D01*
X96635803Y46011621D01*
X96635802Y46011626D01*
X96635802Y46011630D01*
X96577420Y46267416D01*
X96481568Y46511643D01*
X96350386Y46738857D01*
X96186805Y46943981D01*
X96186804Y46943982D01*
X96186801Y46943986D01*
X95994479Y47122433D01*
X95931977Y47165046D01*
X95777704Y47270228D01*
X95777700Y47270230D01*
X95777697Y47270232D01*
X95777696Y47270233D01*
X95541325Y47384062D01*
X95541327Y47384062D01*
X95290623Y47461394D01*
X95290619Y47461395D01*
X95290615Y47461396D01*
X95165823Y47480206D01*
X95031187Y47500500D01*
X95031182Y47500500D01*
X94768818Y47500500D01*
X94768812Y47500500D01*
X94607247Y47476147D01*
X94509385Y47461396D01*
X94509382Y47461395D01*
X94509376Y47461394D01*
X94258673Y47384062D01*
X94022303Y47270233D01*
X94022302Y47270232D01*
X93805520Y47122433D01*
X93613198Y46943986D01*
X93449614Y46738857D01*
X93318432Y46511644D01*
X93222582Y46267422D01*
X93222576Y46267403D01*
X93164197Y46011626D01*
X93164196Y46011621D01*
X93144592Y45750005D01*
X92800000Y45750005D01*
X92800000Y50200000D01*
X92100000Y50900000D01*
X88843497Y50900000D01*
X88776458Y50919685D01*
X88766035Y50927172D01*
X87846538Y51662770D01*
X87806486Y51720021D01*
X87800000Y51759598D01*
X87800000Y58748638D01*
X87819685Y58815677D01*
X87836319Y58836319D01*
X88763681Y59763681D01*
X88825004Y59797166D01*
X88851362Y59800000D01*
X109148472Y59800000D01*
X109215511Y59780315D01*
G37*
%TD.AperFunction*%
%TD*%
%TA.AperFunction,Conductor*%
%TO.N,Net-(J9-Pin_1)*%
G36*
X85011355Y59880315D02*
G01*
X85036993Y59858383D01*
X85768679Y59035236D01*
X85798505Y58972054D01*
X85800000Y58952856D01*
X85800000Y45624000D01*
X85780315Y45556961D01*
X85727511Y45511206D01*
X85676000Y45500000D01*
X83924000Y45500000D01*
X83856961Y45519685D01*
X83811206Y45572489D01*
X83800000Y45624000D01*
X83800000Y47800000D01*
X80700000Y47800000D01*
X80700000Y45624000D01*
X80680315Y45556961D01*
X80627511Y45511206D01*
X80576000Y45500000D01*
X74024000Y45500000D01*
X73956961Y45519685D01*
X73911206Y45572489D01*
X73900000Y45624000D01*
X73900000Y47800000D01*
X54224000Y47800000D01*
X54156961Y47819685D01*
X54111206Y47872489D01*
X54100000Y47924000D01*
X54100000Y48600001D01*
X51320826Y52768762D01*
X51300018Y52835461D01*
X51300000Y52837545D01*
X51300000Y59148638D01*
X51319685Y59215677D01*
X51336319Y59236319D01*
X51963681Y59863681D01*
X52025004Y59897166D01*
X52051362Y59900000D01*
X84944316Y59900000D01*
X85011355Y59880315D01*
G37*
%TD.AperFunction*%
%TD*%
%TA.AperFunction,Conductor*%
%TO.N,+15V*%
G36*
X104823958Y34669413D02*
G01*
X104851154Y34648846D01*
X106614788Y32885212D01*
X106648273Y32823889D01*
X106643289Y32754197D01*
X106617257Y32712390D01*
X105000343Y31000364D01*
X104999674Y30999661D01*
X93236137Y18737670D01*
X93175522Y18702921D01*
X93147801Y18699519D01*
X82649525Y18602612D01*
X82582306Y18621677D01*
X82536066Y18674057D01*
X82525484Y18743120D01*
X82553922Y18806941D01*
X82609952Y18844501D01*
X83052251Y18988640D01*
X83095569Y18993942D01*
X83095569Y18994390D01*
X83099232Y18994390D01*
X83099515Y18994425D01*
X83100000Y18994390D01*
X83385428Y19014804D01*
X83665046Y19075631D01*
X83933161Y19175633D01*
X84184315Y19312774D01*
X84413395Y19484261D01*
X84615739Y19686605D01*
X84787226Y19915685D01*
X84924367Y20166839D01*
X85024369Y20434954D01*
X85085196Y20714572D01*
X85105610Y21000000D01*
X85105070Y21007545D01*
X85098902Y21093796D01*
X85085196Y21285428D01*
X85055869Y21420241D01*
X85024371Y21565038D01*
X85024370Y21565040D01*
X85024369Y21565046D01*
X84924367Y21833161D01*
X84910921Y21857785D01*
X84787229Y22084310D01*
X84787224Y22084318D01*
X84615745Y22313388D01*
X84615729Y22313406D01*
X84413405Y22515730D01*
X84413387Y22515746D01*
X84184317Y22687225D01*
X84184309Y22687230D01*
X83933166Y22824365D01*
X83933167Y22824365D01*
X83825915Y22864368D01*
X83665046Y22924369D01*
X83665043Y22924370D01*
X83665037Y22924372D01*
X83385433Y22985196D01*
X83100001Y23005610D01*
X83099999Y23005610D01*
X82814566Y22985196D01*
X82534962Y22924372D01*
X82266833Y22824365D01*
X82015690Y22687230D01*
X82015682Y22687225D01*
X81786616Y22515749D01*
X81786597Y22515732D01*
X81681938Y22411074D01*
X81649561Y22387771D01*
X80727730Y21928429D01*
X80658948Y21916149D01*
X80594445Y21943004D01*
X80554702Y22000469D01*
X80553351Y22004819D01*
X80537205Y22060394D01*
X80537203Y22060397D01*
X80537203Y22060398D01*
X80453540Y22201865D01*
X80453538Y22201867D01*
X80453535Y22201871D01*
X80337329Y22318077D01*
X80337321Y22318083D01*
X80195855Y22401745D01*
X80195852Y22401746D01*
X80038032Y22447598D01*
X80038026Y22447599D01*
X80001160Y22450500D01*
X80001153Y22450500D01*
X79569765Y22450500D01*
X79569757Y22450500D01*
X79532891Y22447599D01*
X79532885Y22447598D01*
X79375065Y22401746D01*
X79375062Y22401745D01*
X79233596Y22318083D01*
X79227428Y22313298D01*
X79225531Y22315744D01*
X79176817Y22289143D01*
X79107125Y22294127D01*
X79074755Y22314931D01*
X79073490Y22313298D01*
X79067321Y22318083D01*
X78925855Y22401745D01*
X78925852Y22401746D01*
X78768032Y22447598D01*
X78768026Y22447599D01*
X78731160Y22450500D01*
X78731153Y22450500D01*
X78299765Y22450500D01*
X78299757Y22450500D01*
X78262891Y22447599D01*
X78262885Y22447598D01*
X78105065Y22401746D01*
X78105062Y22401745D01*
X77963596Y22318083D01*
X77957428Y22313298D01*
X77955531Y22315744D01*
X77906817Y22289143D01*
X77837125Y22294127D01*
X77804755Y22314931D01*
X77803490Y22313298D01*
X77797321Y22318083D01*
X77655855Y22401745D01*
X77655852Y22401746D01*
X77498032Y22447598D01*
X77498026Y22447599D01*
X77461160Y22450500D01*
X77461153Y22450500D01*
X77029765Y22450500D01*
X77029757Y22450500D01*
X76992891Y22447599D01*
X76992885Y22447598D01*
X76835065Y22401746D01*
X76835062Y22401745D01*
X76693596Y22318083D01*
X76693588Y22318077D01*
X76577382Y22201871D01*
X76577376Y22201863D01*
X76493714Y22060397D01*
X76493713Y22060394D01*
X76447861Y21902574D01*
X76447860Y21902568D01*
X76444959Y21865702D01*
X76444959Y20134299D01*
X76447860Y20097433D01*
X76447861Y20097431D01*
X76471935Y20014567D01*
X76494576Y19936640D01*
X76499500Y19902044D01*
X76499500Y18668703D01*
X76479815Y18601664D01*
X76427011Y18555909D01*
X76376645Y18544708D01*
X66444618Y18453029D01*
X66377399Y18472094D01*
X66331159Y18524474D01*
X66320577Y18593537D01*
X66349015Y18657358D01*
X66369154Y18676284D01*
X66513395Y18784261D01*
X66618063Y18888931D01*
X66650437Y18912233D01*
X67763453Y19466839D01*
X67802880Y19486485D01*
X67858183Y19499500D01*
X68875858Y19499500D01*
X68942897Y19479815D01*
X68950169Y19474767D01*
X69041757Y19406205D01*
X69041760Y19406203D01*
X69176606Y19355909D01*
X69176605Y19355909D01*
X69183533Y19355165D01*
X69236216Y19349500D01*
X70131961Y19349501D01*
X70191572Y19355909D01*
X70326420Y19406204D01*
X70441635Y19492454D01*
X70527885Y19607669D01*
X70578180Y19742517D01*
X70584589Y19802127D01*
X70584588Y20697872D01*
X70578180Y20757483D01*
X70527885Y20892331D01*
X70527884Y20892332D01*
X70527882Y20892336D01*
X70441636Y21007545D01*
X70441633Y21007548D01*
X70326424Y21093794D01*
X70326417Y21093798D01*
X70191571Y21144092D01*
X70191572Y21144092D01*
X70131972Y21150499D01*
X70131970Y21150500D01*
X70131962Y21150500D01*
X70131953Y21150500D01*
X69236218Y21150500D01*
X69236212Y21150499D01*
X69176605Y21144092D01*
X69080693Y21108318D01*
X69037360Y21100500D01*
X67858187Y21100500D01*
X67802884Y21113515D01*
X66650438Y21687770D01*
X66618062Y21711072D01*
X66513395Y21815739D01*
X66513393Y21815740D01*
X66513387Y21815746D01*
X66284317Y21987225D01*
X66284309Y21987230D01*
X66033166Y22124365D01*
X66033167Y22124365D01*
X65925915Y22164368D01*
X65765046Y22224369D01*
X65765043Y22224370D01*
X65765037Y22224372D01*
X65485433Y22285196D01*
X65200001Y22305610D01*
X65199999Y22305610D01*
X64914566Y22285196D01*
X64634962Y22224372D01*
X64366833Y22124365D01*
X64115690Y21987230D01*
X64115682Y21987225D01*
X63886612Y21815746D01*
X63886594Y21815730D01*
X63684270Y21613406D01*
X63684254Y21613388D01*
X63512775Y21384318D01*
X63512770Y21384310D01*
X63375635Y21133167D01*
X63275628Y20865038D01*
X63214804Y20585434D01*
X63194390Y20300002D01*
X63194390Y20299999D01*
X63214804Y20014567D01*
X63275628Y19734965D01*
X63275629Y19734962D01*
X63275631Y19734954D01*
X63369131Y19484271D01*
X63375635Y19466834D01*
X63512770Y19215691D01*
X63512775Y19215683D01*
X63684254Y18986613D01*
X63684270Y18986595D01*
X63886594Y18784271D01*
X63886612Y18784255D01*
X64061130Y18653613D01*
X64103002Y18597680D01*
X64107986Y18527988D01*
X64074501Y18466665D01*
X64013178Y18433180D01*
X63987965Y18430351D01*
X60827116Y18401174D01*
X60759897Y18420239D01*
X60713657Y18472619D01*
X60701986Y18527106D01*
X60706946Y18844505D01*
X60723438Y19900000D01*
X61800000Y19900000D01*
X61897614Y24780722D01*
X77880459Y24500000D01*
X88768656Y33673592D01*
X88832606Y33701733D01*
X88840889Y33702525D01*
X104755833Y34684929D01*
X104823958Y34669413D01*
G37*
%TD.AperFunction*%
%TD*%
%TA.AperFunction,Conductor*%
%TO.N,+15V*%
G36*
X61840290Y24880179D02*
G01*
X61886165Y24827480D01*
X61895432Y24782988D01*
X61897613Y24780723D01*
X61897614Y24780723D01*
X61800000Y19900000D01*
X57870640Y19900000D01*
X57803601Y19919685D01*
X57757846Y19972489D01*
X57747902Y20041647D01*
X57749474Y20050358D01*
X57785195Y20214567D01*
X57785195Y20214568D01*
X57785196Y20214572D01*
X57805610Y20500000D01*
X57785196Y20785428D01*
X57760831Y20897431D01*
X57724371Y21065038D01*
X57724370Y21065040D01*
X57724369Y21065046D01*
X57624367Y21333161D01*
X57507125Y21547872D01*
X57487229Y21584310D01*
X57487224Y21584318D01*
X57315745Y21813388D01*
X57315729Y21813406D01*
X57113405Y22015730D01*
X57113387Y22015746D01*
X56884317Y22187225D01*
X56884309Y22187230D01*
X56633166Y22324365D01*
X56633167Y22324365D01*
X56525915Y22364368D01*
X56365046Y22424369D01*
X56365043Y22424370D01*
X56365037Y22424372D01*
X56085433Y22485196D01*
X55800001Y22505610D01*
X55799999Y22505610D01*
X55514571Y22485196D01*
X55514564Y22485195D01*
X55403524Y22461040D01*
X55364961Y22458808D01*
X54905504Y22504253D01*
X54870257Y22513090D01*
X54733501Y22569736D01*
X54733489Y22569739D01*
X54578845Y22600500D01*
X54578842Y22600500D01*
X53938559Y22600500D01*
X53926352Y22601102D01*
X53919519Y22601778D01*
X53894472Y22603628D01*
X53893828Y22603659D01*
X53893295Y22603685D01*
X53893290Y22603685D01*
X53893287Y22603685D01*
X53893279Y22603685D01*
X53810679Y22601274D01*
X53799612Y22600500D01*
X52719644Y22600500D01*
X52652605Y22620185D01*
X52606850Y22672989D01*
X52599456Y22696512D01*
X52599366Y22696485D01*
X52598160Y22700633D01*
X52597663Y22702217D01*
X52597599Y22702567D01*
X52551745Y22860394D01*
X52551744Y22860397D01*
X52551744Y22860398D01*
X52468081Y23001865D01*
X52468079Y23001867D01*
X52468076Y23001871D01*
X52351870Y23118077D01*
X52351862Y23118083D01*
X52210396Y23201745D01*
X52210393Y23201746D01*
X52052573Y23247598D01*
X52052567Y23247599D01*
X52015701Y23250500D01*
X52015694Y23250500D01*
X51584306Y23250500D01*
X51584298Y23250500D01*
X51547432Y23247599D01*
X51547426Y23247598D01*
X51389606Y23201746D01*
X51389603Y23201745D01*
X51248137Y23118083D01*
X51241969Y23113298D01*
X51240072Y23115744D01*
X51191358Y23089143D01*
X51121666Y23094127D01*
X51089296Y23114931D01*
X51088031Y23113298D01*
X51081862Y23118083D01*
X50940396Y23201745D01*
X50940393Y23201746D01*
X50782573Y23247598D01*
X50782567Y23247599D01*
X50745701Y23250500D01*
X50745694Y23250500D01*
X50314306Y23250500D01*
X50314298Y23250500D01*
X50277432Y23247599D01*
X50277426Y23247598D01*
X50119606Y23201746D01*
X50119603Y23201745D01*
X49978137Y23118083D01*
X49971969Y23113298D01*
X49970072Y23115744D01*
X49921358Y23089143D01*
X49851666Y23094127D01*
X49819296Y23114931D01*
X49818031Y23113298D01*
X49811862Y23118083D01*
X49670396Y23201745D01*
X49670393Y23201746D01*
X49512573Y23247598D01*
X49512567Y23247599D01*
X49475701Y23250500D01*
X49475694Y23250500D01*
X49044306Y23250500D01*
X49044298Y23250500D01*
X49007432Y23247599D01*
X49007426Y23247598D01*
X48849606Y23201746D01*
X48849603Y23201745D01*
X48708137Y23118083D01*
X48708129Y23118077D01*
X48591923Y23001871D01*
X48591917Y23001863D01*
X48508255Y22860397D01*
X48508254Y22860394D01*
X48462402Y22702574D01*
X48462401Y22702568D01*
X48459500Y22665702D01*
X48459500Y22159901D01*
X48439815Y22092862D01*
X48438602Y22091010D01*
X48390609Y22019185D01*
X48390602Y22019172D01*
X48330264Y21873502D01*
X48330261Y21873490D01*
X48299500Y21718847D01*
X48299500Y20024000D01*
X48279815Y19956961D01*
X48227011Y19911206D01*
X48175500Y19900000D01*
X32288064Y19900000D01*
X32221025Y19919685D01*
X32175270Y19972489D01*
X32165326Y20041647D01*
X32194351Y20105203D01*
X32227335Y20132111D01*
X32232452Y20134985D01*
X32497036Y20283612D01*
X32557765Y20299500D01*
X35375835Y20299500D01*
X35442874Y20279815D01*
X35450146Y20274767D01*
X35474942Y20256205D01*
X35474945Y20256203D01*
X35609791Y20205909D01*
X35609790Y20205909D01*
X35616718Y20205165D01*
X35669401Y20199500D01*
X36565146Y20199501D01*
X36624757Y20205909D01*
X36759605Y20256204D01*
X36874820Y20342454D01*
X36961070Y20457669D01*
X37011365Y20592517D01*
X37017774Y20652127D01*
X37017773Y21547872D01*
X37011365Y21607483D01*
X36961070Y21742331D01*
X36961069Y21742332D01*
X36961067Y21742336D01*
X36874821Y21857545D01*
X36874818Y21857548D01*
X36759609Y21943794D01*
X36759602Y21943798D01*
X36624756Y21994092D01*
X36624757Y21994092D01*
X36565157Y22000499D01*
X36565155Y22000500D01*
X36565147Y22000500D01*
X36565138Y22000500D01*
X35669403Y22000500D01*
X35669397Y22000499D01*
X35609790Y21994092D01*
X35474945Y21943798D01*
X35474942Y21943796D01*
X35450146Y21925233D01*
X35384682Y21900816D01*
X35375835Y21900500D01*
X32530163Y21900500D01*
X32479362Y21911384D01*
X32407187Y21943798D01*
X31559798Y22324365D01*
X31299160Y22441419D01*
X31262279Y22466855D01*
X31213405Y22515730D01*
X31213387Y22515746D01*
X30984317Y22687225D01*
X30984309Y22687230D01*
X30733166Y22824365D01*
X30733167Y22824365D01*
X30625915Y22864368D01*
X30465046Y22924369D01*
X30465043Y22924370D01*
X30465037Y22924372D01*
X30185433Y22985196D01*
X29900001Y23005610D01*
X29899999Y23005610D01*
X29614566Y22985196D01*
X29334962Y22924372D01*
X29066833Y22824365D01*
X28815690Y22687230D01*
X28815682Y22687225D01*
X28586616Y22515749D01*
X28586597Y22515732D01*
X28481938Y22411074D01*
X28449561Y22387771D01*
X27297117Y21813515D01*
X27241814Y21800500D01*
X24997488Y21800500D01*
X24930449Y21820185D01*
X24909807Y21836819D01*
X24651367Y22095259D01*
X24617882Y22156582D01*
X24615048Y22182940D01*
X24615048Y22665687D01*
X24615047Y22665702D01*
X24613353Y22687225D01*
X24612146Y22702569D01*
X24566292Y22860398D01*
X24482629Y23001865D01*
X24482627Y23001867D01*
X24482624Y23001871D01*
X24366418Y23118077D01*
X24366410Y23118083D01*
X24224944Y23201745D01*
X24224941Y23201746D01*
X24067121Y23247598D01*
X24067115Y23247599D01*
X24030249Y23250500D01*
X24030242Y23250500D01*
X23598854Y23250500D01*
X23598846Y23250500D01*
X23561980Y23247599D01*
X23561974Y23247598D01*
X23404154Y23201746D01*
X23404151Y23201745D01*
X23262685Y23118083D01*
X23256517Y23113298D01*
X23254620Y23115744D01*
X23205906Y23089143D01*
X23136214Y23094127D01*
X23103844Y23114931D01*
X23102579Y23113298D01*
X23096410Y23118083D01*
X22954944Y23201745D01*
X22954941Y23201746D01*
X22797121Y23247598D01*
X22797115Y23247599D01*
X22760249Y23250500D01*
X22760242Y23250500D01*
X22328854Y23250500D01*
X22328846Y23250500D01*
X22291980Y23247599D01*
X22291974Y23247598D01*
X22134154Y23201746D01*
X22134151Y23201745D01*
X21992685Y23118083D01*
X21986517Y23113298D01*
X21984620Y23115744D01*
X21935906Y23089143D01*
X21866214Y23094127D01*
X21833844Y23114931D01*
X21832579Y23113298D01*
X21826410Y23118083D01*
X21684944Y23201745D01*
X21684941Y23201746D01*
X21527121Y23247598D01*
X21527115Y23247599D01*
X21490249Y23250500D01*
X21490242Y23250500D01*
X21058854Y23250500D01*
X21058846Y23250500D01*
X21021980Y23247599D01*
X21021974Y23247598D01*
X20864154Y23201746D01*
X20864151Y23201745D01*
X20722685Y23118083D01*
X20722677Y23118077D01*
X20606471Y23001871D01*
X20606465Y23001863D01*
X20522803Y22860397D01*
X20522802Y22860394D01*
X20476950Y22702574D01*
X20476949Y22702568D01*
X20474048Y22665702D01*
X20474048Y20024000D01*
X20454363Y19956961D01*
X20401559Y19911206D01*
X20350048Y19900000D01*
X18548234Y19900000D01*
X18481195Y19919685D01*
X18464444Y19932593D01*
X17342104Y20961405D01*
X17305987Y21021216D01*
X17301968Y21057085D01*
X17398615Y23859854D01*
X17420598Y23926174D01*
X17424647Y23931691D01*
X18062876Y24752270D01*
X18119571Y24793100D01*
X18160465Y24800139D01*
X61773207Y24899711D01*
X61840290Y24880179D01*
G37*
%TD.AperFunction*%
%TD*%
%TA.AperFunction,Conductor*%
%TO.N,+5V*%
G36*
X35635262Y11734750D02*
G01*
X37018914Y11191033D01*
X37025361Y11184818D01*
X37026320Y11180731D01*
X37100058Y9712214D01*
X37097051Y9703779D01*
X37088960Y9699942D01*
X37087786Y9699942D01*
X35619269Y9773680D01*
X35611178Y9777517D01*
X35608967Y9781086D01*
X35065251Y11164736D01*
X35065414Y11173686D01*
X35067864Y11177282D01*
X35622716Y11732134D01*
X35630988Y11735560D01*
X35635262Y11734750D01*
G37*
%TD.AperFunction*%
%TD*%
%TA.AperFunction,Conductor*%
%TO.N,+5V*%
G36*
X61004945Y12604775D02*
G01*
X61007588Y12601453D01*
X61485472Y11704521D01*
X61694965Y11311327D01*
X61695831Y11302414D01*
X61690141Y11295499D01*
X61689164Y11295036D01*
X60337805Y10728272D01*
X60328850Y10728232D01*
X60324618Y10731195D01*
X59447896Y11696655D01*
X59444858Y11704521D01*
X59444858Y12489084D01*
X59448285Y12497357D01*
X59455746Y12500756D01*
X60996456Y12607621D01*
X61004945Y12604775D01*
G37*
%TD.AperFunction*%
%TD*%
%TA.AperFunction,Conductor*%
%TO.N,+5V*%
G36*
X80223685Y8184586D02*
G01*
X80227284Y8182133D01*
X80782132Y7627285D01*
X80785559Y7619012D01*
X80784748Y7614733D01*
X80241031Y6231085D01*
X80234816Y6224638D01*
X80230729Y6223679D01*
X78762213Y6149942D01*
X78753778Y6152949D01*
X78749941Y6161040D01*
X78749941Y6162199D01*
X78823678Y7630732D01*
X78827515Y7638822D01*
X78831080Y7641032D01*
X80214735Y8184749D01*
X80223685Y8184586D01*
G37*
%TD.AperFunction*%
%TD*%
%TA.AperFunction,Conductor*%
%TO.N,GND*%
G36*
X29896221Y20997052D02*
G01*
X29900058Y20988961D01*
X29900058Y20987787D01*
X29826345Y19519772D01*
X29822508Y19511681D01*
X29818285Y19509235D01*
X28364247Y19035384D01*
X28355319Y19036079D01*
X28352349Y19038235D01*
X27938234Y19452350D01*
X27934807Y19460623D01*
X27935382Y19464243D01*
X28409234Y20918289D01*
X28415054Y20925091D01*
X28419768Y20926347D01*
X29887787Y21000059D01*
X29896221Y20997052D01*
G37*
%TD.AperFunction*%
%TD*%
%TA.AperFunction,Conductor*%
%TO.N,GND*%
G36*
X83096221Y20997052D02*
G01*
X83100058Y20988961D01*
X83100058Y20987787D01*
X83026345Y19519772D01*
X83022508Y19511681D01*
X83018285Y19509235D01*
X81564247Y19035384D01*
X81555319Y19036079D01*
X81552349Y19038235D01*
X81138234Y19452350D01*
X81134807Y19460623D01*
X81135382Y19464243D01*
X81609234Y20918289D01*
X81615054Y20925091D01*
X81619768Y20926347D01*
X83087787Y21000059D01*
X83096221Y20997052D01*
G37*
%TD.AperFunction*%
%TD*%
%TA.AperFunction,Conductor*%
%TO.N,GND*%
G36*
X82010721Y21994596D02*
G01*
X83091524Y21008644D01*
X83095327Y21000536D01*
X83092283Y20992115D01*
X83091524Y20991356D01*
X82010721Y20005405D01*
X82002300Y20002361D01*
X81997618Y20003577D01*
X81993949Y20005405D01*
X81710287Y20146752D01*
X80606482Y20696771D01*
X80600605Y20703528D01*
X80600000Y20707243D01*
X80600000Y21292758D01*
X80603427Y21301031D01*
X80606482Y21303230D01*
X81997620Y21996425D01*
X82006551Y21997047D01*
X82010721Y21994596D01*
G37*
%TD.AperFunction*%
%TD*%
%TA.AperFunction,Conductor*%
%TO.N,GND*%
G36*
X55796221Y20497052D02*
G01*
X55800058Y20488961D01*
X55800058Y20487787D01*
X55726345Y19019772D01*
X55722508Y19011681D01*
X55718285Y19009235D01*
X54264247Y18535384D01*
X54255319Y18536079D01*
X54252349Y18538235D01*
X53838234Y18952350D01*
X53834807Y18960623D01*
X53835382Y18964243D01*
X54309234Y20418289D01*
X54315054Y20425091D01*
X54319768Y20426347D01*
X55787787Y20500059D01*
X55796221Y20497052D01*
G37*
%TD.AperFunction*%
%TD*%
%TA.AperFunction,Conductor*%
%TO.N,GND*%
G36*
X66302377Y21296425D02*
G01*
X67693518Y20603230D01*
X67699395Y20596473D01*
X67700000Y20592758D01*
X67700000Y20007243D01*
X67696573Y19998970D01*
X67693518Y19996771D01*
X66302381Y19303577D01*
X66293448Y19302954D01*
X66289278Y19305405D01*
X65208474Y20291357D01*
X65204672Y20299464D01*
X65207716Y20307885D01*
X65208468Y20308638D01*
X66289279Y21294597D01*
X66297699Y21297640D01*
X66302377Y21296425D01*
G37*
%TD.AperFunction*%
%TD*%
%TA.AperFunction,Conductor*%
%TO.N,GND*%
G36*
X53869791Y22098730D02*
G01*
X55433487Y21944063D01*
X55441382Y21939839D01*
X55443688Y21935246D01*
X55797897Y20512463D01*
X55796571Y20503608D01*
X55789370Y20498284D01*
X55788303Y20498070D01*
X54344544Y20278548D01*
X54335849Y20280692D01*
X54331889Y20285853D01*
X53857748Y21497945D01*
X53856944Y21502207D01*
X53856944Y22087086D01*
X53860371Y22095359D01*
X53868644Y22098786D01*
X53869791Y22098730D01*
G37*
%TD.AperFunction*%
%TD*%
%TA.AperFunction,Conductor*%
%TO.N,GND*%
G36*
X30959344Y22039893D02*
G01*
X32377255Y21403102D01*
X32383398Y21396587D01*
X32384162Y21392429D01*
X32384162Y20806848D01*
X32380735Y20798575D01*
X32378192Y20796647D01*
X31047361Y20049074D01*
X31038470Y20048010D01*
X31034123Y20050301D01*
X29908853Y20991757D01*
X29904707Y20999694D01*
X29907387Y21008239D01*
X29908113Y21009029D01*
X30946318Y22037533D01*
X30954606Y22040920D01*
X30959344Y22039893D01*
G37*
%TD.AperFunction*%
%TD*%
%TA.AperFunction,Conductor*%
%TO.N,GND*%
G36*
X28810721Y21994596D02*
G01*
X29891524Y21008644D01*
X29895327Y21000536D01*
X29892283Y20992115D01*
X29891524Y20991356D01*
X28810721Y20005405D01*
X28802300Y20002361D01*
X28797618Y20003577D01*
X28793949Y20005405D01*
X28510287Y20146752D01*
X27406482Y20696771D01*
X27400605Y20703528D01*
X27400000Y20707243D01*
X27400000Y21292758D01*
X27403427Y21301031D01*
X27406482Y21303230D01*
X28797620Y21996425D01*
X28806551Y21997047D01*
X28810721Y21994596D01*
G37*
%TD.AperFunction*%
%TD*%
%TA.AperFunction,Conductor*%
%TO.N,GND*%
G36*
X9922175Y20951887D02*
G01*
X9929611Y20946898D01*
X9931571Y20940416D01*
X9931571Y20354814D01*
X9928183Y20346580D01*
X8927611Y19336516D01*
X8919354Y19333050D01*
X8914015Y19334311D01*
X7610464Y19994197D01*
X7604630Y20000991D01*
X7605309Y20009920D01*
X7605841Y20010861D01*
X8387877Y21252308D01*
X8395187Y21257481D01*
X8400078Y21257542D01*
X9922175Y20951887D01*
G37*
%TD.AperFunction*%
%TD*%
%TA.AperFunction,Conductor*%
%TO.N,Net-(SLM2003S1-HO)*%
G36*
X7580228Y34026347D02*
G01*
X7588319Y34022510D01*
X7590765Y34018287D01*
X8064616Y32564248D01*
X8063921Y32555320D01*
X8061765Y32552350D01*
X7647650Y32138235D01*
X7639377Y32134808D01*
X7635752Y32135384D01*
X6181713Y32609235D01*
X6174909Y32615056D01*
X6173653Y32619772D01*
X6103219Y34022510D01*
X6099941Y34087789D01*
X6102948Y34096222D01*
X6111039Y34100059D01*
X6112198Y34100059D01*
X7580228Y34026347D01*
G37*
%TD.AperFunction*%
%TD*%
%TA.AperFunction,Conductor*%
%TO.N,Net-(J7-Pin_1)*%
G36*
X13380228Y34026347D02*
G01*
X13388319Y34022510D01*
X13390765Y34018287D01*
X13864616Y32564248D01*
X13863921Y32555320D01*
X13861765Y32552350D01*
X13447650Y32138235D01*
X13439377Y32134808D01*
X13435752Y32135384D01*
X11981713Y32609235D01*
X11974909Y32615056D01*
X11973653Y32619772D01*
X11903219Y34022510D01*
X11899941Y34087789D01*
X11902948Y34096222D01*
X11911039Y34100059D01*
X11912198Y34100059D01*
X13380228Y34026347D01*
G37*
%TD.AperFunction*%
%TD*%
%TA.AperFunction,Conductor*%
%TO.N,Net-(SLM2003S1-LO)*%
G36*
X18995871Y34826935D02*
G01*
X20187176Y33800315D01*
X20191206Y33792318D01*
X20188401Y33783814D01*
X20187811Y33783179D01*
X19774136Y33369504D01*
X19770262Y33366935D01*
X18573358Y32881345D01*
X18564403Y32881411D01*
X18559409Y32885428D01*
X17706765Y34090150D01*
X17704783Y34098883D01*
X17709556Y34106459D01*
X17710532Y34107080D01*
X18982464Y34828251D01*
X18991349Y34829349D01*
X18995871Y34826935D01*
G37*
%TD.AperFunction*%
%TD*%
%TA.AperFunction,Conductor*%
%TO.N,Net-(SLM2003S2-HO)*%
G36*
X39180228Y34026347D02*
G01*
X39188319Y34022510D01*
X39190765Y34018287D01*
X39664616Y32564248D01*
X39663921Y32555320D01*
X39661765Y32552350D01*
X39247650Y32138235D01*
X39239377Y32134808D01*
X39235752Y32135384D01*
X37781713Y32609235D01*
X37774909Y32615056D01*
X37773653Y32619772D01*
X37703219Y34022510D01*
X37699941Y34087789D01*
X37702948Y34096222D01*
X37711039Y34100059D01*
X37712198Y34100059D01*
X39180228Y34026347D01*
G37*
%TD.AperFunction*%
%TD*%
%TA.AperFunction,Conductor*%
%TO.N,Net-(J8-Pin_1)*%
G36*
X45174282Y34923767D02*
G01*
X46634669Y34064234D01*
X46640059Y34057085D01*
X46638816Y34048217D01*
X46637006Y34045879D01*
X46224496Y33633369D01*
X46222132Y33631544D01*
X45035824Y32937327D01*
X45026953Y32936106D01*
X45021488Y32939309D01*
X44008225Y33991433D01*
X44004954Y33999769D01*
X44008536Y34007976D01*
X44009362Y34008700D01*
X45161078Y34922848D01*
X45169686Y34925306D01*
X45174282Y34923767D01*
G37*
%TD.AperFunction*%
%TD*%
%TA.AperFunction,Conductor*%
%TO.N,Net-(SLM2003S2-LO)*%
G36*
X51480228Y33726347D02*
G01*
X51488319Y33722510D01*
X51490765Y33718287D01*
X51964616Y32264248D01*
X51963921Y32255320D01*
X51961765Y32252350D01*
X51547650Y31838235D01*
X51539377Y31834808D01*
X51535752Y31835384D01*
X50081713Y32309235D01*
X50074909Y32315056D01*
X50073653Y32319772D01*
X50003219Y33722510D01*
X49999941Y33787789D01*
X50002948Y33796222D01*
X50011039Y33800059D01*
X50012198Y33800059D01*
X51480228Y33726347D01*
G37*
%TD.AperFunction*%
%TD*%
%TA.AperFunction,Conductor*%
%TO.N,Net-(J9-Pin_1)*%
G36*
X74264243Y35664618D02*
G01*
X75718286Y35190766D01*
X75725089Y35184946D01*
X75726345Y35180230D01*
X75800058Y33712214D01*
X75797051Y33703779D01*
X75788960Y33699942D01*
X75787786Y33699942D01*
X74319770Y33773655D01*
X74311679Y33777492D01*
X74309234Y33781713D01*
X73835383Y35235755D01*
X73836078Y35244681D01*
X73838231Y35247648D01*
X74252350Y35661767D01*
X74260622Y35665193D01*
X74264243Y35664618D01*
G37*
%TD.AperFunction*%
%TD*%
%TA.AperFunction,Conductor*%
%TO.N,Net-(SLM2003S3-LO)*%
G36*
X82196221Y34097052D02*
G01*
X82200058Y34088961D01*
X82200058Y34087787D01*
X82126345Y32619772D01*
X82122508Y32611681D01*
X82118285Y32609235D01*
X80664247Y32135384D01*
X80655319Y32136079D01*
X80652349Y32138235D01*
X80238234Y32552350D01*
X80234807Y32560623D01*
X80235382Y32564243D01*
X80709234Y34018289D01*
X80715054Y34025091D01*
X80719768Y34026347D01*
X82187787Y34100059D01*
X82196221Y34097052D01*
G37*
%TD.AperFunction*%
%TD*%
%TA.AperFunction,Conductor*%
%TO.N,Net-(J9-Pin_1)*%
G36*
X77280228Y33626347D02*
G01*
X77288319Y33622510D01*
X77290765Y33618287D01*
X77764616Y32164248D01*
X77763921Y32155320D01*
X77761765Y32152350D01*
X77347650Y31738235D01*
X77339377Y31734808D01*
X77335752Y31735384D01*
X75881713Y32209235D01*
X75874909Y32215056D01*
X75873653Y32219772D01*
X75803219Y33622510D01*
X75799941Y33687789D01*
X75802948Y33696222D01*
X75811039Y33700059D01*
X75812198Y33700059D01*
X77280228Y33626347D01*
G37*
%TD.AperFunction*%
%TD*%
%TA.AperFunction,Conductor*%
%TO.N,Net-(SLM2003S3-HO)*%
G36*
X71280228Y34026347D02*
G01*
X71288319Y34022510D01*
X71290765Y34018287D01*
X71764616Y32564248D01*
X71763921Y32555320D01*
X71761765Y32552350D01*
X71347650Y32138235D01*
X71339377Y32134808D01*
X71335752Y32135384D01*
X69881713Y32609235D01*
X69874909Y32615056D01*
X69873653Y32619772D01*
X69803219Y34022510D01*
X69799941Y34087789D01*
X69802948Y34096222D01*
X69811039Y34100059D01*
X69812198Y34100059D01*
X71280228Y34026347D01*
G37*
%TD.AperFunction*%
%TD*%
M02*
