M48
; DRILL file KiCad 10.0.5 date 2026-08-21T15:49:59
; FORMAT={-:-/ absolute / metric / decimal}
; #@! TF.CreationDate,2026-08-21T15:49:59+02:00
; #@! TF.GenerationSoftware,Kicad,Pcbnew,10.0.5
; #@! TF.FileFunction,MixedPlating,1,2
FMAT,2
METRIC
; #@! TA.AperFunction,Plated,PTH,ComponentDrill
T1C0.900
; #@! TA.AperFunction,Plated,PTH,ComponentDrill
T2C1.190
; #@! TA.AperFunction,Plated,PTH,ComponentDrill
T3C1.200
; #@! TA.AperFunction,Plated,PTH,ComponentDrill
T4C3.000
; #@! TA.AperFunction,NonPlated,NPTH,ComponentDrill
T5C0.500
; #@! TA.AperFunction,NonPlated,NPTH,ComponentDrill
T6C2.000
%
G90
G05
T1
X16.987Y-15.735
X16.987Y-18.275
X16.987Y-37.735
X16.987Y-40.275
X16.987Y-59.735
X16.987Y-62.275
X16.987Y-81.735
X16.987Y-84.275
X16.987Y-103.735
X16.987Y-106.275
X16.987Y-125.735
X16.987Y-128.275
X16.987Y-147.735
X16.987Y-150.275
X16.987Y-169.735
X16.987Y-172.275
X31.491Y-15.725
X31.491Y-18.265
X31.491Y-37.725
X31.491Y-40.265
X31.491Y-59.725
X31.491Y-62.265
X31.491Y-81.725
X31.491Y-84.265
X31.491Y-103.725
X31.491Y-106.265
X31.491Y-125.725
X31.491Y-128.265
X31.491Y-147.725
X31.491Y-150.265
X31.491Y-169.725
X31.491Y-172.265
X45.996Y-15.725
X45.996Y-18.265
X45.996Y-37.725
X45.996Y-40.265
X45.996Y-59.725
X45.996Y-62.265
X45.996Y-81.725
X45.996Y-84.265
X45.996Y-103.725
X45.996Y-106.265
X45.996Y-125.725
X45.996Y-128.265
X45.996Y-147.725
X45.996Y-150.265
X45.996Y-169.725
X45.996Y-172.265
X60.5Y-15.725
X60.5Y-18.265
X60.5Y-37.725
X60.5Y-40.265
X60.5Y-59.725
X60.5Y-62.265
X60.5Y-81.725
X60.5Y-84.265
X60.5Y-103.725
X60.5Y-106.265
X60.5Y-125.725
X60.5Y-128.265
X60.5Y-147.725
X60.5Y-150.265
X60.5Y-169.725
X60.5Y-172.265
X75.004Y-15.725
X75.004Y-18.265
X75.004Y-37.725
X75.004Y-40.265
X75.004Y-59.725
X75.004Y-62.265
X75.004Y-81.725
X75.004Y-84.265
X75.004Y-103.725
X75.004Y-106.265
X75.004Y-125.725
X75.004Y-128.265
X75.004Y-147.725
X75.004Y-150.265
X75.004Y-169.725
X75.004Y-172.265
X89.509Y-15.735
X89.509Y-18.275
X89.509Y-37.735
X89.509Y-40.275
X89.509Y-59.735
X89.509Y-62.275
X89.509Y-81.735
X89.509Y-84.275
X89.509Y-103.735
X89.509Y-106.275
X89.509Y-125.735
X89.509Y-128.275
X89.509Y-147.735
X89.509Y-150.275
X89.509Y-169.735
X89.509Y-172.275
X118.987Y-15.735
X118.987Y-18.275
X118.987Y-37.735
X118.987Y-40.275
X118.987Y-59.735
X118.987Y-62.275
X118.987Y-81.735
X118.987Y-84.275
X118.987Y-103.735
X118.987Y-106.275
X118.987Y-125.735
X118.987Y-128.275
X118.987Y-147.735
X118.987Y-150.275
X118.987Y-169.735
X118.987Y-172.275
X133.491Y-15.725
X133.491Y-18.265
X133.491Y-37.725
X133.491Y-40.265
X133.491Y-59.725
X133.491Y-62.265
X133.491Y-81.725
X133.491Y-84.265
X133.491Y-103.725
X133.491Y-106.265
X133.491Y-125.725
X133.491Y-128.265
X133.491Y-147.725
X133.491Y-150.265
X133.491Y-169.725
X133.491Y-172.265
X147.996Y-15.725
X147.996Y-18.265
X147.996Y-37.725
X147.996Y-40.265
X147.996Y-59.725
X147.996Y-62.265
X147.996Y-81.725
X147.996Y-84.265
X147.996Y-103.725
X147.996Y-106.265
X147.996Y-125.725
X147.996Y-128.265
X147.996Y-147.725
X147.996Y-150.265
X147.996Y-169.725
X147.996Y-172.265
X162.5Y-15.725
X162.5Y-18.265
X162.5Y-37.725
X162.5Y-40.265
X162.5Y-59.725
X162.5Y-62.265
X162.5Y-81.725
X162.5Y-84.265
X162.5Y-103.725
X162.5Y-106.265
X162.5Y-125.725
X162.5Y-128.265
X162.5Y-147.725
X162.5Y-150.265
X162.5Y-169.725
X162.5Y-172.265
X177.004Y-15.725
X177.004Y-18.265
X177.004Y-37.725
X177.004Y-40.265
X177.004Y-59.725
X177.004Y-62.265
X177.004Y-81.725
X177.004Y-84.265
X177.004Y-103.725
X177.004Y-106.265
X177.004Y-125.725
X177.004Y-128.265
X177.004Y-147.725
X177.004Y-150.265
X177.004Y-169.725
X177.004Y-172.265
X191.509Y-15.735
X191.509Y-18.275
X191.509Y-37.735
X191.509Y-40.275
X191.509Y-59.735
X191.509Y-62.275
X191.509Y-81.735
X191.509Y-84.275
X191.509Y-103.735
X191.509Y-106.275
X191.509Y-125.735
X191.509Y-128.275
X191.509Y-147.735
X191.509Y-150.275
X191.509Y-169.735
X191.509Y-172.275
T2
X102.0Y-15.5
X102.0Y-18.04
X102.0Y-37.5
X102.0Y-40.04
X102.0Y-59.5
X102.0Y-62.04
X102.0Y-81.5
X102.0Y-84.04
X102.0Y-103.5
X102.0Y-106.04
X102.0Y-125.5
X102.0Y-128.04
X102.0Y-147.5
X102.0Y-150.04
X102.0Y-169.5
X102.0Y-172.04
X204.0Y-15.5
X204.0Y-18.04
X204.0Y-37.5
X204.0Y-40.04
X204.0Y-59.5
X204.0Y-62.04
X204.0Y-81.5
X204.0Y-84.04
X204.0Y-103.5
X204.0Y-106.04
X204.0Y-125.5
X204.0Y-128.04
X204.0Y-147.5
X204.0Y-150.04
X204.0Y-169.5
X204.0Y-172.04
T3
X17.38Y-10.725
X17.38Y-32.725
X17.38Y-54.725
X17.38Y-76.725
X17.38Y-98.725
X17.38Y-120.725
X17.38Y-142.725
X17.38Y-164.725
X32.62Y-10.725
X32.62Y-32.725
X32.62Y-54.725
X32.62Y-76.725
X32.62Y-98.725
X32.62Y-120.725
X32.62Y-142.725
X32.62Y-164.725
X45.38Y-23.5
X45.38Y-45.5
X45.38Y-67.5
X45.38Y-89.5
X45.38Y-111.5
X45.38Y-133.5
X45.38Y-155.5
X45.38Y-177.5
X60.62Y-23.5
X60.62Y-45.5
X60.62Y-67.5
X60.62Y-89.5
X60.62Y-111.5
X60.62Y-133.5
X60.62Y-155.5
X60.62Y-177.5
X73.88Y-10.725
X73.88Y-32.725
X73.88Y-54.725
X73.88Y-76.725
X73.88Y-98.725
X73.88Y-120.725
X73.88Y-142.725
X73.88Y-164.725
X89.12Y-10.725
X89.12Y-32.725
X89.12Y-54.725
X89.12Y-76.725
X89.12Y-98.725
X89.12Y-120.725
X89.12Y-142.725
X89.12Y-164.725
X119.38Y-10.725
X119.38Y-32.725
X119.38Y-54.725
X119.38Y-76.725
X119.38Y-98.725
X119.38Y-120.725
X119.38Y-142.725
X119.38Y-164.725
X134.62Y-10.725
X134.62Y-32.725
X134.62Y-54.725
X134.62Y-76.725
X134.62Y-98.725
X134.62Y-120.725
X134.62Y-142.725
X134.62Y-164.725
X147.38Y-23.5
X147.38Y-45.5
X147.38Y-67.5
X147.38Y-89.5
X147.38Y-111.5
X147.38Y-133.5
X147.38Y-155.5
X147.38Y-177.5
X162.62Y-23.5
X162.62Y-45.5
X162.62Y-67.5
X162.62Y-89.5
X162.62Y-111.5
X162.62Y-133.5
X162.62Y-155.5
X162.62Y-177.5
X175.88Y-10.725
X175.88Y-32.725
X175.88Y-54.725
X175.88Y-76.725
X175.88Y-98.725
X175.88Y-120.725
X175.88Y-142.725
X175.88Y-164.725
X191.12Y-10.725
X191.12Y-32.725
X191.12Y-54.725
X191.12Y-76.725
X191.12Y-98.725
X191.12Y-120.725
X191.12Y-142.725
X191.12Y-164.725
T4
X10.75Y-10.25
X10.75Y-23.75
X10.75Y-32.25
X10.75Y-45.75
X10.75Y-54.25
X10.75Y-67.75
X10.75Y-76.25
X10.75Y-89.75
X10.75Y-98.25
X10.75Y-111.75
X10.75Y-120.25
X10.75Y-133.75
X10.75Y-142.25
X10.75Y-155.75
X10.75Y-164.25
X10.75Y-177.75
X102.75Y-10.25
X102.75Y-23.75
X102.75Y-32.25
X102.75Y-45.75
X102.75Y-54.25
X102.75Y-67.75
X102.75Y-76.25
X102.75Y-89.75
X102.75Y-98.25
X102.75Y-111.75
X102.75Y-120.25
X102.75Y-133.75
X102.75Y-142.25
X102.75Y-155.75
X102.75Y-164.25
X102.75Y-177.75
X112.75Y-10.25
X112.75Y-23.75
X112.75Y-32.25
X112.75Y-45.75
X112.75Y-54.25
X112.75Y-67.75
X112.75Y-76.25
X112.75Y-89.75
X112.75Y-98.25
X112.75Y-111.75
X112.75Y-120.25
X112.75Y-133.75
X112.75Y-142.25
X112.75Y-155.75
X112.75Y-164.25
X112.75Y-177.75
X204.75Y-10.25
X204.75Y-23.75
X204.75Y-32.25
X204.75Y-45.75
X204.75Y-54.25
X204.75Y-67.75
X204.75Y-76.25
X204.75Y-89.75
X204.75Y-98.25
X204.75Y-111.75
X204.75Y-120.25
X204.75Y-133.75
X204.75Y-142.25
X204.75Y-155.75
X204.75Y-164.25
X204.75Y-177.75
T5
X0.0Y-7.0
X0.0Y-181.0
X0.833Y-7.0
X0.833Y-181.0
X1.667Y-7.0
X1.667Y-181.0
X2.5Y-7.0
X2.5Y-181.0
X3.333Y-7.0
X3.333Y-181.0
X4.167Y-7.0
X4.167Y-181.0
X5.0Y-7.0
X5.0Y-181.0
X7.0Y0.0
X7.0Y-0.833
X7.0Y-1.667
X7.0Y-2.5
X7.0Y-3.333
X7.0Y-4.167
X7.0Y-5.0
X7.0Y-183.0
X7.0Y-183.833
X7.0Y-184.667
X7.0Y-185.5
X7.0Y-186.333
X7.0Y-187.167
X7.0Y-188.0
X7.1Y-15.5
X7.1Y-16.5
X7.1Y-17.5
X7.1Y-18.5
X7.1Y-37.5
X7.1Y-38.5
X7.1Y-39.5
X7.1Y-40.5
X7.1Y-59.5
X7.1Y-60.5
X7.1Y-61.5
X7.1Y-62.5
X7.1Y-81.5
X7.1Y-82.5
X7.1Y-83.5
X7.1Y-84.5
X7.1Y-103.5
X7.1Y-104.5
X7.1Y-105.5
X7.1Y-106.5
X7.1Y-125.5
X7.1Y-126.5
X7.1Y-127.5
X7.1Y-128.5
X7.1Y-147.5
X7.1Y-148.5
X7.1Y-149.5
X7.1Y-150.5
X7.1Y-169.5
X7.1Y-170.5
X7.1Y-171.5
X7.1Y-172.5
X55.5Y-7.1
X55.5Y-26.9
X55.5Y-29.1
X55.5Y-48.9
X55.5Y-51.1
X55.5Y-70.9
X55.5Y-73.1
X55.5Y-92.9
X55.5Y-95.1
X55.5Y-114.9
X55.5Y-117.1
X55.5Y-136.9
X55.5Y-139.1
X55.5Y-158.9
X55.5Y-161.1
X55.5Y-180.9
X56.5Y-7.1
X56.5Y-26.9
X56.5Y-29.1
X56.5Y-48.9
X56.5Y-51.1
X56.5Y-70.9
X56.5Y-73.1
X56.5Y-92.9
X56.5Y-95.1
X56.5Y-114.9
X56.5Y-117.1
X56.5Y-136.9
X56.5Y-139.1
X56.5Y-158.9
X56.5Y-161.1
X56.5Y-180.9
X57.5Y-7.1
X57.5Y-26.9
X57.5Y-29.1
X57.5Y-48.9
X57.5Y-51.1
X57.5Y-70.9
X57.5Y-73.1
X57.5Y-92.9
X57.5Y-95.1
X57.5Y-114.9
X57.5Y-117.1
X57.5Y-136.9
X57.5Y-139.1
X57.5Y-158.9
X57.5Y-161.1
X57.5Y-180.9
X58.5Y-7.1
X58.5Y-26.9
X58.5Y-29.1
X58.5Y-48.9
X58.5Y-51.1
X58.5Y-70.9
X58.5Y-73.1
X58.5Y-92.9
X58.5Y-95.1
X58.5Y-114.9
X58.5Y-117.1
X58.5Y-136.9
X58.5Y-139.1
X58.5Y-158.9
X58.5Y-161.1
X58.5Y-180.9
X106.9Y-15.5
X106.9Y-16.5
X106.9Y-17.5
X106.9Y-18.5
X106.9Y-37.5
X106.9Y-38.5
X106.9Y-39.5
X106.9Y-40.5
X106.9Y-59.5
X106.9Y-60.5
X106.9Y-61.5
X106.9Y-62.5
X106.9Y-81.5
X106.9Y-82.5
X106.9Y-83.5
X106.9Y-84.5
X106.9Y-103.5
X106.9Y-104.5
X106.9Y-105.5
X106.9Y-106.5
X106.9Y-125.5
X106.9Y-126.5
X106.9Y-127.5
X106.9Y-128.5
X106.9Y-147.5
X106.9Y-148.5
X106.9Y-149.5
X106.9Y-150.5
X106.9Y-169.5
X106.9Y-170.5
X106.9Y-171.5
X106.9Y-172.5
X109.1Y-15.5
X109.1Y-16.5
X109.1Y-17.5
X109.1Y-18.5
X109.1Y-37.5
X109.1Y-38.5
X109.1Y-39.5
X109.1Y-40.5
X109.1Y-59.5
X109.1Y-60.5
X109.1Y-61.5
X109.1Y-62.5
X109.1Y-81.5
X109.1Y-82.5
X109.1Y-83.5
X109.1Y-84.5
X109.1Y-103.5
X109.1Y-104.5
X109.1Y-105.5
X109.1Y-106.5
X109.1Y-125.5
X109.1Y-126.5
X109.1Y-127.5
X109.1Y-128.5
X109.1Y-147.5
X109.1Y-148.5
X109.1Y-149.5
X109.1Y-150.5
X109.1Y-169.5
X109.1Y-170.5
X109.1Y-171.5
X109.1Y-172.5
X157.5Y-7.1
X157.5Y-26.9
X157.5Y-29.1
X157.5Y-48.9
X157.5Y-51.1
X157.5Y-70.9
X157.5Y-73.1
X157.5Y-92.9
X157.5Y-95.1
X157.5Y-114.9
X157.5Y-117.1
X157.5Y-136.9
X157.5Y-139.1
X157.5Y-158.9
X157.5Y-161.1
X157.5Y-180.9
X158.5Y-7.1
X158.5Y-26.9
X158.5Y-29.1
X158.5Y-48.9
X158.5Y-51.1
X158.5Y-70.9
X158.5Y-73.1
X158.5Y-92.9
X158.5Y-95.1
X158.5Y-114.9
X158.5Y-117.1
X158.5Y-136.9
X158.5Y-139.1
X158.5Y-158.9
X158.5Y-161.1
X158.5Y-180.9
X159.5Y-7.1
X159.5Y-26.9
X159.5Y-29.1
X159.5Y-48.9
X159.5Y-51.1
X159.5Y-70.9
X159.5Y-73.1
X159.5Y-92.9
X159.5Y-95.1
X159.5Y-114.9
X159.5Y-117.1
X159.5Y-136.9
X159.5Y-139.1
X159.5Y-158.9
X159.5Y-161.1
X159.5Y-180.9
X160.5Y-7.1
X160.5Y-26.9
X160.5Y-29.1
X160.5Y-48.9
X160.5Y-51.1
X160.5Y-70.9
X160.5Y-73.1
X160.5Y-92.9
X160.5Y-95.1
X160.5Y-114.9
X160.5Y-117.1
X160.5Y-136.9
X160.5Y-139.1
X160.5Y-158.9
X160.5Y-161.1
X160.5Y-180.9
X208.9Y-15.5
X208.9Y-16.5
X208.9Y-17.5
X208.9Y-18.5
X208.9Y-37.5
X208.9Y-38.5
X208.9Y-39.5
X208.9Y-40.5
X208.9Y-59.5
X208.9Y-60.5
X208.9Y-61.5
X208.9Y-62.5
X208.9Y-81.5
X208.9Y-82.5
X208.9Y-83.5
X208.9Y-84.5
X208.9Y-103.5
X208.9Y-104.5
X208.9Y-105.5
X208.9Y-106.5
X208.9Y-125.5
X208.9Y-126.5
X208.9Y-127.5
X208.9Y-128.5
X208.9Y-147.5
X208.9Y-148.5
X208.9Y-149.5
X208.9Y-150.5
X208.9Y-169.5
X208.9Y-170.5
X208.9Y-171.5
X208.9Y-172.5
X209.0Y0.0
X209.0Y-0.833
X209.0Y-1.667
X209.0Y-2.5
X209.0Y-3.333
X209.0Y-4.167
X209.0Y-5.0
X209.0Y-183.0
X209.0Y-183.833
X209.0Y-184.667
X209.0Y-185.5
X209.0Y-186.333
X209.0Y-187.167
X209.0Y-188.0
X211.0Y-7.0
X211.0Y-181.0
X211.833Y-7.0
X211.833Y-181.0
X212.667Y-7.0
X212.667Y-181.0
X213.5Y-7.0
X213.5Y-181.0
X214.333Y-7.0
X214.333Y-181.0
X215.167Y-7.0
X215.167Y-181.0
X216.0Y-7.0
X216.0Y-181.0
T6
X1.0Y-1.0
X1.0Y-187.0
X215.0Y-1.0
M30
